<?xml version="1.0" encoding="UTF-8"?>
<svg width="280px" height="61px" viewBox="0 0 280 61" version="1.1" xmlns="http://www.w3.org/2000/svg" xmlns:xlink="http://www.w3.org/1999/xlink">
    <!-- Generator: Sketch 47.1 (45422) - http://www.bohemiancoding.com/sketch -->
    <title>logo_quotation</title>
    <desc>Created with Sketch.</desc>
    <defs></defs>
    <g id="test-B" stroke="none" stroke-width="1" fill="none" fill-rule="evenodd">
        <g id="desktop-copy" transform="translate(-580.000000, -48.000000)" fill="#00C752">
            <path d="M598.610261,91.1059709 C599.92557,90.3821761 601.239632,89.3189466 602.55619,87.9162823 L602.55619,67.5963685 C599.881893,65.1853833 597.054102,63.9798906 594.072816,63.9798906 C591.792863,63.9798906 589.852344,64.6050995 588.252508,65.8542695 C586.652672,67.1034394 585.435948,68.7793986 584.603584,70.884643 C583.769972,72.9886395 583.353166,75.3135181 583.353166,77.8555352 C583.353166,82.0210988 584.231703,85.4503884 585.985034,88.1471478 C587.737116,90.8426593 590.324059,92.1904151 593.744613,92.1904151 C595.672652,92.1904151 597.294951,91.8285177 598.610261,91.1059709 L598.610261,91.1059709 Z M605.778324,107.710821 L602.55619,108.433368 L602.55619,91.4678682 C599.969248,93.7465738 597.031639,94.8859266 593.744613,94.8859266 C589.183458,94.8859266 585.754168,93.3534784 583.453,90.2835903 C581.151832,87.216198 580,83.0943117 580,77.9216751 C580,72.9674248 581.226707,68.9566035 583.682618,65.8867154 C586.13728,62.8193232 589.643941,61.2843791 594.205096,61.2843791 C595.738792,61.2843791 597.304934,61.6238139 598.906018,62.3026835 C600.507102,62.982801 601.91975,63.8051816 603.147705,64.7698252 L604.002531,62.1379578 L605.778324,62.1379578 L605.778324,107.710821 Z M635.829783,85.7462707 L635.829783,62.1380826 L639.051918,62.1380826 L639.051918,94.0324727 L636.55233,94.0324727 L635.895923,89.0345452 C634.492011,90.6568437 632.738681,92.0370455 630.634684,93.1776462 C628.52944,94.3169989 626.512798,94.8860514 624.584758,94.8860514 C621.340161,94.8860514 618.951639,93.9338869 617.416695,92.0258142 C615.88175,90.1189894 615.114278,87.5445263 615.114278,84.2999291 L615.114278,62.1380826 L618.336413,62.1380826 L618.336413,84.2999291 C618.336413,86.7558396 618.775682,88.6838791 619.652971,90.0865434 C620.529012,91.4904556 622.085171,92.1905399 624.321447,92.1905399 C627.78443,92.1905399 631.620543,90.0428661 635.829783,85.7462707 M668.874134,87.7851257 C670.823388,85.3304631 671.821725,82.1732205 671.865403,78.3158936 C671.865403,74.2389325 670.944436,70.9506581 669.104999,68.4523182 C667.263066,65.9527305 664.609984,64.7035606 661.147001,64.7035606 C657.726447,64.7035606 655.042166,65.9302679 653.091664,68.3861784 C651.139914,70.8420888 650.141577,73.9980835 650.099147,77.8554104 C650.099147,81.9323715 651.020114,85.2193981 652.860799,87.7189858 C654.702732,90.2173256 657.354566,91.4677434 660.818797,91.4677434 C664.236856,91.4677434 666.923632,90.2410361 668.874134,87.7851257 M674.100431,86.8304653 C672.830046,89.3525157 671.010576,91.3254803 668.643268,92.7506072 C666.27596,94.1732383 663.514309,94.8858018 660.358314,94.8858018 C657.375781,94.8858018 654.801317,94.1632549 652.631181,92.7169134 C650.461045,91.2705718 648.8063,89.2651611 647.666947,86.6994335 C646.526347,84.1349538 645.957294,81.2085768 645.957294,77.9215503 C645.999724,74.7643076 646.636164,71.926533 647.862871,69.4044827 C649.089579,66.8849282 650.856636,64.9007323 653.156556,63.4543907 C655.458972,62.0068012 658.143253,61.2842543 661.211893,61.2842543 C665.902831,61.2842543 669.541772,62.7867524 672.128714,65.7880048 C674.715657,68.791753 676.008504,72.9448374 676.008504,78.2497538 C676.008504,81.4506737 675.372063,84.3109108 674.100431,86.8304653 M688.305901,62.7962366 L694.092516,62.7962366 L695.473965,65.8873394 L688.305901,65.8873394 L688.305901,85.9439416 C688.305901,87.6099174 688.667799,88.9252272 689.390346,89.8898709 C690.11414,90.8532667 691.24351,91.3362125 692.777206,91.3362125 C693.653247,91.3362125 694.552999,91.1390408 695.473965,90.7446974 L696.262652,94.0978638 C696.13162,94.1402932 695.692352,94.2838042 694.947342,94.5259011 C694.202333,94.7655021 693.194012,94.8865505 691.922379,94.8865505 C689.555071,94.8865505 687.669461,94.1527724 686.266797,92.6839682 C684.862885,91.215164 684.1628,89.1236468 684.1628,86.4044248 L684.1628,65.8873394 L679.493076,65.8873394 L679.428184,62.7962366 L684.1628,62.7962366 L684.1628,54.5100346 L688.305901,53.063693 L688.305901,62.7962366 Z M706.651727,84.8261778 C706.651727,86.1851649 707.110963,87.3569636 708.031929,88.342822 C708.952895,89.3299283 710.266957,89.8241054 711.977858,89.8241054 C713.511554,89.8241054 715.002821,89.4397454 716.450411,88.6722734 C717.896752,87.9060493 719.188352,86.886497 720.328952,85.6148645 L720.328952,79.1705954 L712.569373,79.1705954 C710.728688,79.1705954 709.281099,79.7184331 708.230349,80.8141086 C707.177102,81.9110321 706.651727,83.2475565 706.651727,84.8261778 M704.678763,69.1086004 L702.90297,64.1106729 C704.042322,63.3232341 705.763207,62.6543479 708.065623,62.1052622 C710.366791,61.5574245 712.262385,61.2841296 713.752403,61.2841296 C716.163389,61.2841296 718.357235,61.7770587 720.328952,62.7629171 C722.301917,63.7487755 723.846844,65.0977791 724.96623,66.8086802 C726.083121,68.5183333 726.643437,70.3814808 726.643437,72.3968748 L726.643437,94.0320983 L722.235777,94.0320983 L721.44709,91.0071354 C720.262812,92.0591337 718.816471,92.9588854 717.106818,93.7026469 C715.397165,94.4476564 713.731189,94.822033 712.10889,94.822033 C708.46995,94.822033 705.708298,93.9110499 703.822688,92.0915796 C701.938326,90.2733573 700.996145,87.8511407 700.996145,84.8261778 C700.996145,81.7138604 702.058126,79.2916438 704.184585,77.5595281 C706.312292,75.8274124 709.150067,74.9626025 712.701653,74.9626025 L720.262812,74.9626025 C720.262812,72.3744123 719.791098,70.3914642 718.848917,69.0100146 C717.906736,67.6298129 716.251991,66.9384641 713.884683,66.9384641 C710.992,66.9384641 707.92336,67.6622588 704.678763,69.1086004 M742.16272,62.5329251 L747.949334,62.5329251 L749.922299,67.333681 L742.16272,67.333681 L742.16272,84.1681486 C742.16272,85.8778017 742.534601,87.2255574 743.280858,88.2126637 C744.02462,89.1985221 745.163972,89.6926992 746.700164,89.6926992 C747.490099,89.6926992 748.518387,89.4506023 749.790019,88.9689045 L751.43478,93.7684124 C750.777126,94.1203264 749.93353,94.4360507 748.902747,94.7230727 C747.871963,95.006351 746.919799,95.1498621 746.041262,95.1498621 C742.885267,95.1498621 740.396911,94.2838042 738.578688,92.5529364 C736.759218,90.8208207 735.849483,88.3549268 735.849483,85.1540069 L735.849483,67.333681 L731.37693,67.333681 L731.312038,62.5329251 L735.849483,62.5329251 L735.849483,54.5761745 L742.16272,53.1298329 L742.16272,62.5329251 Z M756.364946,94.0320983 L764.914459,94.0320983 L764.914459,62.1377082 L756.364946,62.1377082 L756.364946,94.0320983 Z M760.572939,57.6015118 C759.258877,57.6015118 758.140739,57.1397806 757.219772,56.2200621 C756.298806,55.3003436 755.838323,54.1609909 755.838323,52.8007559 C755.838323,51.4417688 756.298806,50.3024161 757.219772,49.3814496 C758.140739,48.4604832 759.258877,48 760.572939,48 C761.931926,48 763.08251,48.4604832 764.025939,49.3814496 C764.96812,50.3024161 765.439835,51.4417688 765.439835,52.8007559 C765.439835,54.1609909 764.96812,55.3003436 764.025939,56.2200621 C763.08251,57.1397806 761.931926,57.6015118 760.572939,57.6015118 L760.572939,57.6015118 Z M793.09104,84.8261778 C794.647199,83.0291702 795.425902,80.7479688 795.425902,77.9875653 C795.425902,75.2246661 794.65843,72.9671752 793.123486,71.2138448 C791.588542,69.4605144 789.616826,68.5819773 787.20584,68.5819773 C784.838532,68.5819773 782.875551,69.4817291 781.319392,71.2799847 C779.763234,73.0769923 778.985778,75.3556979 778.985778,78.1185972 C778.985778,80.8802485 779.75325,83.1377394 781.286946,84.8923177 C782.82189,86.6456481 784.794855,87.5216893 787.20584,87.5216893 C789.573148,87.5216893 791.534882,86.6231855 793.09104,84.8261778 M802.133483,86.8640344 C800.729571,89.4072995 798.746623,91.3690328 796.182143,92.7504825 C793.617663,94.1306842 790.625147,94.822033 787.20584,94.822033 C783.786534,94.822033 780.794017,94.1406675 778.229537,92.7829284 C775.665058,91.4239414 773.680862,89.4834227 772.278197,86.9626203 C770.874285,84.4418179 770.174201,81.4942261 770.174201,78.1185972 C770.174201,74.7429682 770.874285,71.7841452 772.278197,69.2408801 C773.680862,66.6988631 775.665058,64.7358818 778.229537,63.3556801 C780.794017,61.9742304 783.786534,61.2841296 787.20584,61.2841296 C790.625147,61.2841296 793.617663,61.964247 796.182143,63.3232341 C798.746623,64.6809732 800.729571,66.6214919 802.133483,69.1422943 C803.534899,71.6630967 804.23748,74.6106885 804.23748,77.9875653 C804.23748,81.3631943 803.534899,84.3220174 802.133483,86.8640344 M821.137588,72.5942961 L821.137588,94.0323479 L809.168768,94.0323479 L809.168768,62.1379578 L816.27194,62.1379578 L818.374689,65.4262322 C823.02195,62.5323011 827.360975,61.0859595 831.395507,61.0859595 C835.254081,61.0859595 838.146765,62.2165769 840.076052,64.4728198 C842.005339,66.7315586 842.968735,69.7228276 842.968735,73.4503706 L842.968735,94.0323479 L831.001163,94.0323479 L831.001163,74.5672608 C831.001163,73.4715853 830.737852,72.5618501 830.211229,71.8380554 C829.687101,71.1142606 828.807316,70.7523633 827.581857,70.7523633 C826.880525,70.7523633 825.894666,70.9407995 824.623034,71.3126802 C823.350154,71.684561 822.189586,72.1125982 821.137588,72.5942961 M854.016214,94.0320983 C852.306561,94.0320983 850.870203,93.4630459 849.709635,92.3224452 C848.546572,91.1830924 847.966288,89.7579655 847.966288,88.0483124 C847.966288,86.3386593 848.546572,84.903549 849.709635,83.7404857 C850.870203,82.5799183 852.306561,81.9971387 854.016214,81.9971387 C855.68219,81.9971387 857.096086,82.5799183 858.257901,83.7404857 C859.418468,84.903549 860,86.3386593 860,88.0483124 C860,89.7579655 859.418468,91.1830924 858.257901,92.3224452 C857.096086,93.4630459 855.68219,94.0320983 854.016214,94.0320983" id="logo_quotation"></path>
        </g>
    </g>
</svg>