<?xml version="1.0" encoding="UTF-8"?>
<svg width="96px" height="96px" viewBox="0 0 96 96" version="1.1" xmlns="http://www.w3.org/2000/svg" xmlns:xlink="http://www.w3.org/1999/xlink">
    <title>abkhazia</title>
    <desc>designed by Freepik from Flaticon</desc>
    <defs>
        <polygon id="path-1" points="0.0140487805 0.0934306569 0.0140487805 95.7668905 95.9068098 95.7668905 95.9068098 0.0934306569"></polygon>
    </defs>
    <g id="Page-1" stroke="none" stroke-width="1" fill="none" fill-rule="evenodd">
        <g id="abkhazia">
            <g id="Group-3">
                <mask id="mask-2" fill="white">
                    <use xlink:href="#path-1"></use>
                </mask>
                <g id="Clip-2"></g>
                <path d="M95.9068098,47.9301606 C95.9068098,74.3488467 74.4365268,95.7668905 47.9534049,95.7668905 C21.4691122,95.7668905 0,74.3488467 0,47.9301606 C0,21.5103066 21.4691122,0.0934306569 47.9534049,0.0934306569 C74.4365268,0.0934306569 95.9068098,21.5103066 95.9068098,47.9301606 Z" id="Fill-1" fill="#F3F3F3" mask="url(#mask-2)"></path>
            </g>
            <path d="M81.5084488,13.7614015 C72.8597854,5.30779562 61.0180683,0.0934306569 47.9534049,0.0934306569 C43.7834927,0.0934306569 31.5832976,5.30779562 22.9344,13.7614015 L81.5084488,13.7614015 Z" id="Fill-4" fill="#6DA544"></path>
            <path d="M47.9534049,41.0961752 L95.4174439,41.0961752 C94.7250732,36.2704818 93.312,31.6774307 91.2887415,27.4282044 L45.8680976,27.4282044 L47.9534049,41.0961752 Z" id="Fill-5" fill="#6DA544"></path>
            <path d="M4.61806829,68.4309489 L91.2887415,68.4309489 C93.312,64.1828905 94.7250732,59.5898394 95.4174439,54.764146 L0.489365854,54.764146 C1.18173659,59.5898394 2.59387317,64.1828905 4.61806829,68.4309489 Z" id="Fill-6" fill="#6DA544"></path>
            <path d="M14.3971902,82.0989197 C23.0470244,90.552292 34.8887415,95.7668905 47.9534049,95.7668905 C61.0180683,95.7668905 72.8597854,90.552292 81.5084488,82.0989197 L14.3971902,82.0989197 Z" id="Fill-7" fill="#6DA544"></path>
            <path d="M47.9534049,0.0934306569 C23.7960585,0.0934306569 3.81400976,17.9146277 0.489365854,41.0961752 L47.9534049,41.0961752 L47.9534049,0.0934306569 Z" id="Fill-8" fill="#D80027"></path>
            <polygon id="Fill-9" fill="#F3F3F3" points="23.9761171 36.7677664 21.8917463 32.6089343 21.8917463 24.289635 27.1043122 20.1289343 32.316878 24.289635 32.316878 30.5287007 34.4012488 28.4491679 34.4012488 32.6089343 30.2313366 36.7677664"></polygon>
            <polygon id="Fill-10" fill="#F3F3F3" points="12.7628488 24.0112117 13.3152 25.7065109 15.1015024 25.7065109 13.6563512 26.7541022 14.208 28.4491679 12.7628488 27.4008759 11.3176976 28.4491679 11.8700488 26.7541022 10.4248976 25.7065109 12.2112 25.7065109"></polygon>
            <polygon id="Fill-11" fill="#F3F3F3" points="16.9325268 19.8516788 17.4851122 21.5469781 19.2714146 21.5469781 17.8262634 22.5943358 18.377678 24.289635 16.9325268 23.2420438 15.4876098 24.289635 16.039961 22.5943358 14.5948098 21.5469781 16.3801756 21.5469781"></polygon>
            <polygon id="Fill-12" fill="#F3F3F3" points="21.102439 15.6919124 21.6547902 17.3872117 23.4401561 17.3872117 21.9959415 18.4345693 22.5475902 20.1289343 21.102439 19.0825109 19.6572878 20.1289343 20.2089366 18.4345693 18.764722 17.3872117 20.5500878 17.3872117"></polygon>
            <polygon id="Fill-13" fill="#F3F3F3" points="41.444839 24.0112117 40.8931902 25.7065109 39.107122 25.7065109 40.552039 26.7541022 39.9996878 28.4491679 41.444839 27.4008759 42.8899902 28.4491679 42.3383415 26.7541022 43.7834927 25.7065109 41.9971902 25.7065109"></polygon>
            <polygon id="Fill-14" fill="#F3F3F3" points="37.2749268 19.8516788 36.7235122 21.5469781 34.9372098 21.5469781 36.382361 22.5943358 35.8297756 24.289635 37.2749268 23.2420438 38.720078 24.289635 38.1686634 22.5943358 39.6138146 21.5469781 37.8275122 21.5469781"></polygon>
            <polygon id="Fill-15" fill="#F3F3F3" points="33.1052488 15.6919124 32.5536 17.3872117 30.7672976 17.3872117 32.2124488 18.4345693 31.6600976 20.1289343 33.1052488 19.0825109 34.5504 20.1289343 33.9987512 18.4345693 35.4439024 17.3872117 33.6576 17.3872117"></polygon>
            <polygon id="Fill-16" fill="#F3F3F3" points="27.1043122 13.6126131 26.5517268 15.3069781 24.7656585 15.3069781 26.2105756 16.3552701 25.659161 18.049635 27.1043122 17.0022774 28.5494634 18.049635 27.996878 16.3552701 29.4420293 15.3069781 27.6557268 15.3069781"></polygon>
        </g>
    </g>
</svg>