<?xml version="1.0" encoding="UTF-8"?>
<svg width="96px" height="96px" viewBox="0 0 96 96" version="1.1" xmlns="http://www.w3.org/2000/svg" xmlns:xlink="http://www.w3.org/1999/xlink">
    <title>afghanistan</title>
    <desc>designed by Freepik from Flaticon</desc>
    <defs>
        <polygon id="path-1" points="0.0140487805 0.0934306569 0.0140487805 95.7668905 72.9721756 95.7668905 72.9721756 0.0934306569 0.0140487805 0.0934306569"></polygon>
    </defs>
    <g id="Page-1" stroke="none" stroke-width="1" fill="none" fill-rule="evenodd">
        <g id="afghanistan">
            <g id="Group-4">
                <mask id="mask-2" fill="white">
                    <use xlink:href="#path-1"></use>
                </mask>
                <g id="Clip-2"></g>
                <path d="M68.8024976,4.83970803 C62.4978732,1.79877372 55.4250146,0.0934306569 47.9534049,0.0934306569 C40.4808585,0.0934306569 33.408,1.79877372 27.1043122,4.83970803 L22.9344,47.9301606 L27.1043122,91.0194453 C33.408,94.0606131 40.4808585,95.7668905 47.9534049,95.7668905 C55.4250146,95.7668905 62.4978732,94.0606131 68.8024976,91.0194453 L72.9721756,47.9301606 L68.8024976,4.83970803 Z" id="Fill-1" fill="#D80027" mask="url(#mask-2)"></path>
                <path d="M27.1043122,4.84157664 C11.0643512,12.5788029 0,28.9646715 0,47.9301606 C0,66.8954161 11.0643512,83.2805839 27.1043122,91.0178102 L27.1043122,4.84157664 Z" id="Fill-3" fill="#000000" mask="url(#mask-2)"></path>
            </g>
            <path d="M68.8024976,4.84157664 L68.8024976,91.0178102 C84.8424585,83.2805839 95.9068098,66.8954161 95.9068098,47.9301606 C95.9068098,28.9646715 84.8424585,12.5788029 68.8024976,4.84157664 Z" id="Fill-5" fill="#496E2D"></path>
            <path d="M47.9534049,31.2913285 C38.7411512,31.2913285 31.2739902,38.7403212 31.2739902,47.9301606 C31.2739902,57.1190657 38.7411512,64.5687591 47.9534049,64.5687591 C57.164722,64.5687591 64.6325854,57.1190657 64.6325854,47.9301606 C64.6325854,38.7403212 57.164722,31.2913285 47.9534049,31.2913285 Z M47.9534049,58.3287591 C42.1957463,58.3287591 37.5282732,53.6728759 37.5282732,47.9301606 C37.5282732,42.1865109 42.1957463,37.5303942 47.9534049,37.5303942 C53.7101268,37.5303942 58.3773659,42.1865109 58.3773659,47.9301606 C58.3773659,53.6728759 53.7110634,58.3287591 47.9534049,58.3287591 Z" id="Fill-6" fill="#FFDA44"></path>
            <path d="M47.9534049,41.6901606 C45.6503415,41.6901606 43.7834927,43.5524672 43.7834927,45.849927 L43.7834927,52.0896934 L52.1230829,52.0896934 L52.1230829,45.849927 C52.1230829,43.5524672 50.2564683,41.6901606 47.9534049,41.6901606 Z" id="Fill-7" fill="#FFDA44"></path>
        </g>
    </g>
</svg>