<?xml version="1.0" encoding="UTF-8"?>
<svg width="96px" height="96px" viewBox="0 0 96 96" version="1.1" xmlns="http://www.w3.org/2000/svg" xmlns:xlink="http://www.w3.org/1999/xlink">
    <title>algeria</title>
    <desc>designed by Freepik from Flaticon</desc>
    <defs>
        <polygon id="path-1" points="0.0140487805 0.0934306569 0.0140487805 95.7668905 95.9068098 95.7668905 95.9068098 0.0934306569"></polygon>
    </defs>
    <g id="Page-1" stroke="none" stroke-width="1" fill="none" fill-rule="evenodd">
        <g id="algeria">
            <g id="Group-4">
                <mask id="mask-2" fill="white">
                    <use xlink:href="#path-1"></use>
                </mask>
                <g id="Clip-2"></g>
                <path d="M47.9534049,0.0934306569 C74.4365268,0.0934306569 95.9068098,21.5103066 95.9068098,47.9301606 C95.9068098,74.3488467 74.4365268,95.7668905 47.9534049,95.7668905 C47.9534049,93.6864234 41.6981854,47.9301606 41.6981854,47.9301606 L47.9534049,0.0934306569 Z" id="Fill-1" fill="#F3F3F3" mask="url(#mask-2)"></path>
                <path d="M47.9534049,95.7668905 C21.4691122,95.7668905 0,74.3488467 0,47.9301606 C0,21.5103066 21.4691122,0.0934306569 47.9534049,0.0934306569" id="Fill-3" fill="#496E2D" mask="url(#mask-2)"></path>
            </g>
            <polygon id="Fill-5" fill="#D80027" points="58.2558439 38.7541022 54.3219512 44.1628029 47.9496585 42.1017226 51.8908098 47.5057518 47.9559805 52.9146861 54.3266341 50.8451971 58.2668488 56.2494599 58.2631024 49.5670657 64.6325854 47.4985109 58.2602927 45.4374307"></polygon>
            <path d="M51.9310829,61.4493431 C44.4465951,61.4493431 38.3789268,55.396438 38.3789268,47.9301606 C38.3789268,40.4638832 44.4465951,34.4109781 51.9310829,34.4109781 C54.2652878,34.4109781 56.4604098,34.9993577 58.3773659,36.0359708 C55.3702244,33.1015474 51.2569756,31.2913285 46.7185171,31.2913285 C37.5074341,31.2913285 30.0393366,38.7403212 30.0393366,47.9301606 C30.0393366,57.1190657 37.5074341,64.5687591 46.7185171,64.5687591 C51.2579122,64.5687591 55.3702244,62.7576058 58.3773659,59.8234161 C56.4604098,60.8607299 54.2652878,61.4493431 51.9310829,61.4493431 Z" id="Fill-6" fill="#D80027"></path>
        </g>
    </g>
</svg>