<?xml version="1.0" encoding="UTF-8"?>
<svg width="96px" height="96px" viewBox="0 0 96 96" version="1.1" xmlns="http://www.w3.org/2000/svg" xmlns:xlink="http://www.w3.org/1999/xlink">
    <title>american-samoa</title>
    <desc>designed by Freepik from Flaticon</desc>
    <defs>
        <polygon id="path-1" points="0.0140487805 0.0934306569 0.0140487805 95.7668905 95.9068098 95.7668905 95.9068098 0.0934306569"></polygon>
    </defs>
    <g id="Page-1" stroke="none" stroke-width="1" fill="none" fill-rule="evenodd">
        <g id="american-samoa">
            <g id="Group-6">
                <mask id="mask-2" fill="white">
                    <use xlink:href="#path-1"></use>
                </mask>
                <g id="Clip-2"></g>
                <path d="M95.9068098,47.9301606 C95.9068098,74.3488467 74.4365268,95.7668905 47.9534049,95.7668905 C21.4691122,95.7668905 0,74.3488467 0,47.9301606 C0,21.5103066 21.4691122,0.0934306569 47.9534049,0.0934306569 C74.4365268,0.0934306569 95.9068098,21.5103066 95.9068098,47.9301606 Z" id="Fill-1" fill="#F3F3F3" mask="url(#mask-2)"></path>
                <path d="M71.2170146,6.09424818 C64.3270244,2.27316788 56.3953171,0.0934306569 47.9534049,0.0934306569 C21.4709854,0.0934306569 0.00374634146,21.5077372 0,47.9245547 L33.3585951,31.2913285 L71.2170146,6.09424818 Z" id="Fill-3" fill="#0052B4" mask="url(#mask-2)"></path>
                <path d="M0,47.9355328 C0.00374634146,74.3525839 21.4709854,95.7668905 47.9534049,95.7668905 C56.3953171,95.7668905 64.3270244,93.5871533 71.2170146,89.7658394 L33.3585951,64.5687591 L0,47.9355328 Z" id="Fill-4" fill="#0052B4" mask="url(#mask-2)"></path>
                <path d="M75.2131902,8.57343066 C73.9253854,7.68467153 72.5907512,6.85710949 71.2151415,6.09424818 L0,47.9245547 L0,47.9355328 L71.216078,89.7649051 C72.5907512,89.0022774 73.9253854,88.1756496 75.2141268,87.2859562 L8.20893659,47.9301606 L75.2131902,8.57343066 Z" id="Fill-5" fill="#D80027" mask="url(#mask-2)"></path>
            </g>
            <path d="M83.3963707,46.1463358 L77.6843707,46.1463358 C79.1697951,44.3671825 79.0782439,41.720292 77.4055024,40.0513869 C79.1770537,38.284146 79.1770537,35.4172263 77.4055024,33.6490511 L77.2984976,33.7557956 C79.0700488,31.9876204 79.1770537,29.0139562 77.4055024,27.2467153 L51.7318244,52.8572263 C53.5043122,54.6254015 56.3276488,54.6043796 58.1003707,52.8362044 L58.5941854,52.3854015 L70.8868683,51.2705401 L70.8868683,56.5451679 L75.0577171,56.5451679 L75.0577171,50.8926131 L81.312,50.3252555 L83.3963707,46.1463358 Z" id="Fill-7" fill="#A2001D"></path>
            <polygon id="Fill-8" fill="#FFDA44" points="52.1240195 58.3287591 47.9534049 56.2494599 52.1240195 54.1692263 79.2283317 54.1692263 79.2283317 58.3287591"></polygon>
        </g>
    </g>
</svg>