<?xml version="1.0" encoding="UTF-8"?>
<svg width="96px" height="96px" viewBox="0 0 96 96" version="1.1" xmlns="http://www.w3.org/2000/svg" xmlns:xlink="http://www.w3.org/1999/xlink">
    <title>antigua-and-barbuda</title>
    <desc>designed by Freepik from Flaticon</desc>
    <defs>
        <polygon id="path-1" points="0.0140487805 0.181021898 0.0140487805 25.1391533 95.9068098 25.1391533 95.9068098 0.181021898 0.0140487805 0.181021898"></polygon>
        <polygon id="path-3" points="0.0140487805 0.12449635 0.0140487805 77.3143358 68.8024976 77.3143358 68.8024976 0.12449635 0.0140487805 0.12449635"></polygon>
    </defs>
    <g id="Page-1" stroke="none" stroke-width="1" fill="none" fill-rule="evenodd">
        <g id="antigua-and-barbuda">
            <g id="Group-3" transform="translate(0.000000, 35.270073)">
                <mask id="mask-2" fill="white">
                    <use xlink:href="#path-1"></use>
                </mask>
                <g id="Clip-2"></g>
                <path d="M0,12.6600876 C0,15.9364672 0.331082927,19.1362336 0.960468293,22.2276204 L47.9534049,25.1391533 L94.9463415,22.2276204 C95.5757268,19.1362336 95.9068098,15.9364672 95.9068098,12.6600876 C95.9068098,9.38347445 95.5757268,6.18370803 94.9463415,3.09255474 L47.9534049,0.181021898 L0.960468293,3.09255474 C0.331082927,6.18370803 0,9.38347445 0,12.6600876 Z" id="Fill-1" fill="#0052B4" mask="url(#mask-2)"></path>
            </g>
            <path d="M94.9463415,57.4976934 L0.960468293,57.4976934 C5.40362927,79.3315036 24.7546537,95.7668905 47.9534049,95.7668905 C71.1521561,95.7668905 90.5029463,79.3315036 94.9463415,57.4976934 Z" id="Fill-4" fill="#F3F3F3"></path>
            <path d="M0.960468293,38.3626277 L94.9463415,38.3626277 C90.5029463,16.5276496 71.1521561,0.0934306569 47.9534049,0.0934306569 C24.7537171,0.0934306569 5.40362927,16.5276496 0.960468293,38.3626277 Z" id="Fill-5" fill="#000000"></path>
            <g id="Group-9" transform="translate(0.000000, 18.452555)">
                <mask id="mask-4" fill="white">
                    <use xlink:href="#path-3"></use>
                </mask>
                <g id="Clip-7"></g>
                <polygon id="Fill-6" fill="#FFDA44" mask="url(#mask-4)" points="68.8024976 19.910073 27.1043122 19.910073 35.6232585 15.9128759 31.0866732 7.68186861 40.3370927 9.44654015 41.5096976 0.12449635 47.9534049 6.98113869 54.396878 0.12449635 55.5685463 9.44654015 64.8201366 7.68186861 60.2835512 15.9128759"></polygon>
                <path d="M0,29.4776058 C0,55.896292 21.4691122,77.3143358 47.9534049,77.3143358 L9.58993171,0.774072993 C3.56885854,8.76963504 0,18.7073869 0,29.4776058 Z" id="Fill-8" fill="#A2001D" mask="url(#mask-4)"></path>
            </g>
            <path d="M47.9534049,95.7668905 C74.4365268,95.7668905 95.9068098,74.3488467 95.9068098,47.9301606 C95.9068098,37.1599416 92.3377171,27.2221898 86.316878,19.2266277 L47.9534049,95.7668905 Z" id="Fill-10" fill="#A2001D"></path>
        </g>
    </g>
</svg>