<?xml version="1.0" encoding="UTF-8"?>
<svg width="96px" height="96px" viewBox="0 0 96 96" version="1.1" xmlns="http://www.w3.org/2000/svg" xmlns:xlink="http://www.w3.org/1999/xlink">
    <title>aruba</title>
    <desc>designed by Freepik from Flaticon</desc>
    <defs>
        <polygon id="path-1" points="0.0140487805 0.0934306569 0.0140487805 95.7668905 95.9068098 95.7668905 95.9068098 0.0934306569"></polygon>
    </defs>
    <g id="Page-1" stroke="none" stroke-width="1" fill="none" fill-rule="evenodd">
        <g id="aruba">
            <g id="Group-5">
                <mask id="mask-2" fill="white">
                    <use xlink:href="#path-1"></use>
                </mask>
                <g id="Clip-2"></g>
                <path d="M95.9068098,47.9301606 C95.9068098,74.3488467 74.4365268,95.7668905 47.9534049,95.7668905 C21.4691122,95.7668905 0,74.3488467 0,47.9301606 C0,21.5103066 21.4691122,0.0934306569 47.9534049,0.0934306569 C74.4365268,0.0934306569 95.9068098,21.5103066 95.9068098,47.9301606 Z" id="Fill-1" fill="#FFDA44" mask="url(#mask-2)"></path>
                <path d="M47.9534049,95.7668905 C62.4868683,95.7668905 75.510322,89.3150365 84.3036878,79.1280584 L11.6021854,79.1280584 C20.3962537,89.3150365 33.4190049,95.7668905 47.9534049,95.7668905 Z" id="Fill-3" fill="#338AF3" mask="url(#mask-2)"></path>
                <path d="M95.9068098,47.9301606 C95.9068098,21.5103066 74.4365268,0.0934306569 47.9534049,0.0934306569 C21.4691122,0.0934306569 0,21.5103066 0,47.9301606 C0,52.2475912 0.577170732,56.4300146 1.65190244,60.4092263 L94.2549073,60.4092263 C95.329639,56.4300146 95.9068098,52.2475912 95.9068098,47.9301606 Z" id="Fill-4" fill="#338AF3" mask="url(#mask-2)"></path>
            </g>
            <path d="M3.8112,66.6480584 C4.73607805,68.8151825 5.81713171,70.8991533 7.03820488,72.8880584 L88.8676683,72.8880584 C90.089678,70.8991533 91.1697951,68.8151825 92.0953756,66.6480584 L3.8112,66.6480584 Z" id="Fill-6" fill="#338AF3"></path>
            <polygon id="Fill-7" fill="#F3F3F3" points="21.9758049 30.2649927 12.606439 26.1400292 21.9758049 22.0150657 26.1101268 12.6691971 30.2451512 22.0150657 39.6138146 26.1400292 30.2451512 30.2649927 26.1101268 39.6108613"></polygon>
            <polygon id="Fill-8" fill="#D80027" points="26.1101268 17.8207299 28.6637268 23.5924088 34.4497171 26.1400292 28.6637268 28.6874161 26.1101268 34.4593285 23.5562927 28.6874161 17.7705366 26.1400292 23.5562927 23.5924088"></polygon>
        </g>
    </g>
</svg>