<?xml version="1.0" encoding="UTF-8"?>
<svg width="96px" height="96px" viewBox="0 0 96 96" version="1.1" xmlns="http://www.w3.org/2000/svg" xmlns:xlink="http://www.w3.org/1999/xlink">
    <title>azerbaijan</title>
    <desc>designed by Freepik from Flaticon</desc>
    <defs>
        <polygon id="path-1" points="0.0140487805 0.0140145985 0.0140487805 37.4509781 95.9068098 37.4509781 95.9068098 0.0140145985 0.0140487805 0.0140145985"></polygon>
    </defs>
    <g id="Page-1" stroke="none" stroke-width="1" fill="none" fill-rule="evenodd">
        <g id="azerbaijan">
            <g id="Group-3" transform="translate(0.000000, 29.197080)">
                <mask id="mask-2" fill="white">
                    <use xlink:href="#path-1"></use>
                </mask>
                <g id="Clip-2"></g>
                <path d="M95.9068098,18.7330803 C95.9068098,12.8817518 94.851278,7.27591241 92.9240195,2.09424818 L47.9534049,0.0140145985 L2.9825561,2.09424818 C1.05553171,7.27591241 0,12.8817518 0,18.7330803 C0,24.5844088 1.05553171,30.1893139 2.9825561,35.3716788 L47.9534049,37.4509781 L92.9240195,35.3716788 C94.851278,30.1893139 95.9068098,24.5844088 95.9068098,18.7330803 Z" id="Fill-1" fill="#D80027" mask="url(#mask-2)"></path>
            </g>
            <path d="M47.9534049,95.7668905 C68.5709268,95.7668905 86.1485268,82.7849343 92.9240195,64.5687591 L2.9825561,64.5687591 C9.75828293,82.7849343 27.3347122,95.7668905 47.9534049,95.7668905 Z" id="Fill-4" fill="#6DA544"></path>
            <path d="M2.9825561,31.2913285 L92.9240195,31.2913285 C86.1485268,13.0751533 68.5709268,0.0934306569 47.9534049,0.0934306569 C27.3347122,0.0934306569 9.75828293,13.0751533 2.9825561,31.2913285 Z" id="Fill-5" fill="#338AF3"></path>
            <path d="M48.9960585,61.4493431 C41.5115707,61.4493431 35.4439024,55.396438 35.4439024,47.9301606 C35.4439024,40.4638832 41.5115707,34.4109781 48.9960585,34.4109781 C51.3293268,34.4109781 53.5253854,34.9993577 55.4423415,36.0359708 C52.4342634,33.1015474 48.3219512,31.2913285 43.7834927,31.2913285 C34.571239,31.2913285 27.1043122,38.7403212 27.1043122,47.9301606 C27.1043122,57.1190657 34.571239,64.5687591 43.7834927,64.5687591 C48.3219512,64.5687591 52.4349659,62.7576058 55.4423415,59.8234161 C53.5253854,60.8607299 51.3293268,61.4493431 48.9960585,61.4493431 Z" id="Fill-6" fill="#F3F3F3"></path>
            <polygon id="Fill-7" fill="#F3F3F3" points="59.4200195 38.5705109 61.2154537 43.6071241 66.0538537 41.3115328 63.7536 46.1390949 68.8024976 47.9301606 63.7536 49.7212263 66.0538537 54.547854 61.2154537 52.2531971 59.4200195 57.2895766 57.625522 52.2531971 52.7861854 54.547854 55.0866732 49.7212263 50.0377756 47.9301606 55.0866732 46.1390949 52.7861854 41.3115328 57.625522 43.6071241"></polygon>
        </g>
    </g>
</svg>