<?xml version="1.0" encoding="UTF-8"?>
<svg width="96px" height="96px" viewBox="0 0 96 96" version="1.1" xmlns="http://www.w3.org/2000/svg" xmlns:xlink="http://www.w3.org/1999/xlink">
    <title>azores-islands</title>
    <desc>designed by Freepik from Flaticon</desc>
    <defs>
        <polygon id="path-1" points="0.0140487805 0.0934306569 0.0140487805 95.7668905 95.9068098 95.7668905 95.9068098 0.0934306569"></polygon>
    </defs>
    <g id="Page-1" stroke="none" stroke-width="1" fill="none" fill-rule="evenodd">
        <g id="azores-islands">
            <g id="Group-5">
                <mask id="mask-2" fill="white">
                    <use xlink:href="#path-1"></use>
                </mask>
                <g id="Clip-2"></g>
                <path d="M95.9068098,47.9301606 C95.9068098,74.3488467 74.4365268,95.7668905 47.9534049,95.7668905 C21.4691122,95.7668905 0,74.3488467 0,47.9301606 C0,21.5103066 21.4691122,0.0934306569 47.9534049,0.0934306569 C74.4365268,0.0934306569 95.9068098,21.5103066 95.9068098,47.9301606 Z" id="Fill-1" fill="#F3F3F3" mask="url(#mask-2)"></path>
                <path d="M0,47.9301606 C0,66.0624818 10.1130146,81.8370803 25.0190049,89.9501314 L25.0190049,5.9099562 C10.1130146,14.0232409 0,29.7978394 0,47.9301606 Z" id="Fill-3" fill="#D80027" mask="url(#mask-2)"></path>
                <path d="M0,47.9301606 C0,70.0314161 15.0265756,88.6290219 35.4439024,94.118073 L35.4439024,1.74131387 C15.0265756,7.23036496 0,25.8279708 0,47.9301606 Z" id="Fill-4" fill="#0052B4" mask="url(#mask-2)"></path>
            </g>
            <path d="M17.2006244,16.7320292 L17.2006244,24.5313869 C17.2006244,28.408292 20.3505951,31.5505985 24.2369561,31.5505985 C28.1230829,31.5505985 31.2739902,28.408292 31.2739902,24.5313869 L31.2739902,16.7320292 L17.2006244,16.7320292 Z" id="Fill-6" fill="#D80027"></path>
            <path d="M24.2369561,27.3917664 C22.6564683,27.3917664 21.3705366,26.1089635 21.3705366,24.5313869 L21.3705366,20.8917956 L27.1043122,20.8917956 L27.1043122,24.5313869 C27.1043122,26.1089635 25.8183805,27.3917664 24.2369561,27.3917664 Z" id="Fill-7" fill="#F3F3F3"></path>
            <path d="M52.1230829,50.0094599 L39.6138146,50.0094599 C39.6138146,47.712 37.7460293,45.849927 35.4439024,45.849927 C33.140839,45.849927 31.2739902,47.712 31.2739902,50.0094599 L18.7637854,50.0094599 C18.7637854,52.3069197 20.7704195,54.1692263 23.0725463,54.1692263 L22.9334634,54.1692263 C22.9334634,56.4666861 24.8003122,58.3287591 27.1043122,58.3287591 C27.1043122,60.626219 28.9702244,62.4885255 31.2739902,62.4885255 L39.6138146,62.4885255 C41.916878,62.4885255 43.7834927,60.626219 43.7834927,58.3287591 C46.0865561,58.3287591 47.9534049,56.4666861 47.9534049,54.1692263 L47.814322,54.1692263 C50.1173854,54.1692263 52.1230829,52.3069197 52.1230829,50.0094599 Z" id="Fill-8" fill="#FFDA44"></path>
            <polygon id="Fill-9" fill="#FFDA44" points="53.8363317 43.3534599 52.7424 45.1015474 54.0695415 46.6800584 52.0645463 46.1818394 50.9699122 47.9301606 50.8252098 45.8735182 48.8204488 45.374365 50.7367024 44.6026277 50.5929366 42.5459854 51.9210146 44.1254307"></polygon>
            <polygon id="Fill-10" fill="#FFDA44" points="47.4485854 38.0057226 47.0193951 40.0221898 48.8085073 41.0531971 46.7534049 41.2694891 46.3244488 43.2850219 45.4838634 41.401927 43.428761 41.6170511 44.9642927 40.2375474 44.1237073 38.3553869 45.9128195 39.3854599"></polygon>
            <polygon id="Fill-11" fill="#FFDA44" points="39.612878 35.1609927 39.900878 37.2029197 41.9351415 37.5605255 40.078361 38.4637664 40.3656585 40.505927 38.9305756 39.0231825 37.0728585 39.9264234 38.0433951 38.1061606 36.6083122 36.6236496 38.643278 36.9812555"></polygon>
            <polygon id="Fill-12" fill="#FFDA44" points="31.2739902 35.1609927 32.2445268 36.9812555 34.2794927 36.6236496 32.8437073 38.1061606 33.8140098 39.9264234 31.9572293 39.0231825 30.5214439 40.5049927 30.8094439 38.4637664 28.9517268 37.5605255 30.9869268 37.2029197"></polygon>
            <polygon id="Fill-13" fill="#FFDA44" points="23.4385171 38.0057226 24.9740488 39.3854599 26.763161 38.3553869 25.9235122 40.2384818 27.4583415 41.6170511 25.4039415 41.401927 24.5633561 43.2850219 24.1344 41.2685547 22.0792976 41.0541314 23.8684098 40.0221898"></polygon>
            <polygon id="Fill-14" fill="#FFDA44" points="17.0505366 43.3534599 18.9667902 44.1254307 20.2948683 42.5469197 20.1511024 44.603562 22.0664195 45.3752993 20.0616585 45.8735182 19.9169561 47.9301606 18.8232585 46.1818394 16.8182634 46.6809927 18.1463415 45.1015474"></polygon>
        </g>
    </g>
</svg>