<?xml version="1.0" encoding="UTF-8"?>
<svg width="96px" height="96px" viewBox="0 0 96 96" version="1.1" xmlns="http://www.w3.org/2000/svg" xmlns:xlink="http://www.w3.org/1999/xlink">
    <title>barbados</title>
    <desc>designed by Freepik from Flaticon</desc>
    <defs>
        <polygon id="path-1" points="0.0140487805 0.0934306569 0.0140487805 95.7668905 72.9721756 95.7668905 72.9721756 0.0934306569 0.0140487805 0.0934306569"></polygon>
    </defs>
    <g id="Page-1" stroke="none" stroke-width="1" fill="none" fill-rule="evenodd">
        <g id="barbados">
            <g id="Group-4">
                <mask id="mask-2" fill="white">
                    <use xlink:href="#path-1"></use>
                </mask>
                <g id="Clip-2"></g>
                <path d="M68.8024976,4.83970803 C62.4978732,1.79877372 55.4250146,0.0934306569 47.9534049,0.0934306569 C40.4808585,0.0934306569 33.408,1.79877372 27.1043122,4.83970803 L22.9344,47.9301606 L27.1043122,91.0194453 C33.408,94.0606131 40.4808585,95.7668905 47.9534049,95.7668905 C55.4250146,95.7668905 62.4978732,94.0606131 68.8024976,91.0194453 L72.9721756,47.9301606 L68.8024976,4.83970803 Z" id="Fill-1" fill="#FFDA44" mask="url(#mask-2)"></path>
                <path d="M27.1043122,4.84157664 C11.0643512,12.5788029 0,28.9646715 0,47.9301606 C0,66.8954161 11.0643512,83.2805839 27.1043122,91.0178102 L27.1043122,4.84157664 Z" id="Fill-3" fill="#0052B4" mask="url(#mask-2)"></path>
            </g>
            <path d="M68.8024976,4.84157664 L68.8024976,91.0178102 C84.8424585,83.2805839 95.9068098,66.8954161 95.9068098,47.9301606 C95.9068098,28.9646715 84.8424585,12.5788029 68.8024976,4.84157664 Z" id="Fill-5" fill="#0052B4"></path>
            <path d="M62.547278,29.2110949 L65.3450927,30.6062482 L62.547278,29.2110949 L59.7504,27.8159416 C59.5820488,28.1527591 55.9288976,35.5660146 55.3325268,46.8900438 L51.0804293,46.8900438 L51.0804293,29.2110949 L47.9534049,25.051562 L44.8252098,29.2110949 L44.8252098,46.8900438 L40.5740488,46.8900438 C39.9767415,35.5660146 36.324761,28.1527591 36.1554732,27.8159416 L30.5614829,30.6062482 C30.6001171,30.6828613 34.4012488,38.4018686 34.4012488,50.0094599 L34.4012488,53.1298102 L44.8261463,53.1298102 L44.8261463,70.8087591 L51.0804293,70.8087591 L51.0804293,53.1298102 L61.505561,53.1298102 L61.505561,50.0094599 C61.505561,44.007708 62.5463415,39.0596204 63.4197073,35.9647299 C64.3719805,32.589781 65.3387707,30.6188613 65.348839,30.5990073 L62.547278,29.2110949 Z" id="Fill-6" fill="#000000"></path>
        </g>
    </g>
</svg>