<?xml version="1.0" encoding="UTF-8"?>
<svg width="96px" height="96px" viewBox="0 0 96 96" version="1.1" xmlns="http://www.w3.org/2000/svg" xmlns:xlink="http://www.w3.org/1999/xlink">
    <title>bermuda</title>
    <desc>designed by Freepik from Flaticon</desc>
    <defs>
        <polygon id="path-1" points="0.0140487805 0.0934306569 0.0140487805 95.7668905 95.9068098 95.7668905 95.9068098 0.0934306569"></polygon>
        <polygon id="path-3" points="0.0140487805 0.0934306569 0.0140487805 48.0359708 48.0594732 48.0359708 48.0594732 0.0934306569 0.0140487805 0.0934306569"></polygon>
    </defs>
    <g id="Page-1" stroke="none" stroke-width="1" fill="none" fill-rule="evenodd">
        <g id="bermuda">
            <g id="Group-3">
                <mask id="mask-2" fill="white">
                    <use xlink:href="#path-1"></use>
                </mask>
                <g id="Clip-2"></g>
                <path d="M95.9068098,47.9301606 C95.9068098,74.3488467 74.4365268,95.7668905 47.9534049,95.7668905 C21.4691122,95.7668905 0,74.3488467 0,47.9301606 C0,47.9411387 47.9534049,0.0988029197 47.9534049,0.0934306569 C74.4365268,0.0934306569 95.9068098,21.5103066 95.9068098,47.9301606 Z" id="Fill-1" fill="#D80027" mask="url(#mask-2)"></path>
            </g>
            <polygon id="Fill-4" fill="#0052B4" points="47.9534049 22.9720292 47.9534049 39.1061022 31.2739902 22.9720292"></polygon>
            <polygon id="Fill-5" fill="#0052B4" points="25.0190049 47.9301606 39.107122 47.9301606 25.0190049 29.2110949 22.9344 43.7703942"></polygon>
            <g id="Group-9">
                <mask id="mask-4" fill="white">
                    <use xlink:href="#path-3"></use>
                </mask>
                <g id="Clip-7"></g>
                <path d="M47.9534049,25.051562 L47.9534049,0.0934306569 L47.9452098,0.0934306569 C21.4646634,0.0981021898 0,21.5131095 0,47.9301606 L25.0190049,47.9301606 L25.0190049,33.8763212 L39.107122,47.9301606 L47.8253268,47.9301606 L47.9534049,47.8023942 L47.9534049,39.1061022 L33.8643512,25.051562 L47.9534049,25.051562 Z" id="Fill-8" fill="#F3F3F3" mask="url(#mask-4)"></path>
            </g>
            <path d="M24.2606049,6.33249635 C16.7606634,10.5934015 10.5255805,16.8133139 6.25428293,24.2950073 L6.25428293,50.0094599 L18.764722,50.0094599 L18.764722,18.8124964 L50.0377756,18.8124964 L50.0377756,6.33249635 L24.2606049,6.33249635 Z" id="Fill-10" fill="#D80027"></path>
            <path d="M49.8593561,43.9483796 L30.9155122,25.051562 L25.0190049,25.051562 L25.0190049,25.0522628 L49.8586537,49.8314745 L49.8593561,49.8314745 C49.8593561,49.8314745 49.8593561,45.7749489 49.8593561,43.9483796 Z" id="Fill-11" fill="#D80027"></path>
            <path d="M54.2076878,25.051562 L54.2076878,47.9301606 C54.2076878,59.0743358 83.3963707,59.0743358 83.3963707,47.9301606 L83.3963707,25.051562 L54.2076878,25.051562 Z" id="Fill-12" fill="#F5F5F5"></path>
            <path d="M54.2076878,47.9301606 C54.2076878,59.0743358 68.8024976,62.4885255 68.8024976,62.4885255 C68.8024976,62.4885255 83.3963707,59.0743358 83.3963707,47.9301606 L54.2076878,47.9301606 Z" id="Fill-13" fill="#6DA544"></path>
            <polygon id="Fill-14" fill="#A2001D" points="68.8024976 38.7786277 62.0258341 41.6901606 62.0258341 47.9301606 68.8024976 52.0896934 75.5779902 47.9301606 75.5779902 41.6901606"></polygon>
            <polygon id="Fill-15" fill="#338AF3" points="62.0258341 41.6901606 75.5779902 41.6901606 75.5779902 35.4510949 62.0258341 35.4510949"></polygon>
        </g>
    </g>
</svg>