<?xml version="1.0" encoding="UTF-8"?>
<svg width="96px" height="96px" viewBox="0 0 96 96" version="1.1" xmlns="http://www.w3.org/2000/svg" xmlns:xlink="http://www.w3.org/1999/xlink">
    <title>bhutan-1</title>
    <desc>designed by Freepik from Flaticon</desc>
    <defs>
        <polygon id="path-1" points="0.0140487805 0.0934243902 0.0140487805 95.9997659 95.9066341 95.9997659 95.9066341 0.0934243902"></polygon>
    </defs>
    <g id="Page-1" stroke="none" stroke-width="1" fill="none" fill-rule="evenodd">
        <g id="bhutan-1">
            <g id="Group-4">
                <mask id="mask-2" fill="white">
                    <use xlink:href="#path-1"></use>
                </mask>
                <g id="Clip-2"></g>
                <path d="M14.0450341,81.9552 C-4.68199024,63.2279415 -4.68199024,32.8659512 14.0450341,14.1386927 C32.7722927,-4.58833171 63.1345171,-4.58833171 81.8615415,14.1386927 C81.8615415,14.1450146 94.5932488,57.2326244 75.8662244,75.9596488 C57.1389659,94.6869073 14.0579122,81.968078 14.0450341,81.9552 Z" id="Fill-1" fill="#FFDA44" mask="url(#mask-2)"></path>
                <path d="M14.0450341,81.9552 C32.7722927,100.681288 63.1345171,100.681288 81.8615415,81.9552 C100.5888,63.2279415 100.587863,32.8659512 81.8615415,14.1386927 L14.0450341,81.9552 Z" id="Fill-3" fill="#FF9811" mask="url(#mask-2)"></path>
            </g>
            <path d="M75.0794927,27.1979707 L75.0794927,18.8572098 L59.0945561,18.8572098 L57.8734829,20.0782829 C53.5298341,24.4228683 54.2606049,29.4900293 54.7939902,33.1895415 C55.2887415,36.622361 55.3482146,37.9366244 54.0714146,39.2134244 C52.7953171,40.4892878 51.4801171,40.4298146 48.0484683,39.9350634 C44.348722,39.4019122 39.2817951,38.6711415 34.9381463,43.0145561 C30.5944976,47.3582049 31.3252683,52.4253659 31.8593561,56.124878 C32.3543415,59.556761 32.4138146,60.8710244 31.1377171,62.1468878 C29.8618537,63.4227512 28.5466537,63.3635122 25.1150049,62.8685268 C23.7777951,62.6755902 22.3939902,62.4760976 20.9176976,62.4597073 L20.8261463,70.7992976 C21.7500878,70.8093659 22.806322,70.9613268 23.9250732,71.123122 C25.2484683,71.3144195 26.7465366,71.5300683 28.3253854,71.5300683 C29.9606634,71.5300683 31.6821073,71.2968585 33.3813073,70.5635122 L33.3813073,77.2357463 L45.8908098,77.2357463 L45.8908098,70.9814634 L39.6355902,70.9814634 L39.6355902,66.8115512 L43.8055024,66.8115512 L43.8055024,60.5563317 L40.4733659,60.5563317 C40.6307122,58.5333073 40.3537171,56.5950439 40.1130146,54.9342439 C39.6182634,51.502361 39.5587902,50.1880976 40.8346537,48.9122341 C42.1116878,47.6354341 43.4259512,47.6949073 46.8585366,48.1896585 C49.5540293,48.5783415 52.9765463,49.0695805 56.3159415,47.6279415 L56.3159415,54.3011122 L68.8252098,54.3011122 L68.8252098,48.0468293 L62.5702244,48.0468293 L62.5702244,43.8771512 L66.7399024,43.8771512 L66.7399024,37.6219317 L63.408,37.6219317 C63.5660488,35.5986732 63.2881171,33.6615805 63.0485854,31.9996098 C62.7027512,29.6014829 62.5692878,28.2378146 62.9560976,27.1979707 L75.0794927,27.1979707 Z" id="Fill-5" fill="#F3F3F3"></path>
        </g>
    </g>
</svg>