<?xml version="1.0" encoding="UTF-8"?>
<svg width="96px" height="96px" viewBox="0 0 96 96" version="1.1" xmlns="http://www.w3.org/2000/svg" xmlns:xlink="http://www.w3.org/1999/xlink">
    <title>bonaire</title>
    <desc>designed by Freepik from Flaticon</desc>
    <defs>
        <polygon id="path-1" points="0.0140487805 0.0934306569 0.0140487805 95.7668905 95.9068098 95.7668905 95.9068098 0.0934306569"></polygon>
    </defs>
    <g id="Page-1" stroke="none" stroke-width="1" fill="none" fill-rule="evenodd">
        <g id="bonaire">
            <g id="Group-5">
                <mask id="mask-2" fill="white">
                    <use xlink:href="#path-1"></use>
                </mask>
                <g id="Clip-2"></g>
                <path d="M95.9068098,47.9301606 C95.9068098,74.3488467 74.4365268,95.7668905 47.9534049,95.7668905 C21.4691122,95.7668905 0,74.3488467 0,47.9301606 C0,21.5103066 21.4691122,0.0934306569 47.9534049,0.0934306569 C74.4365268,0.0934306569 95.9068098,21.5103066 95.9068098,47.9301606 Z" id="Fill-1" fill="#F3F3F3" mask="url(#mask-2)"></path>
                <path d="M14.0450341,14.104292 C3.76835122,24.3562044 -0.867980488,38.104292 0.135336585,51.5113577 L51.5433366,0.228437956 C38.1035707,-0.772437956 24.3219512,3.85261314 14.0450341,14.104292 Z" id="Fill-3" fill="#FFDA44" mask="url(#mask-2)"></path>
                <path d="M17.1228878,84.5678248 C35.9634732,100.38073 64.1277659,99.4457226 81.8615415,81.7548613 C99.5946146,64.0651679 100.531902,35.9694015 84.6804293,17.1746569 L17.1228878,84.5678248 Z" id="Fill-4" fill="#0052B4" mask="url(#mask-2)"></path>
            </g>
            <path d="M47.7822439,46.0031533 L51.9146927,43.7703942 L47.7822439,41.5369343 C46.8173268,35.2850219 41.8646634,30.3444088 35.5975024,29.3818394 L33.3585951,25.2594453 L31.1203902,29.3818394 C24.8525268,30.3444088 19.9005659,35.2840876 18.9347122,41.5369343 L14.8024976,43.7703942 L18.9347122,46.0031533 C19.8996293,52.2557664 24.8525268,57.1966131 31.1194537,58.1582482 L33.3585951,62.2813431 L35.5965659,58.1591825 C41.8646634,57.1966131 46.8173268,52.2557664 47.7822439,46.0031533 Z M33.3585951,52.0896934 C28.7524683,52.0896934 25.0190049,48.3653139 25.0190049,43.7703942 C25.0190049,39.1754745 28.7524683,35.4510949 33.3585951,35.4510949 C37.964722,35.4510949 41.6981854,39.1754745 41.6981854,43.7703942 C41.6981854,48.3653139 37.964722,52.0896934 33.3585951,52.0896934 Z" id="Fill-6" fill="#000000"></path>
            <polygon id="Fill-7" fill="#D80027" points="33.3585951 37.5303942 35.1640976 40.6500438 38.7758049 40.6500438 36.9696 43.7703942 38.7758049 46.8900438 35.1640976 46.8900438 33.3585951 50.0094599 31.5530927 46.8900438 27.9420878 46.8900438 29.7475902 43.7703942 27.9420878 40.6500438 31.5530927 40.6500438"></polygon>
        </g>
    </g>
</svg>