<?xml version="1.0" encoding="UTF-8"?>
<svg width="96px" height="96px" viewBox="0 0 96 96" version="1.1" xmlns="http://www.w3.org/2000/svg" xmlns:xlink="http://www.w3.org/1999/xlink">
    <title>botswana</title>
    <desc>designed by Freepik from Flaticon</desc>
    <defs>
        <polygon id="path-1" points="0.0140487805 0.225717073 0.0140487805 33.5852488 95.9068098 33.5852488 95.9068098 0.225717073"></polygon>
    </defs>
    <g id="Page-1" stroke="none" stroke-width="1" fill="none" fill-rule="evenodd">
        <g id="botswana">
            <g id="Group-4" transform="translate(0.000000, 31.141463)">
                <mask id="mask-2" fill="white">
                    <use xlink:href="#path-1"></use>
                </mask>
                <g id="Clip-2"></g>
                <path d="M2.26466341,2.31102439 C0.795629268,6.91363902 0,11.815961 0,16.9048976 C0,21.9950049 0.795629268,26.8973268 2.26466341,31.4999415 L47.9534049,33.5852488 L93.6421463,31.4999415 C95.1109463,26.8973268 95.9068098,21.9940683 95.9068098,16.9058341 C95.9068098,11.815961 95.1109463,6.91363902 93.6421463,2.31102439 L47.9534049,0.225717073 L2.26466341,2.31102439 Z" id="Fill-1" fill="#F3F3F3" mask="url(#mask-2)"></path>
                <path d="M95.9068098,16.9058341 C95.9068098,14.0604878 95.6569756,11.2746146 95.182361,8.56530732 L0.72444878,8.56530732 C0.248663415,11.2746146 0,14.0604878 0,16.9048976 C0,19.750478 0.2496,22.5363512 0.72444878,25.244722 L95.182361,25.244722 C95.6569756,22.5363512 95.9068098,19.750478 95.9068098,16.9058341 Z" id="Fill-3" fill="#000000" mask="url(#mask-2)"></path>
            </g>
            <path d="M47.9534049,95.9997659 C69.3475902,95.9997659 87.4674732,81.9884488 93.6421463,62.6414049 L2.26466341,62.6414049 C8.43933659,81.9877463 26.5592195,95.9997659 47.9534049,95.9997659 Z" id="Fill-5" fill="#338AF3"></path>
            <path d="M47.9534049,0.0941268293 C26.5592195,0.0941268293 8.43933659,14.1061463 2.26466341,33.4524878 L93.6412098,33.4524878 C87.4674732,14.1061463 69.3475902,0.0941268293 47.9534049,0.0941268293 Z" id="Fill-6" fill="#338AF3"></path>
        </g>
    </g>
</svg>