<?xml version="1.0" encoding="UTF-8"?>
<svg width="48px" height="48px" viewBox="0 0 48 48" version="1.1" xmlns="http://www.w3.org/2000/svg" xmlns:xlink="http://www.w3.org/1999/xlink">
    <!-- Generator: Sketch 47.1 (45422) - http://www.bohemiancoding.com/sketch -->
    <title>brazil</title>
    <desc>Created with Sketch.</desc>
    <defs>
        <polygon id="path-1" points="0.00702439024 0.0467153285 0.00702439024 47.8834453 47.9534049 47.8834453 47.9534049 0.0467153285"></polygon>
    </defs>
    <g id="layout" stroke="none" stroke-width="1" fill="none" fill-rule="evenodd">
        <g id="Desktop" transform="translate(-784.000000, -544.000000)">
            <g id="LANG" transform="translate(784.000000, 544.000000)">
                <g id="brazil">
                    <g id="Group-3">
                        <mask id="mask-2" fill="white">
                            <use xlink:href="#path-1"></use>
                        </mask>
                        <g id="Clip-2"></g>
                        <path d="M47.9534049,23.9650803 C47.9534049,37.1744234 37.2182634,47.8834453 23.9767024,47.8834453 C10.7345561,47.8834453 0,37.1744234 0,23.9650803 C0,10.7551533 10.7345561,0.0467153285 23.9767024,0.0467153285 C37.2182634,0.0467153285 47.9534049,10.7551533 47.9534049,23.9650803 Z" id="Fill-1" fill="#6DA544" mask="url(#mask-2)"></path>
                    </g>
                    <polygon id="Fill-4" fill="#FFDA44" points="23.9767024 9.40624818 43.7830244 23.9650803 23.9767024 38.5239124 4.16979512 23.9650803"></polygon>
                    <path d="M32.3162927,23.9650803 C32.3162927,28.5595328 28.582361,32.2843796 23.9767024,32.2843796 C19.3705756,32.2843796 15.6369951,28.5595328 15.6369951,23.9650803 C15.6369951,19.3701606 19.3705756,15.6456642 23.9767024,15.6456642 C28.582361,15.6456642 32.3162927,19.3701606 32.3162927,23.9650803 Z" id="Fill-5" fill="#F3F3F3"></path>
                    <path d="M19.8069073,23.4450219 C18.356722,23.4450219 16.956878,23.6648175 15.6398049,24.0732263 C15.6978732,28.617927 19.4072195,32.2843796 23.9767024,32.2843796 C26.8020293,32.2843796 29.297561,30.8815182 30.8062829,28.7369343 C28.2251707,25.5138102 24.2538146,23.4450219 19.8069073,23.4450219 Z" id="Fill-6" fill="#0052B4"></path>
                    <path d="M32.1617561,25.5590073 C32.2618537,25.0425693 32.3162927,24.5102482 32.3162927,23.9650803 C32.3162927,19.3701606 28.582361,15.6456642 23.9767024,15.6456642 C20.5399024,15.6456642 17.5897756,17.7200584 16.3129756,20.6813431 C17.441561,20.4481168 18.6100683,20.3254891 19.8069073,20.3254891 C24.6508098,20.3250219 29.0327415,22.3336642 32.1617561,25.5590073 Z" id="Fill-7" fill="#0052B4"></path>
                </g>
            </g>
        </g>
    </g>
</svg>