<?xml version="1.0" encoding="UTF-8"?>
<svg width="96px" height="96px" viewBox="0 0 96 96" version="1.1" xmlns="http://www.w3.org/2000/svg" xmlns:xlink="http://www.w3.org/1999/xlink">
    <title>brunei</title>
    <desc>designed by Freepik from Flaticon</desc>
    <defs>
        <polygon id="path-1" points="0.0140487805 0.0959064287 0.0140487805 95.9998913 95.8991319 95.9998913 95.8991319 0.0959064287"></polygon>
    </defs>
    <g id="Page-1" stroke="none" stroke-width="1" fill="none" fill-rule="evenodd">
        <g id="brunei">
            <g id="Group-6">
                <mask id="mask-2" fill="white">
                    <use xlink:href="#path-1"></use>
                </mask>
                <g id="Clip-2"></g>
                <path d="M95.8948683,48.0482341 C95.8948683,74.5278439 74.4292683,95.9932098 47.9496585,95.9932098 C21.4709854,95.9932098 0.00468292683,74.5278439 0.00468292683,48.0482341 C0.00468292683,21.5686244 21.4709854,0.10302439 47.9496585,0.10302439 C74.4292683,0.10302439 95.8948683,21.5686244 95.8948683,48.0482341 Z" id="Fill-1" fill="#F3F3F3" mask="url(#mask-2)"></path>
                <path d="M6.42801951,24.0756293 C4.26403902,27.8229073 2.66809756,31.7411122 1.60437073,35.7326049 L81.7875512,82.0259122 C84.7125073,79.1100878 87.3073171,75.7678829 89.4712976,72.020839 L6.42801951,24.0756293 Z" id="Fill-3" fill="#000000" mask="url(#mask-2)"></path>
                <path d="M71.9222634,6.52659512 C52.7377171,-4.54969756 29.0835512,-0.858146341 14.112,14.0696195 L94.2942439,60.3626927 C99.7362732,39.9334244 91.1068098,17.6017171 71.9222634,6.52659512 Z" id="Fill-4" fill="#FFDA44" mask="url(#mask-2)"></path>
                <path d="M23.9770537,89.5698732 C43.1616,100.645229 66.8157659,96.953678 81.7875512,82.0268488 L1.60437073,35.7326049 C-3.8369561,56.1618732 4.79274146,78.4935805 23.9770537,89.5698732 Z" id="Fill-5" fill="#FFDA44" mask="url(#mask-2)"></path>
            </g>
            <path d="M61.4990049,42.8366049 C61.4990049,50.3192195 55.4332098,56.3859512 47.9496585,56.3859512 C40.4661073,56.3859512 34.4003122,50.3201561 34.4003122,42.8366049 C34.4003122,40.5033366 34.990361,38.307278 36.0283317,36.3912585 C33.0886244,39.3974634 31.2730537,43.5097756 31.2730537,48.0482341 C31.2730537,57.257678 38.739278,64.7246049 47.9496585,64.7246049 C57.160039,64.7246049 64.6262634,57.2586146 64.6262634,48.0482341 C64.6262634,43.5097756 62.8116293,39.3974634 59.8709854,36.3912585 C60.9101268,38.3082146 61.4990049,40.5033366 61.4990049,42.8366049 Z" id="Fill-7" fill="#D80027"></path>
            <polygon id="Fill-8" fill="#D80027" points="44.8235707 58.4712585 51.0769171 58.4712585 51.0769171 27.2026537 44.8235707 27.2026537"></polygon>
            <path d="M58.3729171,33.456 L37.5273366,33.456 C37.5273366,34.8948293 38.7804878,36.0618146 40.2200195,36.0618146 L40.1331512,36.0618146 C40.1331512,37.5006439 41.2994341,38.6676293 42.7389659,38.6676293 C42.7389659,40.1064585 43.9052488,41.2734439 45.3438439,41.2734439 L50.5554732,41.2734439 C51.9950049,41.2734439 53.1612878,40.1064585 53.1612878,38.6676293 C54.6008195,38.6676293 55.7671024,37.5006439 55.7671024,36.0618146 L55.6802341,36.0618146 C57.1188293,36.0618146 58.3729171,34.8957659 58.3729171,33.456 Z" id="Fill-9" fill="#D80027"></path>
            <polygon id="Fill-10" fill="#D80027" points="33.3585951 66.8092098 62.5418927 66.8092098 62.5418927 60.5558634 33.3585951 60.5558634"></polygon>
            <polygon id="Fill-11" fill="#D80027" points="54.2039415 68.8935805 66.7106341 68.8935805 66.7106341 62.6402341 54.2039415 62.6402341"></polygon>
            <polygon id="Fill-12" fill="#D80027" points="29.1886829 68.8935805 41.6963122 68.8935805 41.6963122 62.6402341 29.1886829 62.6402341"></polygon>
        </g>
    </g>
</svg>