<?xml version="1.0" encoding="UTF-8"?>
<svg width="96px" height="96px" viewBox="0 0 96 96" version="1.1" xmlns="http://www.w3.org/2000/svg" xmlns:xlink="http://www.w3.org/1999/xlink">
    <title>burundi</title>
    <desc>designed by Freepik from Flaticon</desc>
    <defs>
        <polygon id="path-1" points="0.0140487805 0.0934306569 0.0140487805 95.7668905 95.9068098 95.7668905 95.9068098 0.0934306569"></polygon>
    </defs>
    <g id="Page-1" stroke="none" stroke-width="1" fill="none" fill-rule="evenodd">
        <g id="burundi">
            <g id="Group-7">
                <mask id="mask-2" fill="white">
                    <use xlink:href="#path-1"></use>
                </mask>
                <g id="Clip-2"></g>
                <path d="M95.9068098,47.9301606 C95.9068098,74.3488467 74.4365268,95.7668905 47.9534049,95.7668905 C21.4691122,95.7668905 0,74.3488467 0,47.9301606 C0,21.5103066 21.4691122,0.0934306569 47.9534049,0.0934306569 C74.4365268,0.0934306569 95.9068098,21.5103066 95.9068098,47.9301606 Z" id="Fill-1" fill="#F3F3F3" mask="url(#mask-2)"></path>
                <path d="M77.1512195,9.97839416 C59.9836098,-3.19953285 35.9232,-3.19953285 18.7546537,9.97839416 L47.9534049,39.1061022 L77.1512195,9.97839416 Z" id="Fill-3" fill="#D80027" mask="url(#mask-2)"></path>
                <path d="M47.9524683,56.7539854 L18.7546537,85.8807591 C35.9232,99.0596204 59.9836098,99.0596204 77.1512195,85.8807591 L47.9534049,56.7539854 L47.9524683,56.7539854 Z" id="Fill-4" fill="#D80027" mask="url(#mask-2)"></path>
                <path d="M39.1078244,47.9301606 L9.90907317,18.8024526 C-3.30099512,35.9292263 -3.30099512,59.9310949 9.90907317,77.0569343 L39.1078244,47.9301606 Z" id="Fill-5" fill="#6DA544" mask="url(#mask-2)"></path>
                <path d="M56.7987512,47.9301606 L85.9965659,77.0569343 C99.2075707,59.9310949 99.2075707,35.9292263 85.9965659,18.8024526 L56.7987512,47.9301606 Z" id="Fill-6" fill="#6DA544" mask="url(#mask-2)"></path>
            </g>
            <path d="M68.8024976,47.9301606 C68.8024976,59.4165255 59.4677854,68.7285255 47.9534049,68.7285255 C36.4380878,68.7285255 27.1043122,59.4165255 27.1043122,47.9301606 C27.1043122,36.4428613 36.4380878,27.1317956 47.9534049,27.1317956 C59.4677854,27.1317956 68.8024976,36.4428613 68.8024976,47.9301606 Z" id="Fill-8" fill="#F3F3F3"></path>
            <polygon id="Fill-9" fill="#D80027" points="47.9534049 33.3708613 49.7589073 36.4912117 53.3699122 36.4912117 51.5644098 39.6108613 53.3699122 42.7302774 49.7589073 42.7302774 47.9534049 45.849927 46.1479024 42.7302774 42.5368976 42.7302774 44.3424 39.6108613 42.5368976 36.4912117 46.1479024 36.4912117"></polygon>
            <polygon id="Fill-10" fill="#D80027" points="38.7758049 47.9301606 40.5813073 51.0495766 44.1923122 51.0495766 42.3868098 54.1692263 44.1923122 57.2895766 40.5813073 57.2895766 38.7758049 60.4092263 36.9696 57.2895766 33.3585951 57.2895766 35.1640976 54.1692263 33.3585951 51.0495766 36.9696 51.0495766"></polygon>
            <polygon id="Fill-11" fill="#D80027" points="57.1307707 47.9301606 58.9362732 51.0495766 62.547278 51.0495766 60.7417756 54.1692263 62.547278 57.2895766 58.9362732 57.2895766 57.1307707 60.4092263 55.3252683 57.2895766 51.7142634 57.2895766 53.5197659 54.1692263 51.7142634 51.0495766 55.3252683 51.0495766"></polygon>
        </g>
    </g>
</svg>