<?xml version="1.0" encoding="UTF-8"?>
<svg width="96px" height="96px" viewBox="0 0 96 96" version="1.1" xmlns="http://www.w3.org/2000/svg" xmlns:xlink="http://www.w3.org/1999/xlink">
    <title>cambodia</title>
    <desc>designed by Freepik from Flaticon</desc>
    <defs>
        <polygon id="path-1" points="0.0140487805 0.103474453 0.0140487805 54.1802044 95.9068098 54.1802044 95.9068098 0.103474453"></polygon>
    </defs>
    <g id="Page-1" stroke="none" stroke-width="1" fill="none" fill-rule="evenodd">
        <g id="cambodia">
            <g id="Group-3" transform="translate(0.000000, 20.788321)">
                <mask id="mask-2" fill="white">
                    <use xlink:href="#path-1"></use>
                </mask>
                <g id="Clip-2"></g>
                <path d="M0,27.1418394 C0,35.4291387 2.11363902,43.2238248 5.8307122,50.0195036 L47.9534049,54.1802044 L90.0758634,50.0195036 C93.7929366,43.2238248 95.9068098,35.4291387 95.9068098,27.1418394 C95.9068098,18.8543066 93.7929366,11.0596204 90.0758634,4.26324088 L47.9534049,0.103474453 L5.8307122,4.26324088 C2.11363902,11.0596204 0,18.8543066 0,27.1418394 Z" id="Fill-1" fill="#D80027" mask="url(#mask-2)"></path>
            </g>
            <path d="M5.8307122,25.051562 L90.0758634,25.051562 C81.9430244,10.1818394 66.1299512,0.0934306569 47.9534049,0.0934306569 C29.7768585,0.0934306569 13.9637854,10.1818394 5.8307122,25.051562 Z" id="Fill-4" fill="#0052B4"></path>
            <path d="M47.9534049,95.7668905 C66.1299512,95.7668905 81.9430244,85.6782482 90.0758634,70.8078248 L5.8307122,70.8078248 C13.9637854,85.6782482 29.7768585,95.7668905 47.9534049,95.7668905 Z" id="Fill-5" fill="#0052B4"></path>
            <polygon id="Fill-6" fill="#F3F3F3" points="64.6325854 57.2895766 64.6325854 51.0495766 60.4629073 51.0495766 60.4629073 42.7302774 56.2929951 38.5705109 52.1230829 42.7302774 52.1230829 34.4109781 47.9534049 30.2512117 43.7834927 34.4109781 43.7834927 42.7302774 39.6138146 38.5705109 35.4439024 42.7302774 35.4439024 51.0495766 31.2739902 51.0495766 31.2739902 57.2895766 27.1043122 57.2895766 27.1043122 63.5286423 68.8024976 63.5286423 68.8024976 57.2895766"></polygon>
        </g>
    </g>
</svg>