<?xml version="1.0" encoding="UTF-8"?>
<svg width="96px" height="96px" viewBox="0 0 96 96" version="1.1" xmlns="http://www.w3.org/2000/svg" xmlns:xlink="http://www.w3.org/1999/xlink">
    <title>canary-islands</title>
    <desc>designed by Freepik from Flaticon</desc>
    <defs>
        <polygon id="path-1" points="0.0140487805 0.0322335766 0.0140487805 89.7548613 95.9068098 89.7548613 95.9068098 0.0322335766"></polygon>
    </defs>
    <g id="Page-1" stroke="none" stroke-width="1" fill="none" fill-rule="evenodd">
        <g id="canary-islands">
            <path d="M47.9534049,0.0934306569 C42.0878049,0.0934306569 36.4682927,1.14639416 31.2739902,3.06872993 L29.1886829,47.9301606 L31.2739902,92.7913577 C36.4682927,94.713927 42.0878049,95.7668905 47.9534049,95.7668905 C53.8190049,95.7668905 59.4375805,94.713927 64.6325854,92.7913577 L66.7171902,47.9301606 L64.6325854,3.06872993 C59.4375805,1.14639416 53.8190049,0.0934306569 47.9534049,0.0934306569 Z" id="Fill-1" fill="#338AF3"></path>
            <g id="Group-5" transform="translate(0.000000, 3.036496)">
                <mask id="mask-2" fill="white">
                    <use xlink:href="#path-1"></use>
                </mask>
                <g id="Clip-3"></g>
                <path d="M95.9068098,44.8936642 C95.9068098,24.3251387 82.8931902,6.79147445 64.6325854,0.0322335766 L64.6325854,89.7548613 C82.8931902,82.995854 95.9068098,65.4610219 95.9068098,44.8936642 Z" id="Fill-2" fill="#FFDA44" mask="url(#mask-2)"></path>
                <path d="M31.2739902,89.7548613 L31.2739902,0.0322335766 C13.0133854,6.79147445 0,24.3251387 0,44.8936642 C0,65.4610219 13.0133854,82.995854 31.2739902,89.7548613 Z" id="Fill-4" fill="#F3F3F3" mask="url(#mask-2)"></path>
            </g>
        </g>
    </g>
</svg>