<?xml version="1.0" encoding="UTF-8"?>
<svg width="96px" height="96px" viewBox="0 0 96 96" version="1.1" xmlns="http://www.w3.org/2000/svg" xmlns:xlink="http://www.w3.org/1999/xlink">
    <title>china</title>
    <desc>designed by Freepik from Flaticon</desc>
    <defs>
        <polygon id="path-1" points="0.0140487805 0.0934306569 0.0140487805 95.7668905 95.9068098 95.7668905 95.9068098 0.0934306569"></polygon>
    </defs>
    <g id="Page-1" stroke="none" stroke-width="1" fill="none" fill-rule="evenodd">
        <g id="china">
            <g id="Group-3">
                <mask id="mask-2" fill="white">
                    <use xlink:href="#path-1"></use>
                </mask>
                <g id="Clip-2"></g>
                <path d="M95.9068098,47.9301606 C95.9068098,74.3488467 74.4365268,95.7668905 47.9534049,95.7668905 C21.4691122,95.7668905 0,74.3488467 0,47.9301606 C0,21.5103066 21.4691122,0.0934306569 47.9534049,0.0934306569 C74.4365268,0.0934306569 95.9068098,21.5103066 95.9068098,47.9301606 Z" id="Fill-1" fill="#D80027" mask="url(#mask-2)"></path>
            </g>
            <polygon id="Fill-4" fill="#FFDA44" points="26.2454634 29.2110949 30.3858732 41.9218686 43.7834927 41.9218686 32.9441561 49.7777518 37.0848 62.4885255 26.2454634 54.6326423 15.4070634 62.4885255 19.5465366 49.7777518 8.70813659 41.9218686 22.1048195 41.9218686"></polygon>
            <polygon id="Fill-5" fill="#FFDA44" points="52.3399024 71.4875328 48.2753561 68.5414307 44.2105756 71.4865985 45.7627317 66.7202336 41.6981854 63.7750657 46.7232 63.7750657 48.2753561 59.0077664 49.8275122 63.7750657 54.8515902 63.7750657 50.7877463 66.7202336"></polygon>
            <polygon id="Fill-6" fill="#FFDA44" points="62.9432195 56.9282336 57.9191415 56.9282336 56.3669854 61.6945985 54.8141268 56.9282336 49.7900488 56.9282336 53.8545951 53.9821314 52.3015024 49.2157664 56.3669854 52.1609343 60.4317659 49.2157664 58.8786732 53.9821314"></polygon>
            <polygon id="Fill-7" fill="#FFDA44" points="62.9432195 38.931854 58.8786732 41.8781898 60.4317659 46.6445547 56.3669854 43.6991533 52.3015024 46.6445547 53.8545951 41.8781898 49.7900488 38.931854 54.8141268 38.931854 56.3669854 34.1654891 57.9191415 38.931854"></polygon>
            <polygon id="Fill-8" fill="#FFDA44" points="52.3399024 24.3725547 50.7877463 29.139854 54.8515902 32.0852555 49.8284488 32.0852555 48.2753561 36.8525547 46.7232 32.0852555 41.699122 32.0852555 45.7636683 29.1391533 44.2105756 24.3725547 48.2753561 27.3188905"></polygon>
        </g>
    </g>
</svg>