<?xml version="1.0" encoding="UTF-8"?>
<svg width="96px" height="96px" viewBox="0 0 96 96" version="1.1" xmlns="http://www.w3.org/2000/svg" xmlns:xlink="http://www.w3.org/1999/xlink">
    <title>christmas-island</title>
    <desc>designed by Freepik from Flaticon</desc>
    <defs>
        <polygon id="path-1" points="0.0140487805 0.0934243902 0.0140487805 95.9999415 95.9069854 95.9999415 95.9069854 0.0934243902"></polygon>
    </defs>
    <g id="Page-1" stroke="none" stroke-width="1" fill="none" fill-rule="evenodd">
        <g id="christmas-island">
            <g id="Group-4">
                <mask id="mask-2" fill="white">
                    <use xlink:href="#path-1"></use>
                </mask>
                <g id="Clip-2"></g>
                <path d="M81.8615415,81.9552 C63.1345171,100.681522 32.7722927,100.681522 14.0450341,81.9552 C-4.68199024,63.2281756 -4.68199024,32.8659512 14.0450341,14.1386927 C15.5194537,15.6121756 52.3764293,43.6238049 52.3764293,43.6238049 L81.8615415,81.9552 Z" id="Fill-1" fill="#0052B4" mask="url(#mask-2)"></path>
                <path d="M14.0450341,14.1386927 C32.7722927,-4.58833171 63.1345171,-4.58833171 81.8615415,14.1386927 C100.5888,32.8659512 100.5888,63.2281756 81.8615415,81.9552" id="Fill-3" fill="#6DA544" mask="url(#mask-2)"></path>
            </g>
            <path d="M60.4629073,48.0470634 C60.4629073,54.9553171 54.8625951,60.5565659 47.9534049,60.5565659 C41.0442146,60.5565659 35.4439024,54.9553171 35.4439024,48.0470634 C35.4439024,41.1378732 41.0442146,35.537561 47.9534049,35.537561 C54.8625951,35.537561 60.4629073,41.1378732 60.4629073,48.0470634 Z" id="Fill-5" fill="#FFDA44"></path>
            <polygon id="Fill-6" fill="#F3F3F3" points="17.8564683 68.8961561 19.1716683 71.6473756 22.1432195 70.9603902 20.8125659 73.7052878 23.2024976 75.6004683 20.2272 76.2708293 20.2353951 79.3201171 17.8564683 77.4122927 15.4766049 79.3201171 15.4848 76.2708293 12.5095024 75.6004683 14.8994341 73.7052878 13.5685463 70.9603902 16.5403317 71.6473756"></polygon>
            <polygon id="Fill-7" fill="#F3F3F3" points="9.24878049 45.9617561 10.5639805 48.713678 13.5357659 48.0259902 12.204878 50.7708878 14.5948098 52.6658341 11.6195122 53.3364293 11.6277073 56.3866537 9.24878049 54.4788293 6.86891707 56.3866537 6.8771122 53.3364293 3.90181463 52.6658341 6.29174634 50.7708878 4.96109268 48.0259902 7.9326439 48.713678"></polygon>
            <polygon id="Fill-8" fill="#F3F3F3" points="17.8564683 27.1979707 19.1716683 29.9491902 22.1432195 29.2622049 20.8135024 32.0061659 23.2024976 33.9013463 20.2272 34.5717073 20.2353951 37.6219317 17.8564683 35.7141073 15.4766049 37.6219317 15.4848 34.5717073 12.510439 33.9013463 14.8994341 32.0061659 13.5685463 29.2622049 16.5403317 29.9491902"></polygon>
            <polygon id="Fill-9" fill="#F3F3F3" points="28.5485268 41.7918439 29.8646634 44.544 32.8362146 43.856078 31.505561 46.6009756 33.8954927 48.4961561 30.9201951 49.1665171 30.9283902 52.2167415 28.5485268 50.3089171 26.1696 52.2167415 26.1777951 49.1665171 23.2024976 48.4961561 25.5924293 46.6009756 24.2615415 43.856078 27.2333268 44.544"></polygon>
            <polygon id="Fill-10" fill="#F3F3F3" points="20.9029463 54.3013463 21.9383415 57.4869073 25.2878049 57.4869073 22.5777951 59.456078 23.6131902 62.6409366 20.9029463 60.6727024 18.1929366 62.6409366 19.2283317 59.456078 16.518322 57.4869073 19.8677854 57.4869073"></polygon>
            <path d="M47.9534049,56.3866537 L52.1230829,56.3866537 C52.1230829,56.3866537 53.9304585,53.1900878 52.1230829,50.1314341 L56.2929951,45.9617561 L54.2086244,41.7918439 L52.1230829,41.7918439 C52.1230829,41.7918439 51.0813659,44.9198049 46.9107512,44.9198049 C42.740839,44.9198049 41.699122,41.7918439 41.699122,41.7918439 L39.6138146,41.7918439 L41.699122,45.9617561 L39.6138146,50.1314341 L41.699122,52.2167415 C41.699122,52.2167415 43.7834927,48.0470634 47.9534049,50.1314341 C47.9534049,50.1314341 49.7258927,52.7381854 47.9534049,56.3866537 Z" id="Fill-11" fill="#6DA544"></path>
            <path d="M79.0766049,26.3601951 C79.1754146,25.8469463 79.2273951,25.3191805 79.2273951,24.7778341 C79.2273951,21.0689561 76.8053854,17.9271805 73.4580293,16.8442537 C74.4805463,18.923239 75.0577171,21.2618927 75.0577171,23.7361171 C75.0577171,24.5701463 74.9900488,25.388722 74.8645463,26.187161 C74.3606634,25.376078 73.7130146,24.6343024 72.9227707,24.0049171 C69.943961,21.635122 65.8737951,21.5719024 62.8645463,23.5677659 C65.1877463,24.0753951 67.4341463,25.1061073 69.4206439,26.6875317 C70.9765463,27.9249951 72.2332098,29.5998439 73.1953171,31.215922 L60.4629073,35.2027317 C72.9721756,37.2873366 83.3973073,28.9475122 83.3973073,28.9475122 C82.2420293,26.6381268 80.4484683,26.2485073 79.0766049,26.3601951 Z" id="Fill-12" fill="#FFDA44"></path>
        </g>
    </g>
</svg>