<?xml version="1.0" encoding="UTF-8"?>
<svg width="96px" height="96px" viewBox="0 0 96 96" version="1.1" xmlns="http://www.w3.org/2000/svg" xmlns:xlink="http://www.w3.org/1999/xlink">
    <title>cocos-island</title>
    <desc>designed by Freepik from Flaticon</desc>
    <defs>
        <polygon id="path-1" points="0.0140487805 0.0934306569 0.0140487805 95.7668905 95.9068098 95.7668905 95.9068098 0.0934306569"></polygon>
    </defs>
    <g id="Page-1" stroke="none" stroke-width="1" fill="none" fill-rule="evenodd">
        <g id="cocos-island">
            <g id="Group-3">
                <mask id="mask-2" fill="white">
                    <use xlink:href="#path-1"></use>
                </mask>
                <g id="Clip-2"></g>
                <path d="M95.9068098,47.9301606 C95.9068098,74.3488467 74.4365268,95.7668905 47.9534049,95.7668905 C21.4691122,95.7668905 0,74.3488467 0,47.9301606 C0,21.5103066 21.4691122,0.0934306569 47.9534049,0.0934306569 C74.4365268,0.0934306569 95.9068098,21.5103066 95.9068098,47.9301606 Z" id="Fill-1" fill="#6DA544" mask="url(#mask-2)"></path>
            </g>
            <polygon id="Fill-4" fill="#FFDA44" points="73.6125659 68.7285255 74.9287024 71.4730511 77.9002537 70.7877372 76.5696 73.5259562 78.9595317 75.4165255 75.9832976 76.0852555 75.9924293 79.1280584 73.6125659 77.2239416 71.233639 79.1280584 71.2418341 76.0852555 68.2665366 75.4165255 70.6564683 73.5259562 69.3255805 70.7877372 72.2964293 71.4730511"></polygon>
            <polygon id="Fill-5" fill="#FFDA44" points="61.3709268 39.6108613 62.6872976 42.3553869 65.6588488 41.670073 64.327961 44.408292 66.7171902 46.2976934 63.7425951 46.9675912 63.7510244 50.0094599 61.3709268 48.1062774 58.992 50.0094599 58.9994927 46.9675912 56.0248976 46.2976934 58.4141268 44.408292 57.083239 41.670073 60.0557268 42.3553869"></polygon>
            <polygon id="Fill-6" fill="#FFDA44" points="73.6125659 22.9720292 74.9287024 25.7165547 77.9002537 25.0314745 76.5696 27.7694599 78.9595317 29.6590949 75.9832976 30.3278248 75.9914927 33.3708613 73.6125659 31.4674453 71.233639 33.3708613 71.2418341 30.3278248 68.2665366 29.6590949 70.6564683 27.7694599 69.3255805 25.0314745 72.2964293 25.7165547"></polygon>
            <polygon id="Fill-7" fill="#FFDA44" points="84.305561 35.4510949 85.620761 38.1956204 88.5932488 37.5103066 87.2616585 40.2485255 89.6515902 42.1381606 86.6762927 42.8078248 86.6844878 45.849927 84.305561 43.9465109 81.9256976 45.849927 81.9338927 42.8078248 78.9595317 42.1381606 81.3485268 40.2485255 80.017639 37.5103066 82.9894244 38.1956204"></polygon>
            <polygon id="Fill-8" fill="#FFDA44" points="76.6590439 50.0094599 77.694439 53.1875036 81.0439024 53.1875036 78.3338927 55.1518832 79.3692878 58.3287591 76.6590439 56.3653139 73.9499707 58.3287591 74.9844293 55.1518832 72.2753561 53.1875036 75.6245854 53.1875036"></polygon>
            <path d="M53.1657366,61.4493431 C45.6805463,61.4493431 39.612878,55.396438 39.612878,47.9301606 C39.612878,40.4638832 45.6805463,34.4109781 53.1657366,34.4109781 C55.4990049,34.4109781 57.6950634,34.9993577 59.6122537,36.0359708 C56.604878,33.1015474 52.4918634,31.2913285 47.9524683,31.2913285 C38.7411512,31.2913285 31.2739902,38.7403212 31.2739902,47.9301606 C31.2739902,57.1190657 38.7411512,64.5687591 47.9524683,64.5687591 C52.4918634,64.5687591 56.604878,62.7576058 59.6122537,59.8234161 C57.6950634,60.8597956 55.4990049,61.4493431 53.1657366,61.4493431 Z" id="Fill-9" fill="#FFDA44"></path>
            <path d="M30.1554732,18.8124964 C28.7131317,16.326073 26.0204488,14.6527299 22.9344,14.6527299 C19.8476488,14.6527299 17.1549659,16.326073 15.7123902,18.8124964 L30.1554732,18.8124964 Z" id="Fill-10" fill="#FFDA44"></path>
            <path d="M30.1828683,18.8599124 L22.9344,26.0916788 L15.6849951,18.8599124 C14.9926244,20.0733431 14.5948098,21.4757372 14.5948098,22.9720292 C14.5948098,27.5669489 18.3282732,31.2913285 22.9344,31.2913285 C27.5405268,31.2913285 31.2739902,27.5669489 31.2739902,22.9720292 C31.2739902,21.4757372 30.8761756,20.0733431 30.1828683,18.8599124 Z" id="Fill-11" fill="#FFDA44"></path>
            <path d="M20.8490927,24.0112117 L20.8490927,31.0285547 C21.5159415,31.2002336 22.2136976,31.2913285 22.9334634,31.2913285 C23.6541659,31.2913285 24.3521561,31.2002336 25.0190049,31.0285547 L25.0190049,24.0112117 L20.8490927,24.0112117 Z" id="Fill-12" fill="#A2001D"></path>
        </g>
    </g>
</svg>