<?xml version="1.0" encoding="UTF-8"?>
<svg width="96px" height="96px" viewBox="0 0 96 96" version="1.1" xmlns="http://www.w3.org/2000/svg" xmlns:xlink="http://www.w3.org/1999/xlink">
    <title>comoros</title>
    <desc>designed by Freepik from Flaticon</desc>
    <defs>
        <polygon id="path-1" points="0.0140487805 0.0934306569 0.0140487805 95.7668905 95.9068098 95.7668905 95.9068098 0.0934306569"></polygon>
        <polygon id="path-3" points="0.0140487805 0.184759124 0.0140487805 81.9858686 90.1517268 81.9858686 90.1517268 0.184759124"></polygon>
    </defs>
    <g id="Page-1" stroke="none" stroke-width="1" fill="none" fill-rule="evenodd">
        <g id="comoros">
            <g id="Group-3">
                <mask id="mask-2" fill="white">
                    <use xlink:href="#path-1"></use>
                </mask>
                <g id="Clip-2"></g>
                <path d="M95.9068098,47.9301606 C95.9068098,74.3488467 74.4374634,95.7668905 47.9534049,95.7668905 C21.4691122,95.7668905 0,74.3488467 0,47.9301606 C0,21.5103066 21.4691122,0.0934306569 47.9534049,0.0934306569 C74.4374634,0.0934306569 95.9068098,21.5103066 95.9068098,47.9301606 Z" id="Fill-1" fill="#F3F3F3" mask="url(#mask-2)"></path>
            </g>
            <path d="M95.9049366,47.7914161 L43.9225756,47.7914161 C33.6018732,58.0870073 27.3604683,66.035854 20.9881756,72.3926423 L48.0924878,74.829781 L90.1510244,70.6700146 C93.8212683,63.9063358 95.9068098,56.1609343 95.9068098,47.9301606 C95.9068098,47.8836788 95.9049366,47.8378978 95.9049366,47.7914161 Z" id="Fill-4" fill="#D80027"></path>
            <path d="M20.9881756,24.9128175 L89.9981268,24.9128175 C81.843278,10.1199416 66.0723512,0.0934306569 47.9534049,0.0934306569 C34.7461463,0.0934306569 22.7889951,5.42108029 14.1173854,14.0377226 L20.9881756,24.9128175 Z" id="Fill-5" fill="#FFDA44"></path>
            <g id="Group-9" transform="translate(0.000000, 13.781022)">
                <mask id="mask-4" fill="white">
                    <use xlink:href="#path-3"></use>
                </mask>
                <g id="Clip-7"></g>
                <path d="M23.0734829,56.8889927 C18.7619122,61.1891387 17.0964293,64.792292 13.9773659,67.9035328 C22.6599805,76.6007591 34.6756683,81.9858686 47.9534049,81.9858686 C66.185678,81.9858686 82.0408976,71.8343942 90.1517268,56.8889927 L23.0734829,56.8889927 Z" id="Fill-6" fill="#0052B4" mask="url(#mask-4)"></path>
                <path d="M14.0450341,0.184759124 C-4.68199024,18.866219 -4.68199024,49.1545693 14.0450341,67.8360292 L47.9534049,34.0103942 L14.0450341,0.184759124 Z" id="Fill-8" fill="#6DA544" mask="url(#mask-4)"></path>
            </g>
            <path d="M12.6485854,47.7914161 C12.6485854,40.8214891 17.5591024,34.9993577 24.1152,33.5715036 C23.1081366,33.351708 22.0619707,33.2321168 20.9881756,33.2321168 C12.9274537,33.2321168 6.39430244,39.7503066 6.39430244,47.7914161 C6.39430244,55.8325255 12.9274537,62.3507153 20.9881756,62.3507153 C22.0619707,62.3507153 23.1074341,62.2311241 24.1152,62.0122628 C17.5591024,60.5834745 12.6485854,54.7613431 12.6485854,47.7914161 Z" id="Fill-10" fill="#F3F3F3"></path>
            <polygon id="Fill-11" fill="#F3F3F3" points="23.955278 35.3123504 24.7307707 37.6955328 27.2433951 37.6955328 25.2110049 39.1682336 25.9874341 41.5514161 23.955278 40.0787153 21.9219512 41.5514161 22.6983805 39.1682336 20.6662244 37.6955328 23.1786146 37.6955328"></polygon>
            <polygon id="Fill-12" fill="#F3F3F3" points="23.955278 41.5514161 24.7307707 43.9355328 27.2433951 43.9355328 25.2110049 45.4082336 25.9874341 47.7914161 23.955278 46.3187153 21.9219512 47.7914161 22.6983805 45.4082336 20.6662244 43.9355328 23.1786146 43.9355328"></polygon>
            <polygon id="Fill-13" fill="#F3F3F3" points="23.955278 47.7914161 24.7307707 50.1745985 27.2433951 50.1745985 25.2110049 51.6482336 25.9874341 54.0314161 23.955278 52.557781 21.9219512 54.0314161 22.6983805 51.6482336 20.6662244 50.1745985 23.1786146 50.1745985"></polygon>
            <polygon id="Fill-14" fill="#F3F3F3" points="23.955278 54.0314161 24.7307707 56.4145985 27.2433951 56.4145985 25.2110049 57.8872993 25.9874341 60.2704818 23.955278 58.797781 21.9219512 60.2704818 22.6983805 57.8872993 20.6662244 56.4145985 23.1786146 56.4145985"></polygon>
        </g>
    </g>
</svg>