<?xml version="1.0" encoding="UTF-8"?>
<svg width="96px" height="96px" viewBox="0 0 96 96" version="1.1" xmlns="http://www.w3.org/2000/svg" xmlns:xlink="http://www.w3.org/1999/xlink">
    <title>denmark</title>
    <desc>designed by Freepik from Flaticon</desc>
    <defs>
        <polygon id="path-1" points="0.0140487805 0.0934306569 0.0140487805 95.7668905 95.9068098 95.7668905 95.9068098 0.0934306569"></polygon>
    </defs>
    <g id="Page-1" stroke="none" stroke-width="1" fill="none" fill-rule="evenodd">
        <g id="denmark">
            <g id="Group-3">
                <mask id="mask-2" fill="white">
                    <use xlink:href="#path-1"></use>
                </mask>
                <g id="Clip-2"></g>
                <path d="M95.9068098,47.9301606 C95.9068098,74.3488467 74.4365268,95.7668905 47.9534049,95.7668905 C21.4691122,95.7668905 0,74.3488467 0,47.9301606 C0,21.5103066 21.4691122,0.0934306569 47.9534049,0.0934306569 C74.4365268,0.0934306569 95.9068098,21.5103066 95.9068098,47.9301606 Z" id="Fill-1" fill="#F3F3F3" mask="url(#mask-2)"></path>
            </g>
            <path d="M37.5282732,41.6901606 L95.5005659,41.6901606 C92.4355902,18.2194453 72.3172683,0.0934306569 47.9534049,0.0934306569 C44.3726049,0.0934306569 40.8849951,0.488408759 37.5282732,1.23024818 L37.5282732,41.6901606 Z" id="Fill-4" fill="#D80027"></path>
            <path d="M25.0190049,41.6901606 L25.0190049,5.9099562 C11.8517854,13.0770219 2.42552195,26.2229489 0.406009756,41.6901606 L25.0190049,41.6901606 Z" id="Fill-5" fill="#D80027"></path>
            <path d="M25.0190049,54.1692263 L0.406009756,54.1692263 C2.42552195,69.6371387 11.8517854,82.7832993 25.0190049,89.9501314 L25.0190049,54.1692263 Z" id="Fill-6" fill="#D80027"></path>
            <path d="M37.5282732,54.1692263 L37.5282732,94.6289051 C40.8849951,95.3716788 44.3726049,95.7668905 47.9534049,95.7668905 C72.3172683,95.7668905 92.4355902,77.6408759 95.5005659,54.1692263 L37.5282732,54.1692263 Z" id="Fill-7" fill="#D80027"></path>
        </g>
    </g>
</svg>