<?xml version="1.0" encoding="UTF-8"?>
<svg width="96px" height="96px" viewBox="0 0 96 96" version="1.1" xmlns="http://www.w3.org/2000/svg" xmlns:xlink="http://www.w3.org/1999/xlink">
    <title>dominican-republic</title>
    <desc>designed by Freepik from Flaticon</desc>
    <defs>
        <polygon id="path-1" points="0.0140487805 0.0934306569 0.0140487805 95.7668905 95.9068098 95.7668905 95.9068098 0.0934306569"></polygon>
    </defs>
    <g id="Page-1" stroke="none" stroke-width="1" fill="none" fill-rule="evenodd">
        <g id="dominican-republic">
            <g id="Group-3">
                <mask id="mask-2" fill="white">
                    <use xlink:href="#path-1"></use>
                </mask>
                <g id="Clip-2"></g>
                <path d="M95.9068098,47.9301606 C95.9068098,74.3488467 74.4365268,95.7668905 47.9534049,95.7668905 C21.4691122,95.7668905 0,74.3488467 0,47.9301606 C0,21.5103066 21.4691122,0.0934306569 47.9534049,0.0934306569 C74.4365268,0.0934306569 95.9068098,21.5103066 95.9068098,47.9301606 Z" id="Fill-1" fill="#F3F3F3" mask="url(#mask-2)"></path>
            </g>
            <path d="M1.65190244,60.4092263 C6.07960976,76.7978978 19.0152585,89.702073 35.4439024,94.1190073 L35.4439024,60.4092263 L1.65190244,60.4092263 Z" id="Fill-4" fill="#D80027"></path>
            <path d="M35.4439024,1.74131387 C19.0152585,6.15824818 6.07960976,19.0624234 1.65190244,35.4510949 L35.4439024,35.4510949 L35.4439024,1.74131387 Z" id="Fill-5" fill="#0052B4"></path>
            <path d="M94.2539707,35.4510949 C89.8272,19.0624234 76.8915512,6.15824818 60.4629073,1.74131387 L60.4629073,35.4510949 L94.2539707,35.4510949 Z" id="Fill-6" fill="#D80027"></path>
            <path d="M60.4629073,94.118073 C76.8915512,89.7011387 89.8272,76.7978978 94.2549073,60.4092263 L60.4629073,60.4092263 L60.4629073,94.118073 Z" id="Fill-7" fill="#0052B4"></path>
            <path d="M60.4629073,47.9301606 C60.4629073,54.8225401 54.8625951,60.4092263 47.9534049,60.4092263 C41.0442146,60.4092263 35.4439024,54.8225401 35.4439024,47.9301606 C35.4439024,41.037781 47.9534049,35.4510949 47.9534049,35.4510949 C47.9534049,35.4510949 60.4629073,41.037781 60.4629073,47.9301606 Z" id="Fill-8" fill="#496E2D"></path>
            <path d="M35.4439024,47.9301606 C35.4439024,41.037781 41.0442146,35.4510949 47.9534049,35.4510949 C54.8625951,35.4510949 60.4629073,41.037781 60.4629073,47.9301606" id="Fill-9" fill="#0052B4"></path>
            <path d="M40.9161366,41.6901606 L40.9161366,49.4895182 C40.9161366,53.3661898 44.0670439,56.5094307 47.9534049,56.5094307 C51.8395317,56.5094307 54.9897366,53.3661898 54.9897366,49.4895182 L54.9897366,41.6901606 L40.9161366,41.6901606 Z" id="Fill-10" fill="#D80027"></path>
        </g>
    </g>
</svg>