<?xml version="1.0" encoding="UTF-8"?>
<svg width="96px" height="96px" viewBox="0 0 96 96" version="1.1" xmlns="http://www.w3.org/2000/svg" xmlns:xlink="http://www.w3.org/1999/xlink">
    <title>ecuador</title>
    <desc>designed by Freepik from Flaticon</desc>
    <defs>
        <polygon id="path-1" points="0.0140487805 0.0934306569 0.0140487805 95.7668905 95.9068098 95.7668905 95.9068098 0.0934306569"></polygon>
    </defs>
    <g id="Page-1" stroke="none" stroke-width="1" fill="none" fill-rule="evenodd">
        <g id="ecuador">
            <g id="Group-5">
                <mask id="mask-2" fill="white">
                    <use xlink:href="#path-1"></use>
                </mask>
                <g id="Clip-2"></g>
                <path d="M0,47.9301606 C0,21.5103066 21.4691122,0.0934306569 47.9534049,0.0934306569 C74.4365268,0.0934306569 95.9068098,21.5103066 95.9068098,47.9301606 L47.9534049,52.0896934 L0,47.9301606 Z" id="Fill-1" fill="#FFDA44" mask="url(#mask-2)"></path>
                <path d="M6.41701463,71.8479416 C14.7081366,86.1463358 30.2039415,95.7668905 47.9534049,95.7668905 C65.7026341,95.7668905 81.1975024,86.1463358 89.489561,71.8479416 L47.9534049,68.7285255 L6.41701463,71.8479416 Z" id="Fill-3" fill="#D80027" mask="url(#mask-2)"></path>
                <path d="M89.489561,71.8479416 C93.5697951,64.8123796 95.9068098,56.6435036 95.9068098,47.9301606 L0,47.9301606 C0,56.6435036 2.33678049,64.8123796 6.41701463,71.8479416 L89.489561,71.8479416 Z" id="Fill-4" fill="#0052B4" mask="url(#mask-2)"></path>
            </g>
            <path d="M64.6325854,47.9301606 C64.6325854,57.1190657 57.164722,64.5687591 47.9534049,64.5687591 C38.7411512,64.5687591 31.2739902,57.1190657 31.2739902,47.9301606 C31.2739902,38.7403212 38.7411512,31.2913285 47.9534049,31.2913285 C57.164722,31.2913285 64.6325854,38.7403212 64.6325854,47.9301606 Z" id="Fill-6" fill="#FFDA44"></path>
            <path d="M47.9534049,58.3287591 C42.204878,58.3287591 37.5282732,53.6637664 37.5282732,47.9301606 L37.5282732,41.6901606 C37.5282732,35.9565547 42.204878,31.2913285 47.9534049,31.2913285 C53.7009951,31.2913285 58.3773659,35.9565547 58.3773659,41.6901606 L58.3773659,47.9301606 C58.3773659,53.6637664 53.7009951,58.3287591 47.9534049,58.3287591 Z" id="Fill-7" fill="#338AF3"></path>
            <path d="M64.6325854,22.9720292 L52.1230829,22.9720292 C52.1230829,20.6745693 50.2555317,18.8124964 47.9534049,18.8124964 C45.6503415,18.8124964 43.7834927,20.6745693 43.7834927,22.9720292 L31.2730537,22.9720292 C31.2730537,25.2694891 33.279922,27.1317956 35.5820488,27.1317956 L35.4429659,27.1317956 C35.4429659,29.4292555 37.3098146,31.2913285 39.612878,31.2913285 C39.612878,33.5887883 41.4804293,35.4510949 43.7834927,35.4510949 L52.1230829,35.4510949 C54.4261463,35.4510949 56.2929951,33.5887883 56.2929951,31.2913285 C58.5960585,31.2913285 60.4629073,29.4292555 60.4629073,27.1317956 L60.3238244,27.1317956 C62.6268878,27.1317956 64.6325854,25.2685547 64.6325854,22.9720292 Z" id="Fill-8" fill="#000000"></path>
        </g>
    </g>
</svg>