<?xml version="1.0" encoding="UTF-8"?>
<svg width="96px" height="96px" viewBox="0 0 96 96" version="1.1" xmlns="http://www.w3.org/2000/svg" xmlns:xlink="http://www.w3.org/1999/xlink">
    <title>egypt</title>
    <desc>designed by Freepik from Flaticon</desc>
    <defs>
        <polygon id="path-1" points="0.0140487805 0.0934306569 0.0140487805 95.7668905 95.9068098 95.7668905 95.9068098 0.0934306569"></polygon>
    </defs>
    <g id="Page-1" stroke="none" stroke-width="1" fill="none" fill-rule="evenodd">
        <g id="egypt">
            <g id="Group-3">
                <mask id="mask-2" fill="white">
                    <use xlink:href="#path-1"></use>
                </mask>
                <g id="Clip-2"></g>
                <path d="M95.9068098,47.9301606 C95.9068098,74.3488467 74.4365268,95.7668905 47.9534049,95.7668905 C21.4691122,95.7668905 0,74.3488467 0,47.9301606 C0,21.5103066 21.4691122,0.0934306569 47.9534049,0.0934306569 C74.4365268,0.0934306569 95.9068098,21.5103066 95.9068098,47.9301606 Z" id="Fill-1" fill="#F3F3F3" mask="url(#mask-2)"></path>
            </g>
            <path d="M47.9534049,0.0934306569 C27.3347122,0.0934306569 9.75828293,13.0751533 2.9825561,31.2913285 L92.9240195,31.2913285 C86.1485268,13.0751533 68.5709268,0.0934306569 47.9534049,0.0934306569 Z" id="Fill-4" fill="#D80027"></path>
            <path d="M47.9534049,95.7668905 C68.5709268,95.7668905 86.1485268,82.7849343 92.9240195,64.5687591 L2.9825561,64.5687591 C9.75828293,82.7849343 27.3347122,95.7668905 47.9534049,95.7668905 Z" id="Fill-5" fill="#000000"></path>
            <path d="M64.6325854,42.7302774 L52.1230829,42.7302774 C52.1230829,40.4328175 50.2555317,38.5705109 47.9534049,38.5705109 C45.6503415,38.5705109 43.7834927,40.4328175 43.7834927,42.7302774 L31.2730537,42.7302774 C31.2730537,45.0277372 33.279922,46.8900438 35.5820488,46.8900438 L35.4429659,46.8900438 C35.4429659,49.1875036 37.3098146,51.0495766 39.612878,51.0495766 C39.612878,53.3470365 41.4804293,55.2093431 43.7834927,55.2093431 L52.1230829,55.2093431 C54.4261463,55.2093431 56.2929951,53.3470365 56.2929951,51.0495766 C58.5960585,51.0495766 60.4629073,49.1875036 60.4629073,46.8900438 L60.3238244,46.8900438 C62.6268878,46.8900438 64.6325854,45.0277372 64.6325854,42.7302774 Z" id="Fill-6" fill="#FF9811"></path>
        </g>
    </g>
</svg>