<?xml version="1.0" encoding="UTF-8"?>
<svg width="96px" height="96px" viewBox="0 0 96 96" version="1.1" xmlns="http://www.w3.org/2000/svg" xmlns:xlink="http://www.w3.org/1999/xlink">
    <title>european-union</title>
    <desc>designed by Freepik from Flaticon</desc>
    <defs>
        <polygon id="path-1" points="0.0140487805 0.0934306569 0.0140487805 95.7668905 95.9068098 95.7668905 95.9068098 0.0934306569"></polygon>
    </defs>
    <g id="Page-1" stroke="none" stroke-width="1" fill="none" fill-rule="evenodd">
        <g id="european-union">
            <g id="Group-3">
                <mask id="mask-2" fill="white">
                    <use xlink:href="#path-1"></use>
                </mask>
                <g id="Clip-2"></g>
                <path d="M95.9068098,47.9301606 C95.9068098,74.3488467 74.4365268,95.7668905 47.9534049,95.7668905 C21.4691122,95.7668905 0,74.3488467 0,47.9301606 C0,21.5103066 21.4691122,0.0934306569 47.9534049,0.0934306569 C74.4365268,0.0934306569 95.9068098,21.5103066 95.9068098,47.9301606 Z" id="Fill-1" fill="#0052B4" mask="url(#mask-2)"></path>
            </g>
            <polygon id="Fill-4" fill="#FFDA44" points="47.9534049 18.8124964 49.5064976 23.5788613 54.529639 23.5788613 50.4648585 26.5249635 52.0179512 31.2913285 47.9534049 28.3452263 43.8886244 31.2913285 45.4407805 26.5249635 41.3762341 23.5788613 46.4003122 23.5788613"></polygon>
            <polygon id="Fill-5" fill="#FFDA44" points="27.313639 27.3406131 31.7900488 29.6154161 35.3422829 26.0725255 34.556722 31.0222482 39.0328976 33.2977518 34.0711024 34.081635 33.2853073 39.0313577 31.0042537 34.566073 26.0424585 35.3497226 29.5949268 31.8061314"></polygon>
            <polygon id="Fill-6" fill="#FFDA44" points="18.764722 47.9301606 23.5427122 46.3808467 23.5427122 41.3689927 26.496 45.4236496 31.2739902 43.8752701 28.3207024 47.9301606 31.2739902 51.9848175 26.496 50.4355036 23.5427122 54.4903942 23.5427122 49.4785401"></polygon>
            <polygon id="Fill-7" fill="#FFDA44" points="27.313639 68.5194745 29.5949268 64.0532555 26.0424585 60.5094307 31.0042537 61.2942482 33.2853073 56.8280292 34.0711024 61.7786861 39.0328976 62.5623358 34.556722 64.8378394 35.3422829 69.7877956 31.7900488 66.2439708"></polygon>
            <polygon id="Fill-8" fill="#FFDA44" points="47.9534049 77.0478248 46.4003122 72.2814599 41.3762341 72.2814599 45.4417171 69.3351241 43.8886244 64.5687591 47.9534049 67.5148613 52.0179512 64.5687591 50.4648585 69.3351241 54.529639 72.2814599 49.505561 72.2814599"></polygon>
            <polygon id="Fill-9" fill="#FFDA44" points="68.5929366 68.5194745 64.116761 66.2439708 60.5633561 69.7877956 61.3500878 64.8378394 56.873678 62.5623358 61.8357073 61.7786861 62.6212683 56.8280292 64.9025561 61.2942482 69.8643512 60.5094307 66.3118829 64.0541898"></polygon>
            <polygon id="Fill-10" fill="#FFDA44" points="77.1420878 47.9301606 72.3640976 49.4785401 72.3640976 54.4903942 69.4105756 50.4355036 64.6325854 51.9848175 67.5858732 47.9301606 64.6325854 43.8752701 69.4105756 45.4236496 72.3640976 41.3689927 72.3640976 46.3808467"></polygon>
            <polygon id="Fill-11" fill="#FFDA44" points="68.5929366 27.3406131 66.3118829 31.8061314 69.8643512 35.3497226 64.9025561 34.566073 62.6212683 39.0313577 61.8357073 34.081635 56.873678 33.2968175 61.3500878 31.0222482 60.5633561 26.0725255 64.116761 29.6163504"></polygon>
        </g>
    </g>
</svg>