<?xml version="1.0" encoding="UTF-8"?>
<svg width="96px" height="96px" viewBox="0 0 96 96" version="1.1" xmlns="http://www.w3.org/2000/svg" xmlns:xlink="http://www.w3.org/1999/xlink">
    <title>faroe-islands</title>
    <desc>designed by Freepik from Flaticon</desc>
    <defs>
        <polygon id="path-1" points="0.0140487805 0.0934306569 0.0140487805 95.7668905 95.9068098 95.7668905 95.9068098 0.0934306569"></polygon>
    </defs>
    <g id="Page-1" stroke="none" stroke-width="1" fill="none" fill-rule="evenodd">
        <g id="faroe-islands">
            <mask id="mask-2" fill="white">
                <use xlink:href="#path-1"></use>
            </mask>
            <g id="Clip-2"></g>
            <path d="M95.9068098,47.9301606 C95.9068098,74.3488467 74.4365268,95.7668905 47.9534049,95.7668905 C21.4691122,95.7668905 0,74.3488467 0,47.9301606 C0,21.5103066 21.4691122,0.0934306569 47.9534049,0.0934306569 C74.4365268,0.0934306569 95.9068098,21.5103066 95.9068098,47.9301606 Z" id="Fill-1" fill="#F3F3F3" mask="url(#mask-2)"></path>
            <path d="M93.8212683,47.9301606 L95.4996293,41.6901606 C95.220761,39.5632117 94.8028098,37.4801752 94.2549073,35.4510949 L43.7834927,35.4510949 L43.7834927,0.274919708 C41.6551024,0.458277372 39.567922,0.781313869 37.5282732,1.23211679 L29.1886829,6.33249635 L25.0190049,5.91275912 C22.8245854,7.1070365 20.7338927,8.46762044 18.764722,9.97745985 L18.764722,35.4510949 L1.65190244,35.4510949 C1.104,37.4801752 0.68604878,39.5632117 0.406946341,41.6901606 L2.08437073,47.9301606 L0.406946341,54.1692263 C0.685112195,56.2959416 1.10306341,58.3789781 1.65190244,60.4092263 L18.7637854,60.4092263 L18.7637854,85.8816934 C20.7338927,87.3917664 22.8245854,88.7521168 25.0190049,89.9466277 L31.2730537,89.5268905 L37.5282732,94.6272701 C39.567922,95.0778394 41.6551024,95.4008759 43.7825561,95.5842336 L43.7825561,60.4092263 L94.2539707,60.4092263 C94.8028098,58.3789781 95.220761,56.2959416 95.4986927,54.1692263 L93.8212683,47.9301606 Z" id="Fill-3" fill="#0052B4" mask="url(#mask-2)"></path>
            <path d="M95.5005659,41.6901606 L37.5282732,41.6901606 L37.5282732,1.23024818 C33.0970537,2.2110365 28.896,3.79959124 25.0190049,5.9099562 L25.0190049,41.6901606 L0.406009756,41.6901606 C0.139082927,43.7330219 0,45.8151241 0,47.9301606 C0,50.0449635 0.139082927,52.1272993 0.406009756,54.1692263 L25.0190049,54.1692263 L25.0190049,89.9501314 C28.896,92.059562 33.0970537,93.6490511 37.5282732,94.6289051 L37.5282732,54.1692263 L95.5005659,54.1692263 C95.7667902,52.1272993 95.9068098,50.0449635 95.9068098,47.9301606 C95.9068098,45.8151241 95.7667902,43.7330219 95.5005659,41.6901606 Z" id="Fill-4" fill="#D80027" mask="url(#mask-2)"></path>
        </g>
    </g>
</svg>