<?xml version="1.0" encoding="UTF-8"?>
<svg width="96px" height="96px" viewBox="0 0 96 96" version="1.1" xmlns="http://www.w3.org/2000/svg" xmlns:xlink="http://www.w3.org/1999/xlink">
    <title>france</title>
    <desc>designed by Freepik from Flaticon</desc>
    <defs>
        <polygon id="path-1" points="0.0140487805 0.0934306569 0.0140487805 95.7668905 95.9068098 95.7668905 95.9068098 0.0934306569"></polygon>
    </defs>
    <g id="Page-1" stroke="none" stroke-width="1" fill="none" fill-rule="evenodd">
        <g id="france">
            <mask id="mask-2" fill="white">
                <use xlink:href="#path-1"></use>
            </mask>
            <g id="Clip-2"></g>
            <path d="M95.9068098,47.9301606 C95.9068098,74.3488467 74.4365268,95.7668905 47.9534049,95.7668905 C21.4691122,95.7668905 0,74.3488467 0,47.9301606 C0,21.5103066 21.4691122,0.0934306569 47.9534049,0.0934306569 C74.4365268,0.0934306569 95.9068098,21.5103066 95.9068098,47.9301606 Z" id="Fill-1" fill="#F3F3F3" mask="url(#mask-2)"></path>
            <path d="M95.9068098,47.9301606 C95.9068098,27.361635 82.8931902,9.8279708 64.6325854,3.06872993 L64.6325854,92.7913577 C82.8931902,86.0323504 95.9068098,68.4975182 95.9068098,47.9301606 Z" id="Fill-3" fill="#D80027" mask="url(#mask-2)"></path>
            <path d="M0,47.9301606 C0,68.4975182 13.0133854,86.0323504 31.2739902,92.7913577 L31.2739902,3.06872993 C13.0133854,9.8279708 0,27.361635 0,47.9301606 Z" id="Fill-4" fill="#0052B4" mask="url(#mask-2)"></path>
        </g>
    </g>
</svg>