<?xml version="1.0" encoding="UTF-8"?>
<svg width="96px" height="96px" viewBox="0 0 96 96" version="1.1" xmlns="http://www.w3.org/2000/svg" xmlns:xlink="http://www.w3.org/1999/xlink">
    <title>gibraltar</title>
    <desc>designed by Freepik from Flaticon</desc>
    <defs>
        <polygon id="path-1" points="0.0140487805 0.0934306569 0.0140487805 95.7668905 95.9068098 95.7668905 95.9068098 0.0934306569"></polygon>
    </defs>
    <g id="Page-1" stroke="none" stroke-width="1" fill="none" fill-rule="evenodd">
        <g id="gibraltar">
            <g id="Group-3">
                <mask id="mask-2" fill="white">
                    <use xlink:href="#path-1"></use>
                </mask>
                <g id="Clip-2"></g>
                <path d="M95.9068098,47.9301606 C95.9068098,74.3488467 74.4365268,95.7668905 47.9534049,95.7668905 C21.4691122,95.7668905 0,74.3488467 0,47.9301606 C0,21.5103066 21.4691122,0.0934306569 47.9534049,0.0934306569 C74.4365268,0.0934306569 95.9068098,21.5103066 95.9068098,47.9301606 Z" id="Fill-1" fill="#FAFAFA" mask="url(#mask-2)"></path>
            </g>
            <path d="M47.9534049,95.7668905 C68.5709268,95.7668905 86.1485268,82.7849343 92.9230829,64.5687591 L2.9825561,64.5687591 C9.75828293,82.7849343 27.3347122,95.7668905 47.9534049,95.7668905 Z" id="Fill-4" fill="#D80027"></path>
            <polygon id="Fill-5" fill="#D80027" points="66.7171902 39.6108613 66.7171902 33.3708613 68.8024976 33.3708613 68.8024976 29.2110949 64.6325854 29.2110949 64.6325854 31.2913285 60.4629073 31.2913285 60.4629073 29.2110949 56.2929951 29.2110949 56.2929951 33.3708613 58.3773659 33.3708613 58.3773659 39.6108613 54.2076878 39.6108613 54.2076878 25.0522628 56.2929951 25.0522628 56.2929951 20.8927299 52.1230829 20.8927299 52.1230829 22.9720292 50.0377756 22.9720292 50.0377756 20.8927299 45.8680976 20.8927299 45.8680976 22.9720292 43.7834927 22.9720292 43.7834927 20.8927299 39.6138146 20.8927299 39.6138146 25.0522628 41.6981854 25.0522628 41.6981854 39.6108613 37.5282732 39.6108613 37.5282732 33.3708613 39.6138146 33.3708613 39.6138146 29.2110949 35.4439024 29.2110949 35.4439024 31.2913285 31.2739902 31.2913285 31.2739902 29.2110949 27.1043122 29.2110949 27.1043122 33.3708613 29.1886829 33.3708613 29.1886829 39.6108613 25.0190049 39.6108613 25.0190049 56.2494599 70.8868683 56.2494599 70.8868683 39.6108613"></polygon>
            <path d="M47.9534049,54.1692263 C44.4988098,54.1692263 41.6981854,56.9630365 41.6981854,60.4092263 C41.6981854,63.1252555 43.4395317,65.435562 45.8680976,66.2923212 L45.8680976,74.9685255 L39.6138146,74.9685255 L39.6138146,83.2878248 L50.0377756,83.2878248 L50.0377756,66.2923212 C52.4670439,65.435562 54.2076878,63.1252555 54.2076878,60.4092263 C54.2076878,56.9630365 51.408,54.1692263 47.9534049,54.1692263 Z M47.9534049,62.4885255 C46.8018732,62.4885255 45.8680976,61.5579562 45.8680976,60.4092263 C45.8680976,59.2604964 46.8018732,58.3296934 47.9534049,58.3296934 C49.1049366,58.3296934 50.0377756,59.2604964 50.0377756,60.4092263 C50.0377756,61.5579562 49.1049366,62.4885255 47.9534049,62.4885255 Z" id="Fill-6" fill="#FFDA44"></path>
        </g>
    </g>
</svg>