<?xml version="1.0" encoding="UTF-8"?>
<svg width="96px" height="96px" viewBox="0 0 96 96" version="1.1" xmlns="http://www.w3.org/2000/svg" xmlns:xlink="http://www.w3.org/1999/xlink">
    <title>greenland</title>
    <desc>designed by Freepik from Flaticon</desc>
    <defs>
        <polygon id="path-1" points="0.0140487805 0.0934306569 0.0140487805 95.7668905 95.9068098 95.7668905 95.9068098 0.0934306569"></polygon>
    </defs>
    <g id="Page-1" stroke="none" stroke-width="1" fill="none" fill-rule="evenodd">
        <g id="greenland">
            <g id="Group-4">
                <mask id="mask-2" fill="white">
                    <use xlink:href="#path-1"></use>
                </mask>
                <g id="Clip-2"></g>
                <path d="M0,47.9301606 C0,21.5103066 21.4691122,0.0934306569 47.9534049,0.0934306569 C74.4365268,0.0934306569 95.9068098,21.5103066 95.9068098,47.9301606 C93.8212683,47.9301606 47.9534049,54.1692263 47.9534049,54.1692263 L0,47.9301606 Z" id="Fill-1" fill="#F3F3F3" mask="url(#mask-2)"></path>
                <path d="M95.9068098,47.9301606 C95.9068098,74.3488467 74.4365268,95.7668905 47.9534049,95.7668905 C21.4691122,95.7668905 0,74.3488467 0,47.9301606" id="Fill-3" fill="#D80027" mask="url(#mask-2)"></path>
            </g>
            <path d="M56.2929951,47.9301606 C56.2929951,60.5652555 46.0252098,70.8078248 33.3585951,70.8078248 C20.6926829,70.8078248 10.4248976,60.5652555 10.4248976,47.9301606 C10.4248976,35.2941314 20.6926829,25.051562 33.3585951,25.051562 C46.0252098,25.051562 56.2929951,35.2941314 56.2929951,47.9301606 Z" id="Fill-5" fill="#F3F3F3"></path>
            <path d="M10.4248976,47.9301606 C10.4248976,35.2950657 20.6926829,25.051562 33.3585951,25.051562 C46.0252098,25.051562 56.2929951,35.2950657 56.2929951,47.9301606" id="Fill-6" fill="#D80027"></path>
        </g>
    </g>
</svg>