<?xml version="1.0" encoding="UTF-8"?>
<svg width="96px" height="96px" viewBox="0 0 96 96" version="1.1" xmlns="http://www.w3.org/2000/svg" xmlns:xlink="http://www.w3.org/1999/xlink">
    <title>greece</title>
    <desc>designed by Freepik from Flaticon</desc>
    <defs>
        <polygon id="path-1" points="0.0140487805 0.0934306569 0.0140487805 95.7668905 95.9068098 95.7668905 95.9068098 0.0934306569"></polygon>
        <polygon id="path-3" points="0.0140487805 0.222131387 0.0140487805 48.9639708 95.9068098 48.9639708 95.9068098 0.222131387 0.0140487805 0.222131387"></polygon>
    </defs>
    <g id="Page-1" stroke="none" stroke-width="1" fill="none" fill-rule="evenodd">
        <g id="greece">
            <g id="Group-3">
                <mask id="mask-2" fill="white">
                    <use xlink:href="#path-1"></use>
                </mask>
                <g id="Clip-2"></g>
                <path d="M95.9068098,47.9301606 C95.9068098,74.3488467 74.4365268,95.7668905 47.9534049,95.7668905 C21.4691122,95.7668905 0,74.3488467 0,47.9301606 C0,21.5103066 21.4691122,0.0934306569 47.9534049,0.0934306569 C74.4365268,0.0934306569 95.9068098,21.5103066 95.9068098,47.9301606 Z" id="Fill-1" fill="#F3F3F3" mask="url(#mask-2)"></path>
            </g>
            <path d="M47.9534049,35.4510949 L94.2539707,35.4510949 C93.0520976,31.0012263 91.2245854,26.8078248 88.8676683,22.9710949 L47.9534049,22.9710949 L47.9534049,35.4510949 Z" id="Fill-4" fill="#338AF3"></path>
            <path d="M18.102322,85.3671241 L77.8033171,85.3671241 C82.1799805,81.8898686 85.9326439,77.6663358 88.8676683,72.8880584 L7.03820488,72.8880584 C9.97416585,77.6663358 13.7268293,81.8898686 18.102322,85.3671241 Z" id="Fill-5" fill="#338AF3"></path>
            <g id="Group-9" transform="translate(0.000000, 11.445255)">
                <mask id="mask-4" fill="white">
                    <use xlink:href="#path-3"></use>
                </mask>
                <g id="Clip-7"></g>
                <path d="M16.6791805,0.222131387 C12.9091902,3.46020438 9.65034146,7.2740438 7.03820488,11.5267737 L16.6791805,11.5267737 L16.6791805,0.222131387 Z" id="Fill-6" fill="#338AF3" mask="url(#mask-4)"></path>
                <path d="M47.9534049,36.4849051 L47.9534049,24.0058394 L29.1886829,24.0058394 L29.1886829,36.4849051 L16.6791805,36.4849051 L16.6791805,24.0058394 L1.65190244,24.0058394 C0.577170732,27.9848175 0,32.1663066 0,36.4849051 C0,40.8023358 0.577170732,44.9847591 1.65190244,48.9639708 L94.2549073,48.9639708 C95.329639,44.9847591 95.9068098,40.8023358 95.9068098,36.4849051 L47.9534049,36.4849051 Z" id="Fill-8" fill="#338AF3" mask="url(#mask-4)"></path>
            </g>
            <path d="M47.9534049,0.0934306569 C41.2938146,0.0934306569 34.9526634,1.44840876 29.1886829,3.89535766 L29.1886829,22.9720292 L47.9534049,22.9720292 L47.9534049,10.4929635 L77.8033171,10.4929635 C69.6119415,3.98481752 59.2390244,0.0934306569 47.9534049,0.0934306569 Z" id="Fill-10" fill="#338AF3"></path>
        </g>
    </g>
</svg>