<?xml version="1.0" encoding="UTF-8"?>
<svg width="96px" height="96px" viewBox="0 0 96 96" version="1.1" xmlns="http://www.w3.org/2000/svg" xmlns:xlink="http://www.w3.org/1999/xlink">
    <title>grenada</title>
    <desc>designed by Freepik from Flaticon</desc>
    <defs>
        <polygon id="path-1" points="0.0140487805 0.0934306569 0.0140487805 95.7668905 95.9068098 95.7668905 95.9068098 0.0934306569"></polygon>
        <polygon id="path-3" points="0.0140487805 0.0896934307 0.0140487805 67.7411971 95.9062829 67.7411971 95.9062829 0.0896934307"></polygon>
    </defs>
    <g id="Page-1" stroke="none" stroke-width="1" fill="none" fill-rule="evenodd">
        <g id="grenada">
            <g id="Group-3">
                <mask id="mask-2" fill="white">
                    <use xlink:href="#path-1"></use>
                </mask>
                <g id="Clip-2"></g>
                <path d="M95.9068098,47.9301606 C95.9068098,74.3488467 74.4374634,95.7668905 47.9534049,95.7668905 C21.4691122,95.7668905 0,74.3488467 0,47.9301606 C0,21.5103066 21.4691122,0.0934306569 47.9534049,0.0934306569 C74.4374634,0.0934306569 95.9068098,21.5103066 95.9068098,47.9301606 Z" id="Fill-1" fill="#FFDA44" mask="url(#mask-2)"></path>
            </g>
            <path d="M20.9258927,8.41272993 C28.6215805,3.16449635 37.9270244,0.0934306569 47.9534049,0.0934306569 C57.9795512,0.0934306569 67.2849951,3.16449635 74.9806829,8.41272993 L47.9534049,10.4929635 L20.9258927,8.41272993 Z" id="Fill-4" fill="#A2001D"></path>
            <g id="Group-9" transform="translate(0.000000, 14.014599)">
                <mask id="mask-4" fill="white">
                    <use xlink:href="#path-3"></use>
                </mask>
                <g id="Clip-6"></g>
                <polygon id="Fill-5" fill="#0052B4" mask="url(#mask-4)" points="47.9534049 33.915562 44.892878 30.8624818 44.079922 32.3141606"></polygon>
                <path d="M14.0450341,0.0896934307 C-4.68199024,18.7713869 -4.68199024,49.0597372 14.0450341,67.7411971 L47.9534049,33.915562 L14.0450341,0.0896934307 Z" id="Fill-7" fill="#496E2D" mask="url(#mask-4)"></path>
                <path d="M81.8615415,0.0896934307 C100.587863,18.7713869 100.587863,49.0597372 81.8615415,67.7411971 L47.9534049,33.915562 L81.8615415,0.0896934307 Z" id="Fill-8" fill="#496E2D" mask="url(#mask-4)"></path>
            </g>
            <path d="M64.6325854,47.9301606 C64.6325854,57.1190657 57.164722,64.5687591 47.9534049,64.5687591 C38.7411512,64.5687591 31.2739902,57.1190657 31.2739902,47.9301606 C31.2739902,38.7403212 38.7411512,31.2913285 47.9534049,31.2913285 C57.164722,31.2913285 64.6325854,38.7403212 64.6325854,47.9301606 Z" id="Fill-10" fill="#A2001D"></path>
            <polygon id="Fill-11" fill="#FFDA44" points="47.9534049 31.2913285 51.6915512 42.7695182 63.792 42.7695182 54.0037463 49.8653431 57.7416585 61.3451679 47.9534049 54.2502774 38.1639805 61.3451679 41.9030634 49.8653431 32.1145756 42.7695182 44.214322 42.7695182"></polygon>
            <path d="M47.9697951,0.0934306569 L47.9367805,0.0934306569 C34.7030634,0.0981021898 22.7222634,5.45027737 14.0478439,14.1017226 L81.8587317,14.1017226 C73.1845463,5.45027737 61.2037463,0.0981021898 47.9697951,0.0934306569 Z" id="Fill-12" fill="#A2001D"></path>
            <path d="M14.0478439,81.7576642 C22.7260098,90.4128467 34.7131317,95.7668905 47.9534049,95.7668905 C61.193678,95.7668905 73.1808,90.4128467 81.8587317,81.7576642 L14.0478439,81.7576642 Z" id="Fill-13" fill="#A2001D"></path>
            <polygon id="Fill-14" fill="#FFDA44" points="47.9534049 5.29331387 48.7298341 7.67649635 51.241522 7.67649635 49.2091317 9.14919708 49.985561 11.5323796 47.9534049 10.0596788 45.9210146 11.5323796 46.697678 9.14919708 44.6652878 7.67649635 47.1767415 7.67649635"></polygon>
            <polygon id="Fill-15" fill="#FFDA44" points="36.3256976 5.29331387 37.1011902 7.67649635 39.6138146 7.67649635 37.5814244 9.14919708 38.3578537 11.5323796 36.3256976 10.0596788 34.2933073 11.5323796 35.0697366 9.14919708 33.0366439 7.67649635 35.5490341 7.67649635"></polygon>
            <polygon id="Fill-16" fill="#FFDA44" points="59.5811122 5.29331387 60.3575415 7.67649635 62.8701659 7.67649635 60.8377756 9.14919708 61.614439 11.5323796 59.5811122 10.0596788 57.548722 11.5323796 58.3253854 9.14919708 56.2929951 7.67649635 58.8046829 7.67649635"></polygon>
            <polygon id="Fill-17" fill="#FFDA44" points="47.9534049 84.3270073 48.7298341 86.7101898 51.241522 86.7101898 49.2091317 88.1838248 49.985561 90.5670073 47.9534049 89.0933723 45.9210146 90.5670073 46.697678 88.1838248 44.6652878 86.7101898 47.1767415 86.7101898"></polygon>
            <polygon id="Fill-18" fill="#FFDA44" points="36.3256976 84.3270073 37.1011902 86.7101898 39.6138146 86.7101898 37.5814244 88.1838248 38.3578537 90.5670073 36.3256976 89.0933723 34.2933073 90.5670073 35.0697366 88.1838248 33.0366439 86.7101898 35.5490341 86.7101898"></polygon>
            <polygon id="Fill-19" fill="#FFDA44" points="59.5811122 84.3270073 60.3575415 86.7101898 62.8701659 86.7101898 60.8377756 88.1838248 61.614439 90.5670073 59.5811122 89.0933723 57.548722 90.5670073 58.3253854 88.1838248 56.2929951 86.7101898 58.8046829 86.7101898"></polygon>
            <path d="M14.6112,47.1399708 C15.843278,49.0814599 15.2642341,51.6508029 13.3180098,52.8798832 C11.3724878,54.1080292 8.79594146,53.5303942 7.56503415,51.5898394 C5.3340878,48.0752117 6.6275122,42.3352993 6.6275122,42.3352993 C6.6275122,42.3352993 12.3814244,43.6253431 14.6112,47.1399708 Z" id="Fill-20" fill="#FFDA44"></path>
            <path d="M14.2876098,51.1226861 C14.2876098,52.2714161 13.3545366,53.2019854 12.2030049,53.2019854 C11.0514732,53.2019854 10.1186341,52.2714161 10.1186341,51.1226861 C10.1186341,49.9739562 11.0514732,49.042219 12.2030049,49.042219 C13.3545366,49.042219 14.2876098,49.9739562 14.2876098,51.1226861 Z" id="Fill-21" fill="#A2001D"></path>
        </g>
    </g>
</svg>