<?xml version="1.0" encoding="UTF-8"?>
<svg width="96px" height="96px" viewBox="0 0 96 96" version="1.1" xmlns="http://www.w3.org/2000/svg" xmlns:xlink="http://www.w3.org/1999/xlink">
    <title>guinea</title>
    <desc>designed by Freepik from Flaticon</desc>
    <defs>
        <polygon id="path-1" points="0.0140487805 0.0934306569 0.0140487805 95.7668905 66.7178927 95.7668905 66.7178927 0.0934306569 0.0140487805 0.0934306569"></polygon>
    </defs>
    <g id="Page-1" stroke="none" stroke-width="1" fill="none" fill-rule="evenodd">
        <g id="guinea">
            <g id="Group-4">
                <mask id="mask-2" fill="white">
                    <use xlink:href="#path-1"></use>
                </mask>
                <g id="Clip-2"></g>
                <path d="M64.6325854,3.06872993 C59.4375805,1.14639416 53.8190049,0.0934306569 47.9534049,0.0934306569 C42.0878049,0.0934306569 36.4692293,1.14639416 31.2739902,3.06872993 L29.1896195,47.9301606 L31.2739902,92.7913577 C36.4692293,94.713927 42.0878049,95.7668905 47.9534049,95.7668905 C53.8190049,95.7668905 59.4375805,94.713927 64.6325854,92.7904234 L66.7178927,47.9301606 L64.6325854,3.06872993 Z" id="Fill-1" fill="#FFDA44" mask="url(#mask-2)"></path>
                <path d="M0,47.9301606 C0,68.4975182 13.0133854,86.0323504 31.2739902,92.7904234 L31.2739902,3.06872993 C13.0133854,9.8279708 0,27.361635 0,47.9301606 Z" id="Fill-3" fill="#D80027" mask="url(#mask-2)"></path>
            </g>
            <path d="M95.9068098,47.9301606 C95.9068098,27.361635 82.8931902,9.8279708 64.6325854,3.06872993 L64.6325854,92.7913577 C82.8931902,86.0323504 95.9068098,68.4975182 95.9068098,47.9301606 Z" id="Fill-5" fill="#6DA544"></path>
        </g>
    </g>
</svg>