<?xml version="1.0" encoding="UTF-8"?>
<svg width="96px" height="96px" viewBox="0 0 96 96" version="1.1" xmlns="http://www.w3.org/2000/svg" xmlns:xlink="http://www.w3.org/1999/xlink">
    <title>guinea-bissau</title>
    <desc>designed by Freepik from Flaticon</desc>
    <defs>
        <polygon id="path-1" points="0.0140487805 0.106277372 0.0140487805 94.131854 95.9068098 94.131854 95.9068098 0.106277372"></polygon>
    </defs>
    <g id="Page-1" stroke="none" stroke-width="1" fill="none" fill-rule="evenodd">
        <g id="guinea-bissau">
            <path d="M47.9534049,0.0934306569 C43.6252098,0.0934306569 39.4316488,0.66919708 35.4439024,1.74131387 L31.2739902,47.9301606 L35.4439024,94.118073 C39.4316488,95.1911241 43.6252098,95.7668905 47.9534049,95.7668905 C74.4365268,95.7668905 95.9068098,74.3488467 95.9068098,47.9301606 C95.9068098,21.5103066 74.4365268,0.0934306569 47.9534049,0.0934306569 Z" id="Fill-1" fill="#FFDA44"></path>
            <g id="Group-6" transform="translate(0.000000, 1.635036)">
                <mask id="mask-2" fill="white">
                    <use xlink:href="#path-1"></use>
                </mask>
                <g id="Clip-3"></g>
                <path d="M31.2739902,46.2951241 L35.4439024,92.4830365 C39.4316488,93.5560876 43.6252098,94.131854 47.9534049,94.131854 C74.4365268,94.131854 95.9068098,72.7138102 95.9068098,46.2951241 L31.2739902,46.2951241 Z" id="Fill-2" fill="#6DA544" mask="url(#mask-2)"></path>
                <path d="M0,46.2951241 C0,64.4274453 10.1130146,80.2020438 25.0190049,88.3150949 L25.0190049,4.27491971 C10.1130146,12.3882044 0,28.1628029 0,46.2951241 Z" id="Fill-4" fill="#D80027" mask="url(#mask-2)"></path>
                <path d="M0,46.2951241 C0,68.3963796 15.0265756,86.9939854 35.4439024,92.4830365 L35.4439024,0.106277372 C15.0265756,5.59532847 0,24.1929343 0,46.2951241 Z" id="Fill-5" fill="#D80027" mask="url(#mask-2)"></path>
            </g>
            <polygon id="Fill-7" fill="#000000" points="18.1208195 35.4510949 21.2248976 44.9838248 31.2739902 44.9838248 23.1448976 50.8753285 26.2489756 60.4092263 18.1208195 54.5167883 9.9905561 60.4092263 13.0967415 50.8753285 4.96741463 44.9838248 15.0155707 44.9838248"></polygon>
        </g>
    </g>
</svg>