<?xml version="1.0" encoding="UTF-8"?>
<svg width="96px" height="96px" viewBox="0 0 96 96" version="1.1" xmlns="http://www.w3.org/2000/svg" xmlns:xlink="http://www.w3.org/1999/xlink">
    <title>guyana</title>
    <desc>designed by Freepik from Flaticon</desc>
    <defs>
        <polygon id="path-1" points="0.0140487805 0.0934306569 0.0140487805 95.7668905 95.9068098 95.7668905 95.9068098 0.0934306569"></polygon>
        <polygon id="path-3" points="0.0140487805 0.0805839416 0.0140487805 73.3552117 53.8499122 73.3552117 53.8499122 0.0805839416"></polygon>
    </defs>
    <g id="Page-1" stroke="none" stroke-width="1" fill="none" fill-rule="evenodd">
        <g id="guyana">
            <g id="Group-3">
                <mask id="mask-2" fill="white">
                    <use xlink:href="#path-1"></use>
                </mask>
                <g id="Clip-2"></g>
                <path d="M95.9068098,47.9301606 C95.9068098,74.3488467 74.4374634,95.7668905 47.9534049,95.7668905 C21.4691122,95.7668905 0,74.3488467 0,47.9301606 C0,21.5103066 21.4691122,0.0934306569 47.9534049,0.0934306569 C74.4374634,0.0934306569 95.9068098,21.5103066 95.9068098,47.9301606 Z" id="Fill-1" fill="#F3F3F3" mask="url(#mask-2)"></path>
            </g>
            <path d="M47.9534049,0.0934306569 C39.4747317,0.0934306569 31.5128195,2.29138686 24.6017561,6.14259854 L24.6017561,89.7174891 C31.5128195,93.5687007 39.4747317,95.7668905 47.9534049,95.7668905 C74.4365268,95.7668905 95.9068098,74.3488467 95.9068098,47.9301606 C95.9068098,21.5103066 74.4365268,0.0934306569 47.9534049,0.0934306569 Z" id="Fill-4" fill="#6DA544"></path>
            <path d="M24.7436488,6.06411679 C21.7262049,7.73115328 18.9091902,9.71375182 16.3363902,11.9675328 C16.5960585,11.7393285 16.8594732,11.5148613 17.1238244,11.2922628 L53.8499122,47.9301606 L17.1238244,84.5668905 C16.8585366,84.3452263 16.5960585,84.1198248 16.3363902,83.8927883 C18.9091902,86.1463358 21.7262049,88.128 24.7427122,89.7959708 L95.9068098,47.9301606 L24.7436488,6.06411679 Z" id="Fill-5" fill="#F3F3F3"></path>
            <path d="M20.6926829,8.57343066 C19.2302049,9.58341606 17.8262634,10.6709489 16.4881171,11.8325255 L47.9534049,47.9301606 L16.4871805,84.0277956 C17.8262634,85.1891387 19.2302049,86.2759708 20.6926829,87.2859562 L87.6978732,47.9301606 L20.6926829,8.57343066 Z" id="Fill-6" fill="#FFDA44"></path>
            <g id="Group-10" transform="translate(0.000000, 11.211679)">
                <mask id="mask-4" fill="white">
                    <use xlink:href="#path-3"></use>
                </mask>
                <g id="Clip-8"></g>
                <path d="M17.1238244,0.0805839416 C16.0572878,0.974715328 15.0293854,1.91089051 14.0450341,2.89261314 L43.7834927,36.7184818 L14.0450341,70.5441168 C15.0293854,71.5249051 16.0572878,72.4620146 17.1238244,73.3552117 L53.8499122,36.7184818 L17.1238244,0.0805839416 Z" id="Fill-7" fill="#000000" mask="url(#mask-4)"></path>
                <path d="M14.0450341,2.89261314 C-4.68199024,21.5743066 -4.68199024,51.8626569 14.0450341,70.5441168 L47.9534049,36.7184818 L14.0450341,2.89261314 Z" id="Fill-9" fill="#D80027" mask="url(#mask-4)"></path>
            </g>
        </g>
    </g>
</svg>