<?xml version="1.0" encoding="UTF-8"?>
<svg width="96px" height="96px" viewBox="0 0 96 96" version="1.1" xmlns="http://www.w3.org/2000/svg" xmlns:xlink="http://www.w3.org/1999/xlink">
    <title>hawaii</title>
    <desc>designed by Freepik from Flaticon</desc>
    <defs>
        <polygon id="path-1" points="0.0140487805 0.0934306569 0.0140487805 95.7668905 95.9068098 95.7668905 95.9068098 0.0934306569"></polygon>
        <polygon id="path-3" points="0.0140487805 0.0934306569 0.0140487805 59.8890511 95.9068098 59.8890511 95.9068098 0.0934306569"></polygon>
    </defs>
    <g id="Page-1" stroke="none" stroke-width="1" fill="none" fill-rule="evenodd">
        <g id="hawaii">
            <g id="Group-3">
                <mask id="mask-2" fill="white">
                    <use xlink:href="#path-1"></use>
                </mask>
                <g id="Clip-2"></g>
                <path d="M95.9068098,47.9301606 C95.9068098,74.3488467 74.4365268,95.7668905 47.9534049,95.7668905 C21.4691122,95.7668905 0,74.3488467 0,47.9301606 C0,21.5103066 21.4691122,0.0934306569 47.9534049,0.0934306569 C74.4365268,0.0934306569 95.9068098,21.5103066 95.9068098,47.9301606 Z" id="Fill-1" fill="#F3F3F3" mask="url(#mask-2)"></path>
            </g>
            <path d="M47.9534049,95.7668905 C60.1133268,95.7668905 71.214439,91.2485839 79.6673561,83.8068321 L16.2392195,83.8068321 C24.6923707,91.2485839 35.7932488,95.7668905 47.9534049,95.7668905 Z" id="Fill-4" fill="#D80027"></path>
            <path d="M1.51094634,59.8890511 C2.60581463,64.1317372 4.27036098,68.1464526 6.41701463,71.8479416 L89.489561,71.8479416 C91.6362146,68.1464526 93.3009951,64.1317372 94.3956293,59.8890511 L47.9534049,56.2494599 L1.51094634,59.8890511 Z" id="Fill-5" fill="#0052B4"></path>
            <g id="Group-10">
                <mask id="mask-4" fill="white">
                    <use xlink:href="#path-3"></use>
                </mask>
                <g id="Clip-7"></g>
                <path d="M94.3956293,35.9712701 C93.3009951,31.7276496 91.6362146,27.7129343 89.489561,24.0112117 L47.9534049,22.9720292 L47.9534049,0.0934306569 C44.3908683,0.0934306569 40.9189463,0.481167883 37.5786146,1.21576642 C37.5146927,1.23024818 6.25428293,25.8279708 6.25428293,47.9301606 C7.05365854,48.0689051 47.9534049,52.0896934 47.9534049,52.0896934 L47.9534049,35.9712701 L94.3956293,35.9712701 Z" id="Fill-6" fill="#0052B4" mask="url(#mask-4)"></path>
                <path d="M47.9534049,29.9391533 L47.9534049,6.02137226 L32.7666732,6.02137226 L37.5795512,1.21927007 C17.8197073,5.56706569 2.6369561,22.0715912 0.312819512,42.4703066 C0.108878049,44.2623066 0,46.0835036 0,47.9301606 L24.2889366,47.9301606 L24.2889366,38.3953285 L33.9411512,47.9301606 L51.0970537,47.9301606 L32.7659707,29.9391533 L47.9534049,29.9391533 Z" id="Fill-8" fill="#F3F3F3" mask="url(#mask-4)"></path>
                <path d="M47.9754146,47.9301606 L29.9405268,29.9391533 L24.2889366,29.9391533 L42.3238244,47.9301606 L18.243278,47.9301606 L18.243278,24.0112117 L89.489561,24.0112117 C86.878361,19.5094891 83.5527805,15.4730511 79.6673561,12.0523212 L18.243278,12.0523212 L18.243278,10.3845839 C13.404878,14.200292 9.32277073,18.9255474 6.25428293,24.3024818 L6.25428293,47.9301606 L0,47.9301606 C0,52.059562 0.524019512,56.0670365 1.51094634,59.8890511 L94.3956293,59.8890511 C95.3816195,56.0670365 95.9068098,52.059562 95.9068098,47.9301606 L47.9754146,47.9301606 Z" id="Fill-9" fill="#D80027" mask="url(#mask-4)"></path>
            </g>
        </g>
    </g>
</svg>