<?xml version="1.0" encoding="UTF-8"?>
<svg width="96px" height="96px" viewBox="0 0 96 96" version="1.1" xmlns="http://www.w3.org/2000/svg" xmlns:xlink="http://www.w3.org/1999/xlink">
    <title>india</title>
    <desc>designed by Freepik from Flaticon</desc>
    <defs>
        <polygon id="path-1" points="0.0140487805 0.0934306569 0.0140487805 95.7668905 95.9068098 95.7668905 95.9068098 0.0934306569"></polygon>
    </defs>
    <g id="Page-1" stroke="none" stroke-width="1" fill="none" fill-rule="evenodd">
        <g id="india">
            <g id="Group-3">
                <mask id="mask-2" fill="white">
                    <use xlink:href="#path-1"></use>
                </mask>
                <g id="Clip-2"></g>
                <path d="M95.9068098,47.9301606 C95.9068098,74.3488467 74.4365268,95.7668905 47.9534049,95.7668905 C21.4691122,95.7668905 0,74.3488467 0,47.9301606 C0,21.5103066 21.4691122,0.0934306569 47.9534049,0.0934306569 C74.4365268,0.0934306569 95.9068098,21.5103066 95.9068098,47.9301606 Z" id="Fill-1" fill="#F3F3F3" mask="url(#mask-2)"></path>
            </g>
            <path d="M47.9534049,0.0934306569 C28.9416585,0.0934306569 12.5148878,11.1308613 4.75785366,27.1317956 L91.1477854,27.1317956 C83.3916878,11.1308613 66.9649171,0.0934306569 47.9534049,0.0934306569 Z" id="Fill-4" fill="#FF9811"></path>
            <path d="M47.9534049,95.7668905 C66.9649171,95.7668905 83.3916878,84.7294599 91.1477854,68.7285255 L4.75785366,68.7285255 C12.5148878,84.7294599 28.9416585,95.7668905 47.9534049,95.7668905 Z" id="Fill-5" fill="#6DA544"></path>
            <path d="M64.6325854,47.9301606 C64.6325854,57.1190657 57.164722,64.5687591 47.9534049,64.5687591 C38.7411512,64.5687591 31.2739902,57.1190657 31.2739902,47.9301606 C31.2739902,38.7403212 38.7411512,31.2913285 47.9534049,31.2913285 C57.164722,31.2913285 64.6325854,38.7403212 64.6325854,47.9301606 Z" id="Fill-6" fill="#0052B4"></path>
            <path d="M58.3773659,47.9301606 C58.3773659,53.6728759 53.7101268,58.3287591 47.9534049,58.3287591 C42.1957463,58.3287591 37.5282732,53.6728759 37.5282732,47.9301606 C37.5282732,42.1865109 42.1957463,37.5303942 47.9534049,37.5303942 C53.7101268,37.5303942 58.3773659,42.1865109 58.3773659,47.9301606 Z" id="Fill-7" fill="#F3F3F3"></path>
            <polygon id="Fill-8" fill="#0052B4" points="47.9534049 35.0969927 51.1691707 42.3736058 59.0936195 41.5140438 54.3851707 47.9301606 59.0936195 54.3462774 51.1691707 53.4867153 47.9534049 60.7621606 44.7374049 53.4867153 36.8131902 54.3462774 41.521639 47.9301606 36.8131902 41.5140438 44.7374049 42.3736058"></polygon>
        </g>
    </g>
</svg>