<?xml version="1.0" encoding="UTF-8"?>
<svg width="96px" height="96px" viewBox="0 0 96 96" version="1.1" xmlns="http://www.w3.org/2000/svg" xmlns:xlink="http://www.w3.org/1999/xlink">
    <title>isle-of-man</title>
    <desc>designed by Freepik from Flaticon</desc>
    <defs>
        <polygon id="path-1" points="0.0140487805 0.0934306569 0.0140487805 95.7668905 95.9068098 95.7668905 95.9068098 0.0934306569"></polygon>
    </defs>
    <g id="Page-1" stroke="none" stroke-width="1" fill="none" fill-rule="evenodd">
        <g id="isle-of-man">
            <g id="Group-3">
                <mask id="mask-2" fill="white">
                    <use xlink:href="#path-1"></use>
                </mask>
                <g id="Clip-2"></g>
                <path d="M95.9068098,47.9301606 C95.9068098,74.3488467 74.4365268,95.7668905 47.9534049,95.7668905 C21.4691122,95.7668905 0,74.3488467 0,47.9301606 C0,21.5103066 21.4691122,0.0934306569 47.9534049,0.0934306569 C74.4365268,0.0934306569 95.9068098,21.5103066 95.9068098,47.9301606 Z" id="Fill-1" fill="#D80027" mask="url(#mask-2)"></path>
            </g>
            <polygon id="Fill-4" fill="#F3F3F3" points="65.7082537 32.1609343 62.3194537 44.2265693 52.1497756 42.3535182 45.6037463 28.8927299 27.9191415 35.1528175 26.5252683 31.2329343 21.8980683 30.663708 25.3847415 40.4648175 37.5540293 37.3598832 41.0130732 47.0825109 32.6001951 59.4674453 46.8768 71.6152993 44.1705366 74.779562 45.9905561 79.0614891 52.7559805 71.1490803 43.9754927 62.1874453 50.686361 54.3388029 65.6450341 55.4146569 69.0520976 37.0067153 73.1534049 37.7623358 75.9603512 34.0487007"></polygon>
        </g>
    </g>
</svg>