<?xml version="1.0" encoding="UTF-8"?>
<svg width="96px" height="96px" viewBox="0 0 96 96" version="1.1" xmlns="http://www.w3.org/2000/svg" xmlns:xlink="http://www.w3.org/1999/xlink">
    <title>israel</title>
    <desc>designed by Freepik from Flaticon</desc>
    <defs>
        <polygon id="path-1" points="0.0140487805 0.0934306569 0.0140487805 95.7668905 95.9068098 95.7668905 95.9068098 0.0934306569"></polygon>
    </defs>
    <g id="Page-1" stroke="none" stroke-width="1" fill="none" fill-rule="evenodd">
        <g id="israel">
            <g id="Group-3">
                <mask id="mask-2" fill="white">
                    <use xlink:href="#path-1"></use>
                </mask>
                <g id="Clip-2"></g>
                <path d="M95.9068098,47.9301606 C95.9068098,74.3488467 74.4365268,95.7668905 47.9534049,95.7668905 C21.4691122,95.7668905 0,74.3488467 0,47.9301606 C0,21.5103066 21.4691122,0.0934306569 47.9534049,0.0934306569 C74.4365268,0.0934306569 95.9068098,21.5103066 95.9068098,47.9301606 Z" id="Fill-1" fill="#F3F3F3" mask="url(#mask-2)"></path>
            </g>
            <path d="M66.0091317,37.5303942 L53.9716683,37.5303942 L47.9534049,27.1317956 L41.9351415,37.5303942 L29.897678,37.5303942 L35.916878,47.9301606 L29.897678,58.3287591 L41.9351415,58.3287591 L47.9534049,68.7285255 L53.9716683,58.3287591 L66.0091317,58.3287591 L59.9899317,47.9301606 L66.0091317,37.5303942 Z M55.347278,47.9301606 L51.6503415,54.3187153 L44.2564683,54.3187153 L40.5585951,47.9301606 L44.2564683,41.5413723 L51.6503415,41.5413723 L55.347278,47.9301606 Z M47.9534049,35.1528175 L49.3290146,37.5303942 L46.5777951,37.5303942 L47.9534049,35.1528175 Z M36.8616585,41.5413723 L39.6138146,41.5413723 L38.2372683,43.9191825 L36.8616585,41.5413723 Z M36.8616585,54.3187153 L38.2372683,51.9411387 L39.6138146,54.3187153 L36.8616585,54.3187153 Z M47.9534049,60.7065693 L46.5777951,58.3287591 L49.3290146,58.3287591 L47.9534049,60.7065693 Z M59.0451512,54.3187153 L56.2929951,54.3187153 L57.6695415,51.9411387 L59.0451512,54.3187153 Z M56.2929951,41.5413723 L59.0451512,41.5413723 L57.6686049,43.9191825 L56.2929951,41.5413723 Z" id="Fill-4" fill="#0052B4"></path>
            <path d="M77.8033171,10.4929635 L18.102322,10.4929635 C13.7268293,13.9692847 9.97322927,18.1928175 7.03820488,22.9720292 L88.8676683,22.9720292 C85.9326439,18.1937518 82.1799805,13.9692847 77.8033171,10.4929635 Z" id="Fill-5" fill="#0052B4"></path>
            <path d="M18.102322,85.3671241 L77.8033171,85.3671241 C82.1799805,81.8898686 85.9326439,77.6663358 88.8676683,72.8880584 L7.03820488,72.8880584 C9.97416585,77.6663358 13.7268293,81.8898686 18.102322,85.3671241 Z" id="Fill-6" fill="#0052B4"></path>
        </g>
    </g>
</svg>