<?xml version="1.0" encoding="UTF-8"?>
<svg width="96px" height="96px" viewBox="0 0 96 96" version="1.1" xmlns="http://www.w3.org/2000/svg" xmlns:xlink="http://www.w3.org/1999/xlink">
    <title>jamaica</title>
    <desc>designed by Freepik from Flaticon</desc>
    <defs>
        <polygon id="path-1" points="0.0140487805 0.0934306569 0.0140487805 95.7668905 95.9068098 95.7668905 95.9068098 0.0934306569"></polygon>
    </defs>
    <g id="Page-1" stroke="none" stroke-width="1" fill="none" fill-rule="evenodd">
        <g id="jamaica">
            <g id="Group-5">
                <mask id="mask-2" fill="white">
                    <use xlink:href="#path-1"></use>
                </mask>
                <g id="Clip-2"></g>
                <path d="M95.9068098,47.9301606 C95.9068098,74.3488467 74.4365268,95.7668905 47.9534049,95.7668905 C21.4691122,95.7668905 0,74.3488467 0,47.9301606 C0,21.5103066 21.4691122,0.0934306569 47.9534049,0.0934306569 C74.4365268,0.0934306569 95.9068098,21.5103066 95.9068098,47.9301606 Z" id="Fill-1" fill="#FFDA44" mask="url(#mask-2)"></path>
                <path d="M77.1474732,9.98213139 C69.0621659,3.78230657 58.9400195,0.0934306569 47.9534049,0.0934306569 C36.9658537,0.0934306569 26.8444098,3.78230657 18.7581659,9.98213139 L47.9534049,39.1054015 L77.1474732,9.98213139 Z" id="Fill-3" fill="#6DA544" mask="url(#mask-2)"></path>
                <path d="M9.91281951,18.8059562 C3.69787317,26.8725255 0,36.9693431 0,47.9301606 C0,58.8900438 3.69787317,68.987562 9.91281951,77.0541314 L39.1078244,47.9301606 L9.91281951,18.8059562 Z" id="Fill-4" fill="#000000" mask="url(#mask-2)"></path>
            </g>
            <path d="M18.7581659,85.8781898 C26.8444098,92.0780146 36.9658537,95.7668905 47.9534049,95.7668905 C58.9400195,95.7668905 69.0621659,92.0780146 77.1474732,85.8781898 L47.9534049,56.7539854 L18.7581659,85.8781898 Z" id="Fill-6" fill="#6DA544"></path>
            <path d="M85.9939902,77.0531971 C92.2089366,68.987562 95.9068098,58.8900438 95.9068098,47.9301606 C95.9068098,36.9693431 92.2089366,26.8725255 85.9939902,18.8059562 L56.7987512,47.9301606 L85.9939902,77.0531971 Z" id="Fill-7" fill="#000000"></path>
        </g>
    </g>
</svg>