<?xml version="1.0" encoding="UTF-8"?>
<svg width="96px" height="96px" viewBox="0 0 96 96" version="1.1" xmlns="http://www.w3.org/2000/svg" xmlns:xlink="http://www.w3.org/1999/xlink">
    <title>jersey</title>
    <desc>designed by Freepik from Flaticon</desc>
    <defs>
        <polygon id="path-1" points="0.0140487805 0.0934306569 0.0140487805 95.7668905 95.9068098 95.7668905 95.9068098 0.0934306569"></polygon>
    </defs>
    <g id="Page-1" stroke="none" stroke-width="1" fill="none" fill-rule="evenodd">
        <g id="jersey">
            <g id="Group-3">
                <mask id="mask-2" fill="white">
                    <use xlink:href="#path-1"></use>
                </mask>
                <g id="Clip-2"></g>
                <path d="M95.9068098,47.9301606 C95.9068098,74.3488467 74.4365268,95.7668905 47.9534049,95.7668905 C21.4691122,95.7668905 0,74.3488467 0,47.9301606 C0,21.5103066 21.4691122,0.0934306569 47.9534049,0.0934306569 C74.4365268,0.0934306569 95.9068098,21.5103066 95.9068098,47.9301606 Z" id="Fill-1" fill="#F3F3F3" mask="url(#mask-2)"></path>
            </g>
            <path d="M85.9965659,77.0569343 L56.7987512,47.9301606 L85.9965659,18.8024526 C84.7370927,17.1699854 83.3598439,15.5998832 81.8615415,14.104292 C80.3625366,12.6089343 78.7883707,11.2348029 77.1512195,9.97839416 L47.9534049,39.1061022 L18.7555902,9.97839416 C17.1191415,11.2348029 15.5442732,12.6089343 14.0450341,14.104292 C12.5460293,15.5998832 11.1685463,17.1699854 9.91000976,18.8024526 L39.1078244,47.9292263 L39.1078244,47.9301606 L9.90907317,77.0569343 C11.1685463,78.6891679 12.5460293,80.260438 14.0450341,81.7557956 C15.5442732,83.2513869 17.1182049,84.6252847 18.7546537,85.8807591 L47.9534049,56.7539854 L77.1512195,85.8807591 C78.7874341,84.6243504 80.3625366,83.2504526 81.8615415,81.7548613 C83.3607805,80.2595036 84.7380293,78.6891679 85.9965659,77.0569343 Z" id="Fill-4" fill="#D80027"></path>
            <polygon id="Fill-5" fill="#FFDA44" points="39.6138146 14.6527299 47.9534049 16.7320292 56.2929951 14.6527299 56.2929951 7.58072993 52.9573463 9.2449635 47.9534049 4.25319708 42.9494634 9.2449635 39.6138146 7.58072993"></polygon>
            <path d="M39.6138146,14.6527299 L39.6138146,19.8526131 C39.6138146,26.220146 47.9534049,28.1719124 47.9534049,28.1719124 C47.9534049,28.1719124 56.2929951,26.220146 56.2929951,19.8526131 L56.2929951,14.6527299 L39.6138146,14.6527299 Z" id="Fill-6" fill="#D80027"></path>
        </g>
    </g>
</svg>