<?xml version="1.0" encoding="UTF-8"?>
<svg width="96px" height="96px" viewBox="0 0 96 96" version="1.1" xmlns="http://www.w3.org/2000/svg" xmlns:xlink="http://www.w3.org/1999/xlink">
    <title>kenya</title>
    <desc>designed by Freepik from Flaticon</desc>
    <defs>
        <polygon id="path-1" points="0.0140487805 0.0934306569 0.0140487805 95.7668905 95.9068098 95.7668905 95.9068098 0.0934306569"></polygon>
        <polygon id="path-3" points="0.0140487805 0.202978102 0.0140487805 62.5990073 95.9068098 62.5990073 95.9068098 0.202978102"></polygon>
    </defs>
    <g id="Page-1" stroke="none" stroke-width="1" fill="none" fill-rule="evenodd">
        <g id="kenya">
            <g id="Group-3">
                <mask id="mask-2" fill="white">
                    <use xlink:href="#path-1"></use>
                </mask>
                <g id="Clip-2"></g>
                <path d="M95.9068098,47.9301606 C95.9068098,74.3488467 74.4365268,95.7668905 47.9534049,95.7668905 C21.4691122,95.7668905 0,74.3488467 0,47.9301606 C0,21.5103066 21.4691122,0.0934306569 47.9534049,0.0934306569 C74.4365268,0.0934306569 95.9068098,21.5103066 95.9068098,47.9301606 Z" id="Fill-1" fill="#F3F3F3" mask="url(#mask-2)"></path>
            </g>
            <path d="M47.9534049,0.0934306569 C28.9416585,0.0934306569 12.5148878,11.1308613 4.75785366,27.1317956 L91.1477854,27.1317956 C83.3916878,11.1308613 66.9649171,0.0934306569 47.9534049,0.0934306569 Z" id="Fill-4" fill="#000000"></path>
            <g id="Group-8" transform="translate(0.000000, 33.167883)">
                <mask id="mask-4" fill="white">
                    <use xlink:href="#path-3"></use>
                </mask>
                <g id="Clip-6"></g>
                <path d="M47.9534049,62.5990073 C28.9416585,62.5990073 12.5148878,51.5615766 4.75785366,35.5606423 L91.1477854,35.5606423 C83.3916878,51.5615766 66.9649171,62.5990073 47.9534049,62.5990073 Z" id="Fill-5" fill="#496E2D" mask="url(#mask-4)"></path>
                <path d="M93.6421463,0.202978102 L2.26466341,0.202978102 C0.795629268,4.79416058 0,9.68548905 0,14.7622774 C0,19.8388321 0.795629268,24.7303942 2.26466341,29.3206423 L93.6421463,29.3206423 C95.1109463,24.7303942 95.9068098,19.8388321 95.9068098,14.7622774 C95.9068098,9.68548905 95.1109463,4.79416058 93.6421463,0.202978102 Z" id="Fill-7" fill="#A2001D" mask="url(#mask-4)"></path>
            </g>
            <polygon id="Fill-9" fill="#F3F3F3" points="62.8846829 22.1993577 57.2066341 19.5842336 47.9534049 40.4849051 38.6999415 19.5842336 33.0209561 22.1993577 44.508878 47.9301606 33.0209561 73.6609635 38.6999415 76.2749197 47.9534049 55.3744818 57.2066341 76.2749197 62.8846829 73.6609635 51.3969951 47.9301606"></polygon>
            <path d="M51.8102634,24.6635912 C49.6116293,22.2684964 47.9534049,20.8917956 47.9534049,20.8917956 C47.9534049,20.8917956 46.2942439,22.2684964 44.0963122,24.6635912 L44.0963122,71.195562 C46.2942439,73.5915912 47.9534049,74.9685255 47.9534049,74.9685255 C47.9534049,74.9685255 49.6116293,73.5915912 51.8102634,71.195562 L51.8102634,24.6635912 Z" id="Fill-10" fill="#F3F3F3"></path>
            <path d="M37.5282732,33.5871533 L37.5282732,62.2722336 C39.8514732,66.3789781 42.6951805,69.7448175 44.8261463,71.975708 L44.8261463,23.8836788 C42.6951805,26.1152701 39.8514732,29.4811095 37.5282732,33.5871533 Z" id="Fill-11" fill="#A2001D"></path>
            <path d="M58.3773659,33.5871533 C56.0541659,29.4801752 53.2116293,26.1152701 51.0804293,23.8836788 L51.0804293,71.975708 C53.2116293,69.7448175 56.0541659,66.3789781 58.3773659,62.2722336 L58.3773659,33.5871533 Z" id="Fill-12" fill="#A2001D"></path>
            <path d="M58.3773659,33.5871533 L58.3773659,62.2722336 C60.7298341,58.1152701 62.547278,53.1991825 62.547278,47.9301606 C62.547278,42.6609051 60.7298341,37.7448175 58.3773659,33.5871533 Z" id="Fill-13" fill="#000000"></path>
            <path d="M37.5282732,33.5871533 L37.5282732,62.2722336 C35.1767415,58.1152701 33.3585951,53.1991825 33.3585951,47.9301606 C33.3585951,42.6609051 35.1767415,37.7448175 37.5282732,33.5871533 Z" id="Fill-14" fill="#000000"></path>
        </g>
    </g>
</svg>