<?xml version="1.0" encoding="UTF-8"?>
<svg width="96px" height="96px" viewBox="0 0 96 96" version="1.1" xmlns="http://www.w3.org/2000/svg" xmlns:xlink="http://www.w3.org/1999/xlink">
    <title>kiribati</title>
    <desc>designed by Freepik from Flaticon</desc>
    <defs>
        <polygon id="path-1" points="0.0140487805 47.9301606 0.0140487805 0.0934306569 95.9068098 0.0934306569 95.9068098 47.9301606"></polygon>
        <polygon id="path-3" points="0.0140487805 0.192934307 0.0140487805 83.3873285 95.9068098 83.3873285 95.9068098 0.192934307"></polygon>
        <polygon id="path-5" points="0.0140487805 0.000467153285 0.0140487805 28.742073 95.9068098 28.742073 95.9068098 0.000467153285 0.0140487805 0.000467153285"></polygon>
    </defs>
    <g id="Page-1" stroke="none" stroke-width="1" fill="none" fill-rule="evenodd">
        <g id="kiribati">
            <g id="Group-3">
                <mask id="mask-2" fill="white">
                    <use xlink:href="#path-1"></use>
                </mask>
                <g id="Clip-2"></g>
                <path d="M0,47.9301606 C0,21.5103066 21.4691122,0.0934306569 47.9534049,0.0934306569 C74.4365268,0.0934306569 95.9068098,21.5103066 95.9068098,47.9301606" id="Fill-1" fill="#D80027" mask="url(#mask-2)"></path>
            </g>
            <polygon id="Fill-4" fill="#FFDA44" points="64.6325854 44.5806715 57.8168195 47.7785693 61.4460878 54.363562 54.0456585 52.9511241 53.1081366 60.4092263 47.9534049 54.9236788 42.798439 60.4092263 41.8609171 52.9511241 34.4597854 54.363562 38.0890537 47.7785693 31.2739902 44.5806715 38.0890537 41.3827737 34.4597854 34.7987153 41.8599805 36.210219 42.798439 28.7530511 47.9534049 34.2376642 53.1081366 28.7530511 54.0456585 36.210219 61.4470244 34.7987153 57.8177561 41.3834745"></polygon>
            <g id="Group-8" transform="translate(0.000000, 12.379562)">
                <mask id="mask-4" fill="white">
                    <use xlink:href="#path-3"></use>
                </mask>
                <g id="Clip-6"></g>
                <path d="M60.4629073,3.31235036 L51.0804293,3.31235036 C51.0804293,1.58972263 49.6802341,0.192934307 47.9534049,0.192934307 C46.2265756,0.192934307 44.8252098,1.58972263 44.8252098,3.31235036 L35.4439024,3.31235036 C35.4439024,5.03591241 36.9485268,6.43293431 38.6753561,6.43293431 L38.5709268,6.43293431 C38.5709268,8.15556204 39.9704195,9.55235036 41.6981854,9.55235036 C41.6981854,11.2749781 43.0983805,12.672 44.8252098,12.672 L51.0804293,12.672 C52.8072585,12.672 54.2076878,11.2749781 54.2076878,9.55235036 C55.9345171,9.55235036 57.3356488,8.15556204 57.3356488,6.43293431 L57.2314537,6.43293431 C58.9582829,6.43293431 60.4629073,5.03591241 60.4629073,3.31235036 Z" id="Fill-5" fill="#FFDA44" mask="url(#mask-4)"></path>
                <path d="M95.9068098,35.5505985 C95.9068098,61.9692847 74.4365268,83.3873285 47.9534049,83.3873285 C21.4691122,83.3873285 0,61.9692847 0,35.5505985 L95.9068098,35.5505985 Z" id="Fill-7" fill="#F3F3F3" mask="url(#mask-4)"></path>
            </g>
            <path d="M47.9534049,95.7668905 C62.9422829,95.7668905 76.3235122,88.9046423 85.1175805,78.1591825 C83.5354537,77.0833285 82.6819902,75.3443504 79.921639,75.3443504 C75.9256976,75.3443504 75.9256976,78.9893139 71.929522,78.9893139 C67.9335805,78.9893139 67.9335805,75.3443504 63.9374049,75.3443504 C59.9414634,75.3443504 59.9414634,78.9893139 55.945522,78.9893139 C51.9493463,78.9893139 51.9484098,75.3443504 47.9524683,75.3443504 C43.9562927,75.3443504 43.9562927,78.9893139 39.9603512,78.9893139 C35.9653463,78.9893139 35.9653463,75.3443504 31.9691707,75.3443504 C27.9722927,75.3443504 27.9722927,78.9893139 23.9761171,78.9893139 C19.9801756,78.9893139 19.9801756,75.3443504 15.9832976,75.3443504 C13.2238829,75.3443504 12.3694829,77.0823942 10.7880585,78.1582482 C19.582361,88.9046423 32.9633561,95.7668905 47.9534049,95.7668905 Z" id="Fill-9" fill="#0052B4"></path>
            <path d="M87.9137561,54.0314161 C83.9175805,54.0314161 83.9175805,50.386219 79.921639,50.386219 C75.9256976,50.386219 75.9256976,54.0314161 71.929522,54.0314161 C67.9335805,54.0314161 67.9335805,50.386219 63.9374049,50.386219 C59.9414634,50.386219 59.9414634,54.0314161 55.945522,54.0314161 C51.9493463,54.0314161 51.9484098,50.386219 47.9524683,50.386219 C43.9562927,50.386219 43.9562927,54.0314161 39.9603512,54.0314161 C35.9653463,54.0314161 35.9653463,50.386219 31.9691707,50.386219 C27.9722927,50.386219 27.9722927,54.0314161 23.9761171,54.0314161 C19.9801756,54.0314161 19.9801756,50.386219 15.9832976,50.386219 C11.9880585,50.386219 11.9880585,54.0314161 7.99211707,54.0314161 C4.01701463,54.0314161 3.99430244,50.4263942 0.0622829268,50.3880876 C0.1728,52.576 0.435278049,54.7239708 0.830517073,56.824292 C4.01607805,57.2914453 4.29518049,60.4092263 7.99211707,60.4092263 C11.9880585,60.4092263 11.9880585,56.7649635 15.9832976,56.7649635 C19.9801756,56.7649635 19.9801756,60.4092263 23.9761171,60.4092263 C27.9732293,60.4092263 27.9732293,56.7649635 31.9691707,56.7649635 C35.9653463,56.7649635 35.9653463,60.4092263 39.9603512,60.4092263 C43.9562927,60.4092263 43.9562927,56.7649635 47.9524683,56.7649635 C51.9493463,56.7649635 51.9493463,60.4092263 55.945522,60.4092263 C59.9414634,60.4092263 59.9414634,56.7649635 63.9374049,56.7649635 C67.9335805,56.7649635 67.9335805,60.4092263 71.929522,60.4092263 C75.9256976,60.4092263 75.9256976,56.7649635 79.921639,56.7649635 C83.9175805,56.7649635 83.9175805,60.4092263 87.9137561,60.4092263 C91.6116293,60.4092263 91.889561,57.2914453 95.0753561,56.8252263 C95.4712976,54.7239708 95.732839,52.576 95.8445268,50.3880876 C91.9115707,50.4263942 91.887922,54.0314161 87.9137561,54.0314161 Z" id="Fill-10" fill="#0052B4"></path>
            <g id="Group-14" transform="translate(0.000000, 44.145985)">
                <mask id="mask-6" fill="white">
                    <use xlink:href="#path-5"></use>
                </mask>
                <g id="Clip-12"></g>
                <path d="M79.921639,18.7192993 C75.9256976,18.7192993 75.9256976,22.3644964 71.929522,22.3644964 C67.9335805,22.3644964 67.9335805,18.7192993 63.9374049,18.7192993 C59.9414634,18.7192993 59.9414634,22.3644964 55.945522,22.3644964 C51.9484098,22.3644964 51.9484098,18.7192993 47.9524683,18.7192993 C43.9562927,18.7192993 43.9562927,22.3644964 39.9603512,22.3644964 C35.9653463,22.3644964 35.9653463,18.7192993 31.9691707,18.7192993 C27.9722927,18.7192993 27.9722927,22.3644964 23.9761171,22.3644964 C19.9801756,22.3644964 19.9801756,18.7192993 15.9832976,18.7192993 C11.9880585,18.7192993 11.9880585,22.3644964 7.99211707,22.3644964 C5.13670244,22.3644964 4.32070244,20.5040584 2.6304,19.4410511 C3.75547317,22.6847299 5.21982439,25.7705109 6.98318049,28.6544818 C7.28967805,28.7112409 7.62357073,28.742073 7.99211707,28.742073 C11.9880585,28.742073 11.9880585,25.0980438 15.9832976,25.0980438 C19.9801756,25.0980438 19.9801756,28.742073 23.9761171,28.742073 C27.9722927,28.742073 27.9722927,25.0980438 31.9691707,25.0980438 C35.9653463,25.0980438 35.9653463,28.742073 39.9603512,28.742073 C43.9562927,28.742073 43.9562927,25.0980438 47.9524683,25.0980438 C51.9484098,25.0980438 51.9484098,28.742073 55.945522,28.742073 C59.9414634,28.742073 59.9414634,25.0980438 63.9374049,25.0980438 C67.9335805,25.0980438 67.9335805,28.742073 71.929522,28.742073 C75.9256976,28.742073 75.9256976,25.0980438 79.921639,25.0980438 C83.9175805,25.0980438 83.9175805,28.742073 87.9137561,28.742073 C88.2823024,28.742073 88.6161951,28.7112409 88.9224585,28.6544818 C90.6860488,25.7705109 92.1494634,22.6847299 93.275239,19.4410511 C91.5851707,20.5031241 90.7691707,22.3644964 87.9137561,22.3644964 C83.9175805,22.3644964 83.9175805,18.7192993 79.921639,18.7192993 Z" id="Fill-11" fill="#0052B4" mask="url(#mask-6)"></path>
                <path d="M95.7576585,0.00490510949 C91.9115707,0.0952992701 91.8584195,3.64543066 87.9137561,3.64543066 C83.9175805,3.64543066 83.9175805,0.000467153285 79.921639,0.000467153285 C75.9256976,0.000467153285 75.9256976,3.64543066 71.929522,3.64543066 C67.9335805,3.64543066 67.9335805,0.000467153285 63.9374049,0.000467153285 C59.9414634,0.000467153285 59.9414634,3.64543066 55.945522,3.64543066 C51.9493463,3.64543066 51.9484098,0.000467153285 47.9524683,0.000467153285 C43.9562927,0.000467153285 43.9562927,3.64543066 39.9603512,3.64543066 C35.9653463,3.64543066 35.9653463,0.000467153285 31.9691707,0.000467153285 C27.9722927,0.000467153285 27.9722927,3.64543066 23.9761171,3.64543066 C19.9801756,3.64543066 19.9801756,0.000467153285 15.9832976,0.000467153285 C11.9880585,0.000467153285 11.9880585,3.64543066 7.99211707,3.64543066 C4.04721951,3.64543066 3.99430244,0.0952992701 0.148214634,0.00490510949 C0.0512780488,1.25220438 0,2.51211679 0,3.78417518 C0,4.65541606 0.0245853659,5.52128467 0.0714146341,6.38084672 C3.99430244,6.42452555 4.02076098,10.0232409 7.99211707,10.0232409 C11.9880585,10.0232409 11.9880585,6.3789781 15.9832976,6.3789781 C19.9801756,6.3789781 19.9801756,10.0232409 23.9761171,10.0232409 C27.9732293,10.0232409 27.9732293,6.3789781 31.9691707,6.3789781 C35.9653463,6.3789781 35.9653463,10.0232409 39.9603512,10.0232409 C43.9562927,10.0232409 43.9562927,6.3789781 47.9524683,6.3789781 C51.9493463,6.3789781 51.9493463,10.0232409 55.945522,10.0232409 C59.9414634,10.0232409 59.9414634,6.3789781 63.9374049,6.3789781 C67.9335805,6.3789781 67.9335805,10.0232409 71.929522,10.0232409 C75.9256976,10.0232409 75.9256976,6.3789781 79.921639,6.3789781 C83.9175805,6.3789781 83.9175805,10.0232409 87.9137561,10.0232409 C91.8860488,10.0232409 91.9115707,6.42452555 95.8353951,6.38084672 C95.8819902,5.52035036 95.9068098,4.65541606 95.9068098,3.78417518 C95.9068098,2.51211679 95.8555317,1.25220438 95.7576585,0.00490510949 Z" id="Fill-13" fill="#F3F3F3" mask="url(#mask-6)"></path>
            </g>
        </g>
    </g>
</svg>