<?xml version="1.0" encoding="UTF-8"?>
<svg width="96px" height="96px" viewBox="0 0 96 96" version="1.1" xmlns="http://www.w3.org/2000/svg" xmlns:xlink="http://www.w3.org/1999/xlink">
    <title>latvia</title>
    <desc>designed by Freepik from Flaticon</desc>
    <defs>
        <polygon id="path-1" points="0.0140487805 0.0934306569 0.0140487805 95.7668905 95.9068098 95.7668905 95.9068098 0.0934306569"></polygon>
    </defs>
    <g id="Page-1" stroke="none" stroke-width="1" fill="none" fill-rule="evenodd">
        <g id="latvia">
            <g id="Group-3">
                <mask id="mask-2" fill="white">
                    <use xlink:href="#path-1"></use>
                </mask>
                <g id="Clip-2"></g>
                <path d="M95.9068098,47.9301606 C95.9068098,74.3488467 74.4365268,95.7668905 47.9534049,95.7668905 C21.4691122,95.7668905 0,74.3488467 0,47.9301606 C0,21.5103066 21.4691122,0.0934306569 47.9534049,0.0934306569 C74.4365268,0.0934306569 95.9068098,21.5103066 95.9068098,47.9301606 Z" id="Fill-1" fill="#F3F3F3" mask="url(#mask-2)"></path>
            </g>
            <path d="M47.9534049,0.0934306569 C25.7973073,0.0934306569 7.15434146,15.0834453 1.65190244,35.4510949 L94.2549073,35.4510949 C88.7515317,15.0834453 70.1085659,0.0934306569 47.9534049,0.0934306569 Z" id="Fill-4" fill="#A2001D"></path>
            <path d="M47.9534049,95.7668905 C70.1085659,95.7668905 88.7515317,80.7759416 94.2539707,60.4092263 L1.65190244,60.4092263 C7.15434146,80.7759416 25.7973073,95.7668905 47.9534049,95.7668905 Z" id="Fill-5" fill="#A2001D"></path>
        </g>
    </g>
</svg>