<?xml version="1.0" encoding="UTF-8"?>
<svg width="96px" height="96px" viewBox="0 0 96 96" version="1.1" xmlns="http://www.w3.org/2000/svg" xmlns:xlink="http://www.w3.org/1999/xlink">
    <title>libya</title>
    <desc>designed by Freepik from Flaticon</desc>
    <defs>
        <polygon id="path-1" points="0.0140487805 0.0815182482 0.0140487805 49.9975474 95.9068098 49.9975474 95.9068098 0.0815182482 0.0140487805 0.0815182482"></polygon>
    </defs>
    <g id="Page-1" stroke="none" stroke-width="1" fill="none" fill-rule="evenodd">
        <g id="libya">
            <g id="Group-3" transform="translate(0.000000, 22.890511)">
                <mask id="mask-2" fill="white">
                    <use xlink:href="#path-1"></use>
                </mask>
                <g id="Clip-2"></g>
                <path d="M4.75785366,4.24128467 C1.70950244,10.529635 0,17.5852847 0,25.0396496 C0,32.4930803 1.70950244,39.5487299 4.75785366,45.8380146 L47.9534049,49.9975474 L91.1477854,45.8380146 C94.1963707,39.5487299 95.9068098,32.4930803 95.9068098,25.0396496 C95.9068098,17.5852847 94.1963707,10.529635 91.1477854,4.24128467 L47.9534049,0.0815182482 L4.75785366,4.24128467 Z" id="Fill-1" fill="#000000" mask="url(#mask-2)"></path>
            </g>
            <path d="M4.75972683,68.7285255 C12.5158244,84.7294599 28.9416585,95.7668905 47.9534049,95.7668905 C66.9649171,95.7668905 83.3900488,84.7294599 91.1461463,68.7285255 L4.75972683,68.7285255 Z" id="Fill-4" fill="#496E2D"></path>
            <path d="M4.75972683,27.1317956 L91.1461463,27.1317956 C83.3900488,11.1308613 66.9649171,0.0934306569 47.9534049,0.0934306569 C28.9416585,0.0934306569 12.5158244,11.1308613 4.75972683,27.1317956 Z" id="Fill-5" fill="#D80027"></path>
            <polygon id="Fill-6" fill="#F3F3F3" points="59.1146927 39.1820146 63.0492878 44.5907153 69.4206439 42.529635 65.4804293 47.9336642 69.414322 53.3425985 63.044839 51.2731095 59.1036878 56.6773723 59.1081366 49.9949781 52.7377171 47.9264234 59.1100098 45.8653431"></polygon>
            <path d="M48.3767415,61.4493431 C40.8924878,61.4493431 34.8245854,55.396438 34.8245854,47.9301606 C34.8245854,40.4638832 40.8924878,34.4109781 48.3767415,34.4109781 C50.7100098,34.4109781 52.9060683,34.9993577 54.8232585,36.0359708 C51.8158829,33.1015474 47.7026341,31.2913285 43.1644098,31.2913285 C33.9521561,31.2913285 26.4849951,38.7403212 26.4849951,47.9301606 C26.4849951,57.1190657 33.9530927,64.5687591 43.1644098,64.5687591 C47.7026341,64.5687591 51.8158829,62.7576058 54.8232585,59.8234161 C52.9060683,60.8607299 50.7100098,61.4493431 48.3767415,61.4493431 Z" id="Fill-7" fill="#F3F3F3"></path>
        </g>
    </g>
</svg>