<?xml version="1.0" encoding="UTF-8"?>
<svg width="96px" height="96px" viewBox="0 0 96 96" version="1.1" xmlns="http://www.w3.org/2000/svg" xmlns:xlink="http://www.w3.org/1999/xlink">
    <title>marshall-island</title>
    <desc>designed by Freepik from Flaticon</desc>
    <defs>
        <polygon id="path-1" points="0.0140487805 0.0934306569 0.0140487805 95.7668905 95.9068098 95.7668905 95.9068098 0.0934306569"></polygon>
    </defs>
    <g id="Page-1" stroke="none" stroke-width="1" fill="none" fill-rule="evenodd">
        <g id="marshall-island">
            <g id="Group-3">
                <mask id="mask-2" fill="white">
                    <use xlink:href="#path-1"></use>
                </mask>
                <g id="Clip-2"></g>
                <path d="M47.9534049,95.7668905 C74.4365268,95.7668905 95.9068098,74.3488467 95.9068098,47.9301606 C95.9068098,39.9018978 93.9210146,32.3370511 90.4179512,25.6938978 L47.8967415,47.9857518 L70.2439024,5.56870073 C63.5845463,2.07416058 56.0012488,0.0934306569 47.9534049,0.0934306569 C21.4691122,0.0934306569 0,21.5103066 0,47.9301606 C0,61.139854 5.36710244,73.0989781 14.0450341,81.7557956 C22.7232,90.4119124 34.7112585,95.7668905 47.9534049,95.7668905 Z" id="Fill-1" fill="#0052B4" mask="url(#mask-2)"></path>
            </g>
            <path d="M90.3666732,25.7457518 C88.1715512,21.5778102 85.3180098,17.6647007 81.804878,14.1601168 C78.2917463,10.6564672 74.3697951,7.80870073 70.1916878,5.61985401 L13.9893073,81.8113869 L90.3666732,25.7457518 Z" id="Fill-4" fill="#F3F3F3"></path>
            <path d="M13.9893073,81.8113869 L90.3666732,25.7457518 C88.1715512,21.5778102 85.3180098,17.6647007 81.804878,14.1601168 L13.9893073,81.8113869 Z" id="Fill-5" fill="#FF9811"></path>
            <polygon id="Fill-6" fill="#F3F3F3" points="41.6424585 28.1455182 35.7859902 30.8935474 38.9048195 36.5514745 32.5454049 35.3380438 31.7397073 41.7466861 27.3091902 37.0331095 22.8796098 41.7466861 22.0746146 35.3380438 15.7152 36.5514745 18.8333268 30.8935474 12.9768585 28.1455182 18.8333268 25.3972555 15.7152 19.7393285 22.073678 20.9529927 22.8805463 14.5441168 27.3091902 19.2576934 31.7397073 14.5441168 32.5454049 20.9529927 38.9048195 19.7393285 35.7859902 25.3972555"></polygon>
        </g>
    </g>
</svg>