<?xml version="1.0" encoding="UTF-8"?>
<svg width="96px" height="96px" viewBox="0 0 96 96" version="1.1" xmlns="http://www.w3.org/2000/svg" xmlns:xlink="http://www.w3.org/1999/xlink">
    <title>melilla</title>
    <desc>designed by Freepik from Flaticon</desc>
    <defs>
        <polygon id="path-1" points="0.0140487805 0.0934306569 0.0140487805 95.7668905 95.9068098 95.7668905 95.9068098 0.0934306569"></polygon>
    </defs>
    <g id="Page-1" stroke="none" stroke-width="1" fill="none" fill-rule="evenodd">
        <g id="melilla">
            <g id="Group-3">
                <mask id="mask-2" fill="white">
                    <use xlink:href="#path-1"></use>
                </mask>
                <g id="Clip-2"></g>
                <path d="M95.9068098,47.9301606 C95.9068098,74.3488467 74.4365268,95.7668905 47.9534049,95.7668905 C21.4691122,95.7668905 0,74.3488467 0,47.9301606 C0,21.5103066 21.4691122,0.0934306569 47.9534049,0.0934306569 C74.4365268,0.0934306569 95.9068098,21.5103066 95.9068098,47.9301606 Z" id="Fill-1" fill="#338AF3" mask="url(#mask-2)"></path>
            </g>
            <polygon id="Fill-4" fill="#818085" points="22.9344 58.3287591 72.9721756 58.3287591 72.9721756 52.0896934 22.9344 52.0896934"></polygon>
            <polygon id="Fill-5" fill="#FFDA44" points="31.2739902 33.3708613 47.9534049 35.4510949 64.6325854 33.3708613 64.6325854 23.3880292 57.9603512 26.7157956 47.9534049 16.7320292 37.945522 26.7157956 31.2739902 23.3880292"></polygon>
            <polygon id="Fill-6" fill="#F3F3F3" points="27.1043122 64.5687591 20.8490927 64.5687591 20.8490927 53.1298102 22.9344 50.0094599 20.8490927 46.8900438 20.8490927 39.6108613 27.1043122 39.6108613"></polygon>
            <polygon id="Fill-7" fill="#F3F3F3" points="75.0577171 64.5687591 68.8024976 64.5687591 68.8024976 39.6108613 75.0577171 39.6108613 75.0577171 46.8900438 72.9721756 50.0624818 75.0577171 53.1298102"></polygon>
            <polygon id="Fill-8" fill="#ACABB1" points="20.8490927 53.1300438 75.0567805 53.1300438 75.0567805 46.8900438 20.8490927 46.8900438"></polygon>
            <path d="M47.9534049,72.8880584 C38.7559024,72.8880584 31.2739902,65.4236496 31.2739902,56.2494599 L31.2739902,33.3708613 L64.6325854,33.3708613 L64.6325854,56.2494599 C64.6325854,65.4236496 57.1499707,72.8880584 47.9534049,72.8880584 Z" id="Fill-9" fill="#F3F3F3"></path>
            <path d="M47.9534049,66.6480584 C42.204878,66.6480584 37.5282732,61.9830657 37.5282732,56.2494599 L37.5282732,39.6108613 L58.3773659,39.6108613 L58.3773659,56.2494599 C58.3773659,61.9830657 53.7009951,66.6480584 47.9534049,66.6480584 Z" id="Fill-10" fill="#0052B4"></path>
            <polygon id="Fill-11" fill="#D80027" points="31.2739902 39.6108613 37.5282732 39.6108613 37.5282732 33.3708613 31.2739902 33.3708613"></polygon>
            <polygon id="Fill-12" fill="#D80027" points="58.3773659 39.6108613 64.6325854 39.6108613 64.6325854 33.3708613 58.3773659 33.3708613"></polygon>
            <polygon id="Fill-13" fill="#D80027" points="58.3773659 53.1300438 64.6325854 53.1300438 64.6325854 46.8900438 58.3773659 46.8900438"></polygon>
            <polygon id="Fill-14" fill="#D80027" points="31.2739902 53.1300438 37.5282732 53.1300438 37.5282732 46.8900438 31.2739902 46.8900438"></polygon>
            <polygon id="Fill-15" fill="#D80027" points="44.8252098 39.6108613 51.0804293 39.6108613 51.0804293 33.3708613 44.8252098 33.3708613"></polygon>
            <path d="M47.9534049,66.6480584 C46.863922,66.6480584 45.8130732,66.4803504 44.8252098,66.1701606 L44.8252098,72.5907153 C45.8395317,72.7831825 46.8840585,72.8880584 47.9534049,72.8880584 C49.0225171,72.8880584 50.0670439,72.7831825 51.0804293,72.5907153 L51.0804293,66.1701606 C50.0928,66.4803504 49.0426537,66.6480584 47.9534049,66.6480584 Z" id="Fill-16" fill="#D80027"></path>
            <path d="M37.6682927,57.9375182 L32.6762927,62.9173723 C33.5414634,64.8826861 34.7761171,66.649927 36.2945561,68.1317372 L40.7150049,63.7220438 C39.1370927,62.2009927 38.0387122,60.1910657 37.6682927,57.9375182 Z" id="Fill-17" fill="#D80027"></path>
            <path d="M63.2295805,62.9173723 L58.2385171,57.9375182 C57.8680976,60.1910657 56.7694829,62.2009927 55.1918049,63.7220438 L59.6122537,68.1326715 C61.129522,66.649927 62.3644098,64.8826861 63.2295805,62.9173723 Z" id="Fill-18" fill="#D80027"></path>
        </g>
    </g>
</svg>