<?xml version="1.0" encoding="UTF-8"?>
<svg width="96px" height="96px" viewBox="0 0 96 96" version="1.1" xmlns="http://www.w3.org/2000/svg" xmlns:xlink="http://www.w3.org/1999/xlink">
    <title>micronesia</title>
    <desc>designed by Freepik from Flaticon</desc>
    <defs>
        <polygon id="path-1" points="0.0140487805 0.0934306569 0.0140487805 95.7668905 95.9068098 95.7668905 95.9068098 0.0934306569"></polygon>
    </defs>
    <g id="Page-1" stroke="none" stroke-width="1" fill="none" fill-rule="evenodd">
        <g id="micronesia">
            <g id="Group-3">
                <mask id="mask-2" fill="white">
                    <use xlink:href="#path-1"></use>
                </mask>
                <g id="Clip-2"></g>
                <path d="M95.9068098,47.9301606 C95.9068098,74.3488467 74.4365268,95.7668905 47.9534049,95.7668905 C21.4691122,95.7668905 0,74.3488467 0,47.9301606 C0,21.5103066 21.4691122,0.0934306569 47.9534049,0.0934306569 C74.4365268,0.0934306569 95.9068098,21.5103066 95.9068098,47.9301606 Z" id="Fill-1" fill="#338AF3" mask="url(#mask-2)"></path>
            </g>
            <polygon id="Fill-4" fill="#F3F3F3" points="47.9534049 20.8917956 50.0232585 27.2476496 56.7219512 27.2476496 51.3026341 31.1754745 53.3724878 37.5303942 47.9534049 33.6025693 42.5331512 37.5303942 44.6039415 31.1754745 39.183922 27.2476496 45.8835512 27.2476496"></polygon>
            <polygon id="Fill-5" fill="#F3F3F3" points="20.8490927 47.9301606 27.2204488 45.8653431 27.2204488 39.1820146 31.1578537 44.5888467 37.5282732 42.5240292 33.5908683 47.9301606 37.5282732 53.3360584 31.1578537 51.2712409 27.2204488 56.6773723 27.2204488 49.9949781"></polygon>
            <polygon id="Fill-6" fill="#F3F3F3" points="47.9534049 74.9685255 45.8835512 68.6126715 39.183922 68.6126715 44.6039415 64.6846131 42.5340878 58.3287591 47.9534049 62.2568175 53.3724878 58.3287591 51.3026341 64.6846131 56.7219512 68.6126715 50.0232585 68.6126715"></polygon>
            <polygon id="Fill-7" fill="#F3F3F3" points="75.0577171 47.9301606 68.686361 49.9949781 68.686361 56.6773723 64.748722 51.2712409 58.3773659 53.3360584 62.3150049 47.9301606 58.3773659 42.5240292 64.748722 44.5888467 68.686361 39.1820146 68.686361 45.8653431"></polygon>
        </g>
    </g>
</svg>