<?xml version="1.0" encoding="UTF-8"?>
<svg width="96px" height="96px" viewBox="0 0 96 96" version="1.1" xmlns="http://www.w3.org/2000/svg" xmlns:xlink="http://www.w3.org/1999/xlink">
    <title>morocco</title>
    <desc>designed by Freepik from Flaticon</desc>
    <defs>
        <polygon id="path-1" points="0.0140487805 0.0934306569 0.0140487805 95.7668905 95.9068098 95.7668905 95.9068098 0.0934306569"></polygon>
    </defs>
    <g id="Page-1" stroke="none" stroke-width="1" fill="none" fill-rule="evenodd">
        <g id="morocco">
            <g id="Group-3">
                <mask id="mask-2" fill="white">
                    <use xlink:href="#path-1"></use>
                </mask>
                <g id="Clip-2"></g>
                <path d="M95.9068098,47.9301606 C95.9068098,74.3488467 74.4365268,95.7668905 47.9534049,95.7668905 C21.4691122,95.7668905 0,74.3488467 0,47.9301606 C0,21.5103066 21.4691122,0.0934306569 47.9534049,0.0934306569 C74.4365268,0.0934306569 95.9068098,21.5103066 95.9068098,47.9301606 Z" id="Fill-1" fill="#D80027" mask="url(#mask-2)"></path>
            </g>
            <path d="M76.2923707,39.3506569 L54.6429659,39.3506569 L47.9534049,18.8124964 L41.2636098,39.3506569 L19.614439,39.3506569 L37.1285854,52.0450803 L30.4390244,72.5844088 L47.9534049,59.8909197 L65.4677854,72.5851095 L58.7779902,52.0450803 L76.2923707,39.3506569 Z M42.0302049,50.4555912 L44.2929951,43.5104234 L51.6138146,43.5104234 L53.8756683,50.4555912 L53.8756683,50.4565255 L47.9534049,54.7484964 L42.0311415,50.4565255 L42.0302049,50.4555912 Z M50.2583415,39.3506569 L45.6475317,39.3506569 L47.9534049,32.2732847 L50.2583415,39.3506569 Z M57.4225171,47.8853139 L55.9975024,43.5104234 L63.4583415,43.5104234 L57.4225171,47.8853139 Z M39.9081366,43.5104234 L38.483122,47.8853139 L32.4475317,43.5104234 L39.9081366,43.5104234 Z M38.3697951,61.6945985 L40.6756683,54.616292 L44.406322,57.319708 L38.3697951,61.6945985 Z M51.5002537,57.319708 L55.2302049,54.616292 L57.536078,61.6945985 L51.5002537,57.319708 Z" id="Fill-4" fill="#FFDA44"></path>
        </g>
    </g>
</svg>