<?xml version="1.0" encoding="UTF-8"?>
<svg width="96px" height="96px" viewBox="0 0 96 96" version="1.1" xmlns="http://www.w3.org/2000/svg" xmlns:xlink="http://www.w3.org/1999/xlink">
    <title>nauru</title>
    <desc>designed by Freepik from Flaticon</desc>
    <defs>
        <polygon id="path-1" points="0.0140487805 0.0934306569 0.0140487805 95.7668905 95.9068098 95.7668905 95.9068098 0.0934306569"></polygon>
    </defs>
    <g id="Page-1" stroke="none" stroke-width="1" fill="none" fill-rule="evenodd">
        <g id="nauru">
            <g id="Group-4">
                <mask id="mask-2" fill="white">
                    <use xlink:href="#path-1"></use>
                </mask>
                <g id="Clip-2"></g>
                <path d="M95.9068098,47.9301606 C95.9068098,74.3488467 74.4365268,95.7668905 47.9534049,95.7668905 C21.4691122,95.7668905 0,74.3488467 0,47.9301606 C0,21.5103066 21.4691122,0.0934306569 47.9534049,0.0934306569 C74.4365268,0.0934306569 95.9068098,21.5103066 95.9068098,47.9301606 Z" id="Fill-1" fill="#0052B4" mask="url(#mask-2)"></path>
                <path d="M95.9068098,47.9301606 C95.9068098,74.3488467 74.4365268,95.7668905 47.9534049,95.7668905 C21.4691122,95.7668905 0,74.3488467 0,47.9301606 C0,21.5103066 21.4691122,0.0934306569 47.9534049,0.0934306569 C74.4365268,0.0934306569 95.9068098,21.5103066 95.9068098,47.9301606 Z" id="Fill-3" fill="#FFDA44" mask="url(#mask-2)"></path>
            </g>
            <path d="M47.9534049,0.0934306569 C22.8739902,0.0934306569 2.29580488,19.2997372 0.182868293,43.7703942 L95.7237073,43.7703942 C93.6100683,19.2997372 73.0316488,0.0934306569 47.9534049,0.0934306569 Z" id="Fill-5" fill="#0052B4"></path>
            <path d="M47.9534049,95.7668905 C73.0316488,95.7668905 93.6100683,76.5605839 95.7237073,52.0896934 L0.182868293,52.0896934 C2.29580488,76.5605839 22.8739902,95.7668905 47.9534049,95.7668905 Z" id="Fill-6" fill="#0052B4"></path>
            <polygon id="Fill-7" fill="#F3F3F3" points="39.6138146 64.5687591 34.2401561 67.0897518 37.1011902 72.2814599 31.2667317 71.1682336 30.5277659 77.0478248 26.4632195 72.7229197 22.3993756 77.0478248 21.6594732 71.1682336 15.8250146 72.2814599 18.6860488 67.0897518 13.3133268 64.5687591 18.6869854 62.0468321 15.8250146 56.856292 21.6594732 57.9692847 22.3993756 52.0896934 26.4632195 56.4145985 30.5277659 52.0896934 31.2667317 57.9692847 37.1021268 56.856292 34.2401561 62.0477664"></polygon>
        </g>
    </g>
</svg>