<?xml version="1.0" encoding="UTF-8"?>
<svg width="96px" height="96px" viewBox="0 0 96 96" version="1.1" xmlns="http://www.w3.org/2000/svg" xmlns:xlink="http://www.w3.org/1999/xlink">
    <title>nepal</title>
    <desc>designed by Freepik from Flaticon</desc>
    <defs>
        <polygon id="path-1" points="0.0140487805 0.0934306569 0.0140487805 95.7668905 95.9068098 95.7668905 95.9068098 0.0934306569"></polygon>
    </defs>
    <g id="Page-1" stroke="none" stroke-width="1" fill="none" fill-rule="evenodd">
        <g id="nepal">
            <g id="Group-6">
                <mask id="mask-2" fill="white">
                    <use xlink:href="#path-1"></use>
                </mask>
                <g id="Clip-2"></g>
                <path d="M95.9068098,47.9301606 C95.9068098,74.3488467 74.4365268,95.7668905 47.9534049,95.7668905 C21.4691122,95.7668905 0,74.3488467 0,47.9301606 C0,21.5103066 21.4691122,0.0934306569 47.9534049,0.0934306569 C74.4365268,0.0934306569 95.9068098,21.5103066 95.9068098,47.9301606 Z" id="Fill-1" fill="#F3F3F3" mask="url(#mask-2)"></path>
                <path d="M95.6232585,53.1298102 C95.6232585,53.1291095 95.6241951,53.1291095 95.6241951,53.1281752 L43.0353951,0.342423358 C40.6627902,0.583474453 38.3414634,0.996671533 36.0840585,1.57056934 C15.3412683,6.83889051 0,47.9301606 0,47.9301606 C0,47.9301606 67.1342049,92.7458102 74.7933659,87.5751241 C76.3253854,86.5406131 77.7941854,85.420146 79.193678,84.2202628 L48.0273951,53.1298102 L95.6232585,53.1298102 Z" id="Fill-4" fill="#0052B4" mask="url(#mask-2)"></path>
                <path d="M83.3963707,47.9301606 L36.760039,1.40729927 C15.6758634,6.43643796 0,25.3552117 0,47.9301606 C0,74.3488467 21.4691122,95.7668905 47.9534049,95.7668905 C57.9987512,95.7668905 67.3217561,92.6827445 75.025639,87.4155912 L35.4439024,47.9301606 L83.3963707,47.9301606 Z" id="Fill-5" fill="#D80027" mask="url(#mask-2)"></path>
            </g>
            <polygon id="Fill-7" fill="#F3F3F3" points="45.606322 70.7258394 39.7500878 67.9775766 42.8689171 62.3196496 36.5095024 63.5333139 35.7035707 57.124438 31.2739902 61.8380146 26.8444098 57.124438 26.0387122 63.5333139 19.6792976 62.3196496 22.7981268 67.9775766 16.9409561 70.7258394 22.7981268 73.4738686 19.6792976 79.1317956 26.0387122 77.9181314 26.8444098 84.3270073 31.2739902 79.6134307 35.7035707 84.3270073 36.5095024 77.9181314 42.8689171 79.1317956 39.7500878 73.4738686"></polygon>
            <polygon id="Fill-8" fill="#F3F3F3" points="41.6981854 26.6244672 37.4388293 24.626219 39.7070049 20.510365 35.081678 21.3935182 34.4953756 16.7320292 31.2739902 20.16 28.0519024 16.7320292 27.4656 21.3935182 22.8402732 20.510365 25.1084488 24.626219 20.8490927 26.6244672 31.2739902 28.7047007"></polygon>
            <path d="M43.7834927,26.6244672 C43.7834927,33.5168467 38.1822439,39.1035328 31.2739902,39.1035328 C24.3650341,39.1035328 18.7637854,33.5168467 18.7637854,26.6244672" id="Fill-9" fill="#F3F3F3"></path>
        </g>
    </g>
</svg>