<?xml version="1.0" encoding="UTF-8"?>
<svg width="96px" height="96px" viewBox="0 0 96 96" version="1.1" xmlns="http://www.w3.org/2000/svg" xmlns:xlink="http://www.w3.org/1999/xlink">
    <title>nicaragua</title>
    <desc>designed by Freepik from Flaticon</desc>
    <defs>
        <polygon id="path-1" points="0.0140487805 0.0934306569 0.0140487805 95.7668905 95.9068098 95.7668905 95.9068098 0.0934306569"></polygon>
    </defs>
    <g id="Page-1" stroke="none" stroke-width="1" fill="none" fill-rule="evenodd">
        <g id="nicaragua">
            <g id="Group-3">
                <mask id="mask-2" fill="white">
                    <use xlink:href="#path-1"></use>
                </mask>
                <g id="Clip-2"></g>
                <path d="M95.9068098,47.9301606 C95.9068098,74.3488467 74.4365268,95.7668905 47.9534049,95.7668905 C21.4691122,95.7668905 0,74.3488467 0,47.9301606 C0,21.5103066 21.4691122,0.0934306569 47.9534049,0.0934306569 C74.4365268,0.0934306569 95.9068098,21.5103066 95.9068098,47.9301606 Z" id="Fill-1" fill="#F3F3F3" mask="url(#mask-2)"></path>
            </g>
            <path d="M47.9534049,0.0934306569 C28.9416585,0.0934306569 12.5148878,11.1308613 4.75785366,27.1317956 L91.1477854,27.1317956 C83.3916878,11.1308613 66.9649171,0.0934306569 47.9534049,0.0934306569 Z" id="Fill-4" fill="#338AF3"></path>
            <path d="M47.9534049,95.7668905 C66.9649171,95.7668905 83.3916878,84.7294599 91.1477854,68.7285255 L4.75785366,68.7285255 C12.5148878,84.7294599 28.9416585,95.7668905 47.9534049,95.7668905 Z" id="Fill-5" fill="#338AF3"></path>
            <path d="M47.9534049,33.3708613 C39.8926829,33.3708613 33.3585951,39.8890511 33.3585951,47.9301606 C33.3585951,55.9703358 39.8926829,62.4885255 47.9534049,62.4885255 C56.0131902,62.4885255 62.547278,55.9703358 62.547278,47.9301606 C62.547278,39.8890511 56.0131902,33.3708613 47.9534049,33.3708613 Z M47.9534049,56.2494599 C43.347278,56.2494599 39.6138146,52.5250803 39.6138146,47.9301606 C39.6138146,43.3352409 43.347278,39.6108613 47.9534049,39.6108613 C52.5595317,39.6108613 56.2929951,43.3352409 56.2929951,47.9301606 C56.2929951,52.5250803 52.5585951,56.2494599 47.9534049,56.2494599 Z" id="Fill-6" fill="#FFDA44"></path>
            <polygon id="Fill-7" fill="#0052B4" points="55.1754146 50.0094599 47.9534049 47.9301606 40.7304585 50.0094599 38.3232 54.1692263 57.5826732 54.1692263"></polygon>
            <polygon id="Fill-8" fill="#338AF3" points="47.9534049 37.5303942 43.1377171 45.849927 47.9534049 47.9301606 52.767922 45.849927"></polygon>
            <polygon id="Fill-9" fill="#6DA544" points="40.7304585 50.0094599 55.1754146 50.0094599 52.767922 45.849927 43.1377171 45.849927"></polygon>
        </g>
    </g>
</svg>