<?xml version="1.0" encoding="UTF-8"?>
<svg width="96px" height="96px" viewBox="0 0 96 96" version="1.1" xmlns="http://www.w3.org/2000/svg" xmlns:xlink="http://www.w3.org/1999/xlink">
    <title>north-korea</title>
    <desc>designed by Freepik from Flaticon</desc>
    <defs>
        <polygon id="path-1" points="0.0140487805 0.0934306569 0.0140487805 95.7668905 95.9068098 95.7668905 95.9068098 0.0934306569"></polygon>
        <polygon id="path-3" points="0.0140487805 0.0815182482 0.0140487805 72.8763796 95.9068098 72.8763796 95.9068098 0.0815182482"></polygon>
    </defs>
    <g id="Page-1" stroke="none" stroke-width="1" fill="none" fill-rule="evenodd">
        <g id="north-korea">
            <g id="Group-3">
                <mask id="mask-2" fill="white">
                    <use xlink:href="#path-1"></use>
                </mask>
                <g id="Clip-2"></g>
                <path d="M95.9068098,47.9301606 C95.9068098,74.3488467 74.4365268,95.7668905 47.9534049,95.7668905 C21.4691122,95.7668905 0,74.3488467 0,47.9301606 C0,21.5103066 21.4691122,0.0934306569 47.9534049,0.0934306569 C74.4365268,0.0934306569 95.9068098,21.5103066 95.9068098,47.9301606 Z" id="Fill-1" fill="#F3F3F3" mask="url(#mask-2)"></path>
            </g>
            <path d="M47.9534049,0.0934306569 C33.4190049,0.0934306569 20.3962537,6.54505109 11.6021854,16.7320292 L84.3036878,16.7320292 C75.510322,6.54505109 62.4868683,0.0934306569 47.9534049,0.0934306569 Z" id="Fill-4" fill="#0052B4"></path>
            <g id="Group-8" transform="translate(0.000000, 22.890511)">
                <mask id="mask-4" fill="white">
                    <use xlink:href="#path-3"></use>
                </mask>
                <g id="Clip-6"></g>
                <path d="M84.3036878,56.2375474 L11.6021854,56.2375474 C20.3962537,66.4245255 33.4190049,72.8763796 47.9534049,72.8763796 C62.4868683,72.8763796 75.510322,66.4245255 84.3036878,56.2375474 Z" id="Fill-5" fill="#0052B4" mask="url(#mask-4)"></path>
                <path d="M88.8676683,0.0815182482 L7.03820488,0.0815182482 C2.57467317,7.34715328 0,15.8927883 0,25.0396496 C0,34.1855766 2.57467317,42.7312117 7.03820488,49.9975474 L88.8676683,49.9975474 C93.3319024,42.7312117 95.9068098,34.1855766 95.9068098,25.0396496 C95.9068098,15.8927883 93.3319024,7.34715328 88.8676683,0.0815182482 Z" id="Fill-7" fill="#D80027" mask="url(#mask-4)"></path>
            </g>
            <path d="M47.9534049,47.9301606 C47.9534049,58.0951825 39.6924878,66.3362336 29.5015024,66.3362336 C19.3116878,66.3362336 11.0505366,58.0951825 11.0505366,47.9301606 C11.0505366,37.7639708 19.3116878,29.5231533 29.5015024,29.5231533 C39.6924878,29.5231533 47.9534049,37.7639708 47.9534049,47.9301606 Z" id="Fill-9" fill="#F3F3F3"></path>
            <polygon id="Fill-10" fill="#D80027" points="29.5015024 29.5231533 33.6412098 42.233927 47.0606049 42.233927 36.2001951 50.0898102 40.3729171 62.8379562 29.5015024 54.9447007 18.6467122 62.8232409 22.8028098 50.0898102 11.9524683 42.233927 25.3617951 42.233927"></polygon>
        </g>
    </g>
</svg>