<?xml version="1.0" encoding="UTF-8"?>
<svg width="96px" height="96px" viewBox="0 0 96 96" version="1.1" xmlns="http://www.w3.org/2000/svg" xmlns:xlink="http://www.w3.org/1999/xlink">
    <title>pakistan</title>
    <desc>designed by Freepik from Flaticon</desc>
    <defs>
        <polygon id="path-1" points="0.0140487805 0.0934306569 0.0140487805 95.7668905 95.9068098 95.7668905 95.9068098 0.0934306569"></polygon>
    </defs>
    <g id="Page-1" stroke="none" stroke-width="1" fill="none" fill-rule="evenodd">
        <g id="pakistan">
            <g id="Group-4">
                <mask id="mask-2" fill="white">
                    <use xlink:href="#path-1"></use>
                </mask>
                <g id="Clip-2"></g>
                <path d="M95.9068098,47.9301606 C95.9068098,74.3488467 74.4365268,95.7668905 47.9534049,95.7668905 C21.4691122,95.7668905 0,74.3488467 0,47.9301606 C0,21.5103066 21.4691122,0.0934306569 47.9534049,0.0934306569 C74.4365268,0.0934306569 95.9068098,21.5103066 95.9068098,47.9301606 Z" id="Fill-1" fill="#F3F3F3" mask="url(#mask-2)"></path>
                <path d="M0,47.9301606 C0,66.0624818 10.1130146,81.8370803 25.0190049,89.9501314 L25.0190049,5.9099562 C10.1130146,14.0232409 0,29.7978394 0,47.9301606 Z" id="Fill-3" fill="#F3F3F3" mask="url(#mask-2)"></path>
            </g>
            <path d="M47.9534049,0.0934306569 C39.6456585,0.0934306569 31.831961,2.20192701 25.0190049,5.9099562 L25.0190049,89.9501314 C31.831961,93.6581606 39.6456585,95.7668905 47.9534049,95.7668905 C74.4365268,95.7668905 95.9068098,74.3488467 95.9068098,47.9301606 C95.9068098,21.5103066 74.4365268,0.0934306569 47.9534049,0.0934306569 Z" id="Fill-5" fill="#496E2D"></path>
            <path d="M68.4557268,55.8407007 C62.3889951,60.2139562 53.9175805,58.852438 49.5338927,52.8014015 C45.1509073,46.7484964 46.5155122,38.2976934 52.5813073,33.9256058 C54.4729756,32.5624526 56.5985561,31.7568467 58.7606634,31.4765547 C54.6008195,30.8552409 50.2033171,31.7904818 46.5255805,34.4420438 C39.0584195,39.8243504 37.3793561,50.2248175 42.7738537,57.6738102 C48.1692878,65.121635 58.5960585,66.797781 66.0622829,61.4154745 C69.7409561,58.764146 72.0119415,54.8935474 72.7270244,50.7585401 C71.7813073,52.7175474 70.347161,54.4775474 68.4557268,55.8407007 Z" id="Fill-6" fill="#F3F3F3"></path>
            <polygon id="Fill-7" fill="#F3F3F3" points="68.1960585 31.2913285 71.6131902 34.9657226 76.1715512 32.8588613 73.7249561 37.2367883 77.1420878 40.9100146 72.2121366 39.942073 69.7655415 44.3188321 69.166361 39.3424818 64.2366439 38.3745401 68.7950049 36.2676788"></polygon>
        </g>
    </g>
</svg>