<?xml version="1.0" encoding="UTF-8"?>
<svg width="96px" height="96px" viewBox="0 0 96 96" version="1.1" xmlns="http://www.w3.org/2000/svg" xmlns:xlink="http://www.w3.org/1999/xlink">
    <title>papua-new-guinea</title>
    <desc>designed by Freepik from Flaticon</desc>
    <defs>
        <polygon id="path-1" points="0.0140487805 0.0940097539 0.0140487805 95.9997659 95.9062829 95.9997659 95.9062829 0.0940097539 0.0140487805 0.0940097539"></polygon>
    </defs>
    <g id="Page-1" stroke="none" stroke-width="1" fill="none" fill-rule="evenodd">
        <g id="papua-new-guinea">
            <g id="Group-4">
                <mask id="mask-2" fill="white">
                    <use xlink:href="#path-1"></use>
                </mask>
                <g id="Clip-2"></g>
                <path d="M81.8615415,81.9544976 C63.1345171,100.681522 32.7722927,100.681522 14.0450341,81.9544976 C-4.68199024,63.2281756 -4.68199024,32.8661854 14.0450341,14.1389268 C32.7722927,-4.58809756 60.185678,-1.63949268 78.9127024,17.0877659 C97.6390244,35.8138537 100.587863,63.2281756 81.8615415,81.9544976 Z" id="Fill-1" fill="#000000" mask="url(#mask-2)"></path>
                <path d="M14.0450341,14.1389268 C32.7722927,-4.58809756 63.1345171,-4.58716098 81.8615415,14.1389268 C100.587863,32.8661854 100.587863,63.2281756 81.8615415,81.9554341" id="Fill-3" fill="#A2001D" mask="url(#mask-2)"></path>
            </g>
            <polygon id="Fill-5" fill="#F3F3F3" points="36.6476488 64.726478 37.4231415 67.1154732 39.9357659 67.1154732 37.9033756 68.5917659 38.6798049 70.9816976 36.6476488 69.5044683 34.614322 70.9816976 35.3907512 68.5917659 33.3585951 67.1154732 35.8709854 67.1154732"></polygon>
            <polygon id="Fill-6" fill="#F3F3F3" points="30.2313366 41.792078 31.5256976 45.7742049 35.712 45.7742049 32.3250732 48.2346146 33.6182634 52.2169756 30.2313366 49.7556293 26.8444098 52.2169756 28.1387707 48.2346146 24.7509073 45.7742049 28.9381463 45.7742049"></polygon>
            <polygon id="Fill-7" fill="#F3F3F3" points="30.2313366 70.9816976 31.5256976 74.963122 35.712 74.963122 32.3241366 77.4242341 33.6182634 81.4056585 30.2313366 78.9445463 26.8444098 81.4056585 28.1378341 77.4242341 24.7509073 74.963122 28.9372098 74.963122"></polygon>
            <polygon id="Fill-8" fill="#F3F3F3" points="42.4729756 52.2169756 43.7671024 56.1993366 47.9534049 56.1993366 44.5655415 58.6597463 45.8596683 62.6421073 42.4729756 60.180761 39.0851122 62.6421073 40.379239 58.6597463 36.9923122 56.1993366 41.1786146 56.1993366"></polygon>
            <polygon id="Fill-9" fill="#F3F3F3" points="17.9899317 52.2169756 19.2840585 56.1993366 23.470361 56.1993366 20.0834341 58.6597463 21.3768585 62.6421073 17.9899317 60.180761 14.6030049 62.6421073 15.8973659 58.6597463 12.5095024 56.1993366 16.6967415 56.1993366"></polygon>
            <path d="M80.2747317,35.6017171 C78.1318244,33.4588098 75.3466537,32.1930146 72.3549659,31.9752585 L81.312,25.0084683 C77.7447805,21.4405463 72.9630439,19.8298537 68.297678,20.1700683 C67.7387707,18.1634341 66.6741073,16.2673171 65.0954927,14.6887024 L61.5566049,21.7650732 C61.3252683,21.3417366 61.0307122,20.943922 60.6722341,20.5852098 C58.6372683,18.5502439 55.3362732,18.5502439 53.3013073,20.5852098 C51.2661073,22.6213463 51.2651707,25.9211707 53.3013073,27.9573073 C53.6597854,28.3157854 54.0576,28.6094049 54.4811707,28.841678 L47.4045659,32.3793951 C48.9831805,33.9591805 50.8802341,35.0245463 52.8887415,35.5825171 C52.5475902,40.2481171 54.1564098,45.0289171 57.7243317,48.596839 L65.5499707,38.5341659 C66.1390829,37.955122 66.9164488,37.6350439 67.7441561,37.6350439 C68.5793561,37.6350439 69.3649171,37.9595707 69.9549659,38.5505561 C70.5457171,39.1413073 70.8714146,39.9271024 70.8714146,40.7620683 C70.8714146,41.5972683 70.5457171,42.3828293 69.9549659,42.9738146 L72.9035707,45.9224195 C74.2819902,44.5442341 75.0410927,42.7111024 75.0410927,40.7620683 C75.0410927,39.1670634 74.5325268,37.6514341 73.5933659,36.3975805 C74.9614829,36.7633171 76.2549073,37.4795707 77.3268293,38.5505561 C80.5784195,41.8021463 80.5784195,47.0931512 77.3268293,50.3447415 L80.2756683,53.2935805 C82.6382049,50.9310439 83.9395902,47.7892683 83.9395902,44.448 C83.9386537,41.1060293 82.6372683,37.9642537 80.2747317,35.6017171 Z" id="Fill-10" fill="#FFDA44"></path>
        </g>
    </g>
</svg>