<?xml version="1.0" encoding="UTF-8"?>
<svg width="96px" height="96px" viewBox="0 0 96 96" version="1.1" xmlns="http://www.w3.org/2000/svg" xmlns:xlink="http://www.w3.org/1999/xlink">
    <title>puerto-rico</title>
    <desc>designed by Freepik from Flaticon</desc>
    <defs>
        <polygon id="path-1" points="0.0140487805 0.0934306569 0.0140487805 95.7668905 95.9068098 95.7668905 95.9068098 0.0934306569"></polygon>
        <polygon id="path-3" points="0.0140487805 0.0896934307 0.0140487805 81.752292 95.9068098 81.752292 95.9068098 0.0896934307"></polygon>
    </defs>
    <g id="Page-1" stroke="none" stroke-width="1" fill="none" fill-rule="evenodd">
        <g id="puerto-rico">
            <g id="Group-3">
                <mask id="mask-2" fill="white">
                    <use xlink:href="#path-1"></use>
                </mask>
                <g id="Clip-2"></g>
                <path d="M95.9068098,47.9301606 C95.9068098,74.3488467 74.4374634,95.7668905 47.9534049,95.7668905 C21.4691122,95.7668905 0,74.3488467 0,47.9301606 C0,21.5103066 21.4691122,0.0934306569 47.9534049,0.0934306569 C74.4374634,0.0934306569 95.9068098,21.5103066 95.9068098,47.9301606 Z" id="Fill-1" fill="#F3F3F3" mask="url(#mask-2)"></path>
            </g>
            <path d="M47.9534049,0.0934306569 C32.2646634,0.0934306569 18.3374049,7.60992701 9.58899512,19.2284964 L86.3175805,19.2284964 C77.5691707,7.60992701 63.6412098,0.0934306569 47.9534049,0.0934306569 Z" id="Fill-4" fill="#D80027"></path>
            <g id="Group-9" transform="translate(0.000000, 14.014599)">
                <mask id="mask-4" fill="white">
                    <use xlink:href="#path-3"></use>
                </mask>
                <g id="Clip-6"></g>
                <path d="M47.9534049,81.752292 C63.6412098,81.752292 77.5691707,74.2357956 86.3175805,62.6172263 L9.58899512,62.6172263 C18.3374049,74.2357956 32.2646634,81.752292 47.9534049,81.752292 Z" id="Fill-5" fill="#D80027" mask="url(#mask-4)"></path>
                <path d="M0,33.915562 C0,37.1919416 0.331082927,40.391708 0.960468293,43.4830949 L94.9463415,43.4830949 C95.5757268,40.391708 95.9068098,37.1919416 95.9068098,33.915562 C95.9068098,30.6389489 95.5757268,27.4391825 94.9463415,24.3480292 L0.960468293,24.3480292 C0.331082927,27.4391825 0,30.6389489 0,33.915562 Z" id="Fill-7" fill="#D80027" mask="url(#mask-4)"></path>
                <path d="M14.0450341,0.0896934307 C-4.68199024,18.7713869 -4.68199024,49.0597372 14.0450341,67.7411971 L47.9534049,33.915562 L14.0450341,0.0896934307 Z" id="Fill-8" fill="#0052B4" mask="url(#mask-4)"></path>
            </g>
            <polygon id="Fill-10" fill="#F3F3F3" points="19.4076878 35.4510949 22.5127024 44.9838248 32.5617951 44.9838248 24.4327024 50.8753285 27.5367805 60.4092263 19.4076878 54.5167883 11.278361 60.4092263 14.3836098 50.8753285 6.25521951 44.9838248 16.302439 44.9838248"></polygon>
        </g>
    </g>
</svg>