<?xml version="1.0" encoding="UTF-8"?>
<svg width="96px" height="96px" viewBox="0 0 96 96" version="1.1" xmlns="http://www.w3.org/2000/svg" xmlns:xlink="http://www.w3.org/1999/xlink">
    <title>saint-kitts-and-nevis</title>
    <desc>designed by Freepik from Flaticon</desc>
    <defs>
        <polygon id="path-1" points="0.0140487805 0.0941268293 0.0140487805 95.9997659 95.9058732 95.9997659 95.9058732 0.0941268293"></polygon>
    </defs>
    <g id="Page-1" stroke="none" stroke-width="1" fill="none" fill-rule="evenodd">
        <g id="saint-kitts-and-nevis">
            <g id="Group-6">
                <mask id="mask-2" fill="white">
                    <use xlink:href="#path-1"></use>
                </mask>
                <g id="Clip-2"></g>
                <path d="M95.9058732,48.0472976 C95.9058732,74.5306537 74.4365268,95.9997659 47.9534049,95.9997659 C21.4691122,95.9997659 0,74.5306537 0,48.0472976 C0,21.563239 21.4691122,0.0941268293 47.9534049,0.0941268293 C74.4365268,0.0941268293 95.9058732,21.563239 95.9058732,48.0472976 Z" id="Fill-1" fill="#FFDA44" mask="url(#mask-2)"></path>
                <path d="M14.0450341,81.9547317 C16.0563512,83.9669854 18.2030049,85.7605463 20.4547902,87.3400976 L87.2459707,20.5489171 C85.6664195,18.2971317 83.8728585,16.1514146 81.8606049,14.139161 C79.8492878,12.1278439 77.7026341,10.3342829 75.4517854,8.75473171 L8.66060488,75.5459122 C10.2392195,77.7976976 12.0339512,79.9434146 14.0450341,81.9547317 Z" id="Fill-3" fill="#000000" mask="url(#mask-2)"></path>
                <path d="M14.0450341,14.139161 C-1.08292683,29.267122 -3.98774634,51.9877463 5.32682927,70.0343415 L69.9402146,5.4209561 C51.8936195,-3.89291707 29.1732293,-0.9888 14.0450341,14.139161 Z" id="Fill-4" fill="#6DA544" mask="url(#mask-2)"></path>
                <path d="M81.8606049,81.9547317 C96.9888,66.8274732 99.8936195,44.1070829 90.5799805,26.0604878 L25.9656585,90.6738732 C44.0122537,99.9877463 66.7326439,97.0836293 81.8606049,81.9547317 Z" id="Fill-5" fill="#D80027" mask="url(#mask-2)"></path>
            </g>
            <polygon id="Fill-7" fill="#F3F3F3" points="30.4893659 56.6650537 34.966478 58.9461073 38.5189463 55.393639 37.7331512 60.3556683 42.209561 62.636722 37.2465951 63.4222829 36.4610341 68.3852488 34.1799805 63.9081366 29.2179512 64.6946341 32.7704195 61.1421659"></polygon>
            <polygon id="Fill-8" fill="#F3F3F3" points="56.5709268 30.5841951 61.0473366 32.8645463 64.5998049 29.312078 63.8140098 34.2738732 68.2901854 36.5549268 63.3283902 37.3416585 62.5425951 42.3034537 60.2615415 37.827278 55.2997463 38.612839 58.8522146 35.0606049"></polygon>
        </g>
    </g>
</svg>