<?xml version="1.0" encoding="UTF-8"?>
<svg width="96px" height="96px" viewBox="0 0 96 96" version="1.1" xmlns="http://www.w3.org/2000/svg" xmlns:xlink="http://www.w3.org/1999/xlink">
    <title>san-marino</title>
    <desc>designed by Freepik from Flaticon</desc>
    <defs>
        <polygon id="path-1" points="0.0140487805 0.0934306569 0.0140487805 95.7668905 95.9068098 95.7668905 95.9068098 0.0934306569"></polygon>
    </defs>
    <g id="Page-1" stroke="none" stroke-width="1" fill="none" fill-rule="evenodd">
        <g id="san-marino">
            <g id="Group-4">
                <mask id="mask-2" fill="white">
                    <use xlink:href="#path-1"></use>
                </mask>
                <g id="Clip-2"></g>
                <path d="M95.9068098,47.9301606 C95.9068098,74.3488467 74.4365268,95.7668905 47.9534049,95.7668905 C21.4691122,95.7668905 0,74.3488467 0,47.9301606 C2.08437073,47.9301606 47.9534049,41.6901606 47.9534049,41.6901606 L95.9068098,47.9301606 Z" id="Fill-1" fill="#338AF3" mask="url(#mask-2)"></path>
                <path d="M0,47.9301606 C0,21.5103066 21.4691122,0.0934306569 47.9534049,0.0934306569 C74.4365268,0.0934306569 95.9068098,21.5103066 95.9068098,47.9301606" id="Fill-3" fill="#F3F3F3" mask="url(#mask-2)"></path>
            </g>
            <path d="M66.9878634,33.1015474 L47.9534049,52.0896934 L28.9189463,33.1015474 C26.4576,36.7467445 25.0190049,41.1335474 25.0190049,45.849927 L25.0190049,52.0896934 C25.0190049,62.1080292 31.5090732,70.6426861 40.5145756,73.7322044 C39.3127024,76.0815182 39.5150049,79.014073 41.2764878,81.2075912 C43.6151415,79.3371095 46.0371512,77.4009927 48.0924878,75.7584818 C50.1466537,77.4009927 52.5686634,79.3371095 54.9073171,81.2075912 C56.6889366,78.9886131 56.8774244,76.012146 55.6280195,73.6481168 C64.5110634,70.4922628 70.8868683,62.020438 70.8868683,52.0896934 L70.8868683,45.849927 C70.8868683,41.1335474 69.4489756,36.7467445 66.9878634,33.1015474 Z" id="Fill-5" fill="#6DA544"></path>
            <path d="M47.9534049,68.7285255 C38.7559024,68.7285255 31.2739902,61.2641168 31.2739902,52.0896934 L31.2739902,45.849927 C31.2739902,36.6755036 38.7566049,29.2110949 47.9534049,29.2110949 C57.1499707,29.2110949 64.6325854,36.6755036 64.6325854,45.849927 L64.6325854,52.0896934 C64.6325854,61.2641168 57.1499707,68.7285255 47.9534049,68.7285255 Z" id="Fill-6" fill="#FFDA44"></path>
            <path d="M58.3773659,52.0896934 L58.3773659,45.849927 C58.3773659,40.1163212 53.7009951,35.4510949 47.9534049,35.4510949 C42.204878,35.4510949 37.5282732,40.1163212 37.5282732,45.849927 L37.5282732,52.0896934 L47.9534049,54.1692263 L58.3773659,52.0896934 Z" id="Fill-7" fill="#338AF3"></path>
            <path d="M37.5282732,52.0896934 C37.5282732,57.8242336 42.204878,62.4885255 47.9534049,62.4885255 C53.7009951,62.4885255 58.3773659,57.8232993 58.3773659,52.0896934 L37.5282732,52.0896934 Z" id="Fill-8" fill="#6DA544"></path>
            <path d="M60.4629073,29.2110949 C60.4629073,25.7649051 57.6622829,22.9720292 54.2076878,22.9720292 C52.6051902,22.9720292 51.145522,23.5732555 50.0377756,24.5615182 L50.0377756,20.8917956 L52.1230829,20.8917956 L52.1230829,16.7320292 L50.0377756,16.7320292 L50.0377756,14.6527299 L45.8680976,14.6527299 L45.8680976,16.7320292 L43.7834927,16.7320292 L43.7834927,20.8917956 L45.8680976,20.8917956 L45.8680976,24.5615182 C44.7612878,23.5732555 43.3006829,22.9720292 41.6981854,22.9720292 C38.2445268,22.9720292 35.4439024,25.7649051 35.4439024,29.2110949 C35.4439024,31.0586861 36.2496,32.7184818 37.5282732,33.8606715 L37.5282732,37.5303942 L58.3773659,37.5303942 L58.3773659,33.8606715 C59.6569756,32.7184818 60.4629073,31.0586861 60.4629073,29.2110949 Z" id="Fill-9" fill="#FFDA44"></path>
        </g>
    </g>
</svg>