<?xml version="1.0" encoding="UTF-8"?>
<svg width="96px" height="96px" viewBox="0 0 96 96" version="1.1" xmlns="http://www.w3.org/2000/svg" xmlns:xlink="http://www.w3.org/1999/xlink">
    <title>sardinia</title>
    <desc>designed by Freepik from Flaticon</desc>
    <defs>
        <polygon id="path-1" points="0.0140487805 0.0934306569 0.0140487805 95.7668905 95.9068098 95.7668905 95.9068098 0.0934306569"></polygon>
    </defs>
    <g id="Page-1" stroke="none" stroke-width="1" fill="none" fill-rule="evenodd">
        <g id="sardinia">
            <g id="Group-4">
                <mask id="mask-2" fill="white">
                    <use xlink:href="#path-1"></use>
                </mask>
                <g id="Clip-2"></g>
                <path d="M95.9068098,47.9301606 C95.9068098,74.3488467 74.4365268,95.7668905 47.9534049,95.7668905 C21.4691122,95.7668905 0,74.3488467 0,47.9301606 C0,21.5103066 21.4691122,0.0934306569 47.9534049,0.0934306569 C74.4365268,0.0934306569 95.9068098,21.5103066 95.9068098,47.9301606 Z" id="Fill-1" fill="#F3F3F3" mask="url(#mask-2)"></path>
                <path d="M95.5005659,41.6901606 L54.2076878,41.6901606 L54.2076878,0.498452555 C52.1607805,0.232175182 50.0733659,0.0934306569 47.9534049,0.0934306569 C45.8332098,0.0934306569 43.7460293,0.232175182 41.6981854,0.498452555 L41.6981854,41.6901606 L0.406009756,41.6901606 C0.139082927,43.7330219 0,45.8151241 0,47.9301606 C0,50.0449635 0.139082927,52.1272993 0.406009756,54.1692263 L41.6981854,54.1692263 L41.6981854,95.361635 C43.7460293,95.6272117 45.8332098,95.7668905 47.9534049,95.7668905 C50.0733659,95.7668905 52.1607805,95.6272117 54.2076878,95.361635 L54.2076878,54.1692263 L95.5005659,54.1692263 C95.7667902,52.1272993 95.9068098,50.0449635 95.9068098,47.9301606 C95.9068098,45.8151241 95.7667902,43.7330219 95.5005659,41.6901606 Z" id="Fill-3" fill="#D80027" mask="url(#mask-2)"></path>
            </g>
            <path d="M70.8868683,16.7320292 C67.0014439,16.7320292 63.7362732,19.3835912 62.8106927,22.9710949 L70.8868683,25.051562 L78.9639805,22.9710949 C78.0384,19.3835912 74.7732293,16.7320292 70.8868683,16.7320292 Z" id="Fill-5" fill="#000000"></path>
            <path d="M62.547278,35.4510949 L72.9721756,37.5303942 L72.9721756,33.1090219 C75.9027512,32.3562044 78.209561,30.0543066 78.9639805,27.1317956 L70.8868683,25.051562 L60.4629073,25.051562 L62.547278,31.2913285 L62.547278,35.4510949 Z" id="Fill-6" fill="#000000"></path>
            <path d="M78.9639805,22.9720292 L60.4629073,22.9720292 L60.4629073,31.2913285 L62.547278,31.2913285 L62.547278,27.1317956 L78.9639805,27.1317956 C79.1351415,26.4665693 79.2273951,25.7695766 79.2273951,25.051562 C79.2273951,24.3333139 79.136078,23.6363212 78.9639805,22.9720292 Z" id="Fill-7" fill="#ACABB1"></path>
            <path d="M27.1043122,16.7320292 C23.2179512,16.7320292 19.9527805,19.3835912 19.0272,22.9710949 L27.1043122,25.051562 L35.1814244,22.9710949 C34.2549073,19.3835912 30.990439,16.7320292 27.1043122,16.7320292 Z" id="Fill-8" fill="#000000"></path>
            <path d="M18.764722,35.4510949 L29.1886829,37.5303942 L29.1886829,33.1090219 C32.1192585,32.3562044 34.4258341,30.0543066 35.1804878,27.1317956 L27.1043122,25.051562 L16.6791805,25.051562 L18.7637854,31.2913285 L18.7637854,35.4510949 L18.764722,35.4510949 Z" id="Fill-9" fill="#000000"></path>
            <path d="M35.1814244,22.9720292 L16.6791805,22.9720292 L16.6791805,31.2913285 L18.7637854,31.2913285 L18.7637854,27.1317956 L35.1804878,27.1317956 C35.3514146,26.4665693 35.4439024,25.7695766 35.4439024,25.051562 C35.4439024,24.3333139 35.3523512,23.6363212 35.1814244,22.9720292 Z" id="Fill-10" fill="#ACABB1"></path>
            <path d="M70.8868683,58.3287591 C67.0014439,58.3287591 63.7362732,60.9803212 62.8106927,64.5687591 L70.8868683,66.6480584 L78.9639805,64.5687591 C78.0384,60.9803212 74.7732293,58.3287591 70.8868683,58.3287591 Z" id="Fill-11" fill="#000000"></path>
            <path d="M62.547278,77.0478248 L72.9721756,79.1271241 L72.9721756,74.7057518 C75.9027512,73.9529343 78.209561,71.6517372 78.9639805,68.7285255 L70.8868683,66.6480584 L60.4629073,66.6480584 L62.547278,72.8880584 L62.547278,77.0478248 Z" id="Fill-12" fill="#000000"></path>
            <path d="M78.9639805,64.5687591 L60.4629073,64.5687591 L60.4629073,72.8880584 L62.547278,72.8880584 L62.547278,68.7285255 L78.9639805,68.7285255 C79.1351415,68.0632993 79.2273951,67.3663066 79.2273951,66.6480584 C79.2273951,65.9300438 79.136078,65.2330511 78.9639805,64.5687591 Z" id="Fill-13" fill="#ACABB1"></path>
            <path d="M27.1043122,58.3287591 C23.2179512,58.3287591 19.9527805,60.9803212 19.0272,64.5687591 L27.1043122,66.6480584 L35.1814244,64.5687591 C34.2549073,60.9803212 30.990439,58.3287591 27.1043122,58.3287591 Z" id="Fill-14" fill="#000000"></path>
            <path d="M18.764722,77.0478248 L29.1886829,79.1271241 L29.1886829,74.7057518 C32.1192585,73.9529343 34.4258341,71.6517372 35.1804878,68.7285255 L27.1043122,66.6480584 L16.6791805,66.6480584 L18.7637854,72.8880584 L18.7637854,77.0478248 L18.764722,77.0478248 Z" id="Fill-15" fill="#000000"></path>
            <path d="M35.1814244,64.5687591 L16.6791805,64.5687591 L16.6791805,72.8880584 L18.7637854,72.8880584 L18.7637854,68.7285255 L35.1804878,68.7285255 C35.3514146,68.0632993 35.4439024,67.3663066 35.4439024,66.6480584 C35.4439024,65.9300438 35.3523512,65.2330511 35.1814244,64.5687591 Z" id="Fill-16" fill="#ACABB1"></path>
        </g>
    </g>
</svg>