<?xml version="1.0" encoding="UTF-8"?>
<svg width="96px" height="96px" viewBox="0 0 96 96" version="1.1" xmlns="http://www.w3.org/2000/svg" xmlns:xlink="http://www.w3.org/1999/xlink">
    <title>saudi-arabia</title>
    <desc>designed by Freepik from Flaticon</desc>
    <defs>
        <polygon id="path-1" points="0.0140487805 0.0934306569 0.0140487805 95.7668905 95.9068098 95.7668905 95.9068098 0.0934306569"></polygon>
    </defs>
    <g id="Page-1" stroke="none" stroke-width="1" fill="none" fill-rule="evenodd">
        <g id="saudi-arabia">
            <g id="Group-3">
                <mask id="mask-2" fill="white">
                    <use xlink:href="#path-1"></use>
                </mask>
                <g id="Clip-2"></g>
                <path d="M95.9068098,47.9301606 C95.9068098,74.3488467 74.4365268,95.7668905 47.9534049,95.7668905 C21.4691122,95.7668905 0,74.3488467 0,47.9301606 C0,21.5103066 21.4691122,0.0934306569 47.9534049,0.0934306569 C74.4365268,0.0934306569 95.9068098,21.5103066 95.9068098,47.9301606 Z" id="Fill-1" fill="#6DA544" mask="url(#mask-2)"></path>
            </g>
            <path d="M27.1043122,57.2895766 C27.1043122,60.7348321 29.9049366,63.5286423 33.3585951,63.5286423 L52.1230829,63.5286423 C52.1230829,66.4 54.4563512,68.7285255 57.3356488,68.7285255 L63.5899317,68.7285255 C66.4682927,68.7285255 68.8024976,66.4 68.8024976,63.5286423 L68.8024976,57.2895766 L27.1043122,57.2895766 Z" id="Fill-4" fill="#F3F3F3"></path>
            <path d="M69.3237073,27.1317956 L69.3237073,41.6901606 C69.3237073,43.9838832 67.4533463,45.849927 65.1540293,45.849927 L65.1540293,52.0896934 C70.9016195,52.0896934 75.5779902,47.4247007 75.5779902,41.6901606 L75.5779902,27.1317956 L69.3237073,27.1317956 Z" id="Fill-5" fill="#F3F3F3"></path>
            <path d="M24.497561,41.6901606 C24.497561,43.9838832 22.6272,45.849927 20.3276488,45.849927 L20.3276488,52.0896934 C26.0761756,52.0896934 30.7527805,47.4247007 30.7527805,41.6901606 L30.7527805,27.1317956 L24.497561,27.1317956 L24.497561,41.6901606 Z" id="Fill-6" fill="#F3F3F3"></path>
            <polygon id="Fill-7" fill="#F3F3F3" points="59.9414634 41.6901606 66.1957463 41.6901606 66.1957463 27.1317956 59.9414634 27.1317956"></polygon>
            <path d="M50.5592195,35.4510949 C50.5592195,36.0240584 50.0918634,36.4902774 49.5165659,36.4902774 C48.9419707,36.4902774 48.4746146,36.0240584 48.4746146,35.4510949 L48.4746146,27.1317956 L42.2193951,27.1317956 L42.2193951,35.4510949 C42.2193951,36.0240584 41.752039,36.4902774 41.177678,36.4902774 C40.6023805,36.4902774 40.1350244,36.0240584 40.1350244,35.4510949 L40.1350244,27.1317956 L33.8798049,27.1317956 L33.8798049,35.4510949 C33.8798049,39.4648759 37.1534049,42.7302774 41.177678,42.7302774 C42.7270244,42.7302774 44.1639805,42.2449051 45.3475902,41.4192117 C46.5302634,42.2439708 47.9669854,42.7302774 49.5172683,42.7302774 C49.8291512,42.7302774 50.1356488,42.7083212 50.4374634,42.6700146 C49.9949268,44.492146 48.3502829,45.849927 46.3893073,45.849927 L46.3893073,52.0896934 C52.1378341,52.0896934 56.814439,47.4247007 56.814439,41.6901606 L56.814439,27.1317956 L50.5592195,27.1317956 L50.5592195,35.4510949 Z" id="Fill-8" fill="#F3F3F3"></path>
            <polygon id="Fill-9" fill="#F3F3F3" points="33.8798049 52.089927 43.2620488 52.089927 43.2620488 45.849927 33.8798049 45.849927"></polygon>
        </g>
    </g>
</svg>