<?xml version="1.0" encoding="UTF-8"?>
<svg width="96px" height="96px" viewBox="0 0 96 96" version="1.1" xmlns="http://www.w3.org/2000/svg" xmlns:xlink="http://www.w3.org/1999/xlink">
    <title>singapore</title>
    <desc>designed by Freepik from Flaticon</desc>
    <defs>
        <polygon id="path-1" points="0.0140487805 0.0934306569 0.0140487805 95.7668905 95.9068098 95.7668905 95.9068098 0.0934306569"></polygon>
    </defs>
    <g id="Page-1" stroke="none" stroke-width="1" fill="none" fill-rule="evenodd">
        <g id="singapore">
            <g id="Group-4">
                <mask id="mask-2" fill="white">
                    <use xlink:href="#path-1"></use>
                </mask>
                <g id="Clip-2"></g>
                <path d="M95.9068098,47.9301606 C95.9068098,74.3488467 74.4365268,95.7668905 47.9534049,95.7668905 C21.4691122,95.7668905 0,74.3488467 0,47.9301606 C0,21.5103066 21.4691122,0.0934306569 47.9534049,0.0934306569 C74.4365268,0.0934306569 95.9068098,21.5103066 95.9068098,47.9301606 Z" id="Fill-1" fill="#F3F3F3" mask="url(#mask-2)"></path>
                <path d="M0,47.9301606 C0,21.5103066 21.4691122,0.0934306569 47.9534049,0.0934306569 C74.4365268,0.0934306569 95.9068098,21.5103066 95.9068098,47.9301606" id="Fill-3" fill="#D80027" mask="url(#mask-2)"></path>
            </g>
            <path d="M29.1886829,25.051562 C29.1886829,18.081635 34.0994341,12.2595036 40.6555317,10.8307153 C39.6484683,10.6116204 38.6030049,10.4929635 37.5282732,10.4929635 C29.4677854,10.4929635 22.9334634,17.0104526 22.9334634,25.051562 C22.9334634,33.092438 29.4677854,39.6108613 37.5282732,39.6108613 C38.6020683,39.6108613 39.6475317,39.4912701 40.6555317,39.2721752 C34.0994341,37.8433869 29.1886829,32.0212555 29.1886829,25.051562 Z" id="Fill-5" fill="#F3F3F3"></path>
            <polygon id="Fill-6" fill="#F3F3F3" points="47.9534049 11.5323796 48.9888 14.7101898 52.3380293 14.7101898 49.6280195 16.6745693 50.662478 19.8516788 47.9534049 17.8882336 45.2433951 19.8516788 46.2785561 16.6745693 43.5685463 14.7101898 46.9180098 14.7101898"></polygon>
            <polygon id="Fill-7" fill="#F3F3F3" points="39.828761 17.772146 40.8632195 20.9501898 44.2124488 20.9501898 41.5033756 22.913635 42.5378341 26.0916788 39.828761 24.1272993 37.1185171 26.0916788 38.1529756 22.913635 35.4439024 20.9501898 38.7933659 20.9501898"></polygon>
            <polygon id="Fill-8" fill="#F3F3F3" points="56.0780488 17.772146 57.1134439 20.9501898 60.4629073 20.9501898 57.7526634 22.913635 58.7880585 26.0916788 56.0780488 24.1272993 53.3689756 26.0916788 54.4034341 22.913635 51.6941268 20.9501898 55.0426537 20.9501898"></polygon>
            <polygon id="Fill-9" fill="#F3F3F3" points="52.9510244 27.1317956 53.9861854 30.3086715 57.3356488 30.3086715 54.625639 32.2732847 55.6610341 35.4501606 52.9510244 33.4867153 50.2407805 35.4501606 51.2761756 32.2732847 48.5671024 30.3086715 51.9156293 30.3086715"></polygon>
            <polygon id="Fill-10" fill="#F3F3F3" points="42.9557854 27.1317956 43.9902439 30.3086715 47.3397073 30.3086715 44.6304 32.2732847 45.6657951 35.4501606 42.9557854 33.4867153 40.2457756 35.4501606 41.2811707 32.2732847 38.5709268 30.3086715 41.9203902 30.3086715"></polygon>
        </g>
    </g>
</svg>