<?xml version="1.0" encoding="UTF-8"?>
<svg width="96px" height="96px" viewBox="0 0 96 96" version="1.1" xmlns="http://www.w3.org/2000/svg" xmlns:xlink="http://www.w3.org/1999/xlink">
    <title>south-africa</title>
    <desc>designed by Freepik from Flaticon</desc>
    <defs>
        <polygon id="path-1" points="0.0140487805 0.0934306569 0.0140487805 95.7668905 95.9068098 95.7668905 95.9068098 0.0934306569"></polygon>
    </defs>
    <g id="Page-1" stroke="none" stroke-width="1" fill="none" fill-rule="evenodd">
        <g id="south-africa">
            <g id="Group-4">
                <mask id="mask-2" fill="white">
                    <use xlink:href="#path-1"></use>
                </mask>
                <g id="Clip-2"></g>
                <path d="M95.9068098,47.9301606 C95.9068098,74.3488467 74.4374634,95.7668905 47.9534049,95.7668905 C21.4691122,95.7668905 0,74.3488467 0,47.9301606 C0,21.5103066 21.4691122,0.0934306569 47.9534049,0.0934306569 C74.4374634,0.0934306569 95.9068098,21.5103066 95.9068098,47.9301606 Z" id="Fill-1" fill="#F3F3F3" mask="url(#mask-2)"></path>
                <path d="M14.0450341,81.7557956 C-4.68199024,63.0743358 -4.68199024,32.7859854 14.0450341,14.104292 C14.0440976,14.1061606 41.6981854,47.9301606 41.6981854,47.9301606 L14.0450341,81.7557956 Z" id="Fill-3" fill="#000000" mask="url(#mask-2)"></path>
            </g>
            <path d="M41.6981854,47.9301606 L6.36035122,24.1072117 C5.26454634,26.0075912 4.2977561,27.9904234 3.46817561,30.0433285 L21.3585951,47.9301606 L3.46817561,65.8188613 C4.2977561,67.8689635 5.26360976,69.8506277 6.35847805,71.7493723 L41.6981854,47.9301606 Z" id="Fill-5" fill="#FFDA44"></path>
            <path d="M95.5005659,41.6901606 L41.6972488,41.6901606 L14.0450341,14.1052263 C11.0652878,17.0779562 8.47586341,20.4391241 6.36035122,24.1079124 L30.1938732,47.9301606 L6.35847805,71.7493723 C8.47399024,75.4181606 11.0643512,78.7814307 14.0450341,81.7548613 L41.6972488,54.1692263 L95.5005659,54.1692263 C95.7667902,52.1272993 95.9068098,50.0449635 95.9068098,47.9301606 C95.9068098,45.8151241 95.7667902,43.7330219 95.5005659,41.6901606 Z" id="Fill-6" fill="#6DA544"></path>
            <path d="M18.7572293,85.8772555 C26.8437073,92.0780146 36.9658537,95.7668905 47.9534049,95.7668905 C70.1085659,95.7668905 88.7515317,80.7759416 94.2549073,60.4092263 L44.2883122,60.4092263 L18.7572293,85.8772555 Z" id="Fill-7" fill="#0052B4"></path>
            <path d="M94.2549073,35.4510949 C88.7515317,15.0834453 70.1085659,0.0934306569 47.9534049,0.0934306569 C36.9658537,0.0934306569 26.8437073,3.78230657 18.7572293,9.98306569 L44.2876098,35.4510949 L94.2549073,35.4510949 Z" id="Fill-8" fill="#D80027"></path>
        </g>
    </g>
</svg>