<?xml version="1.0" encoding="UTF-8"?>
<svg width="96px" height="96px" viewBox="0 0 96 96" version="1.1" xmlns="http://www.w3.org/2000/svg" xmlns:xlink="http://www.w3.org/1999/xlink">
    <title>tajikistan</title>
    <desc>designed by Freepik from Flaticon</desc>
    <defs>
        <polygon id="path-1" points="0.0140487805 0.0815182482 0.0140487805 49.9975474 95.9068098 49.9975474 95.9068098 0.0815182482 0.0140487805 0.0815182482"></polygon>
    </defs>
    <g id="Page-1" stroke="none" stroke-width="1" fill="none" fill-rule="evenodd">
        <g id="tajikistan">
            <g id="Group-3" transform="translate(0.000000, 22.890511)">
                <mask id="mask-2" fill="white">
                    <use xlink:href="#path-1"></use>
                </mask>
                <g id="Clip-2"></g>
                <path d="M4.75785366,4.24128467 C1.70950244,10.529635 0,17.5852847 0,25.0396496 C0,32.4930803 1.70950244,39.5487299 4.75785366,45.8380146 L47.9534049,49.9975474 L91.1477854,45.8380146 C94.1963707,39.5487299 95.9068098,32.4930803 95.9068098,25.0396496 C95.9068098,17.5852847 94.1963707,10.529635 91.1477854,4.24128467 L47.9534049,0.0815182482 L4.75785366,4.24128467 Z" id="Fill-1" fill="#F3F3F3" mask="url(#mask-2)"></path>
            </g>
            <path d="M4.75972683,68.7285255 C12.5158244,84.7294599 28.9416585,95.7668905 47.9534049,95.7668905 C66.9649171,95.7668905 83.3900488,84.7294599 91.1461463,68.7285255 L4.75972683,68.7285255 Z" id="Fill-4" fill="#6DA544"></path>
            <path d="M4.75972683,27.1317956 L91.1461463,27.1317956 C83.3900488,11.1308613 66.9649171,0.0934306569 47.9534049,0.0934306569 C28.9416585,0.0934306569 12.5158244,11.1308613 4.75972683,27.1317956 Z" id="Fill-5" fill="#D80027"></path>
            <polygon id="Fill-6" fill="#FFDA44" points="39.6138146 60.4092263 56.2929951 60.4092263 56.2929951 53.337927 52.9573463 55.0012263 47.9534049 50.0094599 42.9494634 55.0012263 39.6138146 53.337927"></polygon>
            <polygon id="Fill-7" fill="#FFDA44" points="30.070478 52.0896934 30.8469073 54.4728759 33.3585951 54.4728759 31.3262049 55.9455766 32.1026341 58.3287591 30.070478 56.856292 28.0380878 58.3287591 28.8145171 55.9455766 26.782361 54.4728759 29.2938146 54.4728759"></polygon>
            <polygon id="Fill-8" fill="#FFDA44" points="32.4768 43.7703942 33.2534634 46.1535766 35.7658537 46.1535766 33.7334634 47.6262774 34.5091902 50.0094599 32.4768 48.5367591 30.4444098 50.0094599 31.2210732 47.6262774 29.1886829 46.1535766 31.7013073 46.1535766"></polygon>
            <polygon id="Fill-9" fill="#FFDA44" points="39.3576585 37.5303942 40.1340878 39.9135766 42.6457756 39.9135766 40.614322 41.3872117 41.3900488 43.7703942 39.3576585 42.2976934 37.3252683 43.7703942 38.1019317 41.3872117 36.0695415 39.9135766 38.5809951 39.9135766"></polygon>
            <polygon id="Fill-10" fill="#FFDA44" points="65.8363317 52.0896934 65.0596683 54.4728759 62.547278 54.4728759 64.5796683 55.9455766 63.8039415 58.3287591 65.8363317 56.856292 67.8684878 58.3287591 67.0920585 55.9455766 69.1244488 54.4728759 66.612761 54.4728759"></polygon>
            <polygon id="Fill-11" fill="#FFDA44" points="63.4290732 43.7703942 62.6524098 46.1535766 60.1409561 46.1535766 62.1731122 47.6262774 61.3966829 50.0094599 63.4290732 48.5367591 65.4612293 50.0094599 64.6848 47.6262774 66.7171902 46.1535766 64.2055024 46.1535766"></polygon>
            <polygon id="Fill-12" fill="#FFDA44" points="56.5482146 37.5303942 55.7724878 39.9135766 53.2600976 39.9135766 55.2924878 41.3872117 54.5158244 43.7703942 56.5482146 42.2976934 58.5806049 43.7703942 57.804878 41.3872117 59.8372683 39.9135766 57.3246439 39.9135766"></polygon>
            <polygon id="Fill-13" fill="#FFDA44" points="47.9534049 34.4109781 48.7298341 36.7941606 51.241522 36.7941606 49.2091317 38.2668613 49.985561 40.6500438 47.9534049 39.1773431 45.9210146 40.6500438 46.697678 38.2668613 44.6652878 36.7941606 47.1767415 36.7941606"></polygon>
        </g>
    </g>
</svg>