<?xml version="1.0" encoding="UTF-8"?>
<svg width="96px" height="96px" viewBox="0 0 96 96" version="1.1" xmlns="http://www.w3.org/2000/svg" xmlns:xlink="http://www.w3.org/1999/xlink">
    <title>thailand</title>
    <desc>designed by Freepik from Flaticon</desc>
    <defs>
        <polygon id="path-1" points="0.0140487805 0.0934306569 0.0140487805 95.7668905 95.9068098 95.7668905 95.9068098 0.0934306569"></polygon>
    </defs>
    <g id="Page-1" stroke="none" stroke-width="1" fill="none" fill-rule="evenodd">
        <g id="thailand">
            <g id="Group-4">
                <mask id="mask-2" fill="white">
                    <use xlink:href="#path-1"></use>
                </mask>
                <g id="Clip-2"></g>
                <path d="M95.9068098,47.9301606 C95.9068098,74.3488467 74.4365268,95.7668905 47.9534049,95.7668905 C21.4691122,95.7668905 0,74.3488467 0,47.9301606 C0,21.5103066 21.4691122,0.0934306569 47.9534049,0.0934306569 C74.4365268,0.0934306569 95.9068098,21.5103066 95.9068098,47.9301606 Z" id="Fill-1" fill="#F3F3F3" mask="url(#mask-2)"></path>
                <path d="M92.9240195,31.2913285 L2.9825561,31.2913285 C1.05459512,36.473927 0,42.0788321 0,47.9301606 C0,53.7814891 1.05459512,59.3863942 2.9825561,64.5687591 L92.9240195,64.5687591 C94.851278,59.3863942 95.9068098,53.7814891 95.9068098,47.9301606 C95.9068098,42.0788321 94.851278,36.473927 92.9240195,31.2913285 Z" id="Fill-3" fill="#0052B4" mask="url(#mask-2)"></path>
            </g>
            <path d="M47.9534049,0.0934306569 C33.4190049,0.0934306569 20.3962537,6.54505109 11.6021854,16.7320292 L84.3036878,16.7320292 C75.510322,6.54505109 62.4868683,0.0934306569 47.9534049,0.0934306569 Z" id="Fill-5" fill="#D80027"></path>
            <path d="M84.3036878,79.1280584 L11.6021854,79.1280584 C20.3962537,89.3150365 33.4190049,95.7668905 47.9534049,95.7668905 C62.4868683,95.7668905 75.510322,89.3150365 84.3036878,79.1280584 Z" id="Fill-6" fill="#D80027"></path>
        </g>
    </g>
</svg>