<?xml version="1.0" encoding="UTF-8"?>
<svg width="96px" height="96px" viewBox="0 0 96 96" version="1.1" xmlns="http://www.w3.org/2000/svg" xmlns:xlink="http://www.w3.org/1999/xlink">
    <title>tokelau</title>
    <desc>designed by Freepik from Flaticon</desc>
    <defs>
        <polygon id="path-1" points="0.0140487805 0.0934306569 0.0140487805 95.7668905 95.9068098 95.7668905 95.9068098 0.0934306569"></polygon>
    </defs>
    <g id="Page-1" stroke="none" stroke-width="1" fill="none" fill-rule="evenodd">
        <g id="tokelau">
            <g id="Group-4">
                <mask id="mask-2" fill="white">
                    <use xlink:href="#path-1"></use>
                </mask>
                <g id="Clip-2"></g>
                <path d="M95.9068098,47.9301606 C95.9068098,74.3488467 74.4365268,95.7668905 47.9534049,95.7668905 C21.4691122,95.7668905 0,74.3488467 0,47.9301606 C0,21.5103066 21.4691122,0.0934306569 47.9534049,0.0934306569 C74.4365268,0.0934306569 95.9068098,21.5103066 95.9068098,47.9301606 Z" id="Fill-1" fill="#FFDA44" mask="url(#mask-2)"></path>
                <path d="M77.1420878,22.9720292 C76.7121951,25.0340438 76.5164488,27.230365 76.5164488,29.4192117 C76.5164488,42.0386569 84.0576,52.9611679 94.8648585,57.8781898 C95.545522,54.668146 95.9068098,51.3415474 95.9068098,47.9301606 C95.9068098,21.5103066 74.4365268,0.0934306569 47.9534049,0.0934306569 C21.4691122,0.0934306569 0,21.5103066 0,47.9301606 C0,74.3488467 21.4691122,95.7668905 47.9534049,95.7668905 C64.3773659,95.7668905 78.8717268,87.527708 87.5140683,74.9685255 L27.1043122,74.9685255 L27.1043122,68.7285255 L91.1477854,68.7285255 C91.8036293,67.3763504 92.3953171,65.988438 92.9240195,64.5687591 L27.1043122,64.5687591 L77.1420878,22.9720292 Z" id="Fill-3" fill="#0052B4" mask="url(#mask-2)"></path>
            </g>
            <polygon id="Fill-5" fill="#F3F3F3" points="35.2289561 25.051562 36.2643512 28.2293723 39.6138146 28.2293723 36.9035707 30.1937518 37.9389659 33.3708613 35.2289561 31.4071825 32.5198829 33.3708613 33.5543415 30.1937518 30.8440976 28.2293723 34.193561 28.2293723"></polygon>
            <polygon id="Fill-6" fill="#F3F3F3" points="21.6238829 47.9301606 22.9170732 51.9028321 27.1043122 51.9028321 23.7164488 54.3570219 25.0105756 58.3287591 21.6238829 55.8743358 18.2369561 58.3287591 19.5301463 54.3570219 16.1432195 51.9028321 20.329522 51.9028321"></polygon>
            <polygon id="Fill-7" fill="#F3F3F3" points="21.6238829 14.6527299 22.9170732 18.6244672 27.1043122 18.6244672 23.7164488 21.0788905 25.0105756 25.051562 21.6238829 22.5962044 18.2369561 25.051562 19.5301463 21.0788905 16.1432195 18.6244672 20.329522 18.6244672"></polygon>
            <polygon id="Fill-8" fill="#F3F3F3" points="11.1987512 33.3708613 12.492878 37.3435328 16.6791805 37.3435328 13.2924878 39.7977226 14.5866146 43.7703942 11.1987512 41.3150365 7.81182439 43.7703942 9.10618537 39.7977226 5.71832195 37.3435328 9.90462439 37.3435328"></polygon>
        </g>
    </g>
</svg>