<?xml version="1.0" encoding="UTF-8"?>
<svg width="96px" height="96px" viewBox="0 0 96 96" version="1.1" xmlns="http://www.w3.org/2000/svg" xmlns:xlink="http://www.w3.org/1999/xlink">
    <title>tonga</title>
    <desc>designed by Freepik from Flaticon</desc>
    <defs>
        <polygon id="path-1" points="0.0140487805 0.0934306569 0.0140487805 95.7668905 95.9068098 95.7668905 95.9068098 0.0934306569"></polygon>
    </defs>
    <g id="Page-1" stroke="none" stroke-width="1" fill="none" fill-rule="evenodd">
        <g id="tonga">
            <mask id="mask-2" fill="white">
                <use xlink:href="#path-1"></use>
            </mask>
            <g id="Clip-2"></g>
            <path d="M95.9068098,47.9301606 C95.9068098,74.3488467 74.4365268,95.7668905 47.9534049,95.7668905 C21.4691122,95.7668905 0,74.3488467 0,47.9301606 C0,21.5103066 21.4691122,0.0934306569 47.9534049,0.0934306569 C74.4365268,0.0934306569 95.9068098,21.5103066 95.9068098,47.9301606 Z" id="Fill-1" fill="#F3F3F3" mask="url(#mask-2)"></path>
            <polygon id="Fill-3" fill="#D80027" mask="url(#mask-2)" points="31.2739902 25.051562 31.2739902 18.8124964 25.0190049 18.8124964 25.0190049 25.051562 18.764722 25.051562 18.764722 31.2913285 25.0190049 31.2913285 25.0190049 37.5303942 31.2739902 37.5303942 31.2739902 31.2913285 37.5282732 31.2913285 37.5282732 25.051562"></polygon>
            <path d="M47.9534049,0.0934306569 L47.9534049,47.9301606 C21.4691122,47.9301606 10.9435317,47.9301606 0,47.9301606 C0,74.3488467 21.4691122,95.7668905 47.9534049,95.7668905 C74.4365268,95.7668905 95.9068098,74.3488467 95.9068098,47.9301606 C95.9068098,21.5103066 74.4365268,0.0934306569 47.9534049,0.0934306569 Z" id="Fill-4" fill="#D80027" mask="url(#mask-2)"></path>
        </g>
    </g>
</svg>