<?xml version="1.0" encoding="UTF-8"?>
<svg width="96px" height="96px" viewBox="0 0 96 96" version="1.1" xmlns="http://www.w3.org/2000/svg" xmlns:xlink="http://www.w3.org/1999/xlink">
    <title>transnistria</title>
    <desc>designed by Freepik from Flaticon</desc>
    <defs>
        <polygon id="path-1" points="0.0140487805 0.181021898 0.0140487805 60.4968175 95.9068098 60.4968175 95.9068098 0.181021898"></polygon>
    </defs>
    <g id="Page-1" stroke="none" stroke-width="1" fill="none" fill-rule="evenodd">
        <g id="transnistria">
            <path d="M94.2539707,35.4510949 C88.7515317,15.0834453 70.1085659,0.0934306569 47.9534049,0.0934306569 C25.7973073,0.0934306569 7.15434146,15.0834453 1.65190244,35.4510949 L47.9534049,37.5303942 L94.2539707,35.4510949 Z" id="Fill-1" fill="#A2001D"></path>
            <g id="Group-5" transform="translate(0.000000, 35.270073)">
                <mask id="mask-2" fill="white">
                    <use xlink:href="#path-1"></use>
                </mask>
                <g id="Clip-3"></g>
                <path d="M1.65190244,25.1391533 C7.15434146,45.5058686 25.7973073,60.4968175 47.9534049,60.4968175 C70.1085659,60.4968175 88.7515317,45.5058686 94.2539707,25.1391533 L47.9534049,23.0586861 L1.65190244,25.1391533 Z" id="Fill-2" fill="#A2001D" mask="url(#mask-2)"></path>
                <path d="M94.2539707,0.181021898 L1.65190244,0.181021898 C0.577170732,4.15906569 0,8.34148905 0,12.6600876 C0,16.9775182 0.577170732,21.1599416 1.65190244,25.1391533 L94.2549073,25.1391533 C95.329639,21.1599416 95.9068098,16.9775182 95.9068098,12.6600876 C95.9068098,8.34148905 95.329639,4.15906569 94.2539707,0.181021898 Z" id="Fill-4" fill="#6DA544" mask="url(#mask-2)"></path>
            </g>
        </g>
    </g>
</svg>