<?xml version="1.0" encoding="UTF-8"?>
<svg width="96px" height="96px" viewBox="0 0 96 96" version="1.1" xmlns="http://www.w3.org/2000/svg" xmlns:xlink="http://www.w3.org/1999/xlink">
    <title>tuvalu</title>
    <desc>designed by Freepik from Flaticon</desc>
    <defs>
        <polygon id="path-1" points="0.0140487805 0.0934306569 0.0140487805 95.7668905 95.9068098 95.7668905 95.9068098 0.0934306569"></polygon>
        <polygon id="path-3" points="0.0140487805 0.0934306569 0.0140487805 48.0359708 48.0594732 48.0359708 48.0594732 0.0934306569 0.0140487805 0.0934306569"></polygon>
    </defs>
    <g id="Page-1" stroke="none" stroke-width="1" fill="none" fill-rule="evenodd">
        <g id="tuvalu">
            <g id="Group-3">
                <mask id="mask-2" fill="white">
                    <use xlink:href="#path-1"></use>
                </mask>
                <g id="Clip-2"></g>
                <path d="M95.9068098,47.9301606 C95.9068098,74.3488467 74.4365268,95.7668905 47.9534049,95.7668905 C21.4691122,95.7668905 0,74.3488467 0,47.9301606 C0,47.9411387 47.9534049,0.0988029197 47.9534049,0.0934306569 C74.4365268,0.0934306569 95.9068098,21.5103066 95.9068098,47.9301606 Z" id="Fill-1" fill="#338AF3" mask="url(#mask-2)"></path>
            </g>
            <polygon id="Fill-4" fill="#0052B4" points="22.9344 47.9301606 39.1078244 47.9301606 25.0190049 31.2913285 22.9344 37.5303942"></polygon>
            <polygon id="Fill-5" fill="#0052B4" points="47.9534049 39.1061022 31.2739902 22.9720292 47.9534049 22.9720292"></polygon>
            <g id="Group-9">
                <mask id="mask-4" fill="white">
                    <use xlink:href="#path-3"></use>
                </mask>
                <g id="Clip-7"></g>
                <path d="M47.9534049,25.051562 L47.9534049,0.0934306569 L47.9452098,0.0934306569 C21.4646634,0.0981021898 0,21.5131095 0,47.9301606 L25.0190049,47.9301606 L25.0190049,33.8763212 L39.1078244,47.9301606 L47.8253268,47.9301606 L47.9534049,47.8023942 L47.9534049,39.1061022 L33.8643512,25.051562 L47.9534049,25.051562 Z" id="Fill-8" fill="#F3F3F3" mask="url(#mask-4)"></path>
            </g>
            <path d="M24.2606049,6.33249635 C16.7606634,10.5934015 10.5255805,16.8133139 6.25428293,24.2950073 L6.25428293,47.9301606 L18.764722,47.9301606 L18.764722,18.8124964 L47.9534049,18.8124964 L47.9534049,6.33249635 L24.2606049,6.33249635 Z" id="Fill-10" fill="#D80027"></path>
            <polygon id="Fill-11" fill="#D80027" points="47.9534049 42.0468321 30.9155122 25.051562 25.0190049 25.051562 25.0190049 25.0522628 47.9534049 47.9301606"></polygon>
            <polygon id="Fill-12" fill="#FFDA44" points="52.3370927 79.1280584 53.3724878 82.3051679 56.7219512 82.3051679 54.012878 84.2695474 55.0473366 87.4464234 52.3370927 85.4829781 49.6280195 87.4464234 50.6634146 84.2695474 47.9534049 82.3051679 51.3026341 82.3051679"></polygon>
            <polygon id="Fill-13" fill="#FFDA44" points="79.0124488 58.3287591 80.0469073 61.5068029 83.3963707 61.5068029 80.6872976 63.4711825 81.7224585 66.6480584 79.0124488 64.6846131 76.302439 66.6480584 77.3378341 63.4711825 74.6278244 61.5068029 77.9770537 61.5068029"></polygon>
            <polygon id="Fill-14" fill="#FFDA44" points="85.6966244 27.1317956 86.7310829 30.3096058 90.0805463 30.3096058 87.371239 32.2732847 88.4056976 35.4510949 85.6966244 33.4867153 82.9866146 35.4510949 84.0220098 32.2732847 81.312 30.3096058 84.6612293 30.3096058"></polygon>
            <polygon id="Fill-15" fill="#FFDA44" points="87.352039 50.0094599 88.3874341 53.1875036 91.7368976 53.1875036 89.0268878 55.1518832 90.0622829 58.3287591 87.352039 56.3653139 84.6429659 58.3287591 85.6774244 55.1518832 82.9674146 53.1875036 86.316878 53.1875036"></polygon>
            <polygon id="Fill-16" fill="#FFDA44" points="57.1399024 71.6536058 60.1252683 73.1709197 62.4931902 70.8078248 61.9701073 74.1080292 64.9536 75.6253431 61.6453463 76.1480876 61.1213268 79.448292 59.6012488 76.4711241 56.2929951 76.9938686 58.6609171 74.6307737"></polygon>
            <polygon id="Fill-17" fill="#FFDA44" points="57.1399024 59.1745401 60.1252683 60.691854 62.4931902 58.3287591 61.9701073 61.6289635 64.9536 63.1453431 61.6453463 63.6683212 61.1213268 66.9685255 59.6012488 63.9920584 56.2929951 64.5150365 58.6609171 62.151708"></polygon>
            <polygon id="Fill-18" fill="#FFDA44" points="67.5650341 67.1736058 70.5494634 68.6911533 72.918322 66.3278248 72.3943024 69.6280292 75.3787317 71.1453431 72.070478 71.6683212 71.5462244 74.9685255 70.0261463 71.9904234 66.7171902 72.5141022 69.0860488 70.1510073"></polygon>
            <polygon id="Fill-19" fill="#FFDA44" points="67.5650341 40.455708 70.5494634 41.9730219 72.918322 39.6108613 72.3943024 42.9101314 75.3787317 44.4274453 72.070478 44.9501898 71.5462244 48.2503942 70.0261463 45.2732263 66.7171902 45.7959708 69.0860488 43.4338102"></polygon>
            <polygon id="Fill-20" fill="#FFDA44" points="77.6679805 40.1354745 80.6533463 41.6527883 83.0212683 39.2903942 82.4972488 42.5896642 85.481678 44.1072117 82.1734244 44.6299562 81.6494049 47.9301606 80.1293268 44.9529927 76.8210732 45.4757372 79.1889951 43.1135766"></polygon>
        </g>
    </g>
</svg>