<?xml version="1.0" encoding="UTF-8"?>
<svg width="96px" height="96px" viewBox="0 0 96 96" version="1.1" xmlns="http://www.w3.org/2000/svg" xmlns:xlink="http://www.w3.org/1999/xlink">
    <title>united-states-of-america</title>
    <desc>designed by Freepik from Flaticon</desc>
    <defs>
        <polygon id="path-1" points="0.0140487805 0.0934306569 0.0140487805 95.7668905 95.9068098 95.7668905 95.9068098 0.0934306569"></polygon>
        <polygon id="path-3" points="0.0140487805 0.0934306569 0.0140487805 72.8880584 94.2539707 72.8880584 94.2539707 0.0934306569"></polygon>
    </defs>
    <g id="Page-1" stroke="none" stroke-width="1" fill="none" fill-rule="evenodd">
        <g id="united-states-of-america">
            <g id="Group-3">
                <mask id="mask-2" fill="white">
                    <use xlink:href="#path-1"></use>
                </mask>
                <g id="Clip-2"></g>
                <path d="M95.9068098,47.9301606 C95.9068098,74.3488467 74.4365268,95.7668905 47.9534049,95.7668905 C21.4691122,95.7668905 0,74.3488467 0,47.9301606 C0,21.5103066 21.4691122,0.0934306569 47.9534049,0.0934306569 C74.4365268,0.0934306569 95.9068098,21.5103066 95.9068098,47.9301606 Z" id="Fill-1" fill="#F3F3F3" mask="url(#mask-2)"></path>
            </g>
            <path d="M45.8680976,47.9301606 L95.9068098,47.9301606 C95.9068098,43.6124964 95.329639,39.4291387 94.2539707,35.4510949 L45.8680976,35.4510949 L45.8680976,47.9301606 Z" id="Fill-4" fill="#D80027"></path>
            <path d="M45.8680976,22.9720292 L88.8676683,22.9720292 C85.9326439,18.1937518 82.1790439,13.9692847 77.8033171,10.4929635 L45.8680976,10.4929635 L45.8680976,22.9720292 Z" id="Fill-5" fill="#D80027"></path>
            <path d="M47.9534049,95.7668905 C59.2390244,95.7668905 69.6119415,91.8752701 77.8033171,85.3671241 L18.1032585,85.3671241 C26.2948683,91.8752701 36.6677854,95.7668905 47.9534049,95.7668905 Z" id="Fill-6" fill="#D80027"></path>
            <g id="Group-10">
                <mask id="mask-4" fill="white">
                    <use xlink:href="#path-3"></use>
                </mask>
                <g id="Clip-8"></g>
                <path d="M7.03820488,72.8880584 L88.8676683,72.8880584 C91.2245854,69.0522628 93.0520976,64.8588613 94.2539707,60.4092263 L1.65190244,60.4092263 C2.85377561,64.8588613 4.68199024,69.0522628 7.03820488,72.8880584 Z" id="Fill-7" fill="#D80027" mask="url(#mask-4)"></path>
                <path d="M22.212761,7.56321168 L26.5828683,7.56321168 L22.518322,10.5095474 L24.070478,15.2759124 L20.0056976,12.3307445 L15.9411512,15.2759124 L17.2828098,11.1581898 C13.7038829,14.1325547 10.5667902,17.6163504 7.98204878,21.4986277 L9.3822439,21.4986277 L6.79492683,23.3735474 C6.39149268,24.0450803 6.00468293,24.7266569 5.63402927,25.4182774 L6.86985366,29.2110949 L4.56491707,27.5405547 C3.99149268,28.7511825 3.46747317,29.9903066 2.99637073,31.2539562 L4.35816585,35.4338102 L9.3822439,35.4338102 L5.31769756,38.3799124 L6.86985366,43.1462774 L2.80507317,40.2001752 L0.370419512,41.9648467 C0.127141463,43.9191825 0,45.9099562 0,47.9301606 L47.9534049,47.9301606 L47.9534049,0.0934306569 C38.4805463,0.0934306569 29.6497171,2.83421898 22.212761,7.56321168 Z M24.070478,43.1462774 L20.0056976,40.2001752 L15.9411512,43.1462774 L17.4942439,38.3799124 L13.4294634,35.4338102 L18.4535415,35.4338102 L20.0056976,30.6674453 L21.5587902,35.4338102 L26.5828683,35.4338102 L22.518322,38.3799124 L24.070478,43.1462774 Z M22.518322,24.4447299 L24.070478,29.2110949 L20.0056976,26.2649927 L15.9411512,29.2110949 L17.4942439,24.4447299 L13.4294634,21.4986277 L18.4535415,21.4986277 L20.0056976,16.7320292 L21.5587902,21.4986277 L26.5828683,21.4986277 L22.518322,24.4447299 Z M41.2711024,43.1462774 L37.206322,40.2001752 L33.1417756,43.1462774 L34.6948683,38.3799124 L30.6300878,35.4338102 L35.6541659,35.4338102 L37.206322,30.6674453 L38.7594146,35.4338102 L43.7834927,35.4338102 L39.7189463,38.3799124 L41.2711024,43.1462774 Z M39.7189463,24.4447299 L41.2711024,29.2110949 L37.206322,26.2649927 L33.1417756,29.2110949 L34.6948683,24.4447299 L30.6300878,21.4986277 L35.6541659,21.4986277 L37.206322,16.7320292 L38.7594146,21.4986277 L43.7834927,21.4986277 L39.7189463,24.4447299 Z M39.7189463,10.5095474 L41.2711024,15.2759124 L37.206322,12.3307445 L33.1417756,15.2759124 L34.6948683,10.5095474 L30.6300878,7.56321168 L35.6541659,7.56321168 L37.206322,2.79684672 L38.7594146,7.56321168 L43.7834927,7.56321168 L39.7189463,10.5095474 Z" id="Fill-9" fill="#0052B4" mask="url(#mask-4)"></path>
            </g>
        </g>
    </g>
</svg>