<?xml version="1.0" encoding="UTF-8"?>
<svg width="48px" height="48px" viewBox="0 0 48 48" version="1.1" xmlns="http://www.w3.org/2000/svg" xmlns:xlink="http://www.w3.org/1999/xlink">
    <!-- Generator: Sketch 47.1 (45422) - http://www.bohemiancoding.com/sketch -->
    <title>united-states-of-america</title>
    <desc>Created with Sketch.</desc>
    <defs>
        <polygon id="path-1" points="0.00702439024 0.0467153285 0.00702439024 47.8834453 47.9534049 47.8834453 47.9534049 0.0467153285"></polygon>
        <polygon id="path-3" points="0.00702439024 0.0467153285 0.00702439024 36.4440292 47.1269854 36.4440292 47.1269854 0.0467153285"></polygon>
    </defs>
    <g id="layout" stroke="none" stroke-width="1" fill="none" fill-rule="evenodd">
        <g id="Desktop" transform="translate(-608.000000, -544.000000)">
            <g id="LANG" transform="translate(500.000000, 544.000000)">
                <g id="united-states-of-america" transform="translate(108.000000, 0.000000)">
                    <g id="Group-3">
                        <mask id="mask-2" fill="white">
                            <use xlink:href="#path-1"></use>
                        </mask>
                        <g id="Clip-2"></g>
                        <path d="M47.9534049,23.9650803 C47.9534049,37.1744234 37.2182634,47.8834453 23.9767024,47.8834453 C10.7345561,47.8834453 0,37.1744234 0,23.9650803 C0,10.7551533 10.7345561,0.0467153285 23.9767024,0.0467153285 C37.2182634,0.0467153285 47.9534049,10.7551533 47.9534049,23.9650803 Z" id="Fill-1" fill="#F3F3F3" mask="url(#mask-2)"></path>
                    </g>
                    <path d="M22.9340488,23.9650803 L47.9534049,23.9650803 C47.9534049,21.8062482 47.6648195,19.7145693 47.1269854,17.7255474 L22.9340488,17.7255474 L22.9340488,23.9650803 Z" id="Fill-4" fill="#D80027"></path>
                    <path d="M22.9340488,11.4860146 L44.4338341,11.4860146 C42.966322,9.09687591 41.089522,6.98464234 38.9016585,5.24648175 L22.9340488,5.24648175 L22.9340488,11.4860146 Z" id="Fill-5" fill="#D80027"></path>
                    <path d="M23.9767024,47.8834453 C29.6195122,47.8834453 34.8059707,45.937635 38.9016585,42.683562 L9.05162927,42.683562 C13.1474341,45.937635 18.3338927,47.8834453 23.9767024,47.8834453 Z" id="Fill-6" fill="#D80027"></path>
                    <g id="Group-10">
                        <mask id="mask-4" fill="white">
                            <use xlink:href="#path-3"></use>
                        </mask>
                        <g id="Clip-8"></g>
                        <path d="M3.51910244,36.4440292 L44.4338341,36.4440292 C45.6122927,34.5261314 46.5260488,32.4294307 47.1269854,30.2046131 L0.82595122,30.2046131 C1.4268878,32.4294307 2.34099512,34.5261314 3.51910244,36.4440292 Z" id="Fill-7" fill="#D80027" mask="url(#mask-4)"></path>
                        <path d="M11.1063805,3.78160584 L13.2914341,3.78160584 L11.259161,5.25477372 L12.035239,7.6379562 L10.0028488,6.16537226 L7.97057561,7.6379562 L8.64140488,5.57909489 C6.85194146,7.06627737 5.28339512,8.80817518 3.99102439,10.7493139 L4.69112195,10.7493139 L3.39746341,11.6867737 C3.19574634,12.0225401 3.00234146,12.3633285 2.81701463,12.7091387 L3.43492683,14.6055474 L2.28245854,13.7702774 C1.99574634,14.3755912 1.73373659,14.9951533 1.49818537,15.6269781 L2.17908293,17.7169051 L4.69112195,17.7169051 L2.65884878,19.1899562 L3.43492683,21.5731387 L1.40253659,20.1000876 L0.185209756,20.9824234 C0.0635707317,21.9595912 0,22.9549781 0,23.9650803 L23.9767024,23.9650803 L23.9767024,0.0467153285 C19.2402732,0.0467153285 14.8248585,1.41710949 11.1063805,3.78160584 Z M12.035239,21.5731387 L10.0028488,20.1000876 L7.97057561,21.5731387 L8.74712195,19.1899562 L6.71473171,17.7169051 L9.22677073,17.7169051 L10.0028488,15.3337226 L10.7793951,17.7169051 L13.2914341,17.7169051 L11.259161,19.1899562 L12.035239,21.5731387 Z M11.259161,12.222365 L12.035239,14.6055474 L10.0028488,13.1324964 L7.97057561,14.6055474 L8.74712195,12.222365 L6.71473171,10.7493139 L9.22677073,10.7493139 L10.0028488,8.3660146 L10.7793951,10.7493139 L13.2914341,10.7493139 L11.259161,12.222365 Z M20.6355512,21.5731387 L18.603161,20.1000876 L16.5708878,21.5731387 L17.3474341,19.1899562 L15.3150439,17.7169051 L17.8270829,17.7169051 L18.603161,15.3337226 L19.3797073,17.7169051 L21.8917463,17.7169051 L19.8594732,19.1899562 L20.6355512,21.5731387 Z M19.8594732,12.222365 L20.6355512,14.6055474 L18.603161,13.1324964 L16.5708878,14.6055474 L17.3474341,12.222365 L15.3150439,10.7493139 L17.8270829,10.7493139 L18.603161,8.3660146 L19.3797073,10.7493139 L21.8917463,10.7493139 L19.8594732,12.222365 Z M19.8594732,5.25477372 L20.6355512,7.6379562 L18.603161,6.16537226 L16.5708878,7.6379562 L17.3474341,5.25477372 L15.3150439,3.78160584 L17.8270829,3.78160584 L18.603161,1.39842336 L19.3797073,3.78160584 L21.8917463,3.78160584 L19.8594732,5.25477372 Z" id="Fill-9" fill="#0052B4" mask="url(#mask-4)"></path>
                    </g>
                </g>
            </g>
        </g>
    </g>
</svg>