<?xml version="1.0" encoding="UTF-8"?>
<svg width="96px" height="96px" viewBox="0 0 96 96" version="1.1" xmlns="http://www.w3.org/2000/svg" xmlns:xlink="http://www.w3.org/1999/xlink">
    <title>uzbekistn</title>
    <desc>designed by Freepik from Flaticon</desc>
    <defs>
        <polygon id="path-1" points="0.0140487805 0.226653659 0.0140487805 33.5852488 95.9068098 33.5852488 95.9068098 0.226653659"></polygon>
    </defs>
    <g id="Page-1" stroke="none" stroke-width="1" fill="none" fill-rule="evenodd">
        <g id="uzbekistn">
            <g id="Group-3" transform="translate(0.000000, 31.141463)">
                <mask id="mask-2" fill="white">
                    <use xlink:href="#path-1"></use>
                </mask>
                <g id="Clip-2"></g>
                <path d="M2.26466341,2.31102439 C0.795629268,6.91363902 0,11.815961 0,16.9048976 C0,21.9950049 0.795629268,26.8973268 2.26466341,31.4999415 L47.9534049,33.5852488 L93.6421463,31.4999415 C95.1109463,26.8973268 95.9068098,21.9950049 95.9068098,16.9058341 C95.9068098,11.815961 95.1109463,6.91363902 93.6421463,2.31102439 L47.9534049,0.226653659 L2.26466341,2.31102439 Z" id="Fill-1" fill="#F3F3F3" mask="url(#mask-2)"></path>
            </g>
            <path d="M93.6421463,33.4524878 L47.9534049,31.3681171 L2.26372683,33.4524878 C1.82844878,34.8170927 1.45428293,36.2083902 1.13959024,37.6224 L94.7653463,37.6224 C94.4515902,36.2083902 94.0774244,34.8170927 93.6421463,33.4524878 Z" id="Fill-4" fill="#D80027"></path>
            <path d="M1.14052683,58.4714927 C1.45428293,59.8855024 1.82915122,61.2765659 2.26466341,62.6414049 L2.2691122,62.6414049 L47.9524683,64.7257756 L93.6412098,62.6414049 C94.0764878,61.2765659 94.4515902,59.8855024 94.7653463,58.4714927 L1.14052683,58.4714927 Z" id="Fill-5" fill="#D80027"></path>
            <path d="M47.9534049,95.9997659 C69.3475902,95.9997659 87.4665366,81.9884488 93.6421463,62.6414049 L2.26466341,62.6414049 C8.43933659,81.9877463 26.5592195,95.9997659 47.9534049,95.9997659 Z" id="Fill-6" fill="#6DA544"></path>
            <path d="M47.9534049,0.0941268293 C26.5592195,0.0941268293 8.43933659,14.1061463 2.26466341,33.4524878 L93.6412098,33.4524878 C87.4674732,14.1061463 69.3475902,0.0941268293 47.9534049,0.0941268293 Z" id="Fill-7" fill="#338AF3"></path>
            <path d="M21.9137561,19.9003317 C21.9137561,15.409639 25.0700488,11.657678 29.2846829,10.7367805 C28.6372683,10.5948878 27.9650341,10.5190244 27.2743024,10.5190244 C22.092878,10.5190244 17.8920585,14.7191415 17.8920585,19.9012683 C17.8920585,25.0826927 22.092878,29.2828098 27.2743024,29.2828098 C27.9650341,29.2828098 28.6372683,29.2060098 29.2846829,29.0650537 C25.0700488,28.143922 21.9137561,24.3921951 21.9137561,19.9003317 Z" id="Fill-8" fill="#F3F3F3"></path>
            <polygon id="Fill-9" fill="#F3F3F3" points="34.8302049 24.1653073 35.4659122 26.119961 37.5210146 26.119961 35.8583415 27.3281561 36.492878 29.2828098 34.8302049 28.0746146 33.1672976 29.2828098 33.8030049 27.3281561 32.1403317 26.119961 34.1954341 26.119961"></polygon>
            <polygon id="Fill-10" fill="#F3F3F3" points="41.3900488 24.1653073 42.025522 26.119961 44.0808585 26.119961 42.4179512 27.3281561 43.052722 29.2828098 41.3900488 28.0746146 39.7271415 29.2828098 40.3628488 27.3281561 38.6999415 26.119961 40.755278 26.119961"></polygon>
            <polygon id="Fill-11" fill="#F3F3F3" points="47.9505951 24.1653073 48.5853659 26.119961 50.6404683 26.119961 48.9777951 27.3281561 49.6135024 29.2828098 47.9505951 28.0746146 46.287922 29.2828098 46.9224585 27.3281561 45.2597854 26.119961 47.3148878 26.119961"></polygon>
            <polygon id="Fill-12" fill="#F3F3F3" points="54.510439 24.1653073 55.1461463 26.119961 57.2003122 26.119961 55.5383415 27.3281561 56.1731122 29.2828098 54.510439 28.0746146 52.8475317 29.2828098 53.4823024 27.3281561 51.8193951 26.119961 53.8747317 26.119961"></polygon>
            <polygon id="Fill-13" fill="#F3F3F3" points="61.0700488 24.1653073 61.7057561 26.119961 63.7608585 26.119961 62.0981854 27.3281561 62.7329561 29.2828098 61.0700488 28.0746146 59.4073756 29.2828098 60.0430829 27.3281561 58.3801756 26.119961 60.435278 26.119961"></polygon>
            <polygon id="Fill-14" fill="#F3F3F3" points="41.3900488 17.3422829 42.025522 19.2967024 44.0808585 19.2967024 42.4179512 20.5048976 43.052722 22.4595512 41.3900488 21.2513561 39.7271415 22.4595512 40.3628488 20.5048976 38.6999415 19.2967024 40.755278 19.2967024"></polygon>
            <polygon id="Fill-15" fill="#F3F3F3" points="47.9505951 17.3422829 48.5853659 19.2967024 50.6404683 19.2967024 48.9777951 20.5048976 49.6135024 22.4595512 47.9505951 21.2513561 46.287922 22.4595512 46.9224585 20.5048976 45.2597854 19.2967024 47.3148878 19.2967024"></polygon>
            <polygon id="Fill-16" fill="#F3F3F3" points="54.510439 17.3422829 55.1461463 19.2967024 57.2003122 19.2967024 55.5383415 20.5048976 56.1731122 22.4595512 54.510439 21.2513561 52.8475317 22.4595512 53.4823024 20.5048976 51.8193951 19.2967024 53.8747317 19.2967024"></polygon>
            <polygon id="Fill-17" fill="#F3F3F3" points="61.0700488 17.3422829 61.7057561 19.2967024 63.7608585 19.2967024 62.0981854 20.5048976 62.7329561 22.4595512 61.0700488 21.2513561 59.4073756 22.4595512 60.0430829 20.5048976 58.3801756 19.2967024 60.435278 19.2967024"></polygon>
            <polygon id="Fill-18" fill="#F3F3F3" points="47.9505951 10.5180878 48.5853659 12.473678 50.6404683 12.473678 48.9777951 13.6809366 49.6135024 15.6365268 47.9505951 14.4280976 46.287922 15.6365268 46.9224585 13.6809366 45.2597854 12.473678 47.3148878 12.473678"></polygon>
            <polygon id="Fill-19" fill="#F3F3F3" points="54.510439 10.5180878 55.1461463 12.473678 57.2003122 12.473678 55.5383415 13.6809366 56.1731122 15.6365268 54.510439 14.4280976 52.8475317 15.6365268 53.4823024 13.6809366 51.8193951 12.473678 53.8747317 12.473678"></polygon>
            <polygon id="Fill-20" fill="#F3F3F3" points="61.0700488 10.5180878 61.7057561 12.473678 63.7608585 12.473678 62.0981854 13.6809366 62.7329561 15.6365268 61.0700488 14.4280976 59.4073756 15.6365268 60.0430829 13.6809366 58.3801756 12.473678 60.435278 12.473678"></polygon>
        </g>
    </g>
</svg>