<?xml version="1.0" encoding="UTF-8"?>
<svg width="96px" height="96px" viewBox="0 0 96 96" version="1.1" xmlns="http://www.w3.org/2000/svg" xmlns:xlink="http://www.w3.org/1999/xlink">
    <title>vanuatu</title>
    <desc>designed by Freepik from Flaticon</desc>
    <defs>
        <polygon id="path-1" points="0.0140145985 0.0896934307 0.0140145985 67.7411971 95.6734599 67.7411971 95.6734599 0.0896934307"></polygon>
    </defs>
    <g id="Page-1" stroke="none" stroke-width="1" fill="none" fill-rule="evenodd">
        <g id="vanuatu">
            <g id="Group-3" transform="translate(0.000000, 14.014599)">
                <mask id="mask-2" fill="white">
                    <use xlink:href="#path-1"></use>
                </mask>
                <g id="Clip-2"></g>
                <path d="M95.6734599,33.915562 C95.6734599,31.8005255 95.5347153,29.7184234 95.2682044,27.675562 L41.5967299,27.675562 C31.8238832,17.9036496 14.009927,0.0915620438 14.0108613,0.0896934307 C-4.67059854,18.7713869 -4.67059854,49.0597372 14.0108613,67.7411971 L41.5967299,40.1546277 L95.2682044,40.1546277 C95.533781,38.1127007 95.6734599,36.030365 95.6734599,33.915562 Z" id="Fill-1" fill="#000000" mask="url(#mask-2)"></path>
            </g>
            <path d="M95.2682044,41.6901606 C95.2892263,41.854365 95.3083796,42.0185693 95.3284672,42.1827737 C92.4891095,18.4738102 72.3111241,0.0934306569 47.8367299,0.0934306569 C34.6268029,0.0934306569 22.6669781,5.44840876 14.0108613,14.1052263 L41.5957956,41.6901606 L95.2682044,41.6901606 Z" id="Fill-11" fill="#D80027"></path>
            <path d="M95.2682044,54.1692263 L41.5957956,54.1692263 L14.0108613,81.7548613 C22.6669781,90.4119124 34.6268029,95.7668905 47.8367299,95.7668905 C72.3111241,95.7668905 92.4891095,77.3862774 95.3284672,53.6763796 C95.3083796,53.8405839 95.2892263,54.0059562 95.2682044,54.1692263 Z" id="Fill-12" fill="#6DA544"></path>
            <path d="M95.6276788,45.8324088 L39.8392993,45.8324088 L11.1824818,17.1809635 C10.2563504,18.1573139 9.25267153,19.5214015 8.63135766,20.4930803 L36.036438,47.9128759 L8.60846715,75.3406131 C9.15153285,76.3069197 10.3348321,77.7366423 11.1651971,78.6674453 L39.8392993,49.9921752 L95.634219,49.9921752 C95.6641168,49.3024234 95.6734599,48.6098686 95.6734599,47.9128759 C95.6734599,46.9785693 95.6468321,46.2904526 95.6276788,45.8324088 Z" id="Fill-24" fill="#FFDA44"></path>
            <path d="M11.620438,58.1271825 L11.620438,54.1208759 C15.6185693,54.1208759 18.8713577,50.8671533 18.8713577,46.8690219 C18.8713577,44.0404088 16.5701606,41.7394453 13.7408467,41.7394453 C11.8138394,41.7394453 10.2463066,43.3069781 10.2463066,45.2339854 C10.2463066,46.4665693 11.2490511,47.4693139 12.4818686,47.4693139 C13.177927,47.4693139 13.7445839,46.9017226 13.7445839,46.2056642 L17.7508905,46.2056642 C17.7508905,49.1115912 15.3868613,51.4756204 12.4818686,51.4756204 C9.04011679,51.4756204 6.24,48.6755036 6.24,45.2349197 C6.24,41.0980438 9.60490511,37.7331387 13.741781,37.7331387 C18.7800292,37.7331387 22.8785985,41.8314745 22.8785985,46.8699562 C22.8785985,53.0770219 17.828438,58.1271825 11.620438,58.1271825 Z" id="Fill-25" fill="#FFDA44"></path>
        </g>
    </g>
</svg>