<?xml version="1.0" encoding="UTF-8"?>
<svg width="96px" height="96px" viewBox="0 0 96 96" version="1.1" xmlns="http://www.w3.org/2000/svg" xmlns:xlink="http://www.w3.org/1999/xlink">
    <title>wales</title>
    <desc>designed by Freepik from Flaticon</desc>
    <defs>
        <polygon id="path-1" points="0.0140487805 0.0934306569 0.0140487805 95.7668905 95.9068098 95.7668905 95.9068098 0.0934306569"></polygon>
    </defs>
    <g id="Page-1" stroke="none" stroke-width="1" fill="none" fill-rule="evenodd">
        <g id="wales">
            <g id="Group-4">
                <mask id="mask-2" fill="white">
                    <use xlink:href="#path-1"></use>
                </mask>
                <g id="Clip-2"></g>
                <path d="M95.9068098,47.9301606 C95.9068098,74.3488467 74.4365268,95.7668905 47.9534049,95.7668905 C21.4691122,95.7668905 0,74.3488467 0,47.9301606 C0,21.5103066 21.4691122,0.0934306569 47.9534049,0.0934306569 C74.4365268,0.0934306569 95.9068098,21.5103066 95.9068098,47.9301606 Z" id="Fill-1" fill="#F3F3F3" mask="url(#mask-2)"></path>
                <path d="M95.9068098,47.9301606 C95.9068098,74.3488467 74.4365268,95.7668905 47.9534049,95.7668905 C21.4691122,95.7668905 0,74.3488467 0,47.9301606" id="Fill-3" fill="#496E2D" mask="url(#mask-2)"></path>
            </g>
            <path d="M82.9838049,33.3818394 C81.2689171,28.5295182 76.6353951,25.051562 71.1858732,25.051562 L60.4629073,25.051562 C53.5537171,25.051562 47.9534049,30.6389489 47.9534049,37.5303942 C47.9534049,39.7823066 48.5542244,41.9466277 49.5996878,43.7703942 C45.6182634,43.7376934 41.9332683,43.7977226 39.6138146,43.7703942 L39.6138146,31.5440584 L40.1057561,31.0523796 C42.3172683,28.8462482 41.5801756,25.1699854 41.5801756,25.1699854 C41.5801756,25.1699854 37.8951805,24.4346861 35.6834341,26.6408175 L33.1061854,29.2110949 L30.2313366,29.2110949 C23.8983805,29.2110949 18.764722,34.3334307 18.764722,40.6509781 L27.1043122,40.6509781 L27.1043122,50.0094599 C27.1043122,51.3789197 27.3806049,52.6827445 27.8807415,53.8707153 L25.0190049,56.2494599 L20.8490927,56.2494599 L20.8490927,52.0896934 L16.6791805,52.0896934 L16.6791805,60.4092263 L35.4439024,60.4092263 L35.4439024,68.7285255 L31.2739902,68.7285255 L31.2739902,72.8880584 L39.6138146,72.8880584 L39.6138146,64.5687591 L43.4360195,59.9929927 L52.4707902,59.9929927 L56.2929951,64.5687591 L56.2929951,68.7285255 L52.1230829,68.7285255 L52.1230829,72.8880584 L68.8024976,72.8880584 L68.8024976,50.0094599 C68.8024976,46.5642044 71.6021854,43.7703942 75.0567805,43.7703942 C75.145522,43.7703942 75.2333268,43.7731971 75.3220683,43.7769343 C75.1490341,43.1098394 75.0567805,42.4109781 75.0567805,41.6901606 C75.0577171,37.2339854 78.5699122,33.5962628 82.9838049,33.3818394 Z M60.4629073,68.7285255 L60.4629073,59.9929927 L60.8103805,59.9929927 L64.6325854,64.5687591 L64.6325854,68.7285255 L60.4629073,68.7285255 Z" id="Fill-5" fill="#D80027"></path>
        </g>
    </g>
</svg>