<svg version="1" xmlns="http://www.w3.org/2000/svg" width="346.667" height="346.667" viewBox="0 0 260.000000 260.000000"><path d="M86 43.5c-12.3 1.9-18.4 4.9-26.1 12.4C52.8 63 46 76.2 44.4 86.4c-4.7 29.3.7 53.5 15.2 68.3 8.2 8.3 17.3 12.1 30.6 12.6 12.4.5 26.7-3.9 33.7-10.4 1.2-1.1 2.2-1.8 2.2-1.7.1.2.2 14.2.3 31.3.2 33.9-.3 31.5 6.1 30.1 1.7-.4 3.7-.8 4.5-1 1.3-.3 1.5-10.5 1.5-84.5 0-55.4-.3-84.5-1-84.9-3-2-5.9-.1-7.4 4.7-.6 2.3-1.3 4.1-1.5 4.1-.2 0-3.3-1.8-6.8-3.9-12.6-7.6-22.4-9.7-35.8-7.6zm27.5 14c3.9 1.9 8.3 4.5 10 5.9l3 2.4v37.8l.1 37.9-4 3.8c-12.2 11.4-26.2 14.8-41.3 10.1-12.5-3.9-22.6-19-25.2-37.8-1-6.5-.7-22.8.4-28.6 1-5.3 4.5-14 7.6-19.1 10.3-16.7 30.5-21.8 49.4-12.4zM191 120c-10.7 2-18.2 11.2-18.1 22.4 0 9.4 5 16.6 13.8 20.3 14.8 6 30.4-4.5 30.5-20.6.1-13.9-12.6-24.6-26.2-22.1z"/></svg>