<?xml version="1.0" encoding="UTF-8"?>
<svg width="96px" height="96px" viewBox="0 0 96 96" version="1.1" xmlns="http://www.w3.org/2000/svg" xmlns:xlink="http://www.w3.org/1999/xlink">
    <title>albania</title>
    <desc>designed by Freepik from Flaticon</desc>
    <defs>
        <polygon id="path-1" points="0.0140487805 0.0934306569 0.0140487805 95.7668905 95.9068098 95.7668905 95.9068098 0.0934306569"></polygon>
    </defs>
    <g id="Page-1" stroke="none" stroke-width="1" fill="none" fill-rule="evenodd">
        <g id="albania">
            <g id="Group-3">
                <mask id="mask-2" fill="white">
                    <use xlink:href="#path-1"></use>
                </mask>
                <g id="Clip-2"></g>
                <path d="M95.9068098,47.9301606 C95.9068098,74.3488467 74.4365268,95.7668905 47.9534049,95.7668905 C21.4691122,95.7668905 0,74.3488467 0,47.9301606 C0,21.5103066 21.4691122,0.0934306569 47.9534049,0.0934306569 C74.4365268,0.0934306569 95.9068098,21.5103066 95.9068098,47.9301606 Z" id="Fill-1" fill="#D80027" mask="url(#mask-2)"></path>
            </g>
            <path d="M75.0577171,35.5989489 L57.6878049,35.5989489 C58.7606634,34.4784818 59.4200195,32.9621022 59.4200195,31.2913285 C59.4200195,27.8451387 56.6193951,25.051562 53.1657366,25.051562 C50.9891122,25.051562 49.0737951,26.1610511 47.9534049,27.8425693 C46.8330146,26.1610511 44.916761,25.051562 42.740839,25.051562 C39.2862439,25.051562 36.4865561,27.8451387 36.4865561,31.2913285 C36.4865561,32.9621022 37.1461463,34.4784818 38.2180683,35.5989489 L20.8490927,35.5989489 C20.8490927,40.1938686 24.860722,43.9182482 29.4668488,43.9182482 L29.1886829,43.9182482 C29.1886829,48.5131679 32.9221463,52.2375474 37.5282732,52.2375474 C37.5282732,53.7256642 37.921639,55.1208175 38.6086244,56.3288759 L31.6903024,63.2294307 L36.9979317,68.524146 L44.5262049,61.0139562 C44.8216976,61.121635 45.126322,61.208292 45.4417171,61.2666861 L40.8924878,71.5132263 L47.9534049,79.1280584 L55.014322,71.5132263 L50.4648585,61.2666861 C50.7795512,61.2075912 51.0851122,61.121635 51.3796683,61.0130219 L58.908878,68.5232117 L64.2155707,63.2294307 L57.2981854,56.3279416 C57.9842341,55.1208175 58.3773659,53.7247299 58.3773659,52.2366131 C62.9834927,52.2366131 66.7171902,48.5122336 66.7171902,43.9173139 L66.439961,43.9173139 C71.0451512,43.9182482 75.0577171,40.1938686 75.0577171,35.5989489 Z" id="Fill-4" fill="#000000"></path>
        </g>
    </g>
</svg>