<?xml version="1.0" encoding="UTF-8"?>
<svg width="96px" height="96px" viewBox="0 0 96 96" version="1.1" xmlns="http://www.w3.org/2000/svg" xmlns:xlink="http://www.w3.org/1999/xlink">
    <title>andorra</title>
    <desc>designed by Freepik from Flaticon</desc>
    <defs>
        <polygon id="path-1" points="0.0140487805 0.170043796 0.0140487805 86.3462774 95.9068098 86.3462774 95.9068098 0.170043796 0.0140487805 0.170043796"></polygon>
    </defs>
    <g id="Page-1" stroke="none" stroke-width="1" fill="none" fill-rule="evenodd">
        <g id="andorra">
            <path d="M27.1043122,91.0194453 C33.408,94.0606131 40.4808585,95.7668905 47.9534049,95.7668905 C55.4250146,95.7668905 62.4978732,94.0606131 68.8024976,91.0194453 L72.9721756,47.9301606 L68.8024976,4.83970803 C62.4978732,1.79877372 55.4250146,0.0934306569 47.9534049,0.0934306569 C40.4808585,0.0934306569 33.408,1.79877372 27.1043122,4.83970803 L22.9344,47.9301606 L27.1043122,91.0194453 Z" id="Fill-1" fill="#FFDA44"></path>
            <g id="Group-5" transform="translate(0.000000, 4.671533)">
                <mask id="mask-2" fill="white">
                    <use xlink:href="#path-1"></use>
                </mask>
                <g id="Clip-3"></g>
                <path d="M68.8024976,86.3462774 C84.8424585,78.6090511 95.9068098,62.2238832 95.9068098,43.2586277 C95.9068098,24.2931387 84.8424585,7.90727007 68.8024976,0.170043796 L68.8024976,86.3462774 Z" id="Fill-2" fill="#D80027" mask="url(#mask-2)"></path>
                <path d="M27.1043122,86.3462774 L27.1043122,0.170043796 C11.0643512,7.90727007 0,24.2931387 0,43.2586277 C0,62.2238832 11.0643512,78.6090511 27.1043122,86.3462774 Z" id="Fill-4" fill="#0052B4" mask="url(#mask-2)"></path>
            </g>
            <path d="M47.9534049,64.5687591 L47.9534049,47.9301606 L60.4629073,47.9301606 L60.4629073,54.1692263 C60.4629073,55.2530219 58.3783024,59.2256934 53.2317659,62.4885255 C51.2827317,63.7248467 49.2648585,64.1226277 47.9534049,64.5687591 Z" id="Fill-6" fill="#D80027"></path>
            <polygon id="Fill-7" fill="#D80027" points="35.4439024 47.9301606 47.9534049 47.9301606 47.9534049 35.4510949 35.4439024 35.4510949"></polygon>
            <path d="M54.2076878,31.2913285 C54.2076878,28.9938686 52.340839,27.1317956 50.0377756,27.1317956 C49.2777366,27.1317956 48.5671024,27.3380438 47.9534049,27.6928467 C47.3397073,27.3380438 46.6290732,27.1317956 45.8680976,27.1317956 C43.5657366,27.1317956 41.6981854,28.9938686 41.6981854,31.2913285 L31.2739902,31.2913285 L31.2739902,52.0896934 C31.2739902,59.8325255 37.4378927,64.3097226 42.2716098,66.6307737 C41.9093854,67.2476496 41.6981854,67.9628613 41.6981854,68.7285255 C41.6981854,71.0259854 43.5657366,72.8880584 45.8680976,72.8880584 C46.6290732,72.8880584 47.3397073,72.6820438 47.9534049,72.3270073 C48.5671024,72.6820438 49.2777366,72.8880584 50.0377756,72.8880584 C52.340839,72.8880584 54.2076878,71.0259854 54.2076878,68.7285255 C54.2076878,67.9628613 53.9962537,67.2476496 53.6349659,66.6307737 C58.4679805,64.3097226 64.6325854,59.8325255 64.6325854,52.0896934 L64.6325854,31.2913285 L54.2076878,31.2913285 Z M58.3773659,52.0896934 C58.3773659,53.1737226 58.3773659,56.4720584 53.2317659,59.7358248 C51.2827317,60.972146 49.2648585,61.7730803 47.9534049,62.2194453 C46.6407805,61.7730803 44.624078,60.972146 42.6750439,59.7358248 C37.5282732,56.4720584 37.5282732,53.1737226 37.5282732,52.0896934 L37.5282732,37.5303942 L58.3773659,37.5303942 L58.3773659,52.0896934 Z" id="Fill-8" fill="#FF9811"></path>
        </g>
    </g>
</svg>