<?xml version="1.0" encoding="UTF-8"?>
<svg width="96px" height="96px" viewBox="0 0 96 96" version="1.1" xmlns="http://www.w3.org/2000/svg" xmlns:xlink="http://www.w3.org/1999/xlink">
    <title>angola</title>
    <desc>designed by Freepik from Flaticon</desc>
    <defs>
        <polygon id="path-1" points="0.0140487805 0.0934306569 0.0140487805 95.7668905 95.9068098 95.7668905 95.9068098 0.0934306569"></polygon>
    </defs>
    <g id="Page-1" stroke="none" stroke-width="1" fill="none" fill-rule="evenodd">
        <g id="angola">
            <g id="Group-4">
                <mask id="mask-2" fill="white">
                    <use xlink:href="#path-1"></use>
                </mask>
                <g id="Clip-2"></g>
                <path d="M0,47.9301606 C0,21.5103066 21.4691122,0.0934306569 47.9534049,0.0934306569 C74.4365268,0.0934306569 95.9068098,21.5103066 95.9068098,47.9301606 C93.8212683,47.9301606 47.9534049,54.1692263 47.9534049,54.1692263 L0,47.9301606 Z" id="Fill-1" fill="#D80027" mask="url(#mask-2)"></path>
                <path d="M95.9068098,47.9301606 C95.9068098,74.3488467 74.4365268,95.7668905 47.9534049,95.7668905 C21.4691122,95.7668905 0,74.3488467 0,47.9301606" id="Fill-3" fill="#000000" mask="url(#mask-2)"></path>
            </g>
            <polygon id="Fill-5" fill="#FFDA44" points="41.3781073 38.1409635 45.4426537 41.0833285 43.8942439 45.849927 47.9559805 42.9017226 52.0216976 45.8452555 50.4667317 41.0807591 54.5287024 38.1325547 49.505561 38.1353577 47.9505951 33.3708613 46.4012488 38.1372263"></polygon>
            <path d="M59.9414634,27.2165839 C56.1630439,25.0396496 52.0308293,24.012146 47.9534049,24.0196204 L47.9534049,30.2577518 C50.9671024,30.252146 54.0210732,31.0112701 56.814439,32.6199124 C65.2764878,37.4939562 68.1869268,48.3279416 63.3000585,56.769635 C58.4148293,65.2120292 47.5546537,68.1144526 39.0923707,63.2404088 C36.6265756,61.8207299 34.6363317,59.8927883 33.1691707,57.6672701 L27.9474732,61.106219 C29.9323317,64.1163212 32.6294634,66.7230365 35.9653463,68.6435036 C47.4146341,75.2376058 62.1073171,71.3104818 68.7172683,59.8890511 C75.3274537,48.4676204 71.3907512,33.8106861 59.9414634,27.2165839 Z" id="Fill-6" fill="#FFDA44"></path>
            <path d="M34.1277659,43.7703942 C32.4695415,46.7933431 33.5826732,50.5852263 36.612761,52.2384818 L56.9277659,63.3123504 C55.5458341,65.8314745 56.2791805,68.8971679 58.8046829,70.2759708 L64.2923707,73.2704234 C66.817639,74.6480584 69.9851707,73.7230949 71.3671024,71.2037372 L74.367922,65.7294015 L34.1277659,43.7703942 Z" id="Fill-7" fill="#FFDA44"></path>
        </g>
    </g>
</svg>