<?xml version="1.0" encoding="UTF-8"?>
<svg width="96px" height="96px" viewBox="0 0 96 96" version="1.1" xmlns="http://www.w3.org/2000/svg" xmlns:xlink="http://www.w3.org/1999/xlink">
    <title>anguilla</title>
    <desc>designed by Freepik from Flaticon</desc>
    <defs>
        <polygon id="path-1" points="0.0140487805 0.0934306569 0.0140487805 95.7668905 95.9068098 95.7668905 95.9068098 0.0934306569"></polygon>
    </defs>
    <g id="Page-1" stroke="none" stroke-width="1" fill="none" fill-rule="evenodd">
        <g id="anguilla">
            <g id="Group-5">
                <mask id="mask-2" fill="white">
                    <use xlink:href="#path-1"></use>
                </mask>
                <g id="Clip-2"></g>
                <path d="M95.9068098,47.9301606 C95.9068098,74.3488467 74.4365268,95.7668905 47.9534049,95.7668905 C21.4691122,95.7668905 0,74.3488467 0,47.9301606 C0,47.9411387 47.9534049,0.0988029197 47.9534049,0.0934306569 C74.4365268,0.0934306569 95.9068098,21.5103066 95.9068098,47.9301606 Z" id="Fill-1" fill="#0052B4" mask="url(#mask-2)"></path>
                <path d="M47.9534049,25.051562 L47.9534049,0.0934306569 L47.9452098,0.0934306569 C21.4646634,0.0981021898 0,21.5131095 0,47.9301606 L25.0190049,47.9301606 L25.0190049,33.8763212 L39.107122,47.9301606 L47.8253268,47.9301606 L47.9534049,47.8023942 L47.9534049,39.1061022 L33.8643512,25.051562 L47.9534049,25.051562 Z" id="Fill-4" fill="#F3F3F3" mask="url(#mask-2)"></path>
            </g>
            <path d="M24.2606049,6.33249635 C16.7606634,10.5934015 10.5255805,16.8133139 6.25428293,24.2950073 L6.25428293,47.9301606 L18.764722,47.9301606 L18.764722,18.8124964 L47.9534049,18.8124964 L47.9534049,6.33249635 L24.2606049,6.33249635 Z" id="Fill-6" fill="#D80027"></path>
            <polygon id="Fill-7" fill="#D80027" points="47.9534049 42.0468321 30.9155122 25.051562 25.0190049 25.051562 25.0190049 25.0522628 47.9524683 47.9301606 47.9534049 47.9301606"></polygon>
            <path d="M81.0970537,54.931854 C82.475239,53.0396496 83.3963707,50.7284088 83.3963707,47.9301606 L83.3963707,27.1317956 C81.6538537,28.4374891 79.4889366,29.2110949 77.1420878,29.2110949 C73.7315122,29.2110949 70.704,27.577927 68.8024976,25.0522628 C66.9000585,27.577927 63.8725463,29.2110949 60.4629073,29.2110949 C58.1158244,29.2110949 55.9499707,28.4374891 54.2076878,27.1317956 L54.2076878,47.9301606 C54.2076878,50.7284088 55.1285854,53.0396496 56.5079415,54.931854 L81.0970537,54.931854 Z" id="Fill-8" fill="#F5F5F5"></path>
            <path d="M76.7597268,44.0714745 C77.4237659,42.4555912 77.9395902,40.094365 77.9395902,38.9192409 C77.9395902,37.0314745 75.471922,35.5003796 75.471922,35.5003796 C75.471922,35.5003796 73.0042537,37.0314745 73.0042537,38.9192409 C73.0042537,40.094365 73.5210146,42.4555912 74.1841171,44.0714745 L72.760039,47.2805839 C73.596878,47.6199708 74.5123902,47.8087007 75.471922,47.8087007 C76.4323902,47.8087007 77.3469659,47.6199708 78.1847415,47.2805839 L76.7597268,44.0714745 Z" id="Fill-9" fill="#FF9811"></path>
            <path d="M67.1150049,33.6819854 C65.3806829,33.9164964 63.0722341,34.6517956 62.0525268,35.2394745 C60.4135024,36.1838248 60.3182049,39.0806423 60.3182049,39.0806423 C60.3182049,39.0806423 62.8811707,40.4465985 64.5201951,39.5031825 C65.5399024,38.9155036 67.3315902,37.2886423 68.4018732,35.9072701 L71.9002537,35.5340146 C71.7768585,34.6408175 71.4823024,33.7557956 71.0030049,32.926365 C70.5227707,32.0981022 69.9018146,31.4008759 69.1874341,30.8470657 L67.1150049,33.6819854 Z" id="Fill-10" fill="#FF9811"></path>
            <path d="M62.9186341,47.2102774 C63.9886829,48.5907153 65.7806049,50.2166423 66.8012488,50.8040876 C68.4402732,51.748438 71.0030049,50.3827153 71.0030049,50.3827153 C71.0030049,50.3827153 70.9070049,47.4849635 69.2689171,46.5406131 C68.2482732,45.9529343 65.9395902,45.2183358 64.2055024,44.9847591 L62.132839,42.1491387 C61.4193951,42.7029489 60.798439,43.3999416 60.3182049,44.228438 C59.8382049,45.0578686 59.5445854,45.9428905 59.4200195,46.8360876 L62.9186341,47.2102774 Z" id="Fill-11" fill="#FF9811"></path>
            <path d="M55.9921171,54.1701606 C59.8857366,60.4026861 68.8024976,62.4894599 68.8024976,62.4894599 C68.8024976,62.4894599 77.7192585,60.4026861 81.612878,54.1701606 L55.9921171,54.1701606 Z" id="Fill-12" fill="#338AF3"></path>
        </g>
    </g>
</svg>