<?xml version="1.0" encoding="UTF-8"?>
<svg width="96px" height="96px" viewBox="0 0 96 96" version="1.1" xmlns="http://www.w3.org/2000/svg" xmlns:xlink="http://www.w3.org/1999/xlink">
    <title>argentina</title>
    <desc>designed by Freepik from Flaticon</desc>
    <defs>
        <polygon id="path-1" points="0.0140487805 0.0934306569 0.0140487805 95.7668905 95.9068098 95.7668905 95.9068098 0.0934306569"></polygon>
    </defs>
    <g id="Page-1" stroke="none" stroke-width="1" fill="none" fill-rule="evenodd">
        <g id="argentina">
            <g id="Group-3">
                <mask id="mask-2" fill="white">
                    <use xlink:href="#path-1"></use>
                </mask>
                <g id="Clip-2"></g>
                <path d="M95.9068098,47.9301606 C95.9068098,74.3488467 74.4365268,95.7668905 47.9534049,95.7668905 C21.4691122,95.7668905 0,74.3488467 0,47.9301606 C0,21.5103066 21.4691122,0.0934306569 47.9534049,0.0934306569 C74.4365268,0.0934306569 95.9068098,21.5103066 95.9068098,47.9301606 Z" id="Fill-1" fill="#F3F3F3" mask="url(#mask-2)"></path>
            </g>
            <path d="M47.9534049,0.0934306569 C28.9416585,0.0934306569 12.5148878,11.1308613 4.75785366,27.1317956 L91.1477854,27.1317956 C83.3916878,11.1308613 66.9649171,0.0934306569 47.9534049,0.0934306569 Z" id="Fill-4" fill="#338AF3"></path>
            <path d="M47.9534049,95.7668905 C66.9649171,95.7668905 83.3916878,84.7294599 91.1477854,68.7285255 L4.75785366,68.7285255 C12.5148878,84.7294599 28.9416585,95.7668905 47.9534049,95.7668905 Z" id="Fill-5" fill="#338AF3"></path>
            <polygon id="Fill-6" fill="#FFDA44" points="62.2857366 47.9301606 56.4292683 50.6781898 59.5480976 56.3361168 53.1886829 55.1226861 52.3829854 61.5313285 47.9534049 56.8179854 43.5238244 61.5313285 42.7178927 55.1226861 36.358478 56.3361168 39.4766049 50.6781898 33.6210732 47.9301606 39.4775415 45.1818978 36.358478 39.5239708 42.7178927 40.737635 43.5238244 34.3287591 47.9534049 39.0423358 52.3829854 34.3287591 53.1886829 40.737635 59.5480976 39.5239708 56.4292683 45.1818978"></polygon>
        </g>
    </g>
</svg>