<?xml version="1.0" encoding="UTF-8"?>
<svg width="96px" height="96px" viewBox="0 0 96 96" version="1.1" xmlns="http://www.w3.org/2000/svg" xmlns:xlink="http://www.w3.org/1999/xlink">
    <title>armenia</title>
    <desc>designed by Freepik from Flaticon</desc>
    <defs>
        <polygon id="path-1" points="0.0140487805 0.0140145985 0.0140487805 37.4509781 95.9068098 37.4509781 95.9068098 0.0140145985 0.0140487805 0.0140145985"></polygon>
    </defs>
    <g id="Page-1" stroke="none" stroke-width="1" fill="none" fill-rule="evenodd">
        <g id="armenia">
            <g id="Group-3" transform="translate(0.000000, 29.197080)">
                <mask id="mask-2" fill="white">
                    <use xlink:href="#path-1"></use>
                </mask>
                <g id="Clip-2"></g>
                <path d="M95.9068098,18.7330803 C95.9068098,12.8817518 94.851278,7.27591241 92.9240195,2.09424818 L47.9534049,0.0140145985 L2.9825561,2.09424818 C1.05553171,7.27591241 0,12.8817518 0,18.7330803 C0,24.5844088 1.05553171,30.1893139 2.9825561,35.3716788 L47.9534049,37.4509781 L92.9240195,35.3716788 C94.851278,30.1893139 95.9068098,24.5844088 95.9068098,18.7330803 Z" id="Fill-1" fill="#0052B4" mask="url(#mask-2)"></path>
            </g>
            <path d="M47.9534049,95.7668905 C68.5709268,95.7668905 86.1485268,82.7849343 92.9240195,64.5687591 L2.9825561,64.5687591 C9.75828293,82.7849343 27.3347122,95.7668905 47.9534049,95.7668905 Z" id="Fill-4" fill="#FF9811"></path>
            <path d="M2.9825561,31.2913285 L92.9240195,31.2913285 C86.1485268,13.0751533 68.5709268,0.0934306569 47.9534049,0.0934306569 C27.3347122,0.0934306569 9.75828293,13.0751533 2.9825561,31.2913285 Z" id="Fill-5" fill="#D80027"></path>
        </g>
    </g>
</svg>