<?xml version="1.0" encoding="UTF-8"?>
<svg width="96px" height="96px" viewBox="0 0 96 96" version="1.1" xmlns="http://www.w3.org/2000/svg" xmlns:xlink="http://www.w3.org/1999/xlink">
    <title>australia</title>
    <desc>designed by Freepik from Flaticon</desc>
    <defs>
        <polygon id="path-1" points="0.0140487805 0.0934306569 0.0140487805 95.7668905 95.9068098 95.7668905 95.9068098 0.0934306569"></polygon>
    </defs>
    <g id="Page-1" stroke="none" stroke-width="1" fill="none" fill-rule="evenodd">
        <g id="australia">
            <g id="Group-5">
                <mask id="mask-2" fill="white">
                    <use xlink:href="#path-1"></use>
                </mask>
                <g id="Clip-2"></g>
                <path d="M95.9068098,47.9301606 C95.9068098,74.3488467 74.4365268,95.7668905 47.9534049,95.7668905 C21.4691122,95.7668905 0,74.3488467 0,47.9301606 C0,47.9411387 47.9534049,0.0988029197 47.9534049,0.0934306569 C74.4365268,0.0934306569 95.9068098,21.5103066 95.9068098,47.9301606 Z" id="Fill-1" fill="#0052B4" mask="url(#mask-2)"></path>
                <path d="M47.9534049,25.051562 L47.9534049,0.0934306569 L47.9452098,0.0934306569 C21.4646634,0.0981021898 0,21.5131095 0,47.9301606 L25.0190049,47.9301606 L25.0190049,33.8753869 L39.1078244,47.9301606 L47.8253268,47.9301606 C47.8684098,47.8871825 47.910322,47.844438 47.9534049,47.8023942 L47.9534049,39.1061022 L33.8643512,25.051562 L47.9534049,25.051562 Z" id="Fill-4" fill="#F3F3F3" mask="url(#mask-2)"></path>
            </g>
            <path d="M24.2606049,6.33249635 C16.7606634,10.5934015 10.5255805,16.8133139 6.25428293,24.2950073 L6.25428293,47.9301606 L18.764722,47.9301606 L18.764722,18.8124964 L47.9534049,18.8124964 L47.9534049,6.33249635 L24.2606049,6.33249635 Z" id="Fill-6" fill="#D80027"></path>
            <path d="M47.9534049,42.0468321 L30.9164488,25.0522628 L25.0190049,25.0522628 C25.0190049,25.051562 25.0190049,25.0522628 25.0190049,25.0522628 L47.9534049,47.9301606 L47.9534049,42.0468321 Z" id="Fill-7" fill="#D80027"></path>
            <polygon id="Fill-8" fill="#F3F3F3" points="28.9208195 56.2494599 31.5530927 61.7394453 37.4954927 60.3690511 34.8339512 65.8443212 39.6138146 69.6245255 33.6632195 70.9629197 33.6796098 77.0478248 28.9208195 73.2412263 24.1617951 77.0478248 24.1793561 70.9629197 18.2278244 69.6245255 23.0076878 65.8443212 20.3461463 60.3690511 26.2892488 61.7394453"></polygon>
            <polygon id="Fill-9" fill="#F3F3F3" points="71.7960585 66.6480584 73.1112585 69.3935182 76.0830439 68.708438 74.7521561 71.4457226 77.1420878 73.3360584 74.1667902 74.0050219 74.1749854 77.0478248 71.7960585 75.1444088 69.4161951 77.0478248 69.4243902 74.0050219 66.4490927 73.3360584 68.8390244 71.4457226 67.5081366 68.708438 70.479922 69.3935182"></polygon>
            <polygon id="Fill-10" fill="#F3F3F3" points="59.5546537 37.5303942 60.8698537 40.275854 63.8414049 39.5907737 62.5107512 42.3278248 64.9006829 44.2183942 61.9253854 44.8871241 61.9335805 47.9301606 59.5546537 46.0267445 57.1747902 47.9301606 57.1829854 44.8871241 54.2076878 44.2183942 56.5976195 42.3278248 55.2667317 39.5907737 58.2385171 40.275854"></polygon>
            <polygon id="Fill-11" fill="#F3F3F3" points="71.7960585 20.8917956 73.1112585 23.6372555 76.0830439 22.9519416 74.7521561 25.6892263 77.1420878 27.5797956 74.1667902 28.2485255 74.1749854 31.2913285 71.7960585 29.3872117 69.4161951 31.2913285 69.4243902 28.2485255 66.4490927 27.5797956 68.8390244 25.6892263 67.5081366 22.9519416 70.479922 23.6372555"></polygon>
            <polygon id="Fill-12" fill="#F3F3F3" points="82.4881171 33.3708613 83.8042537 36.1163212 86.7758049 35.4310073 85.4451512 38.168292 87.8350829 40.0588613 84.8597854 40.7275912 84.8679805 43.7703942 82.4881171 41.8672117 80.1091902 43.7703942 80.1173854 40.7275912 77.1420878 40.0588613 79.5320195 38.168292 78.2011317 35.4310073 81.1719805 36.1163212"></polygon>
            <polygon id="Fill-13" fill="#F3F3F3" points="74.8427707 47.9301606 75.8772293 51.1079708 79.2273951 51.1079708 76.5173854 53.0714161 77.5527805 56.2494599 74.8427707 54.2850803 72.1325268 56.2494599 73.167922 53.0714161 70.4579122 51.1079708 73.8073756 51.1079708"></polygon>
        </g>
    </g>
</svg>