<?xml version="1.0" encoding="UTF-8"?>
<svg width="96px" height="96px" viewBox="0 0 96 96" version="1.1" xmlns="http://www.w3.org/2000/svg" xmlns:xlink="http://www.w3.org/1999/xlink">
    <title>balearic-islands</title>
    <desc>designed by Freepik from Flaticon</desc>
    <defs>
        <polygon id="path-1" points="0.0140487805 95.7668905 0.0140487805 0.0934306569 95.9068098 0.0934306569 95.9068098 95.7668905"></polygon>
        <polygon id="path-3" points="0.0140487805 0.0934306569 0.0140487805 85.1363504 87.828761 85.1363504 87.828761 0.0934306569 0.0140487805 0.0934306569"></polygon>
    </defs>
    <g id="Page-1" stroke="none" stroke-width="1" fill="none" fill-rule="evenodd">
        <g id="balearic-islands">
            <g id="Group-3">
                <mask id="mask-2" fill="white">
                    <use xlink:href="#path-1"></use>
                </mask>
                <g id="Clip-2"></g>
                <path d="M47.9534049,0.0934306569 C74.4365268,0.0934306569 95.9068098,21.5103066 95.9068098,47.9301606 C95.9068098,74.3488467 74.4365268,95.7668905 47.9534049,95.7668905 C21.4700488,95.7668905 0,74.3488467 0,47.9301606" id="Fill-1" fill="#FFDA44" mask="url(#mask-2)"></path>
            </g>
            <path d="M46.9107512,21.3542774 L87.8294634,21.3542774 C85.1351415,17.3388613 81.8470244,13.7548613 78.0915512,10.7239708 L46.9107512,10.7239708 L46.9107512,21.3542774 Z" id="Fill-4" fill="#D80027"></path>
            <path d="M46.9107512,42.6144234 L95.6103805,42.6144234 C95.201561,38.9292847 94.3738537,35.3698102 93.1747902,31.9848175 L46.9107512,31.9848175 L46.9107512,42.6144234 Z" id="Fill-5" fill="#D80027"></path>
            <path d="M2.7329561,63.8752701 L93.1738537,63.8752701 C94.3738537,60.4902774 95.201561,56.9310365 95.6103805,53.2449635 L0.296429268,53.2449635 C0.704312195,56.9310365 1.5329561,60.4902774 2.7329561,63.8752701 Z" id="Fill-6" fill="#D80027"></path>
            <g id="Group-10">
                <mask id="mask-4" fill="white">
                    <use xlink:href="#path-3"></use>
                </mask>
                <g id="Clip-8"></g>
                <path d="M17.8152585,85.1363504 L78.0906146,85.1363504 C81.8470244,82.1052263 85.1351415,78.5205255 87.828761,74.5058102 L8.07804878,74.5058102 C10.7716683,78.5205255 14.0597854,82.104292 17.8152585,85.1363504 Z" id="Fill-7" fill="#D80027" mask="url(#mask-4)"></path>
                <path d="M47.9534049,0.0934306569 C21.4691122,0.0934306569 0,21.5103066 0,47.9301606 C10.9444683,47.9301606 21.4691122,47.9301606 47.9534049,47.9301606 L47.9534049,0.0934306569 Z" id="Fill-9" fill="#4A1F63" mask="url(#mask-4)"></path>
            </g>
            <polygon id="Fill-11" fill="#F3F3F3" points="39.6138146 25.051562 39.6138146 29.2110949 37.5282732 29.2110949 37.5282732 25.051562 33.3585951 25.051562 33.3585951 29.2110949 31.2739902 29.2110949 31.2739902 20.8917956 22.9344 20.8917956 22.9344 29.2110949 20.8490927 29.2110949 20.8490927 25.051562 16.6791805 25.051562 16.6791805 29.2110949 14.5948098 29.2110949 14.5948098 25.051562 10.4248976 25.051562 10.4248976 37.5303942 43.7834927 37.5303942 43.7834927 25.051562"></polygon>
        </g>
    </g>
</svg>