<?xml version="1.0" encoding="UTF-8"?>
<svg width="96px" height="96px" viewBox="0 0 96 96" version="1.1" xmlns="http://www.w3.org/2000/svg" xmlns:xlink="http://www.w3.org/1999/xlink">
    <title>basque-country</title>
    <desc>designed by Freepik from Flaticon</desc>
    <defs>
        <polygon id="path-1" points="0.0140487805 0.0934306569 0.0140487805 95.7668905 95.9068098 95.7668905 95.9068098 0.0934306569"></polygon>
        <polygon id="path-3" points="0.0140487805 0.0934306569 0.0140487805 95.7668905 95.9068098 95.7668905 95.9068098 0.0934306569"></polygon>
    </defs>
    <g id="Page-1" stroke="none" stroke-width="1" fill="none" fill-rule="evenodd">
        <g id="basque-country">
            <g id="Group-3">
                <mask id="mask-2" fill="white">
                    <use xlink:href="#path-1"></use>
                </mask>
                <g id="Clip-2"></g>
                <path d="M95.9068098,47.9301606 C95.9068098,74.3488467 74.4365268,95.7668905 47.9534049,95.7668905 C21.4691122,95.7668905 0,74.3488467 0,47.9301606 C0,21.5103066 21.4691122,0.0934306569 47.9534049,0.0934306569 C74.4365268,0.0934306569 95.9068098,21.5103066 95.9068098,47.9301606 Z" id="Fill-1" fill="#F3F3F3" mask="url(#mask-2)"></path>
            </g>
            <path d="M0.406009756,54.1692263 C1.52195122,62.7111241 4.89787317,70.5431825 9.9137561,77.0531971 L35.4439024,54.1692263 L0.406009756,54.1692263 Z" id="Fill-4" fill="#D80027"></path>
            <path d="M41.6981854,95.361635 L41.6981854,60.4092263 L18.7591024,85.8772555 C25.2840585,90.8809343 33.1354537,94.2486423 41.6981854,95.361635 Z" id="Fill-5" fill="#D80027"></path>
            <path d="M41.6981854,0.498452555 C33.1354537,1.61167883 25.2840585,4.97845255 18.7591024,9.98213139 L41.6981854,35.4510949 L41.6981854,0.498452555 Z" id="Fill-6" fill="#D80027"></path>
            <path d="M0.406009756,41.6901606 L35.4439024,41.6901606 L9.91281951,18.8068905 C4.89693659,25.3159708 1.52195122,33.1482628 0.406009756,41.6901606 Z" id="Fill-7" fill="#D80027"></path>
            <path d="M54.2076878,0.498452555 L54.2076878,35.4510949 L77.1474732,9.98213139 C70.6225171,4.97938686 62.7713561,1.61074453 54.2076878,0.498452555 Z" id="Fill-8" fill="#D80027"></path>
            <path d="M95.5005659,41.6901606 C94.3848585,33.1482628 91.0089366,25.3159708 85.9930537,18.8059562 L60.4629073,41.6901606 L95.5005659,41.6901606 Z" id="Fill-9" fill="#D80027"></path>
            <path d="M60.4629073,54.1692263 L85.9930537,77.0531971 C91.0089366,70.5431825 94.3848585,62.7111241 95.5005659,54.1692263 L60.4629073,54.1692263 Z" id="Fill-10" fill="#D80027"></path>
            <path d="M54.2076878,95.361635 C62.7704195,94.2486423 70.6225171,90.8809343 77.1474732,85.8772555 L54.2076878,60.4092263 L54.2076878,95.361635 Z" id="Fill-11" fill="#D80027"></path>
            <g id="Group-15">
                <mask id="mask-4" fill="white">
                    <use xlink:href="#path-3"></use>
                </mask>
                <g id="Clip-13"></g>
                <path d="M85.9965659,77.0569343 L56.7987512,47.9301606 L85.9965659,18.8024526 C84.7380293,17.1699854 83.3607805,15.5998832 81.8615415,14.104292 C80.3625366,12.6089343 78.7883707,11.2348029 77.1512195,9.97839416 L47.9534049,39.1061022 L18.7555902,9.97839416 C17.1182049,11.2348029 15.5442732,12.6089343 14.0450341,14.104292 C12.5460293,15.5998832 11.1685463,17.1699854 9.90907317,18.8033869 L39.1078244,47.9301606 L9.91000976,77.0569343 C11.1685463,78.6891679 12.5460293,80.2595036 14.0450341,81.7557956 C15.5442732,83.2513869 17.1182049,84.6252847 18.7555902,85.8807591 L47.9534049,56.7539854 L77.1512195,85.8807591 C78.7874341,84.6252847 80.3616,83.2513869 81.8615415,81.7557956 C83.3607805,80.2595036 84.7380293,78.6891679 85.9965659,77.0569343 Z" id="Fill-12" fill="#496E2D" mask="url(#mask-4)"></path>
                <path d="M54.2076878,95.361635 L54.2076878,54.1692263 L95.5005659,54.1692263 C95.7677268,52.1272993 95.9068098,50.0449635 95.9068098,47.9301606 C95.9068098,45.8151241 95.7667902,43.7330219 95.5005659,41.6910949 L54.2086244,41.6910949 L54.2076878,41.6901606 L54.2076878,0.498452555 C52.1607805,0.233109489 50.0733659,0.0934306569 47.9534049,0.0934306569 C45.8332098,0.0934306569 43.7460293,0.233109489 41.6981854,0.498452555 L41.699122,41.6901606 L0.406009756,41.6901606 C0.139082927,43.7330219 0,45.8151241 0,47.9301606 C0,50.0449635 0.139082927,52.1272993 0.406009756,54.1692263 L41.6981854,54.1692263 L41.6981854,95.361635 C43.7460293,95.6272117 45.8332098,95.7668905 47.9534049,95.7668905 C50.0733659,95.7668905 52.1607805,95.6272117 54.2076878,95.361635 Z" id="Fill-14" fill="#F3F3F3" mask="url(#mask-4)"></path>
            </g>
        </g>
    </g>
</svg>