<?xml version="1.0" encoding="UTF-8"?>
<svg width="96px" height="96px" viewBox="0 0 96 96" version="1.1" xmlns="http://www.w3.org/2000/svg" xmlns:xlink="http://www.w3.org/1999/xlink">
    <title>belarus</title>
    <desc>designed by Freepik from Flaticon</desc>
    <defs>
        <polygon id="path-1" points="0.0140487805 0.0934306569 0.0140487805 95.7668905 95.9068098 95.7668905 95.9068098 0.0934306569"></polygon>
    </defs>
    <g id="Page-1" stroke="none" stroke-width="1" fill="none" fill-rule="evenodd">
        <g id="belarus">
            <g id="Group-3">
                <mask id="mask-2" fill="white">
                    <use xlink:href="#path-1"></use>
                </mask>
                <g id="Clip-2"></g>
                <path d="M95.9068098,47.9301606 C95.9068098,74.3488467 74.4365268,95.7668905 47.9534049,95.7668905 C21.4691122,95.7668905 0,74.3488467 0,47.9301606 C0,21.5103066 21.4691122,0.0934306569 47.9534049,0.0934306569 C74.4365268,0.0934306569 95.9068098,21.5103066 95.9068098,47.9301606 Z" id="Fill-1" fill="#FDFDFD" mask="url(#mask-2)"></path>
            </g>
            <polygon id="Fill-4" fill="#A2001D" points="19.806439 44.4638832 14.5948098 35.0304234 19.806439 25.7448175 25.0190049 35.0304234"></polygon>
            <polygon id="Fill-5" fill="#A2001D" points="9.3822439 44.4638832 4.1699122 35.0304234 9.3822439 25.7448175 14.5948098 35.0304234"></polygon>
            <polygon id="Fill-6" fill="#A2001D" points="19.806439 70.1152701 14.5948098 60.6820438 19.806439 51.396438 25.0190049 60.6820438"></polygon>
            <polygon id="Fill-7" fill="#A2001D" points="9.3822439 70.1152701 4.1699122 60.6820438 9.3822439 51.396438 14.5948098 60.6820438"></polygon>
            <path d="M25.0190049,9.3790365 L23.5436488,6.75036496 C20.8966244,8.31416058 18.414439,10.1262482 16.1268293,12.1518248 L19.806439,18.8124964 L25.0190049,9.3790365 Z" id="Fill-8" fill="#A2001D"></path>
            <path d="M19.806439,77.0478248 L16.0874927,83.6727591 C18.3732293,85.702073 20.8535415,87.5157956 23.4996293,89.0833285 L25.0190049,86.3334307 L19.806439,77.0478248 Z" id="Fill-9" fill="#A2001D"></path>
            <path d="M29.1886829,60.4092263 L29.1886829,91.9628613 C34.9526634,94.4100438 41.2938146,95.7668905 47.9534049,95.7668905 C68.5709268,95.7668905 86.1485268,82.7849343 92.9240195,64.5687591 L29.1886829,60.4092263 Z" id="Fill-10" fill="#6DA544"></path>
            <path d="M92.9240195,64.5687591 C94.851278,59.3863942 95.9068098,53.7814891 95.9068098,47.9301606 C95.9068098,21.5103066 74.4365268,0.0934306569 47.9534049,0.0934306569 C41.2938146,0.0934306569 34.9526634,1.44840876 29.1886829,3.89535766 L29.1886829,64.5687591 L92.9240195,64.5687591 Z" id="Fill-11" fill="#A2001D"></path>
        </g>
    </g>
</svg>