<?xml version="1.0" encoding="UTF-8"?>
<svg width="96px" height="96px" viewBox="0 0 96 96" version="1.1" xmlns="http://www.w3.org/2000/svg" xmlns:xlink="http://www.w3.org/1999/xlink">
    <title>belize</title>
    <desc>designed by Freepik from Flaticon</desc>
    <defs>
        <polygon id="path-1" points="0.0140487805 0.0259270073 0.0140487805 83.2203212 95.9068098 83.2203212 95.9068098 0.0259270073"></polygon>
    </defs>
    <g id="Page-1" stroke="none" stroke-width="1" fill="none" fill-rule="evenodd">
        <g id="belize">
            <g id="Group-3" transform="translate(0.000000, 6.306569)">
                <mask id="mask-2" fill="white">
                    <use xlink:href="#path-1"></use>
                </mask>
                <g id="Clip-2"></g>
                <path d="M95.9068098,41.6235912 C95.9068098,25.2057226 87.6138146,10.7211679 74.9806829,2.10616058 L47.9534049,0.0259270073 L20.9258927,2.10616058 C8.29205854,10.7211679 0,25.2057226 0,41.6235912 C0,58.0414599 8.29205854,72.5250803 20.9258927,81.139854 L47.9534049,83.2203212 L74.9806829,81.1407883 C87.6138146,72.5250803 95.9068098,58.0414599 95.9068098,41.6235912 Z" id="Fill-1" fill="#0052B4" mask="url(#mask-2)"></path>
            </g>
            <path d="M74.9806829,8.41272993 C67.2849951,3.16449635 57.9795512,0.0934306569 47.9534049,0.0934306569 C37.9270244,0.0934306569 28.6215805,3.16449635 20.9258927,8.41272993 L74.9806829,8.41272993 Z" id="Fill-4" fill="#A2001D"></path>
            <path d="M20.9258927,87.4464234 C28.6215805,92.6955912 37.9270244,95.7668905 47.9534049,95.7668905 C57.9795512,95.7668905 67.2849951,92.6955912 74.9806829,87.4464234 L20.9258927,87.4464234 Z" id="Fill-5" fill="#A2001D"></path>
            <path d="M70.8868683,47.9301606 C70.8868683,60.5652555 60.6193171,70.8078248 47.9534049,70.8078248 C35.2865561,70.8078248 25.0190049,60.5652555 25.0190049,47.9301606 C25.0190049,35.2941314 35.2865561,25.051562 47.9534049,25.051562 C60.6193171,25.051562 70.8868683,35.2941314 70.8868683,47.9301606 Z" id="Fill-6" fill="#F3F3F3"></path>
            <path d="M66.7171902,47.9301606 C66.7171902,58.2677956 58.3162537,66.6480584 47.9534049,66.6480584 C37.5896195,66.6480584 29.1886829,58.2677956 29.1886829,47.9301606 C29.1886829,37.5915912 37.5896195,29.2110949 47.9534049,29.2110949 C58.3162537,29.2110949 66.7171902,37.5915912 66.7171902,47.9301606 Z" id="Fill-7" fill="#6DA544"></path>
            <path d="M60.4629073,47.9301606 C60.4629073,54.8216058 54.8616585,60.4092263 47.9534049,60.4092263 C41.0442146,60.4092263 35.4439024,54.8216058 35.4439024,47.9301606 C35.4439024,41.037781 41.0442146,35.4510949 47.9534049,35.4510949 C54.8616585,35.4510949 60.4629073,41.037781 60.4629073,47.9301606 Z" id="Fill-8" fill="#F3F3F3"></path>
            <polygon id="Fill-9" fill="#0052B4" points="47.9534049 44.8095766 41.1767415 47.9301606 41.1767415 53.1298102 47.9534049 57.2895766 54.7288976 53.1298102 54.7288976 47.9301606"></polygon>
            <polygon id="Fill-10" fill="#FFDA44" points="41.1767415 47.9301606 54.7288976 47.9301606 54.7288976 41.6901606 41.1767415 41.6901606"></polygon>
        </g>
    </g>
</svg>