<?xml version="1.0" encoding="UTF-8"?>
<svg width="96px" height="96px" viewBox="0 0 96 96" version="1.1" xmlns="http://www.w3.org/2000/svg" xmlns:xlink="http://www.w3.org/1999/xlink">
    <title>bhutan</title>
    <desc>designed by Freepik from Flaticon</desc>
    <defs>
        <polygon id="path-1" points="0.0140487805 0.0929635036 0.0140487805 95.7668321 95.9062829 95.7668321 95.9062829 0.0929635036"></polygon>
    </defs>
    <g id="Page-1" stroke="none" stroke-width="1" fill="none" fill-rule="evenodd">
        <g id="bhutan">
            <g id="Group-4">
                <mask id="mask-2" fill="white">
                    <use xlink:href="#path-1"></use>
                </mask>
                <g id="Clip-2"></g>
                <path d="M81.8615415,81.755562 C63.1345171,100.437255 32.7722927,100.437255 14.0450341,81.755562 C-4.68199024,63.0741022 -4.68199024,32.7857518 14.0450341,14.1040584 C14.0515902,14.1040584 57.1389659,1.40332847 75.8662244,20.0850219 C94.5932488,38.7664818 81.8744195,81.7427153 81.8615415,81.755562 Z" id="Fill-1" fill="#FFDA44" mask="url(#mask-2)"></path>
                <path d="M81.8615415,81.755562 C100.587863,63.0741022 100.587863,32.7857518 81.8615415,14.1040584 C63.1345171,-4.57740146 32.7722927,-4.57740146 14.0450341,14.1040584 L81.8615415,81.755562 Z" id="Fill-3" fill="#D80027" mask="url(#mask-2)"></path>
            </g>
            <path d="M60.4874927,60.4379562 C58.518322,61.209927 56.2290732,61.1286423 54.243278,60.0165839 C50.7348293,58.0522044 49.4826146,53.6058394 51.4517854,50.105927 L50.854478,49.7709781 C56.8619707,48.3267737 61.3060683,42.8870073 61.2283317,36.4680876 C61.1798634,32.4771971 59.3926244,28.9069781 56.5966829,26.4635328 L52.2183805,30.9381606 C53.8728585,32.2536642 54.9466537,34.2729343 54.9740488,36.5430657 C55.0225171,40.5575474 51.7894244,43.8624234 47.7658537,43.9107737 L47.7740488,44.5939854 C43.5156293,40.1268321 36.5715512,39.0072993 31.0382049,42.2839124 C27.5981268,44.3211679 25.392,47.6505693 24.6694244,51.2875912 L30.7427122,52.8331679 C31.0574049,50.7445255 32.2728585,48.8084088 34.2310244,47.649635 C37.691239,45.6004672 42.1765463,46.7419562 44.2307122,50.1935182 L44.8198244,49.8440876 C43.0709854,55.7563796 45.5707317,62.3159124 51.1829854,65.458219 C54.6712976,67.4116204 58.6646634,67.652438 62.1841171,66.4581606 L60.4874927,60.4379562 Z" id="Fill-5" fill="#FF9811"></path>
            <polygon id="Fill-6" fill="#FFEACF" points="65.7082537 32.4919124 62.3185171 44.5575474 52.1497756 42.6844964 45.6037463 29.223708 27.9191415 35.4837956 26.5252683 31.5629781 21.8980683 30.9946861 25.3847415 40.7957956 37.5540293 37.6908613 41.0121366 47.4125547 32.5994927 59.7974891 46.8768 71.9453431 44.1705366 75.1096058 45.9905561 79.3915328 52.7559805 71.4791241 43.9754927 62.5184234 50.686361 54.669781 65.6450341 55.7447007 69.0520976 37.3367591 73.1524683 38.092146 75.9603512 34.3796788"></polygon>
        </g>
    </g>
</svg>