<?xml version="1.0" encoding="UTF-8"?>
<svg width="96px" height="96px" viewBox="0 0 96 96" version="1.1" xmlns="http://www.w3.org/2000/svg" xmlns:xlink="http://www.w3.org/1999/xlink">
    <title>bosnia-and-herzegovina</title>
    <desc>designed by Freepik from Flaticon</desc>
    <defs>
        <polygon id="path-1" points="0.0140487805 0.0934306569 0.0140487805 95.7668905 95.9068098 95.7668905 95.9068098 0.0934306569"></polygon>
        <polygon id="path-3" points="0.0140487805 0.0604963504 0.0140487805 80.1172555 95.9068098 80.1172555 95.9068098 0.0604963504"></polygon>
    </defs>
    <g id="Page-1" stroke="none" stroke-width="1" fill="none" fill-rule="evenodd">
        <g id="bosnia-and-herzegovina">
            <g id="Group-3">
                <mask id="mask-2" fill="white">
                    <use xlink:href="#path-1"></use>
                </mask>
                <g id="Clip-2"></g>
                <path d="M95.9068098,47.9301606 C95.9068098,74.3488467 74.4365268,95.7668905 47.9534049,95.7668905 C21.4691122,95.7668905 0,74.3488467 0,47.9301606 C0,21.5103066 21.4691122,0.0934306569 47.9534049,0.0934306569 C74.4365268,0.0934306569 95.9068098,21.5103066 95.9068098,47.9301606 Z" id="Fill-1" fill="#F3F3F3" mask="url(#mask-2)"></path>
            </g>
            <path d="M47.9534049,0.0934306569 C30.9504,0.0934306569 16.0151415,8.9209927 7.50087805,22.2320584 L72.529639,89.0113869 C86.5308878,80.658219 95.9068098,65.3872117 95.9068098,47.9301606 C95.9068098,21.5103066 74.4365268,0.0934306569 47.9534049,0.0934306569 Z" id="Fill-4" fill="#FFDA44"></path>
            <g id="Group-8" transform="translate(0.000000, 15.649635)">
                <mask id="mask-4" fill="white">
                    <use xlink:href="#path-3"></use>
                </mask>
                <g id="Clip-6"></g>
                <path d="M95.9068098,32.2805255 C95.9068098,19.8689635 91.167922,8.56245255 83.3963707,0.0604963504 L83.3963707,64.5003212 C91.167922,55.9985985 95.9068098,44.691854 95.9068098,32.2805255 Z" id="Fill-5" fill="#0052B4" mask="url(#mask-4)"></path>
                <path d="M59.9021268,74.4875912 L64.9243317,74.483854 L66.4746146,69.7174891 L68.0295805,74.482219 L70.5485268,74.4803504 C72.0931902,73.6553577 73.5877463,72.7495474 75.025639,71.7659562 L8.37073171,5.27322628 C7.27235122,6.87252555 6.27067317,8.54143066 5.3699122,10.2722336 L5.96253659,12.0871241 L10.9847415,12.0833869 L6.92370732,15.0313577 L8.47867317,19.7960876 L4.41319024,16.8534891 L1.98837073,18.6125547 C0.695180488,22.9437664 0,27.5305109 0,32.2805255 C0,58.6992117 21.4691122,80.1172555 47.9534049,80.1172555 C53.5527805,80.1172555 58.9271415,79.1581898 63.9219512,77.3972555 L59.9021268,74.4875912 Z M10.6958049,30.200292 L12.2451512,25.4336934 L8.17966829,22.4913285 L13.2028098,22.4875912 L14.7521561,17.7212263 L16.307122,22.4857226 L21.3302634,22.4829197 L17.2673561,25.4301898 L18.8232585,30.1956204 L14.7575415,27.2520876 L10.6958049,30.200292 Z M21.0401561,40.5998248 L22.5897366,35.8334599 L18.5240195,32.889927 L23.547161,32.8871241 L25.0967415,28.1207591 L26.6514732,32.8854891 L31.6746146,32.8817518 L27.612878,35.8297226 L29.1676098,40.5944526 L25.1021268,37.651854 L21.0401561,40.5998248 Z M31.3847415,50.9984234 L32.9340878,46.2320584 L28.8686049,43.2896934 L33.8917463,43.2859562 L35.4410927,38.5195912 L36.9960585,43.2840876 L42.0192,43.2812847 L37.9572293,46.2294891 L39.5121951,50.9939854 L35.4467122,48.0504526 L31.3847415,50.9984234 Z M45.7910634,58.450219 L41.7293268,61.3981898 L43.2777366,56.6318248 L39.2131902,53.688292 L44.2363317,53.6854891 L45.785678,48.9191241 L47.3406439,53.683854 L52.3637854,53.6801168 L48.3018146,56.6280876 L49.8567805,61.3925839 L45.7910634,58.450219 Z M52.073678,71.7967883 L53.622322,67.0304234 L49.5575415,64.0880584 L54.5806829,64.0843212 L56.1302634,59.3179562 L57.6849951,64.0824526 L62.7072,64.0796496 L58.6464,67.0276204 L60.2011317,71.7923504 L56.1356488,68.8488175 L52.073678,71.7967883 Z" id="Fill-7" fill="#0052B4" mask="url(#mask-4)"></path>
            </g>
        </g>
    </g>
</svg>