<?xml version="1.0" encoding="UTF-8"?>
<svg width="96px" height="96px" viewBox="0 0 96 96" version="1.1" xmlns="http://www.w3.org/2000/svg" xmlns:xlink="http://www.w3.org/1999/xlink">
    <title>brazil</title>
    <desc>designed by Freepik from Flaticon</desc>
    <defs>
        <polygon id="path-1" points="0.0140487805 0.0934306569 0.0140487805 95.7668905 95.9068098 95.7668905 95.9068098 0.0934306569"></polygon>
    </defs>
    <g id="Page-1" stroke="none" stroke-width="1" fill="none" fill-rule="evenodd">
        <g id="brazil">
            <g id="Group-3">
                <mask id="mask-2" fill="white">
                    <use xlink:href="#path-1"></use>
                </mask>
                <g id="Clip-2"></g>
                <path d="M95.9068098,47.9301606 C95.9068098,74.3488467 74.4365268,95.7668905 47.9534049,95.7668905 C21.4691122,95.7668905 0,74.3488467 0,47.9301606 C0,21.5103066 21.4691122,0.0934306569 47.9534049,0.0934306569 C74.4365268,0.0934306569 95.9068098,21.5103066 95.9068098,47.9301606 Z" id="Fill-1" fill="#6DA544" mask="url(#mask-2)"></path>
            </g>
            <polygon id="Fill-4" fill="#FFDA44" points="47.9534049 18.8124964 87.5660488 47.9301606 47.9534049 77.0478248 8.33959024 47.9301606"></polygon>
            <path d="M64.6325854,47.9301606 C64.6325854,57.1190657 57.164722,64.5687591 47.9534049,64.5687591 C38.7411512,64.5687591 31.2739902,57.1190657 31.2739902,47.9301606 C31.2739902,38.7403212 38.7411512,31.2913285 47.9534049,31.2913285 C57.164722,31.2913285 64.6325854,38.7403212 64.6325854,47.9301606 Z" id="Fill-5" fill="#F3F3F3"></path>
            <path d="M39.6138146,46.8900438 C36.7134439,46.8900438 33.9137561,47.329635 31.2796098,48.1464526 C31.3957463,57.235854 38.814439,64.5687591 47.9534049,64.5687591 C53.6040585,64.5687591 58.595122,61.7630365 61.6125659,57.4738686 C56.4503415,51.0276204 48.5076293,46.8900438 39.6138146,46.8900438 Z" id="Fill-6" fill="#0052B4"></path>
            <path d="M64.3235122,51.1180146 C64.5237073,50.0851387 64.6325854,49.0204964 64.6325854,47.9301606 C64.6325854,38.7403212 57.164722,31.2913285 47.9534049,31.2913285 C41.0798049,31.2913285 35.1795512,35.4401168 32.6259512,41.3626861 C34.883122,40.8962336 37.2201366,40.6509781 39.6138146,40.6509781 C49.3016195,40.6500438 58.0654829,44.6673285 64.3235122,51.1180146 Z" id="Fill-7" fill="#0052B4"></path>
        </g>
    </g>
</svg>