<?xml version="1.0" encoding="UTF-8"?>
<svg width="96px" height="96px" viewBox="0 0 96 96" version="1.1" xmlns="http://www.w3.org/2000/svg" xmlns:xlink="http://www.w3.org/1999/xlink">
    <title>british-columbia</title>
    <desc>designed by Freepik from Flaticon</desc>
    <defs>
        <polygon id="path-1" points="0.0140145985 0.0934306569 0.0140145985 47.9301606 95.6734599 47.9301606 95.6734599 0.0934306569"></polygon>
        <polygon id="path-3" points="0.0140145985 0.0532554745 0.0140145985 11.4922044 62.9306861 11.4922044 62.9306861 0.0532554745 0.0140145985 0.0532554745"></polygon>
        <polygon id="path-5" points="0.0140145985 0.0843211679 0.0140145985 93.1975474 95.6734599 93.1975474 95.6734599 0.0843211679"></polygon>
        <polygon id="path-7" points="95.7664234 7.92105109 95.7664234 0.178218978 0.0140145985 0.178218978 0.0140145985 7.92105109 95.7664234 7.92105109"></polygon>
    </defs>
    <g id="Page-1" stroke="none" stroke-width="1" fill="none" fill-rule="evenodd">
        <g id="british-columbia">
            <g id="Group-3">
                <mask id="mask-2" fill="white">
                    <use xlink:href="#path-1"></use>
                </mask>
                <g id="Clip-2"></g>
                <path d="M0,47.9301606 C0,21.5103066 21.4168759,0.0934306569 47.8367299,0.0934306569 C74.2554161,0.0934306569 95.6734599,21.5103066 95.6734599,47.9301606 L0,47.9301606 Z" id="Fill-1" fill="#F3F3F3" mask="url(#mask-2)"></path>
            </g>
            <polygon id="Fill-4" fill="#0052B4" points="35.3576642 45.3150365 32.7418394 47.9301606 35.3576642 47.9301606"></polygon>
            <g id="Group-8" transform="translate(0.000000, 36.437956)">
                <mask id="mask-4" fill="white">
                    <use xlink:href="#path-3"></use>
                </mask>
                <g id="Clip-6"></g>
                <polygon id="Fill-5" fill="#0052B4" mask="url(#mask-4)" points="60.3157956 8.87708029 60.3157956 11.4922044 62.9306861 11.4922044"></polygon>
                <path d="M1.38043796,0.0532554745 C0.480934307,3.71854015 0,7.54872993 0,11.4922044 L15.0939562,11.4922044 L26.5329051,0.0532554745 L1.38043796,0.0532554745 Z" id="Fill-7" fill="#0052B4" mask="url(#mask-4)"></path>
            </g>
            <path d="M69.1396204,36.4912117 L80.5785693,47.9301606 L95.6734599,47.9301606 C95.6734599,43.9866861 95.1925255,40.1564964 94.2927883,36.4912117 L69.1396204,36.4912117 Z" id="Fill-9" fill="#0052B4"></path>
            <polygon id="Fill-10" fill="#D80027" points="66.1979562 36.4912117 60.3157956 36.4912117 71.7545109 47.9301606 77.6378394 47.9301606"></polygon>
            <polygon id="Fill-11" fill="#D80027" points="35.3576642 42.3736058 35.3576642 36.4912117 35.3567299 36.4912117 23.917781 47.9301606 29.8011095 47.9301606"></polygon>
            <path d="M22.4088759,7.40718248 C20.4370219,8.64724088 18.5621022,10.0267445 16.798365,11.5323796 L26.5338394,11.5323796 L22.4088759,7.40718248 Z" id="Fill-12" fill="#0052B4"></path>
            <path d="M78.8750949,11.5323796 C77.1104234,10.0267445 75.2362044,8.64724088 73.2645839,7.40718248 L69.1396204,11.5323796 L78.8750949,11.5323796 Z" id="Fill-13" fill="#0052B4"></path>
            <path d="M54.0757956,30.2512117 L92.2982774,30.2512117 C90.489927,25.7065109 88.0046715,21.5068029 84.9672409,17.772146 L54.0757956,17.772146 L54.0757956,0.498452555 C52.0338686,0.232175182 49.9515328,0.0934306569 47.8367299,0.0934306569 C45.7216934,0.0934306569 43.6395912,0.232175182 41.5967299,0.498452555 L41.5967299,17.772146 L10.7052847,17.772146 C7.66878832,21.5068029 5.18329927,25.7065109 3.3740146,30.2512117 L41.5967299,30.2512117 L41.5967299,47.9301606 L54.0757956,47.9301606 L54.0757956,30.2512117 Z" id="Fill-14" fill="#D80027"></path>
            <path d="M35.3576642,11.5323796 L28.1459854,4.32070073 C26.8129635,4.92379562 25.5128759,5.58785401 24.2480584,6.30610219 L29.4752701,11.5323796 L35.3576642,11.5323796 Z" id="Fill-15" fill="#D80027"></path>
            <g id="Group-19" transform="translate(0.000000, 2.569343)">
                <mask id="mask-6" fill="white">
                    <use xlink:href="#path-5"></use>
                </mask>
                <g id="Clip-17"></g>
                <path d="M60.3157956,8.9630365 L67.5274745,1.75135766 C66.1559124,1.13167883 64.7490803,0.575065693 63.3121168,0.0843211679 L60.3157956,3.08064234 L60.3157956,8.9630365 Z" id="Fill-16" fill="#D80027" mask="url(#mask-6)"></path>
                <path d="M95.6734599,45.3608175 C95.6734599,71.7795036 74.2554161,93.1975474 47.8367299,93.1975474 C21.4168759,93.1975474 0,71.7795036 0,45.3608175 L95.6734599,45.3608175 Z" id="Fill-18" fill="#F3F3F3" mask="url(#mask-6)"></path>
            </g>
            <path d="M87.699854,54.0314161 C83.7134015,54.0314161 83.7134015,50.386219 79.7271825,50.386219 C75.7409635,50.386219 75.7409635,54.0314161 71.7545109,54.0314161 C67.768292,54.0314161 67.768292,50.386219 63.7818394,50.386219 C59.7956204,50.386219 59.7956204,54.0314161 55.8094015,54.0314161 C51.8229489,54.0314161 51.8220146,50.386219 47.8357956,50.386219 C43.8493431,50.386219 43.8493431,54.0314161 39.8631241,54.0314161 C35.8778394,54.0314161 35.8778394,50.386219 31.8913869,50.386219 C27.9042336,50.386219 27.9042336,54.0314161 23.917781,54.0314161 C19.931562,54.0314161 19.931562,50.386219 15.9444088,50.386219 C11.9588905,50.386219 11.9588905,54.0314161 7.97267153,54.0314161 C4.00724088,54.0314161 3.98458394,50.4263942 0.0621313869,50.3880876 C0.172379562,52.576 0.434218978,54.7239708 0.82849635,56.824292 C4.00630657,57.2914453 4.28472993,60.4092263 7.97267153,60.4092263 C11.9588905,60.4092263 11.9588905,56.7649635 15.9444088,56.7649635 C19.931562,56.7649635 19.931562,60.4092263 23.917781,60.4092263 C27.9051679,60.4092263 27.9051679,56.7649635 31.8913869,56.7649635 C35.8778394,56.7649635 35.8778394,60.4092263 39.8631241,60.4092263 C43.8493431,60.4092263 43.8493431,56.7649635 47.8357956,56.7649635 C51.8229489,56.7649635 51.8229489,60.4092263 55.8094015,60.4092263 C59.7956204,60.4092263 59.7956204,56.7649635 63.7818394,56.7649635 C67.768292,56.7649635 67.768292,60.4092263 71.7545109,60.4092263 C75.7409635,60.4092263 75.7409635,56.7649635 79.7271825,56.7649635 C83.7134015,56.7649635 83.7134015,60.4092263 87.699854,60.4092263 C91.3887299,60.4092263 91.6659854,57.2914453 94.8440292,56.8252263 C95.2390073,54.7239708 95.4999124,52.576 95.6113285,50.3880876 C91.6879416,50.4263942 91.6643504,54.0314161 87.699854,54.0314161 Z" id="Fill-20" fill="#0052B4"></path>
            <path d="M79.7271825,62.8652847 C75.7409635,62.8652847 75.7409635,66.5104818 71.7545109,66.5104818 C67.768292,66.5104818 67.768292,62.8652847 63.7818394,62.8652847 C59.7956204,62.8652847 59.7956204,66.5104818 55.8094015,66.5104818 C51.8220146,66.5104818 51.8220146,62.8652847 47.8357956,62.8652847 C43.8493431,62.8652847 43.8493431,66.5104818 39.8631241,66.5104818 C35.8778394,66.5104818 35.8778394,62.8652847 31.8913869,62.8652847 C27.9042336,62.8652847 27.9042336,66.5104818 23.917781,66.5104818 C19.931562,66.5104818 19.931562,62.8652847 15.9444088,62.8652847 C11.9588905,62.8652847 11.9588905,66.5104818 7.97267153,66.5104818 C5.12420438,66.5104818 4.31018978,64.6500438 2.624,63.5870365 C3.74633577,66.8307153 5.20712409,69.9164964 6.96618978,72.8004672 C7.27194161,72.8572263 7.6050219,72.8880584 7.97267153,72.8880584 C11.9588905,72.8880584 11.9588905,69.2440292 15.9444088,69.2440292 C19.931562,69.2440292 19.931562,72.8880584 23.917781,72.8880584 C27.9042336,72.8880584 27.9042336,69.2440292 31.8913869,69.2440292 C35.8778394,69.2440292 35.8778394,72.8880584 39.8631241,72.8880584 C43.8493431,72.8880584 43.8493431,69.2440292 47.8357956,69.2440292 C51.8220146,69.2440292 51.8220146,72.8880584 55.8094015,72.8880584 C59.7956204,72.8880584 59.7956204,69.2440292 63.7818394,69.2440292 C67.768292,69.2440292 67.768292,72.8880584 71.7545109,72.8880584 C75.7409635,72.8880584 75.7409635,69.2440292 79.7271825,69.2440292 C83.7134015,69.2440292 83.7134015,72.8880584 87.699854,72.8880584 C88.0675036,72.8880584 88.4005839,72.8572263 88.7061022,72.8004672 C90.4654015,69.9164964 91.9261898,66.8307153 93.048292,63.5870365 C91.3623358,64.6491095 90.5483212,66.5104818 87.699854,66.5104818 C83.7134015,66.5104818 83.7134015,62.8652847 79.7271825,62.8652847 Z" id="Fill-21" fill="#0052B4"></path>
            <g id="Group-26" transform="translate(0.000000, 46.248175)">
                <mask id="mask-8" fill="white">
                    <use xlink:href="#path-7"></use>
                </mask>
                <g id="Clip-23"></g>
                <path d="M0,1.6819854 C0,2.55322628 0.0245255474,3.41909489 0.0712408759,4.27865693 C3.98458394,4.32233577 4.0109781,7.92105109 7.97267153,7.92105109 C11.9588905,7.92105109 11.9588905,4.27678832 15.9444088,4.27678832 C19.931562,4.27678832 19.931562,7.92105109 23.917781,7.92105109 C27.9051679,7.92105109 27.9051679,4.27678832 31.8913869,4.27678832 C35.8778394,4.27678832 35.8778394,7.92105109 39.8631241,7.92105109 C43.8493431,7.92105109 43.8493431,4.27678832 47.8357956,4.27678832 C51.8229489,4.27678832 51.8229489,7.92105109 55.8094015,7.92105109 C59.7956204,7.92105109 59.7956204,4.27678832 63.7818394,4.27678832 C67.768292,4.27678832 67.768292,7.92105109 71.7545109,7.92105109 C75.7409635,7.92105109 75.7409635,4.27678832 79.7271825,4.27678832 C83.7134015,4.27678832 83.7134015,7.92105109 87.699854,7.92105109 C91.6624818,7.92105109 91.6879416,4.32233577 95.602219,4.27865693 C95.6487007,3.41816058 95.6734599,2.55322628 95.6734599,1.6819854 L0,1.6819854 Z" id="Fill-25" fill="#F3F3F3" mask="url(#mask-8)"></path>
            </g>
            <path d="M79.7271825,75.3443504 C75.7409635,75.3443504 75.7409635,78.9893139 71.7545109,78.9893139 C67.768292,78.9893139 67.768292,75.3443504 63.7818394,75.3443504 C59.7956204,75.3443504 59.7956204,78.9893139 55.8094015,78.9893139 C51.8220146,78.9893139 51.8220146,75.3443504 47.8357956,75.3443504 C43.8493431,75.3443504 43.8493431,78.9893139 39.8631241,78.9893139 C35.8778394,78.9893139 35.8778394,75.3443504 31.8913869,75.3443504 C27.9042336,75.3443504 27.9042336,78.9893139 23.917781,78.9893139 C19.931562,78.9893139 19.931562,75.3443504 15.9444088,75.3443504 C13.191708,75.3443504 12.3393869,77.0823942 10.7618102,78.1582482 C14.9461022,83.2831533 20.1723796,87.5223358 26.1159708,90.5569635 L47.8367299,89.4628905 L69.5574891,90.5569635 C75.4999124,87.5214015 80.7261898,83.2831533 84.9104818,78.1591825 C83.3322044,77.0833285 82.4808175,75.3443504 79.7271825,75.3443504 Z" id="Fill-28" fill="#0052B4"></path>
            <path d="M74.3677664,76.4849051 L59.815708,79.2686715 L57.9725547,64.5687591 L47.8367299,75.379854 L37.7006715,64.5687591 L35.8568175,79.2677372 L21.3056934,76.4849051 L28.4416934,89.4628905 L26.1112993,90.5588321 C32.6304234,93.8882336 40.013781,95.7668905 47.8367299,95.7668905 C55.6587445,95.7668905 63.0428029,93.8882336 69.561927,90.5588321 L67.2317664,89.4628905 L74.3677664,76.4849051 Z" id="Fill-29" fill="#FFDA44"></path>
        </g>
    </g>
</svg>