<?xml version="1.0" encoding="UTF-8"?>
<svg width="96px" height="96px" viewBox="0 0 96 96" version="1.1" xmlns="http://www.w3.org/2000/svg" xmlns:xlink="http://www.w3.org/1999/xlink">
    <title>british-indian-ocean-territory</title>
    <desc>designed by Freepik from Flaticon</desc>
    <defs>
        <polygon id="path-1" points="0.0140487805 0.0934306569 0.0140487805 95.7668905 95.9068098 95.7668905 95.9068098 0.0934306569"></polygon>
        <polygon id="path-3" points="0.0140487805 0.0934306569 0.0140487805 47.9301606 47.9534049 47.9301606 47.9534049 0.0934306569"></polygon>
    </defs>
    <g id="Page-1" stroke="none" stroke-width="1" fill="none" fill-rule="evenodd">
        <g id="british-indian-ocean-territory">
            <g id="Group-3">
                <mask id="mask-2" fill="white">
                    <use xlink:href="#path-1"></use>
                </mask>
                <g id="Clip-2"></g>
                <path d="M95.9068098,47.9301606 C95.9068098,74.3488467 74.4365268,95.7668905 47.9534049,95.7668905 C21.4691122,95.7668905 0,74.3488467 0,47.9301606 C0,21.5103066 21.4691122,0.0934306569 47.9534049,0.0934306569 C74.4365268,0.0934306569 95.9068098,21.5103066 95.9068098,47.9301606 Z" id="Fill-1" fill="#F3F3F3" mask="url(#mask-2)"></path>
            </g>
            <path d="M87.9137561,53.6546569 C83.9175805,53.6546569 83.9175805,50.0094599 79.921639,50.0094599 C75.9256976,50.0094599 75.9256976,53.6546569 71.929522,53.6546569 C67.9335805,53.6546569 67.9335805,50.0094599 63.9374049,50.0094599 C59.9414634,50.0094599 59.9414634,53.6546569 55.945522,53.6546569 C51.9493463,53.6546569 51.9484098,50.0094599 47.9524683,50.0094599 C43.9562927,50.0094599 43.9562927,53.6546569 39.9603512,53.6546569 C35.9653463,53.6546569 35.9653463,50.0094599 31.9691707,50.0094599 C27.9722927,50.0094599 27.9722927,53.6546569 23.9761171,53.6546569 C19.9801756,53.6546569 19.9801756,50.0094599 15.9832976,50.0094599 C11.9880585,50.0094599 11.9880585,53.6546569 7.99211707,53.6546569 C4.01701463,53.6546569 3.99430244,50.049635 0.0622829268,50.0113285 C0.1728,52.1992409 0.435278049,54.3479124 0.830517073,56.4484672 C4.01607805,56.9156204 4.29518049,60.0322336 7.99211707,60.0322336 C11.9880585,60.0322336 11.9880585,56.3882044 15.9842341,56.3882044 C19.9801756,56.3882044 19.9801756,60.0322336 23.9761171,60.0322336 C27.9732293,60.0322336 27.9732293,56.3882044 31.9691707,56.3882044 C35.9653463,56.3882044 35.9653463,60.0322336 39.9612878,60.0322336 C43.9572293,60.0322336 43.9572293,56.3882044 47.9524683,56.3882044 C51.9493463,56.3882044 51.9493463,60.0322336 55.945522,60.0322336 C59.9424,60.0322336 59.9424,56.3882044 63.9374049,56.3882044 C67.9335805,56.3882044 67.9335805,60.0322336 71.929522,60.0322336 C75.9256976,60.0322336 75.9256976,56.3882044 79.921639,56.3882044 C83.9175805,56.3882044 83.9175805,60.0322336 87.9137561,60.0322336 C91.6116293,60.0322336 91.8904976,56.9156204 95.0753561,56.4484672 C95.4712976,54.3479124 95.732839,52.1992409 95.8445268,50.0113285 C91.9115707,50.0505693 91.887922,53.6546569 87.9137561,53.6546569 Z" id="Fill-4" fill="#0052B4"></path>
            <path d="M79.921639,62.4885255 C75.9256976,62.4885255 75.9256976,66.1334891 71.929522,66.1334891 C67.9335805,66.1334891 67.9335805,62.4885255 63.9374049,62.4885255 C59.9414634,62.4885255 59.9414634,66.1334891 55.945522,66.1334891 C51.9484098,66.1334891 51.9484098,62.4885255 47.9524683,62.4885255 C43.9562927,62.4885255 43.9562927,66.1334891 39.9603512,66.1334891 C35.9653463,66.1334891 35.9653463,62.4885255 31.9691707,62.4885255 C27.9722927,62.4885255 27.9722927,66.1334891 23.9761171,66.1334891 C19.9801756,66.1334891 19.9801756,62.4885255 15.9832976,62.4885255 C11.9880585,62.4885255 11.9880585,66.1334891 7.99211707,66.1334891 C5.04796098,66.1334891 4.27129756,64.1571971 2.46860488,63.116146 C3.55972683,66.3708029 4.99387317,69.4684964 6.72632195,72.3699854 C7.10119024,72.460146 7.51726829,72.5122336 7.99211707,72.5122336 C11.9880585,72.5122336 11.9880585,68.8670365 15.9832976,68.8670365 C19.979239,68.8670365 19.979239,72.5122336 23.9761171,72.5122336 C27.9722927,72.5122336 27.9722927,68.8670365 31.9691707,68.8670365 C35.9653463,68.8670365 35.9653463,72.5122336 39.9603512,72.5122336 C43.9562927,72.5122336 43.9562927,68.8670365 47.9524683,68.8670365 C51.9484098,68.8670365 51.9484098,72.5122336 55.945522,72.5122336 C59.9414634,72.5122336 59.9414634,68.8670365 63.9374049,68.8670365 C67.9335805,68.8670365 67.9335805,72.5122336 71.929522,72.5122336 C75.924761,72.5122336 75.9256976,68.8670365 79.9207024,68.8670365 C83.9175805,68.8670365 83.9175805,72.5122336 87.9137561,72.5122336 C88.3874341,72.5122336 88.8046829,72.460146 89.1804878,72.3699854 C90.912,69.4684964 92.3461463,66.3708029 93.4372683,63.116146 C91.6343415,64.1571971 90.8569756,66.1334891 87.9137561,66.1334891 C83.9175805,66.1334891 83.9175805,62.4885255 79.921639,62.4885255 Z" id="Fill-5" fill="#0052B4"></path>
            <path d="M94.7908683,37.6418102 C91.8694244,38.2467737 91.4973659,41.1755912 87.9137561,41.1755912 C83.9175805,41.1755912 83.9175805,37.5303942 79.921639,37.5303942 C75.9256976,37.5303942 75.9256976,41.1755912 71.929522,41.1755912 C67.9335805,41.1755912 67.9335805,37.5303942 63.9374049,37.5303942 C59.9414634,37.5303942 59.9414634,41.1755912 55.945522,41.1755912 C51.9493463,41.1755912 51.9484098,37.5303942 47.9524683,37.5303942 C45.7929366,37.5303942 44.8006244,38.5943358 43.7139512,39.5732555 L43.7139512,45.9510657 C44.8006244,44.9730803 45.7929366,43.9091387 47.9524683,43.9091387 C51.9484098,43.9091387 51.9484098,47.5541022 55.945522,47.5541022 C59.9414634,47.5541022 59.9414634,43.9091387 63.9374049,43.9091387 C67.9335805,43.9091387 67.9335805,47.5541022 71.929522,47.5541022 C75.9256976,47.5541022 75.9256976,43.9091387 79.921639,43.9091387 C83.9175805,43.9091387 83.9175805,47.5541022 87.9137561,47.5541022 C91.6106927,47.5541022 91.889561,44.4365547 95.0753561,43.9694015 C95.2792976,43.9694015 95.5078244,43.9675328 95.7412683,43.9647299 C95.5637854,41.8132555 95.2437073,39.7028905 94.7908683,37.6418102 Z" id="Fill-6" fill="#0052B4"></path>
            <path d="M91.2878049,27.4265693 C90.4600976,28.1198248 89.502439,28.6965255 87.9137561,28.6965255 C83.9175805,28.6965255 83.9175805,25.051562 79.921639,25.051562 C75.9256976,25.051562 75.9256976,28.6965255 71.929522,28.6965255 C67.9335805,28.6965255 67.9335805,25.051562 63.9374049,25.051562 C59.9414634,25.051562 59.9414634,28.6965255 55.945522,28.6965255 C51.9493463,28.6965255 51.9493463,25.051562 47.9524683,25.051562 C45.7929366,25.051562 44.8006244,26.1152701 43.7139512,27.0944234 L43.7139512,33.472 C44.8006244,32.4940146 45.7929366,31.430073 47.9524683,31.430073 C51.9493463,31.430073 51.9493463,35.0743358 55.945522,35.0743358 C59.9414634,35.0743358 59.9414634,31.430073 63.9374049,31.430073 C67.9335805,31.430073 67.9335805,35.0743358 71.929522,35.0743358 C75.9256976,35.0743358 75.9256976,31.430073 79.921639,31.430073 C83.9175805,31.430073 83.9175805,35.0743358 87.9137561,35.0743358 C90.7490341,35.0743358 91.5751024,33.2421606 93.2424585,32.1772847 C92.6734829,30.5513577 92.0213854,28.9665401 91.2878049,27.4265693 Z" id="Fill-7" fill="#0052B4"></path>
            <path d="M80.2627902,12.5825401 C80.1511024,12.576 80.0387122,12.5724964 79.921639,12.5724964 C75.9256976,12.5724964 75.9256976,16.2174599 71.929522,16.2174599 C67.9335805,16.2174599 67.9335805,12.5724964 63.9374049,12.5724964 C59.9414634,12.5724964 59.9414634,16.2174599 55.945522,16.2174599 C51.9484098,16.2174599 51.9484098,12.5724964 47.9524683,12.5724964 C45.7929366,12.5724964 44.8006244,13.6362044 43.7139512,14.6153577 L43.7139512,20.9931679 C44.8006244,20.0149489 45.7929366,18.9510073 47.9524683,18.9510073 C51.9484098,18.9510073 51.9484098,22.5952701 55.945522,22.5952701 C59.9414634,22.5952701 59.9414634,18.9510073 63.9374049,18.9510073 C67.9335805,18.9510073 67.9335805,22.5952701 71.929522,22.5952701 C75.924761,22.5952701 75.9256976,18.9510073 79.9207024,18.9510073 C83.9175805,18.9510073 83.9175805,22.5952701 87.9137561,22.5952701 C88.1598439,22.5952701 88.3893073,22.5805547 88.6070634,22.5550949 C86.2857366,18.861781 83.4750439,15.5066861 80.2627902,12.5825401 Z" id="Fill-8" fill="#0052B4"></path>
            <path d="M60.209561,1.67287591 C59.1128195,2.65740146 58.1214439,3.73839416 55.945522,3.73839416 C51.9484098,3.73839416 51.9484098,0.0943649635 47.9524683,0.0934306569 L47.9515317,0.0934306569 C45.8854244,0.0943649635 44.8874927,1.06884672 43.8530341,2.01039416 L43.8530341,8.38913869 C44.8874927,7.44735766 45.8854244,6.47217518 47.9524683,6.47217518 C51.9484098,6.47217518 51.9484098,10.1162044 55.945522,10.1162044 C59.9414634,10.1162044 59.9414634,6.47217518 63.9374049,6.47217518 C67.9335805,6.47217518 67.9335805,10.1162044 71.929522,10.1162044 C73.6060098,10.1162044 74.5784195,9.47480292 75.4391415,8.72945985 C70.8805463,5.54324088 65.7403317,3.12712409 60.209561,1.67287591 Z" id="Fill-9" fill="#0052B4"></path>
            <path d="M55.945522,91.0916204 C51.9484098,91.0916204 51.9484098,87.4464234 47.9524683,87.4464234 C43.9562927,87.4464234 43.9562927,91.0916204 39.9603512,91.0916204 C35.9653463,91.0916204 35.9653463,87.4464234 31.9691707,87.4464234 C28.9079415,87.4464234 28.1900488,89.5834161 26.2272,90.584292 C31.639961,93.3341898 37.6472195,95.0869489 44.0049951,95.6033869 C44.9881756,94.7073869 45.9868098,93.8251679 47.9524683,93.8251679 C49.9188293,93.8251679 50.9176976,94.7073869 51.900878,95.6043212 C58.2584195,95.0869489 64.2659122,93.3341898 69.6796098,90.5852263 C67.7158244,89.5843504 66.9979317,87.4464234 63.9374049,87.4464234 C59.9414634,87.4464234 59.9414634,91.0916204 55.945522,91.0916204 Z" id="Fill-10" fill="#0052B4"></path>
            <path d="M71.929522,78.6125547 C67.9335805,78.6125547 67.9335805,74.9685255 63.9374049,74.9685255 C59.9414634,74.9685255 59.9414634,78.6125547 55.945522,78.6125547 C51.9484098,78.6125547 51.9484098,74.9685255 47.9524683,74.9685255 C43.9562927,74.9685255 43.9562927,78.6125547 39.9603512,78.6125547 C35.9653463,78.6125547 35.9653463,74.9685255 31.9691707,74.9685255 C27.9722927,74.9685255 27.9722927,78.6125547 23.9761171,78.6125547 C19.9801756,78.6125547 19.9801756,74.9685255 15.9832976,74.9685255 C13.1093854,74.9685255 12.3027512,76.8534891 10.5897366,77.9118248 C11.6632976,79.2420438 12.8049951,80.5150365 14.0131902,81.7221606 C14.5545366,81.4920876 15.1893073,81.3461022 15.9832976,81.3461022 C19.979239,81.3461022 19.979239,84.9912993 23.9761171,84.9912993 C27.9722927,84.9912993 27.9722927,81.3461022 31.9691707,81.3461022 C35.9653463,81.3461022 35.9653463,84.9912993 39.9603512,84.9912993 C43.9562927,84.9912993 43.9562927,81.3461022 47.9524683,81.3461022 C51.9484098,81.3461022 51.9484098,84.9912993 55.945522,84.9912993 C59.9414634,84.9912993 59.9414634,81.3461022 63.9374049,81.3461022 C67.9335805,81.3461022 67.9335805,84.9912993 71.929522,84.9912993 C75.924761,84.9912993 75.9256976,81.3461022 79.9207024,81.3461022 C80.7165659,81.3461022 81.3513366,81.4920876 81.8926829,81.7230949 C83.100878,80.5159708 84.2423415,79.2420438 85.3161366,77.9118248 C83.603122,76.8534891 82.7953171,74.9685255 79.921639,74.9685255 C75.9256976,74.9685255 75.9256976,78.6125547 71.929522,78.6125547 Z" id="Fill-11" fill="#0052B4"></path>
            <polygon id="Fill-13" fill="#0052B4" points="47.9534049 25.051562 47.9534049 39.1061022 31.2739902 22.9720292"></polygon>
            <g id="Group-17">
                <mask id="mask-4" fill="white">
                    <use xlink:href="#path-3"></use>
                </mask>
                <g id="Clip-15"></g>
                <polygon id="Fill-14" fill="#0052B4" mask="url(#mask-4)" points="25.0190049 47.9301606 39.107122 47.9301606 25.0190049 29.2110949 22.9344 43.7703942"></polygon>
                <path d="M47.9534049,25.051562 L47.9534049,0.0934306569 L47.9452098,0.0934306569 C21.4646634,0.0981021898 0,21.5131095 0,47.9301606 L25.0190049,47.9301606 L25.0190049,33.8763212 L39.107122,47.9301606 L47.8253268,47.9301606 L47.9534049,47.8023942 L47.9534049,39.1061022 L33.8643512,25.051562 L47.9534049,25.051562 Z" id="Fill-16" fill="#F3F3F3" mask="url(#mask-4)"></path>
            </g>
            <path d="M24.2606049,6.33249635 C16.7606634,10.5934015 10.5255805,16.8133139 6.25428293,24.2950073 L6.25428293,47.9301606 L18.764722,47.9301606 L18.764722,18.8124964 L47.9534049,18.8124964 L47.9534049,6.33249635 L24.2606049,6.33249635 Z" id="Fill-18" fill="#D80027"></path>
            <polygon id="Fill-19" fill="#D80027" points="47.9534049 42.0468321 30.9155122 25.051562 25.0190049 25.051562 25.0190049 25.0522628 47.9524683 47.9301606 47.9534049 47.9301606"></polygon>
            <polygon id="Fill-20" fill="#6DA544" points="62.547278 25.051562 81.312 25.051562 71.929522 34.4109781"></polygon>
            <polygon id="Fill-21" fill="#A2001D" points="69.8451512 43.7706277 74.0150634 43.7706277 74.0150634 32.3316788 69.8451512 32.3316788"></polygon>
            <polygon id="Fill-22" fill="#A2001D" points="69.8451512 73.9284088 74.0150634 73.9284088 74.0150634 62.4885255 69.8451512 62.4885255"></polygon>
            <path d="M84.4390244,56.2494599 C84.4390244,52.8032701 81.6393366,50.0094599 78.1847415,50.0094599 C76.5822439,50.0094599 75.121639,50.6116204 74.0148293,51.5998832 L74.0148293,47.9301606 L76.0994341,47.9301606 L76.0994341,43.7703942 L74.0148293,43.7703942 L74.0148293,41.6901606 L69.8451512,41.6901606 L69.8451512,43.7703942 L67.7598439,43.7703942 L67.7598439,47.9301606 L69.8451512,47.9301606 L69.8451512,51.5998832 C68.7383415,50.6116204 67.2777366,50.0094599 65.675239,50.0094599 C62.2206439,50.0094599 59.4200195,52.8032701 59.4200195,56.2494599 C59.4200195,58.0970511 60.2259512,59.7559124 61.505561,60.8990365 L61.505561,64.5687591 L82.3546537,64.5687591 L82.3546537,60.8990365 C83.6342634,59.7559124 84.4390244,58.0970511 84.4390244,56.2494599 Z" id="Fill-23" fill="#FFDA44"></path>
            <path d="M78.1847415,54.1692263 C77.5270244,54.1692263 77.0662244,54.4574599 76.7953171,54.6992117 L74.0148293,57.1828321 L69.8451512,57.1828321 L67.0637268,54.6992117 C66.7930537,54.4574599 66.3329561,54.1692263 65.675239,54.1692263 C64.5255805,54.1692263 63.5899317,55.1025985 63.5899317,56.2494599 C63.5899317,57.0569343 64.0270829,57.5670657 64.2869854,57.799708 L65.675239,59.0395328 L65.675239,60.4092263 L78.1847415,60.4092263 L78.1847415,59.0395328 L79.5732293,57.799708 C79.8328976,57.5677664 80.2700488,57.0569343 80.2700488,56.2494599 C80.2691122,55.1025985 79.3344,54.1692263 78.1847415,54.1692263 Z" id="Fill-24" fill="#D80027"></path>
        </g>
    </g>
</svg>