<?xml version="1.0" encoding="UTF-8"?>
<svg width="96px" height="96px" viewBox="0 0 96 96" version="1.1" xmlns="http://www.w3.org/2000/svg" xmlns:xlink="http://www.w3.org/1999/xlink">
    <title>british-virgin-islands</title>
    <desc>designed by Freepik from Flaticon</desc>
    <defs>
        <polygon id="path-1" points="0.0140487805 0.0934306569 0.0140487805 95.7668905 95.9068098 95.7668905 95.9068098 0.0934306569"></polygon>
    </defs>
    <g id="Page-1" stroke="none" stroke-width="1" fill="none" fill-rule="evenodd">
        <g id="british-virgin-islands">
            <g id="Group-5">
                <mask id="mask-2" fill="white">
                    <use xlink:href="#path-1"></use>
                </mask>
                <g id="Clip-2"></g>
                <path d="M95.9068098,47.9301606 C95.9068098,74.3488467 74.4365268,95.7668905 47.9534049,95.7668905 C21.4691122,95.7668905 0,74.3488467 0,47.9301606 C0,47.9411387 47.9534049,0.0988029197 47.9534049,0.0934306569 C74.4365268,0.0934306569 95.9068098,21.5103066 95.9068098,47.9301606 Z" id="Fill-1" fill="#0052B4" mask="url(#mask-2)"></path>
                <path d="M47.9534049,25.051562 L47.9534049,0.0934306569 L47.9452098,0.0934306569 C21.4646634,0.0981021898 0,21.5131095 0,47.9301606 L25.0190049,47.9301606 L25.0190049,33.8763212 L39.107122,47.9301606 L47.8253268,47.9301606 L47.9534049,47.8023942 L47.9534049,39.1061022 L33.8643512,25.051562 L47.9534049,25.051562 Z" id="Fill-4" fill="#F3F3F3" mask="url(#mask-2)"></path>
            </g>
            <path d="M24.2606049,6.33249635 C16.7606634,10.5934015 10.5255805,16.8133139 6.25428293,24.2950073 L6.25428293,47.9301606 L18.764722,47.9301606 L18.764722,18.8124964 L47.9534049,18.8124964 L47.9534049,6.33249635 L24.2606049,6.33249635 Z" id="Fill-6" fill="#D80027"></path>
            <path d="M68.8024976,47.9301606 L55.8410927,60.8597956 C58.270361,65.5331971 63.1609756,68.7285255 68.8024976,68.7285255 C74.4440195,68.7285255 79.3344,65.5331971 81.7636683,60.8597956 L68.8024976,47.9301606 Z" id="Fill-7" fill="#FFDA44"></path>
            <polygon id="Fill-8" fill="#D80027" points="47.9534049 42.0468321 30.9155122 25.051562 25.0190049 25.051562 25.0190049 25.0522628 47.9524683 47.9301606 47.9534049 47.9301606"></polygon>
            <path d="M54.2076878,25.051562 L54.2076878,47.9301606 C54.2076878,59.0743358 68.8024976,62.4885255 68.8024976,62.4885255 C68.8024976,62.4885255 83.3963707,59.0743358 83.3963707,47.9301606 L83.3963707,25.051562 L54.2076878,25.051562 Z" id="Fill-9" fill="#6DA544"></path>
            <polygon id="Fill-10" fill="#F3F3F3" points="65.675239 52.0896934 71.929522 52.0896934 71.929522 35.4510949 65.675239 35.4510949"></polygon>
            <path d="M71.929522,35.4510949 C71.929522,37.1737226 70.5293268,38.5705109 68.8024976,38.5705109 C67.0747317,38.5705109 65.675239,37.1737226 65.675239,35.4510949 C65.675239,33.7275328 67.0747317,32.3307445 68.8024976,32.3307445 C70.5293268,32.3307445 71.929522,33.7275328 71.929522,35.4510949 Z" id="Fill-11" fill="#A2001D"></path>
            <polygon id="Fill-12" fill="#FFDA44" points="58.3773659 33.3708613 62.547278 33.3708613 62.547278 29.2110949 58.3773659 29.2110949"></polygon>
            <polygon id="Fill-13" fill="#FFDA44" points="58.3773659 42.7302774 62.547278 42.7302774 62.547278 38.5705109 58.3773659 38.5705109"></polygon>
            <polygon id="Fill-14" fill="#FFDA44" points="58.3773659 52.089927 62.547278 52.089927 62.547278 47.9301606 58.3773659 47.9301606"></polygon>
            <polygon id="Fill-15" fill="#FFDA44" points="75.0577171 33.3708613 79.2276293 33.3708613 79.2276293 29.2110949 75.0577171 29.2110949"></polygon>
            <polygon id="Fill-16" fill="#FFDA44" points="75.0577171 42.7302774 79.2276293 42.7302774 79.2276293 38.5705109 75.0577171 38.5705109"></polygon>
            <polygon id="Fill-17" fill="#FFDA44" points="75.0577171 52.089927 79.2276293 52.089927 79.2276293 47.9301606 75.0577171 47.9301606"></polygon>
        </g>
    </g>
</svg>