<?xml version="1.0" encoding="UTF-8"?>
<svg width="96px" height="96px" viewBox="0 0 96 96" version="1.1" xmlns="http://www.w3.org/2000/svg" xmlns:xlink="http://www.w3.org/1999/xlink">
    <title>cameroon</title>
    <desc>designed by Freepik from Flaticon</desc>
    <defs>
        <polygon id="path-1" points="0.0140487805 0.170043796 0.0140487805 86.3462774 65.4904976 86.3462774 65.4904976 0.170043796"></polygon>
    </defs>
    <g id="Page-1" stroke="none" stroke-width="1" fill="none" fill-rule="evenodd">
        <g id="cameroon">
            <path d="M68.8024976,4.83970803 C62.4978732,1.79877372 55.4250146,0.0934306569 47.9534049,0.0934306569 C40.4808585,0.0934306569 33.408,1.79877372 27.1043122,4.83970803 L22.9344,47.9301606 L27.1043122,91.0194453 C33.408,94.0606131 40.4808585,95.7668905 47.9534049,95.7668905 C55.4250146,95.7668905 62.4978732,94.0606131 68.8024976,91.0194453 L72.9721756,47.9301606 L68.8024976,4.83970803 Z" id="Fill-1" fill="#D80027"></path>
            <g id="Group-5" transform="translate(0.000000, 4.671533)">
                <mask id="mask-2" fill="white">
                    <use xlink:href="#path-1"></use>
                </mask>
                <g id="Clip-3"></g>
                <polygon id="Fill-2" fill="#FFDA44" mask="url(#mask-2)" points="47.9524683 26.6197956 52.0921756 39.329635 65.4904976 39.329635 54.6520976 47.1864526 58.7918049 59.8972263 47.9524683 52.0413431 37.1140683 59.8972263 41.254478 47.1864526 30.4151415 39.329635 43.812761 39.329635"></polygon>
                <path d="M27.1043122,0.170043796 C11.0643512,7.90727007 0,24.2931387 0,43.2586277 C0,62.2238832 11.0643512,78.6090511 27.1043122,86.3462774 L27.1043122,0.170043796 Z" id="Fill-4" fill="#496E2D" mask="url(#mask-2)"></path>
            </g>
            <path d="M68.8024976,4.84157664 L68.8024976,91.0178102 C84.8424585,83.2805839 95.9068098,66.8954161 95.9068098,47.9301606 C95.9068098,28.9646715 84.8424585,12.5788029 68.8024976,4.84157664 Z" id="Fill-6" fill="#FFDA44"></path>
        </g>
    </g>
</svg>