<?xml version="1.0" encoding="UTF-8"?>
<svg width="96px" height="96px" viewBox="0 0 96 96" version="1.1" xmlns="http://www.w3.org/2000/svg" xmlns:xlink="http://www.w3.org/1999/xlink">
    <title>canada</title>
    <desc>designed by Freepik from Flaticon</desc>
    <defs>
        <polygon id="path-1" points="0.0140487805 0.0934306569 0.0140487805 95.7668905 95.9068098 95.7668905 95.9068098 0.0934306569"></polygon>
    </defs>
    <g id="Page-1" stroke="none" stroke-width="1" fill="none" fill-rule="evenodd">
        <g id="canada">
            <g id="Group-5">
                <mask id="mask-2" fill="white">
                    <use xlink:href="#path-1"></use>
                </mask>
                <g id="Clip-2"></g>
                <path d="M95.9068098,47.9301606 C95.9068098,74.3488467 74.4365268,95.7668905 47.9534049,95.7668905 C21.4691122,95.7668905 0,74.3488467 0,47.9301606 C0,21.5103066 21.4691122,0.0934306569 47.9534049,0.0934306569 C74.4365268,0.0934306569 95.9068098,21.5103066 95.9068098,47.9301606 Z" id="Fill-1" fill="#F3F3F3" mask="url(#mask-2)"></path>
                <path d="M95.9068098,47.9301606 C95.9068098,28.9646715 84.8424585,12.5778686 68.8024976,4.83970803 L68.8024976,91.0194453 C84.8424585,83.282219 95.9068098,66.8954161 95.9068098,47.9301606 Z" id="Fill-3" fill="#D80027" mask="url(#mask-2)"></path>
                <path d="M0,47.9301606 C0,66.8954161 11.0643512,83.282219 27.1043122,91.0194453 L27.1043122,4.83970803 C11.0643512,12.5778686 0,28.9646715 0,47.9301606 Z" id="Fill-4" fill="#D80027" mask="url(#mask-2)"></path>
            </g>
            <polygon id="Fill-6" fill="#D80027" points="56.2929951 54.1692263 64.6325854 50.0094599 60.4629073 47.9301606 60.4629073 43.7703942 52.1230829 47.9301606 56.2929951 39.6108613 52.1230829 39.6108613 47.9534049 33.3708613 43.7834927 39.6108613 39.6138146 39.6108613 43.7834927 47.9301606 35.4439024 43.7703942 35.4439024 47.9301606 31.2739902 50.0094599 39.6138146 54.1692263 37.5282732 58.3287591 45.8680976 58.3287591 45.8680976 64.5687591 50.0377756 64.5687591 50.0377756 58.3287591 58.3773659 58.3287591"></polygon>
        </g>
    </g>
</svg>