<?xml version="1.0" encoding="UTF-8"?>
<svg width="96px" height="96px" viewBox="0 0 96 96" version="1.1" xmlns="http://www.w3.org/2000/svg" xmlns:xlink="http://www.w3.org/1999/xlink">
    <title>cape-verde</title>
    <desc>designed by Freepik from Flaticon</desc>
    <defs>
        <polygon id="path-1" points="0.0140487805 0.0934306569 0.0140487805 95.7668905 95.9068098 95.7668905 95.9068098 0.0934306569"></polygon>
    </defs>
    <g id="Page-1" stroke="none" stroke-width="1" fill="none" fill-rule="evenodd">
        <g id="cape-verde">
            <g id="Group-5">
                <mask id="mask-2" fill="white">
                    <use xlink:href="#path-1"></use>
                </mask>
                <g id="Clip-2"></g>
                <path d="M95.9068098,47.9301606 C95.9068098,74.3488467 74.4365268,95.7668905 47.9534049,95.7668905 C21.4691122,95.7668905 0,74.3488467 0,47.9301606 C0,21.5103066 21.4691122,0.0934306569 47.9534049,0.0934306569 C74.4365268,0.0934306569 95.9068098,21.5103066 95.9068098,47.9301606 Z" id="Fill-1" fill="#F3F3F3" mask="url(#mask-2)"></path>
                <path d="M47.9534049,95.7668905 C62.4868683,95.7668905 75.510322,89.3150365 84.3036878,79.1280584 L11.6021854,79.1280584 C20.3962537,89.3150365 33.4190049,95.7668905 47.9534049,95.7668905 Z" id="Fill-3" fill="#0052B4" mask="url(#mask-2)"></path>
                <path d="M95.9068098,47.9301606 C95.9068098,21.5103066 74.4365268,0.0934306569 47.9534049,0.0934306569 C21.4691122,0.0934306569 0,21.5103066 0,47.9301606 C0,52.2475912 0.577170732,56.4300146 1.65190244,60.4092263 L94.2549073,60.4092263 C95.329639,56.4300146 95.9068098,52.2475912 95.9068098,47.9301606 Z" id="Fill-4" fill="#0052B4" mask="url(#mask-2)"></path>
            </g>
            <path d="M3.8112,66.6480584 C4.73607805,68.8151825 5.81619512,70.8991533 7.03820488,72.8880584 L88.8686049,72.8880584 C90.089678,70.8991533 91.1707317,68.8151825 92.0953756,66.6480584 L3.8112,66.6480584 Z" id="Fill-6" fill="#D80027"></path>
            <polygon id="Fill-7" fill="#FFDA44" points="34.2769171 51.0495766 35.0533463 53.4327591 37.5659707 53.4327591 35.5335805 54.9063942 36.3090732 57.2895766 34.2769171 55.8159416 32.2445268 57.2895766 33.0209561 54.9063942 30.9888 53.4327591 33.5011902 53.4327591"></polygon>
            <polygon id="Fill-8" fill="#FFDA44" points="34.2769171 82.247708 35.0533463 84.6308905 37.5659707 84.6308905 35.5335805 86.1033577 36.3090732 88.4867737 34.2769171 87.014073 32.2445268 88.4867737 33.0209561 86.1033577 30.9888 84.6308905 33.5011902 84.6308905"></polygon>
            <polygon id="Fill-9" fill="#FFDA44" points="19.7195707 71.6965839 20.496 74.0797664 23.0076878 74.0797664 20.9762341 75.5524672 21.7517268 77.9365839 19.7195707 76.4629489 17.6871805 77.9365839 18.4636098 75.5524672 16.4314537 74.0797664 18.9429073 74.0797664"></polygon>
            <polygon id="Fill-10" fill="#FFDA44" points="25.2805463 54.1692263 26.056039 56.5533431 28.5686634 56.5533431 26.5362732 58.0258102 27.3127024 60.4092263 25.2805463 58.9365255 23.2481561 60.4092263 24.0245854 58.0258102 21.9914927 56.5533431 24.5038829 56.5533431"></polygon>
            <polygon id="Fill-11" fill="#FFDA44" points="16.4314537 63.9838832 18.9429073 63.9838832 19.7195707 61.6007007 20.496 63.9838832 23.0076878 63.9838832 20.9752976 65.4565839 21.7517268 67.8407007 19.7195707 66.3670657 17.6871805 67.8397664 18.4636098 65.4565839"></polygon>
            <polygon id="Fill-12" fill="#FFDA44" points="23.2481561 84.9118832 24.0238829 82.5287007 21.9914927 81.056 24.5038829 81.056 25.2805463 78.6728175 26.056039 81.056 28.5686634 81.056 26.5362732 82.5287007 27.312 84.9128175 25.2796098 83.4391825"></polygon>
            <polygon id="Fill-13" fill="#FFDA44" points="48.8295805 71.6965839 48.0531512 74.0797664 45.5414634 74.0797664 47.5729171 75.5524672 46.7971902 77.9365839 48.8295805 76.4629489 50.8619707 77.9365839 50.0853073 75.5524672 52.1176976 74.0797664 49.6050732 74.0797664"></polygon>
            <polygon id="Fill-14" fill="#FFDA44" points="43.2686049 54.1692263 42.492878 56.5533431 39.9804878 56.5533431 42.012878 58.0258102 41.2362146 60.4092263 43.2686049 58.9365255 45.3009951 60.4092263 44.5243317 58.0258102 46.556722 56.5533431 44.0450341 56.5533431"></polygon>
            <polygon id="Fill-15" fill="#FFDA44" points="52.1176976 63.9838832 49.6060098 63.9838832 48.8295805 61.6007007 48.0531512 63.9838832 45.5414634 63.9838832 47.5729171 65.4565839 46.7971902 67.8407007 48.8295805 66.3670657 50.8619707 67.8397664 50.0853073 65.4565839"></polygon>
            <polygon id="Fill-16" fill="#FFDA44" points="45.3009951 84.9118832 44.5252683 82.5287007 46.5576585 81.056 44.0450341 81.056 43.2686049 78.6728175 42.4921756 81.056 39.9804878 81.056 42.012878 82.5287007 41.2362146 84.9128175 43.2686049 83.4391825"></polygon>
        </g>
    </g>
</svg>