<?xml version="1.0" encoding="UTF-8"?>
<svg width="96px" height="96px" viewBox="0 0 96 96" version="1.1" xmlns="http://www.w3.org/2000/svg" xmlns:xlink="http://www.w3.org/1999/xlink">
    <title>cayman-islands</title>
    <desc>designed by Freepik from Flaticon</desc>
    <defs>
        <polygon id="path-1" points="0.0140487805 0.0934306569 0.0140487805 95.7668905 95.9068098 95.7668905 95.9068098 0.0934306569"></polygon>
    </defs>
    <g id="Page-1" stroke="none" stroke-width="1" fill="none" fill-rule="evenodd">
        <g id="cayman-islands">
            <g id="Group-5">
                <mask id="mask-2" fill="white">
                    <use xlink:href="#path-1"></use>
                </mask>
                <g id="Clip-2"></g>
                <path d="M95.9068098,47.9301606 C95.9068098,74.3488467 74.4365268,95.7668905 47.9534049,95.7668905 C21.4691122,95.7668905 0,74.3488467 0,47.9301606 C0,47.9411387 47.9534049,0.0988029197 47.9534049,0.0934306569 C74.4365268,0.0934306569 95.9068098,21.5103066 95.9068098,47.9301606 Z" id="Fill-1" fill="#0052B4" mask="url(#mask-2)"></path>
                <path d="M47.9534049,25.051562 L47.9534049,0.0934306569 L47.9452098,0.0934306569 C21.4646634,0.0981021898 0,21.5131095 0,47.9301606 L25.0190049,47.9301606 L25.0190049,33.8763212 L39.107122,47.9301606 L47.8253268,47.9301606 L47.9534049,47.8023942 L47.9534049,39.1061022 L33.8643512,25.051562 L47.9534049,25.051562 Z" id="Fill-4" fill="#F3F3F3" mask="url(#mask-2)"></path>
            </g>
            <path d="M77.1420878,27.1317956 C77.1420878,31.7267153 73.4086244,35.4510949 68.8024976,35.4510949 C64.1963707,35.4510949 60.4629073,31.7267153 60.4629073,27.1317956 C60.4629073,22.5368759 64.1963707,18.8124964 68.8024976,18.8124964 C73.4086244,18.8124964 77.1420878,22.5368759 77.1420878,27.1317956 Z" id="Fill-6" fill="#6DA544"></path>
            <path d="M24.2606049,6.33249635 C16.7606634,10.5934015 10.5255805,16.8133139 6.25428293,24.2950073 L6.25428293,47.9301606 L18.764722,47.9301606 L18.764722,18.8124964 L47.9534049,18.8124964 L47.9534049,6.33249635 L24.2606049,6.33249635 Z" id="Fill-7" fill="#D80027"></path>
            <polygon id="Fill-8" fill="#D80027" points="47.9534049 42.0468321 30.9155122 25.051562 25.0190049 25.051562 25.0190049 25.0522628 47.9524683 47.9301606 47.9534049 47.9301606"></polygon>
            <polygon id="Fill-9" fill="#D80027" points="54.2076878 37.5306277 83.3963707 37.5306277 83.3963707 25.051562 54.2076878 25.051562"></polygon>
            <path d="M54.2076878,56.2494599 L54.2076878,64.5687591 L58.5960585,64.5687591 C61.2264585,67.1409051 64.8273951,68.7285255 68.8024976,68.7285255 C72.7773659,68.7285255 76.3783024,67.1409051 79.0089366,64.5687591 L83.3963707,64.5687591 L83.3963707,56.2494599 L54.2076878,56.2494599 Z" id="Fill-10" fill="#FFDA44"></path>
            <path d="M54.2076878,35.4510949 L54.2076878,47.9301606 C54.2076878,59.0743358 68.8024976,62.4885255 68.8024976,62.4885255 C68.8024976,62.4885255 83.3963707,59.0743358 83.3963707,47.9301606 L83.3963707,35.4510949 L54.2076878,35.4510949 Z" id="Fill-11" fill="#338AF3"></path>
            <path d="M68.801561,42.1162044 C65.1530927,42.1162044 65.1530927,45.4446715 61.5046244,45.4446715 C57.8561561,45.4446715 57.8561561,42.1162044 54.2076878,42.1162044 L54.2076878,47.9402044 C57.8561561,47.9402044 57.8561561,51.2677372 61.5046244,51.2677372 C65.1530927,51.2677372 65.1530927,47.9402044 68.801561,47.9402044 C72.4500293,47.9402044 72.4500293,51.2677372 76.0994341,51.2677372 C79.7479024,51.2677372 79.7479024,47.9402044 83.3973073,47.9402044 L83.3973073,42.1162044 C79.7479024,42.1162044 79.7479024,45.4446715 76.0994341,45.4446715 C72.4500293,45.4446715 72.4500293,42.1162044 68.801561,42.1162044 Z" id="Fill-12" fill="#F5F5F5"></path>
            <path d="M68.801561,30.4593285 C65.1530927,30.4593285 65.1530927,33.7868613 61.5046244,33.7868613 C57.8561561,33.7868613 57.8561561,30.4593285 54.2076878,30.4593285 L54.2076878,36.2823942 C57.8561561,36.2823942 57.8561561,39.6108613 61.5046244,39.6108613 C65.1530927,39.6108613 65.1530927,36.2823942 68.801561,36.2823942 C72.4500293,36.2823942 72.4500293,39.6108613 76.0994341,39.6108613 C79.7479024,39.6108613 79.7479024,36.2823942 83.3973073,36.2823942 L83.3973073,30.4593285 C79.7479024,30.4593285 79.7479024,33.7868613 76.0994341,33.7868613 C72.4500293,33.7868613 72.4500293,30.4593285 68.801561,30.4593285 Z" id="Fill-13" fill="#F5F5F5"></path>
        </g>
    </g>
</svg>