<?xml version="1.0" encoding="UTF-8"?>
<svg width="96px" height="96px" viewBox="0 0 96 96" version="1.1" xmlns="http://www.w3.org/2000/svg" xmlns:xlink="http://www.w3.org/1999/xlink">
    <title>central-african-republic</title>
    <desc>designed by Freepik from Flaticon</desc>
    <defs>
        <polygon id="path-1" points="0.0140487805 0.0934306569 0.0140487805 95.7668905 95.9068098 95.7668905 95.9068098 0.0934306569"></polygon>
        <polygon id="path-3" points="0.0140487805 0.0469489051 0.0140487805 22.9246131 95.9068098 22.9246131 95.9068098 0.0469489051 0.0140487805 0.0469489051"></polygon>
    </defs>
    <g id="Page-1" stroke="none" stroke-width="1" fill="none" fill-rule="evenodd">
        <g id="central-african-republic">
            <g id="Group-3">
                <mask id="mask-2" fill="white">
                    <use xlink:href="#path-1"></use>
                </mask>
                <g id="Clip-2"></g>
                <path d="M95.9068098,47.9301606 C95.9068098,74.3488467 74.4365268,95.7668905 47.9534049,95.7668905 C21.4691122,95.7668905 0,74.3488467 0,47.9301606 C0,21.5103066 21.4691122,0.0934306569 47.9534049,0.0934306569 C74.4365268,0.0934306569 95.9068098,21.5103066 95.9068098,47.9301606 Z" id="Fill-1" fill="#F3F3F3" mask="url(#mask-2)"></path>
            </g>
            <path d="M90.0758634,25.051562 C83.8791805,13.7221606 73.2238829,5.1699854 60.4629073,1.73851095 L58.3783024,25.051562 L90.0758634,25.051562 Z" id="Fill-4" fill="#0052B4"></path>
            <path d="M5.8307122,25.051562 L37.5282732,25.051562 L35.4439024,1.73851095 C22.6819902,5.1699854 12.0273951,13.7221606 5.8307122,25.051562 Z" id="Fill-5" fill="#0052B4"></path>
            <g id="Group-9" transform="translate(0.000000, 47.883212)">
                <mask id="mask-4" fill="white">
                    <use xlink:href="#path-3"></use>
                </mask>
                <g id="Clip-7"></g>
                <path d="M58.3773659,0.0469489051 L58.3773659,22.9246131 L90.0758634,22.9246131 C93.7929366,16.1289343 95.9068098,8.33424818 95.9068098,0.0469489051 L58.3773659,0.0469489051 Z" id="Fill-6" fill="#6DA544" mask="url(#mask-4)"></path>
                <path d="M37.5282732,0.0469489051 L0,0.0469489051 C0,8.33424818 2.11363902,16.1289343 5.8307122,22.9246131 L37.5282732,22.9246131 L37.5282732,0.0469489051 Z" id="Fill-8" fill="#6DA544" mask="url(#mask-4)"></path>
            </g>
            <path d="M5.8307122,70.8078248 C12.0273951,82.1372263 22.6819902,90.6901022 35.4439024,94.1208759 L37.5282732,73.7331387 L5.8307122,70.8078248 Z" id="Fill-10" fill="#FFDA44"></path>
            <path d="M60.4629073,94.1208759 C73.2238829,90.6901022 83.8791805,82.1372263 90.0758634,70.8078248 L58.3783024,73.7322044 L60.4629073,94.1208759 Z" id="Fill-11" fill="#FFDA44"></path>
            <polygon id="Fill-12" fill="#FFDA44" points="58.3773659 73.7322044 90.0758634 70.8078248 58.3773659 70.8078248"></polygon>
            <polygon id="Fill-13" fill="#FFDA44" points="37.5282732 70.8078248 5.8307122 70.8078248 37.5282732 73.7322044"></polygon>
            <path d="M47.9534049,0.0934306569 C43.6242732,0.0934306569 39.4325854,0.66919708 35.4439024,1.74131387 L35.4439024,94.1190073 C39.4325854,95.1911241 43.6242732,95.7668905 47.9534049,95.7668905 C52.2813659,95.7668905 56.4739902,95.1911241 60.4629073,94.118073 L60.4629073,1.74131387 C56.4739902,0.66919708 52.2813659,0.0934306569 47.9534049,0.0934306569 Z" id="Fill-14" fill="#D80027"></path>
            <polygon id="Fill-15" fill="#FFDA44" points="25.793561 10.4929635 27.0869854 14.4647007 31.2739902 14.4647007 27.8872976 16.9200584 29.1804878 20.8917956 25.793561 18.4373723 22.4056976 20.8917956 23.7000585 16.9200584 20.3131317 14.4647007 24.4994341 14.4647007"></polygon>
        </g>
    </g>
</svg>