<?xml version="1.0" encoding="UTF-8"?>
<svg width="96px" height="96px" viewBox="0 0 96 96" version="1.1" xmlns="http://www.w3.org/2000/svg" xmlns:xlink="http://www.w3.org/1999/xlink">
    <title>colombia</title>
    <desc>designed by Freepik from Flaticon</desc>
    <defs>
        <polygon id="path-1" points="0.0140487805 0.0934306569 0.0140487805 95.7668905 95.9068098 95.7668905 95.9068098 0.0934306569"></polygon>
    </defs>
    <g id="Page-1" stroke="none" stroke-width="1" fill="none" fill-rule="evenodd">
        <g id="colombia">
            <mask id="mask-2" fill="white">
                <use xlink:href="#path-1"></use>
            </mask>
            <g id="Clip-2"></g>
            <path d="M0,47.9301606 C0,21.5103066 21.4691122,0.0934306569 47.9534049,0.0934306569 C74.4365268,0.0934306569 95.9068098,21.5103066 95.9068098,47.9301606 L47.9534049,52.0896934 L0,47.9301606 Z" id="Fill-1" fill="#FFDA44" mask="url(#mask-2)"></path>
            <path d="M6.41701463,71.8479416 C14.7081366,86.1463358 30.2039415,95.7668905 47.9534049,95.7668905 C65.7026341,95.7668905 81.1975024,86.1463358 89.489561,71.8479416 L47.9534049,68.7285255 L6.41701463,71.8479416 Z" id="Fill-3" fill="#D80027" mask="url(#mask-2)"></path>
            <path d="M89.489561,71.8479416 C93.5697951,64.8123796 95.9068098,56.6435036 95.9068098,47.9301606 L0,47.9301606 C0,56.6435036 2.33678049,64.8123796 6.41701463,71.8479416 L89.489561,71.8479416 Z" id="Fill-4" fill="#0052B4" mask="url(#mask-2)"></path>
        </g>
    </g>
</svg>