<?xml version="1.0" encoding="UTF-8"?>
<svg width="96px" height="96px" viewBox="0 0 96 96" version="1.1" xmlns="http://www.w3.org/2000/svg" xmlns:xlink="http://www.w3.org/1999/xlink">
    <title>cook-islands</title>
    <desc>designed by Freepik from Flaticon</desc>
    <defs>
        <polygon id="path-1" points="0.0140487805 0.0934306569 0.0140487805 95.7668905 95.9068098 95.7668905 95.9068098 0.0934306569"></polygon>
    </defs>
    <g id="Page-1" stroke="none" stroke-width="1" fill="none" fill-rule="evenodd">
        <g id="cook-islands">
            <g id="Group-5">
                <mask id="mask-2" fill="white">
                    <use xlink:href="#path-1"></use>
                </mask>
                <g id="Clip-2"></g>
                <path d="M95.9068098,47.9301606 C95.9068098,74.3488467 74.4365268,95.7668905 47.9534049,95.7668905 C21.4691122,95.7668905 0,74.3488467 0,47.9301606 C0,47.9411387 47.9534049,0.0988029197 47.9534049,0.0934306569 C74.4365268,0.0934306569 95.9068098,21.5103066 95.9068098,47.9301606 Z" id="Fill-1" fill="#0052B4" mask="url(#mask-2)"></path>
                <path d="M47.9534049,25.051562 L47.9534049,0.0934306569 L47.9452098,0.0934306569 C21.4646634,0.0981021898 0,21.5131095 0,47.9301606 L25.0190049,47.9301606 L25.0190049,33.8763212 L39.107122,47.9301606 L47.8253268,47.9301606 L47.9534049,47.8023942 L47.9534049,39.1061022 L33.8643512,25.051562 L47.9534049,25.051562 Z" id="Fill-4" fill="#F3F3F3" mask="url(#mask-2)"></path>
            </g>
            <path d="M24.2606049,6.33249635 C16.7606634,10.5934015 10.5255805,16.8133139 6.25428293,24.2950073 L6.25428293,47.9301606 L18.764722,47.9301606 L18.764722,18.8124964 L47.9534049,18.8124964 L47.9534049,6.33249635 L24.2606049,6.33249635 Z" id="Fill-6" fill="#D80027"></path>
            <polygon id="Fill-7" fill="#D80027" points="47.9534049 42.0468321 30.9155122 25.051562 25.0190049 25.051562 25.0190049 25.0522628 47.9524683 47.9301606 47.9534049 47.9301606"></polygon>
            <polygon id="Fill-8" fill="#F3F3F3" points="64.6325854 47.9301606 65.5197659 50.6536642 68.3908683 50.6536642 66.0686049 52.3370511 66.9557854 55.0605547 64.6325854 53.3771679 62.3093854 55.0605547 63.1965659 52.3370511 60.8743024 50.6536642 63.7454049 50.6536642"></polygon>
            <polygon id="Fill-9" fill="#F3F3F3" points="52.8384 52.8032701 55.3966829 54.1033577 57.4262634 52.0787153 56.9771707 54.9073285 59.5354537 56.2074161 56.6999415 56.6554161 56.2508488 59.4840292 54.9475902 56.9319708 52.112078 57.3799708 54.1416585 55.3553285"></polygon>
            <polygon id="Fill-10" fill="#F3F3F3" points="47.9534049 64.5687591 50.6835512 63.6837372 50.6835512 60.8205547 52.3710439 63.1362336 55.1011902 62.2512117 53.4136976 64.5687591 55.1011902 66.8863066 52.3710439 66.0012847 50.6835512 68.3178978 50.6835512 65.453781"></polygon>
            <polygon id="Fill-11" fill="#F3F3F3" points="52.8384 76.3342482 54.1416585 73.7821898 52.112078 71.7575474 54.9475902 72.2055474 56.2508488 69.6537226 56.6999415 72.4821022 59.5354537 72.9301022 56.9771707 74.2301898 57.4262634 77.0588029 55.3966829 75.0332263"></polygon>
            <polygon id="Fill-12" fill="#F3F3F3" points="64.6325854 81.2075912 63.7454049 78.483854 60.8743024 78.483854 63.1965659 76.8004672 62.3093854 74.0769635 64.6325854 75.7594161 66.9557854 74.0769635 66.0686049 76.8004672 68.3908683 78.483854 65.5197659 78.483854"></polygon>
            <polygon id="Fill-13" fill="#F3F3F3" points="76.4267707 76.3342482 73.8684878 75.0341606 71.8389073 77.0588029 72.288 74.2301898 69.7299512 72.9301022 72.5652293 72.4821022 73.014322 69.6537226 74.3175805 72.2055474 77.1530927 71.7575474 75.1225756 73.7821898"></polygon>
            <polygon id="Fill-14" fill="#F3F3F3" points="81.312 64.5687591 78.5816195 65.453781 78.5816195 68.3178978 76.8941268 66.0003504 74.1639805 66.8863066 75.8514732 64.5687591 74.1639805 62.2512117 76.8941268 63.1362336 78.5816195 60.8205547 78.5816195 63.6837372"></polygon>
            <polygon id="Fill-15" fill="#F3F3F3" points="76.4267707 52.8032701 75.1235122 55.3553285 77.1530927 57.3799708 74.3175805 56.9319708 73.014322 59.4840292 72.5652293 56.6554161 69.7299512 56.2074161 72.288 54.9073285 71.8389073 52.0787153 73.8684878 54.1033577"></polygon>
        </g>
    </g>
</svg>