<?xml version="1.0" encoding="UTF-8"?>
<svg width="96px" height="96px" viewBox="0 0 96 96" version="1.1" xmlns="http://www.w3.org/2000/svg" xmlns:xlink="http://www.w3.org/1999/xlink">
    <title>corsica</title>
    <desc>designed by Freepik from Flaticon</desc>
    <defs>
        <polygon id="path-1" points="0.0140487805 0.0934306569 0.0140487805 95.7668905 95.9068098 95.7668905 95.9068098 0.0934306569"></polygon>
    </defs>
    <g id="Page-1" stroke="none" stroke-width="1" fill="none" fill-rule="evenodd">
        <g id="corsica">
            <g id="Group-3">
                <mask id="mask-2" fill="white">
                    <use xlink:href="#path-1"></use>
                </mask>
                <g id="Clip-2"></g>
                <path d="M95.9068098,47.9301606 C95.9068098,74.3488467 74.4365268,95.7668905 47.9534049,95.7668905 C21.4691122,95.7668905 0,74.3488467 0,47.9301606 C0,21.5103066 21.4691122,0.0934306569 47.9534049,0.0934306569 C74.4365268,0.0934306569 95.9068098,21.5103066 95.9068098,47.9301606 Z" id="Fill-1" fill="#FDFDFD" mask="url(#mask-2)"></path>
            </g>
            <path d="M64.6499122,40.6108029 C64.6499122,30.4938978 56.4283317,22.2923212 46.2860488,22.2923212 C38.8024976,22.2923212 32.367922,26.7604088 29.5078244,33.1664818 L27.2424585,41.3570803 L29.3277659,43.4373139 L25.1578537,51.7568467 L29.3277659,53.836146 L27.2424585,55.9163796 L27.2424585,57.9959124 L29.3277659,60.076146 L29.3277659,64.2356788 L31.4121366,66.3152117 L37.6673561,64.2356788 C37.6673561,64.2356788 37.6673561,66.3152117 39.7517268,68.3954453 C41.8372683,70.4747445 43.9225756,74.6345109 43.9225756,74.6345109 C43.9225756,74.6345109 50.1768585,76.7147445 54.3465366,70.4747445 C58.5164488,64.2356788 62.686361,62.1554453 62.686361,62.1554453 L58.6674732,54.136292 C62.3433366,50.7877372 64.6499122,45.9692847 64.6499122,40.6108029 Z" id="Fill-4" fill="#000000"></path>
            <path d="M66.1463415,47.6162336 C74.6186927,46.1909489 76.0298927,29.6408759 76.0298927,29.6408759 L64.3546537,29.6408759 C70.4003122,44.2001752 64.072039,45.1790949 64.072039,45.1790949 C63.2148293,44.5432993 32.5325268,30.0433285 31.5603512,29.6747445 C31.3262049,29.9875036 30.4629073,30.8096934 29.4146341,33.3671241 C28.3656585,35.9254891 28.1085659,38.2266861 28.1085659,38.2266861 C28.5998049,38.5459854 61.1836098,49.8964088 62.0450341,49.9912409 C63.7545366,51.1061022 65.8574049,54.4392409 64.6819902,64.3242044 L75.920078,61.1646131 C75.920078,61.1646131 72.1070049,51.0442044 66.1463415,47.6162336 Z" id="Fill-5" fill="#ACABB1"></path>
        </g>
    </g>
</svg>