<?xml version="1.0" encoding="UTF-8"?>
<svg width="96px" height="96px" viewBox="0 0 96 96" version="1.1" xmlns="http://www.w3.org/2000/svg" xmlns:xlink="http://www.w3.org/1999/xlink">
    <title>croatia</title>
    <desc>designed by Freepik from Flaticon</desc>
    <defs>
        <polygon id="path-1" points="0.0140487805 0.0140145985 0.0140487805 37.4509781 95.9068098 37.4509781 95.9068098 0.0140145985 0.0140487805 0.0140145985"></polygon>
    </defs>
    <g id="Page-1" stroke="none" stroke-width="1" fill="none" fill-rule="evenodd">
        <g id="croatia">
            <g id="Group-3" transform="translate(0.000000, 29.197080)">
                <mask id="mask-2" fill="white">
                    <use xlink:href="#path-1"></use>
                </mask>
                <g id="Clip-2"></g>
                <path d="M95.9068098,18.7330803 C95.9068098,12.8817518 94.851278,7.27591241 92.9240195,2.09424818 L47.9534049,0.0140145985 L2.9825561,2.09424818 C1.05553171,7.27591241 0,12.8817518 0,18.7330803 C0,24.5844088 1.05553171,30.1893139 2.9825561,35.3716788 L47.9534049,37.4509781 L92.9240195,35.3716788 C94.851278,30.1893139 95.9068098,24.5844088 95.9068098,18.7330803 Z" id="Fill-1" fill="#F3F3F3" mask="url(#mask-2)"></path>
            </g>
            <path d="M47.9534049,95.7668905 C68.5709268,95.7668905 86.1485268,82.7849343 92.9240195,64.5687591 L2.9825561,64.5687591 C9.75828293,82.7849343 27.3347122,95.7668905 47.9534049,95.7668905 Z" id="Fill-4" fill="#0052B4"></path>
            <path d="M2.9825561,31.2913285 L92.9240195,31.2913285 C86.1485268,13.0751533 68.5709268,0.0934306569 47.9534049,0.0934306569 C27.3347122,0.0934306569 9.75828293,13.0751533 2.9825561,31.2913285 Z" id="Fill-5" fill="#D80027"></path>
            <polygon id="Fill-6" fill="#338AF3" points="60.4629073 33.3708613 52.1230829 33.3708613 53.5134439 22.9720292 59.0725463 18.8124964 64.6325854 22.9720292 64.6325854 31.2913285"></polygon>
            <polygon id="Fill-7" fill="#338AF3" points="35.4439024 33.3708613 43.7834927 33.3708613 42.3933659 22.9720292 36.8333268 18.8124964 31.2739902 22.9720292 31.2739902 31.2913285"></polygon>
            <polygon id="Fill-8" fill="#0052B4" points="53.5134439 33.3708613 42.3933659 33.3708613 42.3933659 22.9720292 47.9534049 18.8124964 53.5134439 22.9720292"></polygon>
            <path d="M31.2739902,31.2913285 L31.2739902,54.1692263 C31.2739902,59.6171679 33.9118829,64.4620146 37.9801756,67.4985109 L40.8988098,66.7704526 L44.5828683,70.4665693 C45.6723512,70.6901022 46.7990634,70.8087591 47.9534049,70.8087591 C49.1011902,70.8087591 50.2234537,70.6919708 51.3063805,70.4703066 L55.5109463,66.977635 L57.9266341,67.4922044 C61.9930537,64.4547737 64.6325854,59.6152993 64.6325854,54.1692263 L64.6325854,31.2913285 L31.2739902,31.2913285 Z" id="Fill-9" fill="#F3F3F3"></path>
            <polygon id="Fill-10" fill="#D80027" points="31.2739902 37.9463942 37.9452878 37.9463942 37.9452878 31.2913285 31.2739902 31.2913285"></polygon>
            <polygon id="Fill-11" fill="#D80027" points="44.6177561 37.9463942 51.2890537 37.9463942 51.2890537 31.2913285 44.6177561 31.2913285"></polygon>
            <polygon id="Fill-12" fill="#D80027" points="57.9603512 37.9463942 64.6325854 37.9463942 64.6325854 31.2913285 57.9603512 31.2913285"></polygon>
            <polygon id="Fill-13" fill="#D80027" points="37.945522 44.6026277 44.6177561 44.6026277 44.6177561 37.9466277 37.945522 37.9466277"></polygon>
            <polygon id="Fill-14" fill="#D80027" points="51.2890537 44.6026277 57.9603512 44.6026277 57.9603512 37.9466277 51.2890537 37.9466277"></polygon>
            <polygon id="Fill-15" fill="#D80027" points="31.2739902 51.2558248 37.9452878 51.2558248 37.9452878 44.5998248 31.2739902 44.5998248"></polygon>
            <polygon id="Fill-16" fill="#D80027" points="37.945522 57.9108905 44.6177561 57.9108905 44.6177561 51.2558248 37.945522 51.2558248"></polygon>
            <polygon id="Fill-17" fill="#D80027" points="44.6177561 51.2558248 51.2890537 51.2558248 51.2890537 44.5998248 44.6177561 44.5998248"></polygon>
            <polygon id="Fill-18" fill="#D80027" points="57.9603512 51.2558248 64.6325854 51.2558248 64.6325854 44.5998248 57.9603512 44.5998248"></polygon>
            <polygon id="Fill-19" fill="#D80027" points="51.2890537 57.9108905 57.9603512 57.9108905 57.9603512 51.2558248 51.2890537 51.2558248"></polygon>
            <polygon id="Fill-20" fill="#D80027" points="44.6177561 64.5668905 51.2890537 64.5668905 51.2890537 57.9108905 44.6177561 57.9108905"></polygon>
            <path d="M37.945522,57.9118248 L31.7038829,57.9118248 C32.2766049,60.3854015 33.4023805,62.649927 34.9454049,64.5668905 L37.945522,64.5668905 L37.945522,57.9118248 Z" id="Fill-21" fill="#D80027"></path>
            <path d="M57.9603512,64.5668905 L60.9611707,64.5668905 C62.5041951,62.649927 63.6292683,60.3854015 64.2017561,57.9118248 L57.9603512,57.9118248 L57.9603512,64.5668905 Z" id="Fill-22" fill="#D80027"></path>
            <path d="M37.945522,64.5668905 L37.945522,67.4711825 C39.886361,68.9282336 42.1536,69.9720876 44.6177561,70.4728759 L44.6177561,64.5668905 L37.945522,64.5668905 Z" id="Fill-23" fill="#D80027"></path>
            <path d="M51.2890537,64.5668905 L51.2890537,70.4728759 C53.7529756,69.9730219 56.0204488,68.9282336 57.9603512,67.4711825 L57.9603512,64.5668905 L51.2890537,64.5668905 Z" id="Fill-24" fill="#D80027"></path>
        </g>
    </g>
</svg>