<?xml version="1.0" encoding="UTF-8"?>
<svg width="96px" height="96px" viewBox="0 0 96 96" version="1.1" xmlns="http://www.w3.org/2000/svg" xmlns:xlink="http://www.w3.org/1999/xlink">
    <title>cuba</title>
    <desc>designed by Freepik from Flaticon</desc>
    <defs>
        <polygon id="path-1" points="0.0140487805 0.0941268293 0.0140487805 95.9997659 95.9058732 95.9997659 95.9058732 0.0941268293"></polygon>
        <polygon id="path-3" points="0.0140487805 0.0903804878 0.0140487805 81.9509854 95.9068098 81.9509854 95.9068098 0.0903804878"></polygon>
    </defs>
    <g id="Page-1" stroke="none" stroke-width="1" fill="none" fill-rule="evenodd">
        <g id="cuba">
            <g id="Group-3">
                <mask id="mask-2" fill="white">
                    <use xlink:href="#path-1"></use>
                </mask>
                <g id="Clip-2"></g>
                <path d="M95.9058732,48.0472976 C95.9058732,74.5306537 74.4365268,95.9997659 47.9534049,95.9997659 C21.4691122,95.9997659 0,74.5306537 0,48.0472976 C0,21.563239 21.4691122,0.0941268293 47.9534049,0.0941268293 C74.4365268,0.0941268293 95.9058732,21.563239 95.9058732,48.0472976 Z" id="Fill-1" fill="#F3F3F3" mask="url(#mask-2)"></path>
            </g>
            <path d="M47.9534049,0.0941268293 C32.2656,0.0941268293 18.3374049,7.62872195 9.58899512,19.2756293 L86.3175805,19.2756293 C77.5691707,7.62872195 63.6412098,0.0941268293 47.9534049,0.0941268293 Z" id="Fill-4" fill="#0052B4"></path>
            <g id="Group-9" transform="translate(0.000000, 14.048780)">
                <mask id="mask-4" fill="white">
                    <use xlink:href="#path-3"></use>
                </mask>
                <g id="Clip-6"></g>
                <path d="M47.9534049,81.9509854 C63.6412098,81.9509854 77.5691707,74.4170927 86.3175805,62.7701854 L9.58899512,62.7701854 C18.3374049,74.4170927 32.2656,81.9509854 47.9534049,81.9509854 Z" id="Fill-5" fill="#0052B4" mask="url(#mask-4)"></path>
                <path d="M0,33.9985171 C0,37.283122 0.331082927,40.4906927 0.960468293,43.5893854 L94.9463415,43.5893854 C95.5757268,40.4906927 95.9068098,37.283122 95.9068098,33.9985171 C95.9068098,30.7141463 95.5757268,27.5065756 94.9463415,24.4076488 L0.960468293,24.4076488 C0.331082927,27.5065756 0,30.7141463 0,33.9985171 Z" id="Fill-7" fill="#0052B4" mask="url(#mask-4)"></path>
                <path d="M14.0450341,0.0903804878 C-4.68105366,18.8174049 -4.68105366,49.1796293 14.0450341,67.9068878 C21.7838049,60.1681171 29.2261463,52.724839 47.9534049,33.9985171 L14.0450341,0.0903804878 Z" id="Fill-8" fill="#D80027" mask="url(#mask-4)"></path>
            </g>
            <polygon id="Fill-10" fill="#F3F3F3" points="19.4086244 35.5380293 22.5127024 45.0940098 32.5617951 45.0940098 24.4327024 50.9998829 27.5367805 60.5568 19.4086244 54.6502244 11.278361 60.5568 14.3845463 50.9998829 6.25521951 45.0940098 16.3033756 45.0940098"></polygon>
        </g>
    </g>
</svg>