<?xml version="1.0" encoding="UTF-8"?>
<svg width="96px" height="96px" viewBox="0 0 96 96" version="1.1" xmlns="http://www.w3.org/2000/svg" xmlns:xlink="http://www.w3.org/1999/xlink">
    <title>curacao</title>
    <desc>designed by Freepik from Flaticon</desc>
    <defs>
        <polygon id="path-1" points="0.0140487805 0.0934306569 0.0140487805 95.7668905 95.9068098 95.7668905 95.9068098 0.0934306569"></polygon>
    </defs>
    <g id="Page-1" stroke="none" stroke-width="1" fill="none" fill-rule="evenodd">
        <g id="curacao">
            <g id="Group-5">
                <mask id="mask-2" fill="white">
                    <use xlink:href="#path-1"></use>
                </mask>
                <g id="Clip-2"></g>
                <path d="M95.9068098,47.9301606 C95.9068098,74.3488467 74.4365268,95.7668905 47.9534049,95.7668905 C21.4691122,95.7668905 0,74.3488467 0,47.9301606 C0,21.5103066 21.4691122,0.0934306569 47.9534049,0.0934306569 C74.4365268,0.0934306569 95.9068098,21.5103066 95.9068098,47.9301606 Z" id="Fill-1" fill="#FFDA44" mask="url(#mask-2)"></path>
                <path d="M47.9534049,95.7668905 C63.6878049,95.7668905 77.6525268,88.2064818 86.3962537,76.5295182 L9.51032195,76.5295182 C18.2542829,88.2064818 32.2190049,95.7668905 47.9534049,95.7668905 Z" id="Fill-3" fill="#0052B4" mask="url(#mask-2)"></path>
                <path d="M95.9068098,47.9301606 C95.9068098,21.5103066 74.4365268,0.0934306569 47.9534049,0.0934306569 C21.4691122,0.0934306569 0,21.5103066 0,47.9301606 C0,53.5871533 0.986926829,59.0131387 2.79430244,64.0504526 L93.1125073,64.0504526 C94.9198829,59.0131387 95.9068098,53.5871533 95.9068098,47.9301606 Z" id="Fill-4" fill="#0052B4" mask="url(#mask-2)"></path>
            </g>
            <polygon id="Fill-6" fill="#F3F3F3" points="32.8216976 30.7723212 35.4092488 38.7164964 43.7834927 38.7164964 37.0089366 43.6272117 39.5962537 51.5716204 32.8216976 46.6609051 26.0478439 51.5716204 28.6353951 43.6272117 21.8615415 38.7164964 30.2350829 38.7164964"></polygon>
            <polygon id="Fill-7" fill="#F3F3F3" points="18.4418341 22.4530219 19.9949268 27.2193869 25.0190049 27.2193869 20.9542244 30.1654891 22.5073171 34.9327883 18.4418341 31.9866861 14.3770537 34.9327883 15.9301463 30.1654891 11.8656 27.2193869 16.889678 27.2193869"></polygon>
        </g>
    </g>
</svg>