<?xml version="1.0" encoding="UTF-8"?>
<svg width="96px" height="96px" viewBox="0 0 96 96" version="1.1" xmlns="http://www.w3.org/2000/svg" xmlns:xlink="http://www.w3.org/1999/xlink">
    <title>cyprus</title>
    <desc>designed by Freepik from Flaticon</desc>
    <defs>
        <polygon id="path-1" points="0.0140487805 0.0934306569 0.0140487805 95.7668905 95.9068098 95.7668905 95.9068098 0.0934306569"></polygon>
    </defs>
    <g id="Page-1" stroke="none" stroke-width="1" fill="none" fill-rule="evenodd">
        <g id="cyprus">
            <g id="Group-3">
                <mask id="mask-2" fill="white">
                    <use xlink:href="#path-1"></use>
                </mask>
                <g id="Clip-2"></g>
                <path d="M95.9068098,47.9301606 C95.9068098,74.3488467 74.4365268,95.7668905 47.9534049,95.7668905 C21.4691122,95.7668905 0,74.3488467 0,47.9301606 C0,21.5103066 21.4691122,0.0934306569 47.9534049,0.0934306569 C74.4365268,0.0934306569 95.9068098,21.5103066 95.9068098,47.9301606 Z" id="Fill-1" fill="#FDFDFD" mask="url(#mask-2)"></path>
            </g>
            <path d="M75.0577171,41.6901606 L68.8024976,41.6901606 C68.8024976,53.1774599 59.4677854,62.4885255 47.9534049,62.4885255 C36.4380878,62.4885255 27.1043122,53.1774599 27.1043122,41.6901606 L20.8490927,41.6901606 C20.8490927,54.0634161 29.1804878,64.4958832 40.5529756,67.7084964 C39.3054439,70.0706569 39.4958049,73.0450219 41.2764878,75.2621314 C43.616078,73.3918832 46.0380878,71.4564672 48.0924878,69.8141898 C50.1466537,71.4564672 52.5686634,73.3925839 54.9082537,75.2621314 C56.7064976,73.0230657 56.8837463,70.0113285 55.595239,67.6372555 C66.8424585,64.3452263 75.0577171,53.9758248 75.0577171,41.6901606 Z" id="Fill-4" fill="#6DA544"></path>
            <path d="M31.2739902,39.6108613 C31.2739902,39.6108613 31.2739902,50.0094599 41.6981854,50.0094599 L43.7834927,52.0896934 L47.9534049,52.0896934 C47.9534049,52.0896934 50.0377756,45.849927 54.2076878,45.849927 C54.2076878,45.849927 54.2076878,41.6901606 58.3773659,41.6901606 L64.6325854,41.6901606 C64.6325854,41.6901606 62.547278,33.3708613 72.9721756,27.1317956 L68.8024976,25.051562 C68.8024976,25.051562 54.2076878,35.4510949 43.7834927,33.3708613 L43.7834927,37.5303942 L39.6138146,37.5303942 L37.5282732,35.4510949 L31.2739902,39.6108613 Z" id="Fill-5" fill="#FFDA44"></path>
        </g>
    </g>
</svg>