<?xml version="1.0" encoding="UTF-8"?>
<svg width="96px" height="96px" viewBox="0 0 96 96" version="1.1" xmlns="http://www.w3.org/2000/svg" xmlns:xlink="http://www.w3.org/1999/xlink">
    <title>democratic-republic-of-congo</title>
    <desc>designed by Freepik from Flaticon</desc>
    <defs>
        <polygon id="path-1" points="0.0140487805 0.0934977172 0.0140487805 95.9998304 95.9062744 95.9998304 95.9062744 0.0934977172"></polygon>
    </defs>
    <g id="Page-1" stroke="none" stroke-width="1" fill="none" fill-rule="evenodd">
        <g id="democratic-republic-of-congo">
            <path d="M90.5816195,26.0590829 C88.3656585,21.7657756 85.4615415,17.7358829 81.862478,14.1368195 C78.2643512,10.5386927 74.2344585,7.63387317 69.9411512,5.41861463 L36.1592195,36.2517073 L5.3249561,70.0348098 C7.54115122,74.3271805 10.4450341,78.3570732 14.0440976,81.9561366 C17.6424585,85.5552 21.6723512,88.4590829 25.9656585,90.675278 L59.7475902,59.8410146 L90.5816195,26.0590829 Z" id="Fill-1" fill="#FFDA44"></path>
            <g id="Group-6">
                <mask id="mask-2" fill="white">
                    <use xlink:href="#path-1"></use>
                </mask>
                <g id="Clip-3"></g>
                <path d="M14.0440976,81.9561366 C16.0554146,83.9672195 18.2020683,85.7619512 20.4531512,87.3415024 L87.2478439,20.5465756 C85.6682927,18.2957268 83.8747317,16.1490732 81.862478,14.1377561 C79.851161,12.1255024 77.7045073,10.3319415 75.4536585,8.75239024 L8.65873171,75.5463805 C10.2385171,77.7981659 12.032078,79.9448195 14.0440976,81.9561366 Z" id="Fill-2" fill="#D80027" mask="url(#mask-2)"></path>
                <path d="M14.0440976,14.1368195 C-1.0848,29.2657171 -3.98961951,51.9870439 5.3249561,70.0348098 L69.9411512,5.41861463 C51.8936195,-3.89619512 29.1732293,-0.991141463 14.0440976,14.1368195 Z" id="Fill-4" fill="#338AF3" mask="url(#mask-2)"></path>
                <path d="M81.862478,81.9561366 C96.9913756,66.8270049 99.8954927,44.105678 90.5816195,26.0590829 L25.9656585,90.675278 C44.0122537,99.9889171 66.7335805,97.0850341 81.862478,81.9561366 Z" id="Fill-5" fill="#338AF3" mask="url(#mask-2)"></path>
            </g>
            <polygon id="Fill-7" fill="#FFDA44" points="25.5549659 14.6865951 28.1422829 22.6501463 36.516761 22.6501463 29.7419707 27.572839 32.329522 35.5366244 25.5549659 30.6139317 18.7801756 35.5366244 21.3677268 27.572839 14.5929366 22.6501463 22.9674146 22.6501463"></polygon>
        </g>
    </g>
</svg>