<?xml version="1.0" encoding="UTF-8"?>
<svg width="96px" height="96px" viewBox="0 0 96 96" version="1.1" xmlns="http://www.w3.org/2000/svg" xmlns:xlink="http://www.w3.org/1999/xlink">
    <title>djibouti</title>
    <desc>designed by Freepik from Flaticon</desc>
    <defs>
        <polygon id="path-1" points="0.0140487805 0.0896934307 0.0140487805 81.752292 95.9068098 81.752292 95.9068098 0.0896934307"></polygon>
    </defs>
    <g id="Page-1" stroke="none" stroke-width="1" fill="none" fill-rule="evenodd">
        <g id="djibouti">
            <path d="M43.7834927,52.0896934 C43.7834927,52.0896934 14.0733659,14.0979854 14.0450341,14.104292 C22.7232,5.44747445 34.7112585,0.0934306569 47.9534049,0.0934306569 C74.4365268,0.0934306569 95.9068098,21.5103066 95.9068098,47.9301606 L43.7834927,52.0896934 Z" id="Fill-1" fill="#338AF3"></path>
            <g id="Group-5" transform="translate(0.000000, 14.014599)">
                <mask id="mask-2" fill="white">
                    <use xlink:href="#path-1"></use>
                </mask>
                <g id="Clip-3"></g>
                <path d="M43.7834927,33.915562 C43.7834927,33.915562 14.0733659,67.7477372 14.0450341,67.7402628 C22.7232,76.3973139 34.7112585,81.752292 47.9534049,81.752292 C74.4365268,81.752292 95.9068098,60.3342482 95.9068098,33.915562 L43.7834927,33.915562 Z" id="Fill-2" fill="#6DA544" mask="url(#mask-2)"></path>
                <path d="M14.0450341,0.0896934307 C-4.68199024,18.7713869 -4.68199024,49.0597372 14.0450341,67.7411971 L47.9534049,33.915562 L14.0450341,0.0896934307 Z" id="Fill-4" fill="#F3F3F3" mask="url(#mask-2)"></path>
            </g>
            <polygon id="Fill-6" fill="#D80027" points="19.4076878 35.4510949 22.5127024 44.9838248 32.5617951 44.9838248 24.4327024 50.8753285 27.5367805 60.4092263 19.4076878 54.5167883 11.278361 60.4092263 14.3836098 50.8753285 6.25521951 44.9838248 16.302439 44.9838248"></polygon>
        </g>
    </g>
</svg>