<?xml version="1.0" encoding="UTF-8"?>
<svg width="96px" height="96px" viewBox="0 0 96 96" version="1.1" xmlns="http://www.w3.org/2000/svg" xmlns:xlink="http://www.w3.org/1999/xlink">
    <title>dominica</title>
    <desc>designed by Freepik from Flaticon</desc>
    <defs>
        <polygon id="path-1" points="0.0140487805 0.0934306569 0.0140487805 95.7668905 95.9068098 95.7668905 95.9068098 0.0934306569"></polygon>
        <polygon id="path-3" points="0.0140487805 0.196437956 0.0140487805 6.43643796 95.9068098 6.43643796 95.9068098 0.196437956"></polygon>
    </defs>
    <g id="Page-1" stroke="none" stroke-width="1" fill="none" fill-rule="evenodd">
        <g id="dominica">
            <g id="Group-3">
                <mask id="mask-2" fill="white">
                    <use xlink:href="#path-1"></use>
                </mask>
                <g id="Clip-2"></g>
                <path d="M95.9068098,47.9301606 C95.9068098,74.3488467 74.4365268,95.7668905 47.9534049,95.7668905 C21.4691122,95.7668905 0,74.3488467 0,47.9301606 C0,21.5103066 21.4691122,0.0934306569 47.9534049,0.0934306569 C74.4365268,0.0934306569 95.9068098,21.5103066 95.9068098,47.9301606 Z" id="Fill-1" fill="#F3F3F3" mask="url(#mask-2)"></path>
            </g>
            <path d="M57.3356488,94.848 C76.2923707,91.0969927 91.225522,76.2001752 94.985678,57.2895766 L57.3356488,57.2895766 L57.3356488,94.848 Z" id="Fill-4" fill="#496E2D"></path>
            <path d="M0.920195122,57.2895766 C4.68105366,76.2001752 19.614439,91.0969927 38.5709268,94.848 L38.5709268,57.2895766 L0.920195122,57.2895766 Z" id="Fill-5" fill="#496E2D"></path>
            <path d="M94.985678,38.5705109 C91.225522,19.660146 76.2923707,4.76309489 57.3356488,1.01138686 L57.3356488,38.5705109 L94.985678,38.5705109 Z" id="Fill-6" fill="#496E2D"></path>
            <path d="M38.5709268,1.01138686 C19.614439,4.76309489 4.68105366,19.660146 0.920195122,38.5705109 L38.5709268,38.5705109 L38.5709268,1.01138686 Z" id="Fill-7" fill="#496E2D"></path>
            <path d="M44.8252098,57.2895766 L38.5709268,57.2895766 L38.5709268,94.848 C40.6124488,95.2520876 42.7005659,95.5258394 44.8252098,95.6627153 L44.8252098,57.2895766 Z" id="Fill-8" fill="#FFDA44"></path>
            <path d="M44.8252098,38.5705109 L44.8252098,0.197372263 C42.7005659,0.334248175 40.6115122,0.608 38.5709268,1.01138686 L38.5709268,38.5705109 L44.8252098,38.5705109 Z" id="Fill-9" fill="#FFDA44"></path>
            <path d="M51.0804293,0.197372263 C50.0459707,0.13080292 49.0042537,0.0934306569 47.9534049,0.0934306569 C46.902322,0.0934306569 45.8596683,0.13080292 44.8252098,0.197372263 L44.8252098,38.5705109 L51.0804293,38.5705109 L51.0804293,0.197372263 Z" id="Fill-10" fill="#000000"></path>
            <path d="M44.8252098,95.6627153 C45.8596683,95.7292847 46.902322,95.7668905 47.9534049,95.7668905 C49.0042537,95.7668905 50.0459707,95.7292847 51.0804293,95.6627153 L51.0804293,57.2895766 L44.8261463,57.2895766 L44.8261463,95.6627153 L44.8252098,95.6627153 Z" id="Fill-11" fill="#000000"></path>
            <path d="M38.5709268,44.8095766 L38.5709268,38.5705109 L0.920195122,38.5705109 C0.514887805,40.6070657 0.241404878,42.6901022 0.104195122,44.8095766 L38.5709268,44.8095766 Z" id="Fill-12" fill="#FFDA44"></path>
            <path d="M57.3356488,44.8095766 L95.8023805,44.8095766 C95.6651707,42.6901022 95.3907512,40.6070657 94.9866146,38.5705109 L57.3356488,38.5705109 L57.3356488,44.8095766 Z" id="Fill-13" fill="#FFDA44"></path>
            <g id="Group-17" transform="translate(0.000000, 44.613139)">
                <mask id="mask-4" fill="white">
                    <use xlink:href="#path-3"></use>
                </mask>
                <g id="Clip-15"></g>
                <path d="M57.3356488,6.43643796 L95.8023805,6.43643796 C95.8691122,5.40449635 95.9068098,4.36531387 95.9068098,3.3170219 C95.9068098,2.26849635 95.8691122,1.22837956 95.8023805,0.196437956 L57.3356488,0.196437956 L57.3356488,6.43643796 Z" id="Fill-14" fill="#000000" mask="url(#mask-4)"></path>
                <path d="M0.104195122,0.196437956 C0.0374634146,1.22837956 0,2.26849635 0,3.3170219 C0,4.36531387 0.0374634146,5.40449635 0.104195122,6.43643796 L38.5709268,6.43643796 L38.5709268,0.197372263 L0.104195122,0.197372263 L0.104195122,0.196437956 Z" id="Fill-16" fill="#000000" mask="url(#mask-4)"></path>
            </g>
            <path d="M70.8868683,47.9301606 C70.8868683,60.5652555 60.6193171,70.8078248 47.9534049,70.8078248 C35.2865561,70.8078248 25.0190049,60.5652555 25.0190049,47.9301606 C25.0190049,35.2941314 35.2865561,25.051562 47.9534049,25.051562 C60.6193171,25.051562 70.8868683,35.2941314 70.8868683,47.9301606 Z" id="Fill-18" fill="#D80027"></path>
            <path d="M53.177678,50.482219 C51.471922,47.0787737 49.2547902,43.6300146 49.2547902,43.6300146 C49.2547902,43.6300146 49.3098146,42.0587445 49.3098146,41.1235036 C49.3098146,39.7138686 48.1646049,38.5705109 46.7515317,38.5705109 C45.4124488,38.5705109 44.3159415,39.5970803 44.2042537,40.903708 C43.1515317,40.972146 42.3182049,41.8424526 42.3182049,42.9101314 C42.3182049,43.6865401 42.7591024,44.3590073 43.4039415,44.6946569 C43.7249561,43.9465109 44.3524683,43.3625693 45.1288976,43.0960584 C45.256039,43.1992993 45.3913756,43.2922628 45.5367805,43.3698102 L45.8643512,43.5267737 C45.8643512,43.5267737 44.6496,46.9447007 44.6496,48.7803796 C44.6496,53.9428905 48.0613463,55.5349489 48.0613463,55.5349489 L48.0613463,55.5879708 L46.3555902,57.2895766 L49.7671024,57.2895766 L49.7671024,53.886365 L51.4728585,55.5879708 C51.4876098,55.5559708 54.7043122,53.5268905 53.177678,50.482219 Z" id="Fill-19" fill="#496E2D"></path>
            <polygon id="Fill-20" fill="#496E2D" points="47.9534049 29.2110949 48.7288976 31.5942774 51.241522 31.5942774 49.2091317 33.0679124 49.985561 35.4510949 47.9534049 33.9774599 45.9210146 35.4510949 46.697678 33.0679124 44.6652878 31.5942774 47.1767415 31.5942774"></polygon>
            <polygon id="Fill-21" fill="#496E2D" points="36.9237073 32.7859854 38.9560976 34.2593869 40.9884878 32.7859854 40.2118244 35.1701022 42.2442146 36.6428029 39.7325268 36.6428029 38.9560976 39.0259854 38.1796683 36.6428029 35.6679805 36.6428029 37.7003707 35.1691679"></polygon>
            <polygon id="Fill-22" fill="#496E2D" points="30.1070049 42.1454015 32.6186927 42.1454015 33.395122 39.762219 34.1715512 42.1454015 36.6841756 42.1454015 34.6517854 43.6190365 35.4284488 46.002219 33.395122 44.5285839 31.3627317 46.0012847 32.1393951 43.6181022"></polygon>
            <polygon id="Fill-23" fill="#496E2D" points="30.1070049 53.7137518 32.1393951 52.2412847 31.3627317 49.8581022 33.395122 51.3315036 35.4275122 49.8581022 34.6517854 52.2412847 36.6841756 53.7146861 34.1715512 53.7146861 33.395122 56.0981022 32.6186927 53.7137518"></polygon>
            <polygon id="Fill-24" fill="#496E2D" points="36.9237073 63.0734015 37.7003707 60.6911533 35.6679805 59.2175182 38.1796683 59.2175182 38.9560976 56.8343358 39.7325268 59.2175182 42.2442146 59.2175182 40.2118244 60.6911533 40.9884878 63.0734015 38.9560976 61.6007007"></polygon>
            <polygon id="Fill-25" fill="#496E2D" points="47.9534049 66.6480584 47.1767415 64.2658102 44.6652878 64.2658102 46.697678 62.7924088 45.9210146 60.4092263 47.9534049 61.8816934 49.985561 60.4092263 49.2091317 62.7924088 51.241522 64.2658102 48.7288976 64.2658102"></polygon>
            <polygon id="Fill-26" fill="#496E2D" points="58.9819317 63.0734015 56.9507122 61.6007007 54.918322 63.0743358 55.6938146 60.6911533 53.6616585 59.2175182 56.1740488 59.2175182 56.9497756 56.8343358 57.7262049 59.2175182 60.2388293 59.2175182 58.206439 60.6911533"></polygon>
            <polygon id="Fill-27" fill="#496E2D" points="65.7988683 53.7137518 63.2871805 53.7137518 62.5107512 56.0981022 61.7350244 53.7146861 59.2226341 53.7146861 61.2547902 52.2412847 60.478361 49.8581022 62.5107512 51.3315036 64.5429073 49.8581022 63.7674146 52.2412847"></polygon>
            <polygon id="Fill-28" fill="#496E2D" points="65.7988683 42.1454015 63.7674146 43.6181022 64.5429073 46.0012847 62.5107512 44.5285839 60.478361 46.002219 61.2547902 43.6190365 59.2226341 42.1454015 61.7350244 42.1454015 62.5107512 39.762219 63.2871805 42.1454015"></polygon>
            <polygon id="Fill-29" fill="#496E2D" points="58.9819317 32.7859854 58.206439 35.1691679 60.2388293 36.6428029 57.7262049 36.6428029 56.9507122 39.0259854 56.1740488 36.6428029 53.6616585 36.6428029 55.6938146 35.1691679 54.918322 32.7869197 56.9507122 34.2593869"></polygon>
        </g>
    </g>
</svg>