<?xml version="1.0" encoding="UTF-8"?>
<svg width="96px" height="96px" viewBox="0 0 96 96" version="1.1" xmlns="http://www.w3.org/2000/svg" xmlns:xlink="http://www.w3.org/1999/xlink">
    <title>equatorial-guinea</title>
    <desc>designed by Freepik from Flaticon</desc>
    <defs>
        <polygon id="path-1" points="0.0140487805 0.0934306569 0.0140487805 95.7668905 95.9068098 95.7668905 95.9068098 0.0934306569"></polygon>
        <polygon id="path-3" points="0.0140487805 0.0896934307 0.0140487805 81.752292 92.9230829 81.752292 92.9230829 0.0896934307"></polygon>
    </defs>
    <g id="Page-1" stroke="none" stroke-width="1" fill="none" fill-rule="evenodd">
        <g id="equatorial-guinea">
            <g id="Group-3">
                <mask id="mask-2" fill="white">
                    <use xlink:href="#path-1"></use>
                </mask>
                <g id="Clip-2"></g>
                <path d="M95.9068098,47.9301606 C95.9068098,74.3488467 74.4374634,95.7668905 47.9534049,95.7668905 C21.4691122,95.7668905 0,74.3488467 0,47.9301606 C0,21.5103066 21.4691122,0.0934306569 47.9534049,0.0934306569 C74.4374634,0.0934306569 95.9068098,21.5103066 95.9068098,47.9301606 Z" id="Fill-1" fill="#F3F3F3" mask="url(#mask-2)"></path>
            </g>
            <path d="M29.1886829,31.2913285 L92.9230829,31.2913285 C86.1485268,13.0751533 68.5709268,0.0934306569 47.9534049,0.0934306569 C34.7112585,0.0934306569 22.7241366,5.44840876 14.0469073,14.1061606 L29.1886829,31.2913285 Z" id="Fill-4" fill="#6DA544"></path>
            <g id="Group-8" transform="translate(0.000000, 14.014599)">
                <mask id="mask-4" fill="white">
                    <use xlink:href="#path-3"></use>
                </mask>
                <g id="Clip-6"></g>
                <path d="M29.1886829,50.5541606 L92.9230829,50.5541606 C86.1485268,68.7703358 68.5709268,81.752292 47.9534049,81.752292 C34.7112585,81.752292 22.7241366,76.3963796 14.0469073,67.7393285 L29.1886829,50.5541606 Z" id="Fill-5" fill="#D80027" mask="url(#mask-4)"></path>
                <path d="M14.0450341,0.0896934307 C-4.68199024,18.7713869 -4.68199024,49.0597372 14.0450341,67.7411971 L47.9534049,33.915562 L14.0450341,0.0896934307 Z" id="Fill-7" fill="#0052B4" mask="url(#mask-4)"></path>
            </g>
            <path d="M56.2929951,39.6108613 L56.2929951,50.0094599 C56.2929951,56.3781606 64.6325854,58.3296934 64.6325854,58.3296934 C64.6325854,58.3296934 72.9721756,56.3781606 72.9721756,50.0094599 L72.9721756,39.6108613 L56.2929951,39.6108613 Z" id="Fill-9" fill="#DEDDE0"></path>
            <polygon id="Fill-10" fill="#786145" points="62.547278 54.1689927 66.7178927 54.1689927 66.7178927 48.1380438 62.547278 48.1380438"></polygon>
            <path d="M68.8024976,45.849927 C68.8024976,43.5524672 66.9356488,41.6901606 64.6325854,41.6901606 C62.329522,41.6901606 60.4629073,43.5524672 60.4629073,45.849927 C59.3113756,45.849927 58.3773659,46.7814307 58.3773659,47.9301606 C58.3773659,49.0788905 59.3113756,50.0094599 60.4629073,50.0094599 L68.8024976,50.0094599 C69.9540293,50.0094599 70.8868683,49.0788905 70.8868683,47.9301606 C70.8868683,46.7814307 69.9540293,45.849927 68.8024976,45.849927 Z" id="Fill-11" fill="#6DA544"></path>
        </g>
    </g>
</svg>