<?xml version="1.0" encoding="UTF-8"?>
<svg width="96px" height="96px" viewBox="0 0 96 96" version="1.1" xmlns="http://www.w3.org/2000/svg" xmlns:xlink="http://www.w3.org/1999/xlink">
    <title>eritrea</title>
    <desc>designed by Freepik from Flaticon</desc>
    <defs>
        <polygon id="path-1" points="0.0140487805 0.0934306569 0.0140487805 81.7557968 95.9068098 81.7557968 95.9068098 0.0934306569"></polygon>
    </defs>
    <g id="Page-1" stroke="none" stroke-width="1" fill="none" fill-rule="evenodd">
        <g id="eritrea">
            <path d="M43.7834927,43.7703942 C43.7834927,43.7703942 14.0733659,81.7623358 14.0450341,81.7548613 C22.7232,90.4119124 34.7112585,95.7668905 47.9534049,95.7668905 C74.4365268,95.7668905 95.9068098,74.3488467 95.9068098,47.9301606 L43.7834927,43.7703942 Z" id="Fill-1" fill="#338AF3"></path>
            <g id="Group-5">
                <mask id="mask-2" fill="white">
                    <use xlink:href="#path-1"></use>
                </mask>
                <g id="Clip-3"></g>
                <path d="M43.7834927,47.9301606 C43.7834927,47.9301606 14.0733659,14.0979854 14.0450341,14.104292 C22.7232,5.44747445 34.7112585,0.0934306569 47.9534049,0.0934306569 C74.4365268,0.0934306569 95.9068098,21.5103066 95.9068098,47.9301606 L43.7834927,47.9301606 Z" id="Fill-2" fill="#6DA544" mask="url(#mask-2)"></path>
                <path d="M14.0450341,14.104292 C-4.68199024,32.7859854 -4.68199024,63.0743358 14.0450341,81.7557956 C14.0440976,81.7630365 95.9068098,47.9301606 95.9068098,47.9301606 L14.0450341,14.104292 Z" id="Fill-4" fill="#D80027" mask="url(#mask-2)"></path>
            </g>
            <path d="M25.0190049,28.1709781 C15.8222049,28.1709781 8.33959024,35.6353869 8.33959024,44.8095766 L8.33959024,51.0495766 C8.33959024,60.224 15.8222049,67.6884088 25.0190049,67.6884088 C34.2155707,67.6884088 41.6981854,60.224 41.6981854,51.0495766 L41.6981854,44.8095766 C41.6981854,35.6353869 34.2165073,28.1709781 25.0190049,28.1709781 Z M35.4439024,51.0495766 C35.4439024,55.6975182 32.3716683,59.6416934 28.1460293,60.9702774 L28.1460293,54.1692263 L32.5718634,49.7548613 L28.148839,45.3435328 L28.1460293,43.7731971 L28.1460293,41.6910949 L21.8917463,41.6910949 L21.8917463,47.9301606 L17.4694244,52.3414891 L21.8917463,56.7521168 L21.8917463,60.9702774 C17.6670439,59.6416934 14.5948098,55.6975182 14.5948098,51.0495766 L14.5948098,44.8105109 C14.5948098,39.0762044 19.2714146,34.4109781 25.0190049,34.4109781 C30.7672976,34.4109781 35.4439024,39.0762044 35.4439024,44.8105109 L35.4439024,51.0495766 Z" id="Fill-6" fill="#FFDA44"></path>
        </g>
    </g>
</svg>