<?xml version="1.0" encoding="UTF-8"?>
<svg width="96px" height="96px" viewBox="0 0 96 96" version="1.1" xmlns="http://www.w3.org/2000/svg" xmlns:xlink="http://www.w3.org/1999/xlink">
    <title>ethiopia</title>
    <desc>designed by Freepik from Flaticon</desc>
    <defs>
        <polygon id="path-1" points="0.0140487805 0.0369051095 0.0140487805 41.633635 95.9068098 41.633635 95.9068098 0.0369051095"></polygon>
    </defs>
    <g id="Page-1" stroke="none" stroke-width="1" fill="none" fill-rule="evenodd">
        <g id="ethiopia">
            <g id="Group-3" transform="translate(0.000000, 27.094891)">
                <mask id="mask-2" fill="white">
                    <use xlink:href="#path-1"></use>
                </mask>
                <g id="Clip-2"></g>
                <path d="M0,20.8352701 C0,26.6865985 1.05553171,32.2915036 2.9825561,37.4738686 L47.9534049,41.633635 L92.9230829,37.4738686 C94.851278,32.2915036 95.9068098,26.6865985 95.9068098,20.8352701 C95.9068098,15.064292 94.8814829,9.53132847 93.0036293,4.40922628 L47.9534049,0.0369051095 L2.9022439,4.40922628 C1.02439024,9.53132847 0,15.064292 0,20.8352701 Z" id="Fill-1" fill="#FFDA44" mask="url(#mask-2)"></path>
            </g>
            <path d="M47.9534049,95.7668905 C68.5709268,95.7668905 86.1485268,82.7849343 92.9240195,64.5687591 L2.9825561,64.5687591 C9.75828293,82.7849343 27.3347122,95.7668905 47.9534049,95.7668905 Z" id="Fill-4" fill="#D80027"></path>
            <path d="M47.9534049,0.0934306569 C27.3347122,0.0934306569 9.75828293,13.0751533 2.9825561,31.2913285 L92.9240195,31.2913285 C86.1485268,13.0751533 68.5709268,0.0934306569 47.9534049,0.0934306569 Z" id="Fill-5" fill="#6DA544"></path>
            <path d="M70.8868683,47.9301606 C70.8868683,60.5652555 60.6193171,70.8078248 47.9534049,70.8078248 C35.2865561,70.8078248 25.0190049,60.5652555 25.0190049,47.9301606 C25.0190049,35.2941314 35.2865561,25.051562 47.9534049,25.051562 C60.6193171,25.051562 70.8868683,35.2941314 70.8868683,47.9301606 Z" id="Fill-6" fill="#0052B4"></path>
            <polygon id="Fill-7" fill="#FFDA44" points="47.9477854 30.2138394 52.0884293 42.9246131 65.507122 42.9246131 54.6467122 50.7804964 58.8192 63.5286423 47.9477854 55.6353869 37.0939317 63.5141606 41.2490927 50.7804964 30.3987512 42.9246131 43.8083122 42.9246131"></polygon>
            <polygon id="Fill-8" fill="#FFDA44" points="64.460722 51.0934891 51.3265171 46.8360876 59.4429659 35.6919124 56.0698537 33.2465985 47.9524683 44.391708 39.8360195 33.2465985 36.4629073 35.6909781 44.5793561 46.8370219 31.4460878 51.0934891 32.7348293 55.0495766 45.8680976 50.7933431 45.8680976 64.5687591 50.0377756 64.5687591 50.0377756 50.7924088 63.1710439 55.0495766"></polygon>
        </g>
    </g>
</svg>