<?xml version="1.0" encoding="UTF-8"?>
<svg width="96px" height="96px" viewBox="0 0 96 96" version="1.1" xmlns="http://www.w3.org/2000/svg" xmlns:xlink="http://www.w3.org/1999/xlink">
    <title>french-polynesia</title>
    <desc>designed by Freepik from Flaticon</desc>
    <defs>
        <polygon id="path-1" points="0.0140487805 0.0934306569 0.0140487805 95.7668905 95.9068098 95.7668905 95.9068098 0.0934306569"></polygon>
    </defs>
    <g id="Page-1" stroke="none" stroke-width="1" fill="none" fill-rule="evenodd">
        <g id="french-polynesia">
            <g id="Group-3">
                <mask id="mask-2" fill="white">
                    <use xlink:href="#path-1"></use>
                </mask>
                <g id="Clip-2"></g>
                <path d="M95.9068098,47.9301606 C95.9068098,74.3488467 74.4365268,95.7668905 47.9534049,95.7668905 C21.4691122,95.7668905 0,74.3488467 0,47.9301606 C0,21.5103066 21.4691122,0.0934306569 47.9534049,0.0934306569 C74.4365268,0.0934306569 95.9068098,21.5103066 95.9068098,47.9301606 Z" id="Fill-1" fill="#F3F3F3" mask="url(#mask-2)"></path>
            </g>
            <path d="M5.8307122,25.051562 L90.0758634,25.051562 C81.9430244,10.1818394 66.1299512,0.0934306569 47.9534049,0.0934306569 C29.7768585,0.0934306569 13.9637854,10.1818394 5.8307122,25.051562 Z" id="Fill-4" fill="#D80027"></path>
            <path d="M47.9534049,95.7668905 C66.1299512,95.7668905 81.9430244,85.6782482 90.0758634,70.8078248 L5.8307122,70.8078248 C13.9637854,85.6782482 29.7768585,95.7668905 47.9534049,95.7668905 Z" id="Fill-5" fill="#D80027"></path>
            <path d="M64.6325854,47.9301606 C64.6325854,57.1190657 57.164722,62.4885255 47.9534049,62.4885255 C38.7411512,62.4885255 31.2739902,57.1190657 31.2739902,47.9301606 C31.2739902,38.7403212 38.7411512,31.2913285 47.9534049,31.2913285 C57.164722,31.2913285 64.6325854,38.7403212 64.6325854,47.9301606 Z" id="Fill-6" fill="#FFDA44"></path>
            <path d="M64.6325854,47.9301606 C64.6325854,57.1190657 57.164722,64.5687591 47.9534049,64.5687591 C38.7411512,64.5687591 31.2739902,57.1190657 31.2739902,47.9301606" id="Fill-7" fill="#0052B4"></path>
            <polygon id="Fill-8" fill="#D80027" points="37.5282732 52.0896934 41.6981854 52.0896934 41.6981854 43.7703942 37.5282732 43.7703942"></polygon>
            <polygon id="Fill-9" fill="#D80027" points="54.2076878 52.0896934 58.3776 52.0896934 58.3776 43.7703942 54.2076878 43.7703942"></polygon>
            <polygon id="Fill-10" fill="#D80027" points="45.8680976 52.0896934 50.0380098 52.0896934 50.0380098 37.5303942 45.8680976 37.5303942"></polygon>
        </g>
    </g>
</svg>