<?xml version="1.0" encoding="UTF-8"?>
<svg width="96px" height="96px" viewBox="0 0 96 96" version="1.1" xmlns="http://www.w3.org/2000/svg" xmlns:xlink="http://www.w3.org/1999/xlink">
    <title>gambia</title>
    <desc>designed by Freepik from Flaticon</desc>
    <defs>
        <polygon id="path-1" points="0.0140487805 0.0934306569 0.0140487805 95.7668905 95.9068098 95.7668905 95.9068098 0.0934306569"></polygon>
        <polygon id="path-3" points="0.0140487805 0.181021898 0.0140487805 60.4968175 95.9068098 60.4968175 95.9068098 0.181021898"></polygon>
    </defs>
    <g id="Page-1" stroke="none" stroke-width="1" fill="none" fill-rule="evenodd">
        <g id="gambia">
            <g id="Group-3">
                <mask id="mask-2" fill="white">
                    <use xlink:href="#path-1"></use>
                </mask>
                <g id="Clip-2"></g>
                <path d="M95.9068098,47.9301606 C95.9068098,74.3488467 74.4365268,95.7668905 47.9534049,95.7668905 C21.4691122,95.7668905 0,74.3488467 0,47.9301606 C0,21.5103066 21.4691122,0.0934306569 47.9534049,0.0934306569 C74.4365268,0.0934306569 95.9068098,21.5103066 95.9068098,47.9301606 Z" id="Fill-1" fill="#F3F3F3" mask="url(#mask-2)"></path>
            </g>
            <path d="M47.9534049,0.0934306569 C28.1287024,0.0934306569 11.1146927,12.094365 3.8112,29.2110949 L92.0953756,29.2110949 C84.7921171,12.094365 67.7781073,0.0934306569 47.9534049,0.0934306569 Z" id="Fill-4" fill="#A2001D"></path>
            <g id="Group-8" transform="translate(0.000000, 35.270073)">
                <mask id="mask-4" fill="white">
                    <use xlink:href="#path-3"></use>
                </mask>
                <g id="Clip-6"></g>
                <path d="M47.9534049,60.4968175 C67.7781073,60.4968175 84.7921171,48.4949489 92.094439,31.3779854 L3.8112,31.3779854 C11.1146927,48.4949489 28.1287024,60.4968175 47.9534049,60.4968175 Z" id="Fill-5" fill="#496E2D" mask="url(#mask-4)"></path>
                <path d="M94.2539707,0.181021898 L1.65190244,0.181021898 C0.577170732,4.15906569 0,8.34148905 0,12.6600876 C0,16.9775182 0.577170732,21.1599416 1.65190244,25.1391533 L94.2549073,25.1391533 C95.329639,21.1599416 95.9068098,16.9775182 95.9068098,12.6600876 C95.9068098,8.34148905 95.329639,4.15906569 94.2539707,0.181021898 Z" id="Fill-7" fill="#0052B4" mask="url(#mask-4)"></path>
            </g>
        </g>
    </g>
</svg>