<?xml version="1.0" encoding="UTF-8"?>
<svg width="96px" height="96px" viewBox="0 0 96 96" version="1.1" xmlns="http://www.w3.org/2000/svg" xmlns:xlink="http://www.w3.org/1999/xlink">
    <title>georgia</title>
    <desc>designed by Freepik from Flaticon</desc>
    <defs>
        <polygon id="path-1" points="0.0140487805 0.0934306569 0.0140487805 95.7668905 95.9068098 95.7668905 95.9068098 0.0934306569"></polygon>
    </defs>
    <g id="Page-1" stroke="none" stroke-width="1" fill="none" fill-rule="evenodd">
        <g id="georgia">
            <g id="Group-4">
                <mask id="mask-2" fill="white">
                    <use xlink:href="#path-1"></use>
                </mask>
                <g id="Clip-2"></g>
                <path d="M95.9068098,47.9301606 C95.9068098,74.3488467 74.4365268,95.7668905 47.9534049,95.7668905 C21.4691122,95.7668905 0,74.3488467 0,47.9301606 C0,21.5103066 21.4691122,0.0934306569 47.9534049,0.0934306569 C74.4365268,0.0934306569 95.9068098,21.5103066 95.9068098,47.9301606 Z" id="Fill-1" fill="#F3F3F3" mask="url(#mask-2)"></path>
                <path d="M95.5005659,41.6901606 L54.2076878,41.6901606 L54.2076878,0.498452555 C52.1607805,0.232175182 50.0733659,0.0934306569 47.9534049,0.0934306569 C45.8332098,0.0934306569 43.7460293,0.232175182 41.6981854,0.498452555 L41.6981854,41.6901606 L0.406009756,41.6901606 C0.139082927,43.7330219 0,45.8151241 0,47.9301606 C0,50.0449635 0.139082927,52.1272993 0.406009756,54.1692263 L41.6981854,54.1692263 L41.6981854,95.361635 C43.7460293,95.6272117 45.8332098,95.7668905 47.9534049,95.7668905 C50.0733659,95.7668905 52.1607805,95.6272117 54.2076878,95.361635 L54.2076878,54.1692263 L95.5005659,54.1692263 C95.7667902,52.1272993 95.9068098,50.0449635 95.9068098,47.9301606 C95.9068098,45.8151241 95.7667902,43.7330219 95.5005659,41.6901606 Z" id="Fill-3" fill="#D80027" mask="url(#mask-2)"></path>
            </g>
            <polygon id="Fill-5" fill="#D80027" points="29.1886829 22.9720292 29.1886829 16.7320292 22.9344 16.7320292 22.9344 22.9720292 16.6791805 22.9720292 16.6791805 29.2110949 22.9344 29.2110949 22.9344 35.4510949 29.1886829 35.4510949 29.1886829 29.2110949 35.4439024 29.2110949 35.4439024 22.9720292"></polygon>
            <polygon id="Fill-6" fill="#D80027" points="72.9721756 22.9720292 72.9721756 16.7320292 66.7171902 16.7320292 66.7171902 22.9720292 60.4629073 22.9720292 60.4629073 29.2110949 66.7171902 29.2110949 66.7171902 35.4510949 72.9721756 35.4510949 72.9721756 29.2110949 79.2273951 29.2110949 79.2273951 22.9720292"></polygon>
            <polygon id="Fill-7" fill="#D80027" points="29.1886829 66.6480584 29.1886829 60.4092263 22.9344 60.4092263 22.9344 66.6480584 16.6791805 66.6480584 16.6791805 72.8880584 22.9344 72.8880584 22.9344 79.1280584 29.1886829 79.1280584 29.1886829 72.8880584 35.4439024 72.8880584 35.4439024 66.6480584"></polygon>
            <polygon id="Fill-8" fill="#D80027" points="72.9721756 66.6480584 72.9721756 60.4092263 66.7171902 60.4092263 66.7171902 66.6480584 60.4629073 66.6480584 60.4629073 72.8880584 66.7171902 72.8880584 66.7171902 79.1280584 72.9721756 79.1280584 72.9721756 72.8880584 79.2273951 72.8880584 79.2273951 66.6480584"></polygon>
        </g>
    </g>
</svg>