<?xml version="1.0" encoding="UTF-8"?>
<svg width="96px" height="96px" viewBox="0 0 96 96" version="1.1" xmlns="http://www.w3.org/2000/svg" xmlns:xlink="http://www.w3.org/1999/xlink">
    <title>germany</title>
    <desc>designed by Freepik from Flaticon</desc>
    <defs>
        <polygon id="path-1" points="0.0140487805 0.0934306569 0.0140487805 64.5687591 95.9068098 64.5687591 95.9068098 0.0934306569"></polygon>
    </defs>
    <g id="Page-1" stroke="none" stroke-width="1" fill="none" fill-rule="evenodd">
        <g id="germany">
            <path d="M2.9825561,64.5687591 C9.75828293,82.7849343 27.3347122,95.7668905 47.9534049,95.7668905 C68.5709268,95.7668905 86.1485268,82.7849343 92.9240195,64.5687591 L47.9534049,60.4092263 L2.9825561,64.5687591 Z" id="Fill-1" fill="#FFDA44"></path>
            <g id="Group-5">
                <mask id="mask-2" fill="white">
                    <use xlink:href="#path-1"></use>
                </mask>
                <g id="Clip-3"></g>
                <path d="M47.9534049,0.0934306569 C27.3347122,0.0934306569 9.75828293,13.0751533 2.9825561,31.2913285 L47.9534049,35.4510949 L92.9240195,31.2913285 C86.1485268,13.0751533 68.5709268,0.0934306569 47.9534049,0.0934306569 Z" id="Fill-2" fill="#000000" mask="url(#mask-2)"></path>
                <path d="M2.9825561,31.2913285 C1.05553171,36.473927 0,42.0788321 0,47.9301606 C0,53.7814891 1.05553171,59.3863942 2.9825561,64.5687591 L92.9240195,64.5687591 C94.851278,59.3863942 95.9068098,53.7814891 95.9068098,47.9301606 C95.9068098,42.0788321 94.851278,36.473927 92.9240195,31.2913285 L2.9825561,31.2913285 Z" id="Fill-4" fill="#D80027" mask="url(#mask-2)"></path>
            </g>
        </g>
    </g>
</svg>