<?xml version="1.0" encoding="UTF-8"?>
<svg width="96px" height="96px" viewBox="0 0 96 96" version="1.1" xmlns="http://www.w3.org/2000/svg" xmlns:xlink="http://www.w3.org/1999/xlink">
    <title>guam</title>
    <desc>designed by Freepik from Flaticon</desc>
    <defs>
        <polygon id="path-1" points="0.0140487805 0.0934306569 0.0140487805 87.4464234 95.9068098 87.4464234 95.9068098 0.0934306569"></polygon>
    </defs>
    <g id="Page-1" stroke="none" stroke-width="1" fill="none" fill-rule="evenodd">
        <g id="guam">
            <path d="M20.9258927,87.4464234 C28.6215805,92.6946569 37.9270244,95.7668905 47.9534049,95.7668905 C57.9786146,95.7668905 67.2849951,92.6946569 74.9806829,87.4464234 L47.9534049,83.2868905 L20.9258927,87.4464234 Z" id="Fill-1" fill="#D80027"></path>
            <g id="Group-5">
                <mask id="mask-2" fill="white">
                    <use xlink:href="#path-1"></use>
                </mask>
                <g id="Clip-3"></g>
                <path d="M74.9806829,8.41272993 C67.2849951,3.16449635 57.9786146,0.0934306569 47.9534049,0.0934306569 C37.9270244,0.0934306569 28.6215805,3.16449635 20.9258927,8.41272993 L47.9534049,12.5724964 L74.9806829,8.41272993 Z" id="Fill-2" fill="#D80027" mask="url(#mask-2)"></path>
                <path d="M95.9068098,47.9301606 C95.9068098,32.1006715 86.406322,16.2048467 74.9806829,8.41272993 L20.9258927,8.41272993 C8.29205854,17.0277372 0,31.512292 0,47.9301606 C0,64.3480292 8.29205854,78.8316496 20.9258927,87.4464234 L74.9806829,87.4464234 C87.6138146,78.8316496 95.9068098,64.3480292 95.9068098,47.9301606 Z" id="Fill-4" fill="#0052B4" mask="url(#mask-2)"></path>
            </g>
            <path d="M45.2396488,78.1262482 C44.5838049,77.5651971 29.1886829,64.2148905 29.1886829,47.9301606 C29.1886829,31.6454307 44.5838049,18.2941898 45.2396488,17.7338394 L47.9534049,15.4137226 L50.667161,17.7338394 C51.3220683,18.2941898 66.7171902,31.6444964 66.7171902,47.9301606 C66.7171902,64.2148905 51.3220683,77.5661314 50.667161,78.1262482 L47.9534049,80.4465985 L45.2396488,78.1262482 Z" id="Fill-6" fill="#D80027"></path>
            <path d="M62.547278,47.9301606 C62.547278,33.3708613 47.9534049,20.8917956 47.9534049,20.8917956 C47.9534049,20.8917956 33.3585951,33.3717956 33.3585951,47.9301606 C33.3585951,52.3835328 34.7260098,56.6418686 36.6218927,60.4092263 L59.2846829,60.4092263 C61.1808,56.6418686 62.547278,52.3835328 62.547278,47.9301606 Z" id="Fill-7" fill="#338AF3"></path>
            <path d="M62.547278,47.9301606 C62.547278,52.3835328 61.1808,56.6418686 59.2846829,60.4092263 L47.9534049,62.4885255 L36.6218927,60.4092263 C34.7260098,56.6428029 33.3585951,52.3835328 33.3585951,47.9301606 L62.547278,47.9301606 Z" id="Fill-8" fill="#0052B4"></path>
            <path d="M47.9534049,74.9685255 C47.9534049,74.9685255 54.9831805,68.955562 59.2846829,60.4092263 L36.6218927,60.4092263 C40.9233951,68.955562 47.9534049,74.9685255 47.9534049,74.9685255 Z" id="Fill-9" fill="#FFDA44"></path>
            <polygon id="Fill-10" fill="#6DA544" points="38.5709268 39.6108613 57.3356488 39.6108613 47.9534049 48.9702774"></polygon>
            <polygon id="Fill-11" fill="#A2001D" points="44.8252098 64.5689927 51.0804293 64.5689927 51.0804293 45.849927 44.8252098 45.849927"></polygon>
        </g>
    </g>
</svg>