<?xml version="1.0" encoding="UTF-8"?>
<svg width="96px" height="96px" viewBox="0 0 96 96" version="1.1" xmlns="http://www.w3.org/2000/svg" xmlns:xlink="http://www.w3.org/1999/xlink">
    <title>guatemala</title>
    <desc>designed by Freepik from Flaticon</desc>
    <defs>
        <polygon id="path-1" points="0.0140487805 0.0934306569 0.0140487805 95.7668905 95.9068098 95.7668905 95.9068098 0.0934306569"></polygon>
    </defs>
    <g id="Page-1" stroke="none" stroke-width="1" fill="none" fill-rule="evenodd">
        <g id="guatemala">
            <g id="Group-5">
                <mask id="mask-2" fill="white">
                    <use xlink:href="#path-1"></use>
                </mask>
                <g id="Clip-2"></g>
                <path d="M95.9068098,47.9301606 C95.9068098,74.3488467 74.4365268,95.7668905 47.9534049,95.7668905 C21.4691122,95.7668905 0,74.3488467 0,47.9301606 C0,21.5103066 21.4691122,0.0934306569 47.9534049,0.0934306569 C74.4365268,0.0934306569 95.9068098,21.5103066 95.9068098,47.9301606 Z" id="Fill-1" fill="#F3F3F3" mask="url(#mask-2)"></path>
                <path d="M95.9068098,47.9301606 C95.9068098,28.9646715 84.8424585,12.5778686 68.8024976,4.83970803 L68.8024976,91.0194453 C84.8424585,83.282219 95.9068098,66.8954161 95.9068098,47.9301606 Z" id="Fill-3" fill="#338AF3" mask="url(#mask-2)"></path>
                <path d="M0,47.9301606 C0,66.8954161 11.0643512,83.282219 27.1043122,91.0194453 L27.1043122,4.83970803 C11.0643512,12.5778686 0,28.9646715 0,47.9301606 Z" id="Fill-4" fill="#338AF3" mask="url(#mask-2)"></path>
            </g>
            <polygon id="Fill-6" fill="#ACABB1" points="60.4846829 56.0186861 52.3764293 47.9301606 60.0941268 40.2303066 59.7447805 36.1646715 57.5351415 33.9592409 47.9534049 43.5176642 38.3716683 33.9592409 36.1617951 36.1646715 35.8124488 40.2303066 43.5301463 47.9301606 35.4218927 56.0186861 39.8451512 60.4309489 47.9534049 52.3424234 56.0616585 60.4309489"></polygon>
            <path d="M59.7475902,36.1646715 L55.3243317,40.5769343 C57.2113171,42.4583942 58.3783024,45.0578686 58.3783024,47.9301606 C58.3783024,53.6738102 53.7110634,58.3287591 47.9534049,58.3287591 C42.1957463,58.3287591 37.5282732,53.6738102 37.5282732,47.9301606 C37.5282732,45.0578686 38.6954927,42.4583942 40.5822439,40.5769343 L36.1592195,36.1646715 C33.140839,39.1754745 31.2739902,43.3352409 31.2739902,47.9301606 C31.2739902,57.1190657 38.7411512,64.5687591 47.9534049,64.5687591 C57.164722,64.5687591 64.6325854,57.1190657 64.6325854,47.9301606 C64.6325854,43.3352409 62.7657366,39.1754745 59.7475902,36.1646715 Z" id="Fill-7" fill="#6DA544"></path>
        </g>
    </g>
</svg>