<?xml version="1.0" encoding="UTF-8"?>
<svg width="96px" height="96px" viewBox="0 0 96 96" version="1.1" xmlns="http://www.w3.org/2000/svg" xmlns:xlink="http://www.w3.org/1999/xlink">
    <title>haiti</title>
    <desc>designed by Freepik from Flaticon</desc>
    <defs>
        <polygon id="path-1" points="0.0140487805 0.0934306569 0.0140487805 95.7668905 95.9068098 95.7668905 95.9068098 0.0934306569"></polygon>
    </defs>
    <g id="Page-1" stroke="none" stroke-width="1" fill="none" fill-rule="evenodd">
        <g id="haiti">
            <g id="Group-4">
                <mask id="mask-2" fill="white">
                    <use xlink:href="#path-1"></use>
                </mask>
                <g id="Clip-2"></g>
                <path d="M95.9068098,47.9301606 C95.9068098,74.3488467 74.4365268,95.7668905 47.9534049,95.7668905 C21.4691122,95.7668905 0,74.3488467 0,47.9301606 C0,21.5103066 47.9534049,0.0934306569 47.9534049,0.0934306569 C47.9534049,0.0934306569 95.9068098,21.5103066 95.9068098,47.9301606 Z" id="Fill-1" fill="#A2001D" mask="url(#mask-2)"></path>
                <path d="M0,47.9301606 C0,21.5103066 21.4691122,0.0934306569 47.9534049,0.0934306569 C74.4365268,0.0934306569 95.9068098,21.5103066 95.9068098,47.9301606" id="Fill-3" fill="#0052B4" mask="url(#mask-2)"></path>
            </g>
            <polygon id="Fill-5" fill="#F3F3F3" points="64.6325854 60.4092263 47.9534049 58.3287591 31.2739902 60.4092263 31.2739902 35.4510949 64.6325854 35.4510949"></polygon>
            <path d="M56.2929951,50.0094599 C56.2929951,54.6043796 52.5595317,58.3287591 47.9534049,58.3287591 C43.347278,58.3287591 39.6138146,54.6043796 39.6138146,50.0094599 C39.6138146,45.4145401 43.347278,41.6901606 47.9534049,41.6901606 C52.5595317,41.6901606 56.2929951,45.4145401 56.2929951,50.0094599 Z" id="Fill-6" fill="#0052B4"></path>
            <path d="M52.1230829,50.0094599 C52.1230829,52.3069197 50.2564683,54.1692263 47.9534049,54.1692263 C45.6503415,54.1692263 43.7834927,52.3069197 43.7834927,50.0094599 C43.7834927,47.712 45.6503415,45.849927 47.9534049,45.849927 C50.2564683,45.849927 52.1230829,47.712 52.1230829,50.0094599 Z" id="Fill-7" fill="#A2001D"></path>
            <polygon id="Fill-8" fill="#6DA544" points="41.6981854 39.6108613 54.2076878 39.6108613 47.9534049 45.849927"></polygon>
            <polygon id="Fill-9" fill="#FFDA44" points="45.8680976 56.2494599 50.0380098 56.2494599 50.0380098 43.7703942 45.8680976 43.7703942"></polygon>
            <polygon id="Fill-10" fill="#6DA544" points="54.6247024 55.0012263 41.2811707 55.0012263 31.2739902 60.4092263 64.6325854 60.4092263"></polygon>
        </g>
    </g>
</svg>