<?xml version="1.0" encoding="UTF-8"?>
<svg width="96px" height="96px" viewBox="0 0 96 96" version="1.1" xmlns="http://www.w3.org/2000/svg" xmlns:xlink="http://www.w3.org/1999/xlink">
    <title>honduras</title>
    <desc>designed by Freepik from Flaticon</desc>
    <defs>
        <polygon id="path-1" points="0.0140487805 0.0934306569 0.0140487805 95.7668905 95.9068098 95.7668905 95.9068098 0.0934306569"></polygon>
    </defs>
    <g id="Page-1" stroke="none" stroke-width="1" fill="none" fill-rule="evenodd">
        <g id="honduras">
            <g id="Group-3">
                <mask id="mask-2" fill="white">
                    <use xlink:href="#path-1"></use>
                </mask>
                <g id="Clip-2"></g>
                <path d="M95.9068098,47.9301606 C95.9068098,74.3488467 74.4365268,95.7668905 47.9534049,95.7668905 C21.4691122,95.7668905 0,74.3488467 0,47.9301606 C0,21.5103066 21.4691122,0.0934306569 47.9534049,0.0934306569 C74.4365268,0.0934306569 95.9068098,21.5103066 95.9068098,47.9301606 Z" id="Fill-1" fill="#F3F3F3" mask="url(#mask-2)"></path>
            </g>
            <path d="M47.9534049,95.7668905 C66.9649171,95.7668905 83.3916878,84.7294599 91.1477854,68.7285255 L4.75785366,68.7285255 C12.5148878,84.7294599 28.9416585,95.7668905 47.9534049,95.7668905 Z" id="Fill-4" fill="#338AF3"></path>
            <path d="M47.9534049,0.0934306569 C28.9416585,0.0934306569 12.5148878,11.1308613 4.75785366,27.1317956 L91.1477854,27.1317956 C83.3916878,11.1308613 66.9649171,0.0934306569 47.9534049,0.0934306569 Z" id="Fill-5" fill="#338AF3"></path>
            <polygon id="Fill-6" fill="#338AF3" points="29.5106341 31.2913285 31.0637268 36.057927 36.0878049 36.057927 32.0232585 39.0040292 33.5754146 43.7703942 29.5106341 40.824292 25.4460878 43.7703942 26.9991805 39.0040292 22.9344 36.057927 27.958478 36.057927"></polygon>
            <polygon id="Fill-7" fill="#338AF3" points="29.5106341 52.0896934 31.0637268 56.856292 36.0878049 56.856292 32.0232585 59.8023942 33.5754146 64.5687591 29.5106341 61.6226569 25.4460878 64.5687591 26.9991805 59.8023942 22.9344 56.856292 27.958478 56.856292"></polygon>
            <polygon id="Fill-8" fill="#338AF3" points="66.3950049 31.2913285 67.9480976 36.057927 72.9721756 36.057927 68.9076293 39.0040292 70.460722 43.7703942 66.3950049 40.824292 62.3304585 43.7703942 63.8835512 39.0040292 59.8190049 36.057927 64.8430829 36.057927"></polygon>
            <polygon id="Fill-9" fill="#338AF3" points="66.3950049 52.0896934 67.9480976 56.856292 72.9721756 56.856292 68.9076293 59.8023942 70.460722 64.5687591 66.3950049 61.6226569 62.3304585 64.5687591 63.8835512 59.8023942 59.8190049 56.856292 64.8430829 56.856292"></polygon>
            <polygon id="Fill-10" fill="#338AF3" points="47.9534049 41.6901606 49.505561 46.4574599 54.529639 46.4574599 50.4648585 49.4026277 52.0179512 54.1692263 47.9534049 51.2238248 43.8886244 54.1692263 45.4407805 49.4026277 41.3762341 46.4574599 46.4003122 46.4574599"></polygon>
        </g>
    </g>
</svg>