<?xml version="1.0" encoding="UTF-8"?>
<svg width="96px" height="96px" viewBox="0 0 96 96" version="1.1" xmlns="http://www.w3.org/2000/svg" xmlns:xlink="http://www.w3.org/1999/xlink">
    <title>hong-kong</title>
    <desc>designed by Freepik from Flaticon</desc>
    <defs>
        <polygon id="path-1" points="0.0140487805 0.0934306569 0.0140487805 95.7668905 95.9068098 95.7668905 95.9068098 0.0934306569"></polygon>
    </defs>
    <g id="Page-1" stroke="none" stroke-width="1" fill="none" fill-rule="evenodd">
        <g id="hong-kong">
            <g id="Group-3">
                <mask id="mask-2" fill="white">
                    <use xlink:href="#path-1"></use>
                </mask>
                <g id="Clip-2"></g>
                <path d="M95.9068098,47.9301606 C95.9068098,74.3488467 74.4365268,95.7668905 47.9534049,95.7668905 C21.4691122,95.7668905 0,74.3488467 0,47.9301606 C0,21.5103066 21.4691122,0.0934306569 47.9534049,0.0934306569 C74.4365268,0.0934306569 95.9068098,21.5103066 95.9068098,47.9301606 Z" id="Fill-1" fill="#D80027" mask="url(#mask-2)"></path>
            </g>
            <path d="M52.9041951,36.2823942 C51.8140098,40.8042044 49.8778537,39.942073 48.9274537,43.8853139 C43.3299512,42.5431825 39.8826146,36.9272993 41.2280195,31.3434161 C42.5734244,25.7595328 48.2030049,22.3205839 53.8005073,23.6627153 C51.8999415,31.5496642 53.8791805,32.2384818 52.9041951,36.2823942 Z" id="Fill-4" fill="#F3F3F3"></path>
            <path d="M38.3789268,39.6335182 C42.3530927,42.0641168 40.9325268,43.6353869 44.3981268,45.7557956 C41.3881756,50.6517956 34.9702244,52.1863942 30.0622829,49.1847007 C25.1543415,46.1818394 23.6148293,39.7785693 26.6250146,34.8825693 C33.5559805,39.1236204 34.8238829,37.4584526 38.3789268,39.6335182 Z" id="Fill-5" fill="#F3F3F3"></path>
            <path d="M37.0848,54.450219 C40.6307122,51.4310073 41.6890537,53.2641168 44.7814244,50.6307737 C48.5195707,54.9993577 47.9990634,61.5633285 43.620761,65.2923796 C39.241522,69.0204964 32.6615415,68.5012555 28.9243317,64.1336058 C35.1081366,58.8671533 33.9128195,57.1498978 37.0848,54.450219 Z" id="Fill-6" fill="#F3F3F3"></path>
            <path d="M50.8106927,60.2557664 C49.0272,55.9593577 51.1015024,55.5214015 49.5474732,51.7741314 C54.8670439,49.5778102 60.9649171,52.0988029 63.166361,57.4054307 C65.368039,62.7129927 62.839961,68.7950949 57.5203902,70.9911825 C54.4116293,63.4966423 52.404761,64.0997372 50.8106927,60.2557664 Z" id="Fill-7" fill="#F3F3F3"></path>
            <path d="M60.5881756,49.0277372 C55.9399024,49.3918832 56.1630439,47.2878248 52.110439,47.6052555 C51.6604098,41.8798248 55.9480976,36.8735766 61.6884293,36.423708 C67.4278244,35.975708 72.4453463,40.2531971 72.8953756,45.9793285 C64.7889951,46.6134891 64.7442732,48.7028321 60.5881756,49.0277372 Z" id="Fill-8" fill="#F3F3F3"></path>
        </g>
    </g>
</svg>