<?xml version="1.0" encoding="UTF-8"?>
<svg width="96px" height="96px" viewBox="0 0 96 96" version="1.1" xmlns="http://www.w3.org/2000/svg" xmlns:xlink="http://www.w3.org/1999/xlink">
    <title>iceland</title>
    <desc>designed by Freepik from Flaticon</desc>
    <defs>
        <polygon id="path-1" points="0.0140487805 0.0934306569 0.0140487805 95.7668905 95.9068098 95.7668905 95.9068098 0.0934306569"></polygon>
        <polygon id="path-3" points="0.0140487805 0.0623649635 0.0140487805 93.4610219 95.9068098 93.4610219 95.9068098 0.0623649635 0.0140487805 0.0623649635"></polygon>
    </defs>
    <g id="Page-1" stroke="none" stroke-width="1" fill="none" fill-rule="evenodd">
        <g id="iceland">
            <g id="Group-3">
                <mask id="mask-2" fill="white">
                    <use xlink:href="#path-1"></use>
                </mask>
                <g id="Clip-2"></g>
                <path d="M95.9068098,47.9301606 C95.9068098,74.3488467 74.4365268,95.7668905 47.9534049,95.7668905 C21.4691122,95.7668905 0,74.3488467 0,47.9301606 C0,21.5103066 21.4691122,0.0934306569 47.9534049,0.0934306569 C74.4365268,0.0934306569 95.9068098,21.5103066 95.9068098,47.9301606 Z" id="Fill-1" fill="#F3F3F3" mask="url(#mask-2)"></path>
            </g>
            <path d="M1.65190244,60.4092263 C4.42677073,70.6791241 10.5412683,79.5797956 18.764722,85.8826277 L18.764722,60.4092263 L1.65190244,60.4092263 Z" id="Fill-4" fill="#0052B4"></path>
            <path d="M43.7834927,95.5842336 C45.1581659,95.7028905 46.5475902,95.7668905 47.9534049,95.7668905 C70.1085659,95.7668905 88.7515317,80.7759416 94.2539707,60.4092263 L43.7834927,60.4092263 L43.7834927,95.5842336 Z" id="Fill-5" fill="#0052B4"></path>
            <path d="M94.2539707,35.4510949 C88.7515317,15.0834453 70.1085659,0.0934306569 47.9534049,0.0934306569 C46.5475902,0.0934306569 45.1581659,0.15719708 43.7834927,0.274919708 L43.7834927,35.4510949 L94.2539707,35.4510949 Z" id="Fill-6" fill="#0052B4"></path>
            <g id="Group-10" transform="translate(0.000000, 1.167883)">
                <mask id="mask-4" fill="white">
                    <use xlink:href="#path-3"></use>
                </mask>
                <g id="Clip-8"></g>
                <path d="M18.764722,8.80957664 C10.5412683,15.1126423 4.42677073,24.0130803 1.65190244,34.2832117 L18.764722,34.2832117 L18.764722,8.80957664 Z" id="Fill-7" fill="#0052B4" mask="url(#mask-4)"></path>
                <path d="M95.5005659,40.5222774 L37.5282732,40.5222774 L37.5282732,0.0623649635 C33.0970537,1.04315328 28.896,2.63170803 25.0190049,4.74207299 L25.0190049,40.5222774 L0.406009756,40.5222774 C0.139082927,42.5651387 0,44.6472409 0,46.7622774 C0,48.8770803 0.139082927,50.9594161 0.406009756,53.0013431 L25.0190049,53.0013431 L25.0190049,88.7822482 C28.896,90.8916788 33.0970537,92.4811679 37.5282732,93.4610219 L37.5282732,53.0013431 L95.5005659,53.0013431 C95.7667902,50.9594161 95.9068098,48.8770803 95.9068098,46.7622774 C95.9068098,44.6472409 95.7667902,42.5651387 95.5005659,40.5222774 Z" id="Fill-9" fill="#D80027" mask="url(#mask-4)"></path>
            </g>
        </g>
    </g>
</svg>