<?xml version="1.0" encoding="UTF-8"?>
<svg width="96px" height="96px" viewBox="0 0 96 96" version="1.1" xmlns="http://www.w3.org/2000/svg" xmlns:xlink="http://www.w3.org/1999/xlink">
    <title>iran</title>
    <desc>designed by Freepik from Flaticon</desc>
    <defs>
        <polygon id="path-1" points="0.0140487805 0.0934306569 0.0140487805 95.7668905 95.9068098 95.7668905 95.9068098 0.0934306569"></polygon>
    </defs>
    <g id="Page-1" stroke="none" stroke-width="1" fill="none" fill-rule="evenodd">
        <g id="iran">
            <g id="Group-3">
                <mask id="mask-2" fill="white">
                    <use xlink:href="#path-1"></use>
                </mask>
                <g id="Clip-2"></g>
                <path d="M95.9068098,47.9301606 C95.9068098,74.3488467 74.4365268,95.7668905 47.9534049,95.7668905 C21.4691122,95.7668905 0,74.3488467 0,47.9301606 C0,21.5103066 21.4691122,0.0934306569 47.9534049,0.0934306569 C74.4365268,0.0934306569 95.9068098,21.5103066 95.9068098,47.9301606 Z" id="Fill-1" fill="#F3F3F3" mask="url(#mask-2)"></path>
            </g>
            <path d="M63.5276488,35.4510949 L57.2541659,35.4510949 C57.3054439,36.1389781 57.3356488,36.8324672 57.3356488,37.5303942 C57.3356488,42.1582482 56.175922,46.6436204 54.1545366,49.836146 C53.5307707,50.8206715 52.4827317,52.2111533 51.0804293,53.1491971 L51.0804293,35.4501606 L44.8252098,35.4501606 L44.8252098,53.1491971 C43.4231415,52.2111533 42.3751024,50.8206715 41.7511024,49.836146 C39.7299512,46.6436204 38.5709268,42.1582482 38.5709268,37.5303942 C38.5709268,36.8324672 38.6001951,36.1380438 38.6524098,35.4510949 L32.3779902,35.4510949 C32.3377171,36.1354745 32.3159415,36.8287299 32.3159415,37.5303942 C32.3159415,50.3598248 39.1848585,60.4092263 47.9524683,60.4092263 C56.7210146,60.4092263 63.5899317,50.3598248 63.5899317,37.5303942 C63.5899317,36.8287299 63.567922,36.1354745 63.5276488,35.4510949 Z" id="Fill-4" fill="#D80027"></path>
            <path d="M19.806439,22.9720292 L26.0616585,22.9720292 L26.0616585,27.1317956 L32.3159415,27.1317956 L32.3159415,22.9720292 L38.5709268,22.9720292 L38.5709268,27.1317956 L44.8252098,27.1317956 L44.8252098,22.9720292 L51.0804293,22.9720292 L51.0804293,27.1317956 L57.3347122,27.1317956 L57.3347122,22.9720292 L63.5899317,22.9720292 L63.5899317,27.1317956 L69.8442146,27.1317956 L69.8442146,22.9720292 L76.0994341,22.9720292 L76.0994341,27.1317956 L91.1477854,27.1317956 C83.3916878,11.1308613 66.9649171,0.0934306569 47.9534049,0.0934306569 C28.9416585,0.0934306569 12.5148878,11.1308613 4.75785366,27.1317956 L19.806439,27.1317956 L19.806439,22.9720292 Z" id="Fill-5" fill="#6DA544"></path>
            <path d="M76.0994341,68.7285255 L76.0994341,72.8880584 L69.8451512,72.8880584 L69.8451512,68.7285255 L63.5899317,68.7285255 L63.5899317,72.8880584 L57.3356488,72.8880584 L57.3356488,68.7285255 L51.0804293,68.7285255 L51.0804293,72.8880584 L44.8261463,72.8880584 L44.8261463,68.7285255 L38.5709268,68.7285255 L38.5709268,72.8880584 L32.316878,72.8880584 L32.316878,68.7285255 L26.0616585,68.7285255 L26.0616585,72.8880584 L19.806439,72.8880584 L19.806439,68.7285255 L4.75785366,68.7285255 C12.5148878,84.7294599 28.9416585,95.7668905 47.9534049,95.7668905 C66.9649171,95.7668905 83.3916878,84.7294599 91.1477854,68.7285255 L76.0994341,68.7285255 Z" id="Fill-6" fill="#D80027"></path>
        </g>
    </g>
</svg>