<?xml version="1.0" encoding="UTF-8"?>
<svg width="96px" height="96px" viewBox="0 0 96 96" version="1.1" xmlns="http://www.w3.org/2000/svg" xmlns:xlink="http://www.w3.org/1999/xlink">
    <title>iraq</title>
    <desc>designed by Freepik from Flaticon</desc>
    <defs>
        <polygon id="path-1" points="0.0140487805 0.0934306569 0.0140487805 95.7668905 95.9068098 95.7668905 95.9068098 0.0934306569"></polygon>
    </defs>
    <g id="Page-1" stroke="none" stroke-width="1" fill="none" fill-rule="evenodd">
        <g id="iraq">
            <g id="Group-3">
                <mask id="mask-2" fill="white">
                    <use xlink:href="#path-1"></use>
                </mask>
                <g id="Clip-2"></g>
                <path d="M95.9068098,47.9301606 C95.9068098,74.3488467 74.4365268,95.7668905 47.9534049,95.7668905 C21.4691122,95.7668905 0,74.3488467 0,47.9301606 C0,21.5103066 21.4691122,0.0934306569 47.9534049,0.0934306569 C74.4365268,0.0934306569 95.9068098,21.5103066 95.9068098,47.9301606 Z" id="Fill-1" fill="#F3F3F3" mask="url(#mask-2)"></path>
            </g>
            <path d="M47.9534049,0.0934306569 C27.3347122,0.0934306569 9.75828293,13.0751533 2.9825561,31.2913285 L92.9240195,31.2913285 C86.1485268,13.0751533 68.5709268,0.0934306569 47.9534049,0.0934306569 Z" id="Fill-4" fill="#A2001D"></path>
            <path d="M47.9534049,95.7668905 C68.5709268,95.7668905 86.1485268,82.7849343 92.9240195,64.5687591 L2.9825561,64.5687591 C9.75828293,82.7849343 27.3347122,95.7668905 47.9534049,95.7668905 Z" id="Fill-5" fill="#000000"></path>
            <path d="M36.4865561,44.8095766 C36.4600976,44.8095766 36.4343415,44.8114453 36.4078829,44.8123796 L36.4078829,44.8095766 L27.241522,44.8095766 C27.7060683,43.0185109 29.3350244,41.6901606 31.2739902,41.6901606 L31.2739902,35.4510949 C25.5256976,35.4510949 20.8490927,40.1163212 20.8490927,45.849927 L20.8490927,51.0495766 L36.4865561,51.0495766 C37.0609171,51.0495766 37.5282732,51.5167299 37.5282732,52.0896934 L37.5282732,54.1692263 L16.6791805,54.1692263 L16.6791805,60.4092263 L43.7834927,60.4092263 L43.7834927,52.0896934 C43.7834927,48.076146 40.5101268,44.8095766 36.4865561,44.8095766 Z" id="Fill-6" fill="#496E2D"></path>
            <polygon id="Fill-7" fill="#496E2D" points="52.1230829 54.1692263 52.1230829 35.4510949 45.8680976 35.4510949 45.8680976 60.4092263 56.2929951 60.4092263 56.2929951 54.1692263"></polygon>
            <polygon id="Fill-8" fill="#496E2D" points="72.9721756 54.1692263 72.9721756 35.4510949 66.7171902 35.4510949 66.7171902 54.1692263 64.6325854 54.1692263 64.6325854 47.9301606 58.3773659 47.9301606 58.3773659 60.4092263 77.1420878 60.4092263 77.1420878 54.1692263"></polygon>
        </g>
    </g>
</svg>