<?xml version="1.0" encoding="UTF-8"?>
<svg width="96px" height="96px" viewBox="0 0 96 96" version="1.1" xmlns="http://www.w3.org/2000/svg" xmlns:xlink="http://www.w3.org/1999/xlink">
    <title>jordan</title>
    <desc>designed by Freepik from Flaticon</desc>
    <defs>
        <polygon id="path-1" points="0.0140487805 0.0934306569 0.0140487805 95.7668905 95.9068098 95.7668905 95.9068098 0.0934306569"></polygon>
        <polygon id="path-3" points="0.0140487805 0.0896934307 0.0140487805 81.752292 92.9230829 81.752292 92.9230829 0.0896934307"></polygon>
    </defs>
    <g id="Page-1" stroke="none" stroke-width="1" fill="none" fill-rule="evenodd">
        <g id="jordan">
            <g id="Group-3">
                <mask id="mask-2" fill="white">
                    <use xlink:href="#path-1"></use>
                </mask>
                <g id="Clip-2"></g>
                <path d="M95.9068098,47.9301606 C95.9068098,74.3488467 74.4374634,95.7668905 47.9534049,95.7668905 C21.4691122,95.7668905 0,74.3488467 0,47.9301606 C0,21.5103066 21.4691122,0.0934306569 47.9534049,0.0934306569 C74.4374634,0.0934306569 95.9068098,21.5103066 95.9068098,47.9301606 Z" id="Fill-1" fill="#F3F3F3" mask="url(#mask-2)"></path>
            </g>
            <path d="M29.1886829,31.2913285 L92.9230829,31.2913285 C86.1485268,13.0751533 68.5709268,0.0934306569 47.9534049,0.0934306569 C34.7112585,0.0934306569 22.7241366,5.44840876 14.0469073,14.1061606 L29.1886829,31.2913285 Z" id="Fill-4" fill="#000000"></path>
            <g id="Group-8" transform="translate(0.000000, 14.014599)">
                <mask id="mask-4" fill="white">
                    <use xlink:href="#path-3"></use>
                </mask>
                <g id="Clip-6"></g>
                <path d="M29.1886829,50.5541606 L92.9230829,50.5541606 C86.1485268,68.7703358 68.5709268,81.752292 47.9534049,81.752292 C34.7112585,81.752292 22.7241366,76.3963796 14.0469073,67.7393285 L29.1886829,50.5541606 Z" id="Fill-5" fill="#6DA544" mask="url(#mask-4)"></path>
                <path d="M14.0450341,0.0896934307 C-4.68199024,18.7713869 -4.68199024,49.0597372 14.0450341,67.7411971 L47.9534049,33.915562 L14.0450341,0.0896934307 Z" id="Fill-7" fill="#D80027" mask="url(#mask-4)"></path>
            </g>
            <polygon id="Fill-9" fill="#F3F3F3" points="19.0325854 37.5303942 21.663922 43.0203796 27.6072585 41.6499854 24.9457171 47.1252555 29.7246439 50.9063942 23.7749854 52.2440876 23.7913756 58.3287591 19.0325854 54.5221606 14.2737951 58.3287591 14.2901854 52.2440876 8.33959024 50.9063942 13.1185171 47.1252555 10.4579122 41.6499854 16.4003122 43.0203796"></polygon>
        </g>
    </g>
</svg>