<?xml version="1.0" encoding="UTF-8"?>
<svg width="96px" height="96px" viewBox="0 0 96 96" version="1.1" xmlns="http://www.w3.org/2000/svg" xmlns:xlink="http://www.w3.org/1999/xlink">
    <title>kazakhstan</title>
    <desc>designed by Freepik from Flaticon</desc>
    <defs>
        <polygon id="path-1" points="0.0140487805 0.0934306569 0.0140487805 95.7668905 95.9068098 95.7668905 95.9068098 0.0934306569"></polygon>
    </defs>
    <g id="Page-1" stroke="none" stroke-width="1" fill="none" fill-rule="evenodd">
        <g id="kazakhstan">
            <g id="Group-3">
                <mask id="mask-2" fill="white">
                    <use xlink:href="#path-1"></use>
                </mask>
                <g id="Clip-2"></g>
                <path d="M95.9068098,47.9301606 C95.9068098,74.3488467 74.4365268,95.7668905 47.9534049,95.7668905 C21.4691122,95.7668905 0,74.3488467 0,47.9301606 C0,21.5103066 21.4691122,0.0934306569 47.9534049,0.0934306569 C74.4365268,0.0934306569 95.9068098,21.5103066 95.9068098,47.9301606 Z" id="Fill-1" fill="#338AF3" mask="url(#mask-2)"></path>
            </g>
            <path d="M75.0577171,48.4501022 L20.8490927,48.4501022 C20.8490927,52.1828905 24.108878,55.2093431 27.8505366,55.2093431 L27.6245854,55.2093431 C27.6245854,58.9428321 30.6586537,61.9692847 34.4012488,61.9692847 C34.4012488,65.702073 37.4350829,68.7285255 41.1767415,68.7285255 L54.7288976,68.7285255 C58.4717268,68.7285255 61.505561,65.702073 61.505561,61.9692847 C65.2472195,61.9692847 68.2810537,58.9428321 68.2810537,55.2093431 L68.056039,55.2093431 C71.7969951,55.2093431 75.0577171,52.1828905 75.0577171,48.4501022 Z" id="Fill-4" fill="#FFDA44"></path>
            <path d="M66.7171902,39.6108613 C66.7171902,49.9482628 58.3162537,58.3287591 47.9534049,58.3287591 C37.5896195,58.3287591 29.1886829,49.9482628 29.1886829,39.6108613" id="Fill-5" fill="#338AF3"></path>
            <polygon id="Fill-6" fill="#FFDA44" points="62.2857366 39.6108613 56.4292683 42.3588905 59.5480976 48.0168175 53.1886829 46.8033869 52.3829854 53.2120292 47.9534049 48.4984526 43.5238244 53.2120292 42.7178927 46.8033869 36.358478 48.0168175 39.4766049 42.3579562 33.6210732 39.6108613 39.4775415 36.8625985 36.358478 31.2046715 42.7178927 32.4183358 43.5238244 26.0094599 47.9534049 30.7230365 52.3829854 26.0094599 53.1886829 32.4183358 59.5480976 31.2046715 56.4292683 36.8625985"></polygon>
        </g>
    </g>
</svg>