<?xml version="1.0" encoding="UTF-8"?>
<svg width="96px" height="96px" viewBox="0 0 96 96" version="1.1" xmlns="http://www.w3.org/2000/svg" xmlns:xlink="http://www.w3.org/1999/xlink">
    <title>kosovo</title>
    <desc>designed by Freepik from Flaticon</desc>
    <defs>
        <polygon id="path-1" points="0.0140487805 0.0934306569 0.0140487805 95.7668905 95.9068098 95.7668905 95.9068098 0.0934306569"></polygon>
    </defs>
    <g id="Page-1" stroke="none" stroke-width="1" fill="none" fill-rule="evenodd">
        <g id="kosovo">
            <g id="Group-3">
                <mask id="mask-2" fill="white">
                    <use xlink:href="#path-1"></use>
                </mask>
                <g id="Clip-2"></g>
                <path d="M95.9068098,47.9301606 C95.9068098,74.3488467 74.4365268,95.7668905 47.9534049,95.7668905 C21.4691122,95.7668905 0,74.3488467 0,47.9301606 C0,21.5103066 21.4691122,0.0934306569 47.9534049,0.0934306569 C74.4365268,0.0934306569 95.9068098,21.5103066 95.9068098,47.9301606 Z" id="Fill-1" fill="#0052B4" mask="url(#mask-2)"></path>
            </g>
            <polygon id="Fill-4" fill="#F3F3F3" points="21.064039 29.2110949 22.0984976 32.390073 25.447961 32.390073 22.7386537 34.3535182 23.7731122 37.5303942 21.064039 35.5669489 18.3540293 37.5303942 19.3894244 34.3535182 16.6791805 32.390073 20.0286439 32.390073"></polygon>
            <polygon id="Fill-5" fill="#F3F3F3" points="31.488 26.0916788 32.5233951 29.2694891 35.8728585 29.2694891 33.1628488 31.2338686 34.1982439 34.4109781 31.488 32.4475328 28.7779902 34.4109781 29.8133854 31.2338686 27.1043122 29.2694891 30.4535415 29.2694891"></polygon>
            <polygon id="Fill-6" fill="#F3F3F3" points="41.9131317 22.9720292 42.9475902 26.150073 46.2970537 26.150073 43.5877463 28.1135182 44.6222049 31.2913285 41.9131317 29.3278832 39.203122 31.2913285 40.2385171 28.1135182 37.5282732 26.150073 40.8777366 26.150073"></polygon>
            <polygon id="Fill-7" fill="#F3F3F3" points="74.8427707 29.2110949 73.8073756 32.390073 70.4579122 32.390073 73.167922 34.3535182 72.1325268 37.5303942 74.8427707 35.5669489 77.5527805 37.5303942 76.5173854 34.3535182 79.2273951 32.390073 75.8779317 32.390073"></polygon>
            <polygon id="Fill-8" fill="#F3F3F3" points="64.4185756 26.0916788 63.3831805 29.2694891 60.0339512 29.2694891 62.743961 31.2338686 61.7085659 34.4109781 64.4185756 32.4475328 67.1276488 34.4109781 66.0924878 31.2338686 68.8024976 29.2694891 65.4530341 29.2694891"></polygon>
            <polygon id="Fill-9" fill="#F3F3F3" points="53.993678 22.9720292 52.9582829 26.150073 49.6088195 26.150073 52.3188293 28.1135182 51.2834341 31.2913285 53.993678 29.3278832 56.7036878 31.2913285 55.6682927 28.1135182 58.3773659 26.150073 55.0290732 26.150073"></polygon>
            <path d="M56.2929951,50.0094599 L47.9534049,39.6108613 L43.7834927,41.6901606 L43.7834927,45.849927 L37.5282732,50.0094599 L33.3585951,50.0094599 L33.3585951,55.3835912 C39.4700488,57.8524964 43.7834927,63.8259854 43.7834927,70.8078248 L47.9534049,70.8078248 L47.9534049,66.6480584 L52.1230829,62.4885255 L56.2929951,66.6480584 L60.4629073,62.4885255 L60.4629073,58.3287591 L64.6325854,52.0896934 L56.2929951,50.0094599 Z" id="Fill-10" fill="#FFDA44"></path>
        </g>
    </g>
</svg>