<?xml version="1.0" encoding="UTF-8"?>
<svg width="96px" height="96px" viewBox="0 0 96 96" version="1.1" xmlns="http://www.w3.org/2000/svg" xmlns:xlink="http://www.w3.org/1999/xlink">
    <title>kyrgyzstan</title>
    <desc>designed by Freepik from Flaticon</desc>
    <defs>
        <polygon id="path-1" points="0.0140487805 0.0934306569 0.0140487805 95.7668905 95.9068098 95.7668905 95.9068098 0.0934306569"></polygon>
    </defs>
    <g id="Page-1" stroke="none" stroke-width="1" fill="none" fill-rule="evenodd">
        <g id="kyrgyzstan">
            <g id="Group-3">
                <mask id="mask-2" fill="white">
                    <use xlink:href="#path-1"></use>
                </mask>
                <g id="Clip-2"></g>
                <path d="M95.9068098,47.9301606 C95.9068098,74.3488467 74.4365268,95.7668905 47.9534049,95.7668905 C21.4691122,95.7668905 0,74.3488467 0,47.9301606 C0,21.5103066 21.4691122,0.0934306569 47.9534049,0.0934306569 C74.4365268,0.0934306569 95.9068098,21.5103066 95.9068098,47.9301606 Z" id="Fill-1" fill="#D80027" mask="url(#mask-2)"></path>
            </g>
            <polygon id="Fill-4" fill="#FFDA44" points="71.4045659 47.9301606 61.8228293 52.4265109 66.9255805 61.6845547 56.5189463 59.6984526 55.2009366 70.1846423 47.9534049 62.4728759 40.7049366 70.1846423 39.3869268 59.6984526 28.9819317 61.6845547 34.0837463 52.4255766 24.5013073 47.9301606 34.0837463 43.4338102 28.9819317 34.1755328 39.3859902 36.1618686 40.7058732 25.6754453 47.9534049 33.3872117 55.2018732 25.6754453 56.5189463 36.1618686 66.9255805 34.1755328 61.8228293 43.4347445"></polygon>
            <path d="M62.547278,47.9301606 C62.547278,55.9703358 56.0131902,62.4885255 47.9534049,62.4885255 C39.8926829,62.4885255 33.3585951,55.9703358 33.3585951,47.9301606 C33.3585951,39.8890511 39.8926829,33.3708613 47.9534049,33.3708613 C56.0131902,33.3708613 62.547278,39.8890511 62.547278,47.9301606 Z" id="Fill-5" fill="#D80027"></path>
            <path d="M40.6555317,47.9301606 C40.3043122,47.9301606 39.9575415,47.9474453 39.6147512,47.9820146 C39.6273951,49.9984818 40.3581659,51.844438 41.566361,53.2776642 C42.2102634,51.5477956 43.1726049,49.970219 44.3861854,48.6208467 C43.2273951,48.1763504 41.9697951,47.9301606 40.6555317,47.9301606 Z" id="Fill-6" fill="#FFDA44"></path>
            <path d="M45.1480976,55.7659562 C46.0242732,56.0780146 46.9683512,56.2494599 47.9534049,56.2494599 C48.937522,56.2494599 49.8813659,56.0780146 50.758478,55.7659562 C50.2801171,53.8945401 49.2941268,52.2247007 47.9534049,50.9117664 C46.6124488,52.2247007 45.625522,53.8945401 45.1480976,55.7659562 Z" id="Fill-7" fill="#FFDA44"></path>
            <path d="M55.1754146,43.7713285 C53.732839,41.2851387 51.0401561,39.6108613 47.9534049,39.6108613 C44.8664195,39.6108613 42.1728,41.2851387 40.7313951,43.7713285 C43.3601561,43.7851095 45.8250146,44.4975182 47.9534049,45.7294015 C50.0817951,44.4975182 52.5457171,43.7851095 55.1754146,43.7713285 Z" id="Fill-8" fill="#FFDA44"></path>
            <path d="M51.5203902,48.6208467 C52.7332683,49.970219 53.6953756,51.5477956 54.339278,53.2776642 C55.5474732,51.844438 56.2791805,49.9984818 56.291122,47.9820146 C55.9480976,47.9474453 55.601561,47.9301606 55.2503415,47.9301606 C53.936078,47.9301606 52.6791805,48.1763504 51.5203902,48.6208467 Z" id="Fill-9" fill="#FFDA44"></path>
        </g>
    </g>
</svg>