<?xml version="1.0" encoding="UTF-8"?>
<svg width="96px" height="96px" viewBox="0 0 96 96" version="1.1" xmlns="http://www.w3.org/2000/svg" xmlns:xlink="http://www.w3.org/1999/xlink">
    <title>laos</title>
    <desc>designed by Freepik from Flaticon</desc>
    <defs>
        <polygon id="path-1" points="0.0140487805 0.0369051095 0.0140487805 68.672 95.9068098 68.672 95.9068098 0.0369051095"></polygon>
    </defs>
    <g id="Page-1" stroke="none" stroke-width="1" fill="none" fill-rule="evenodd">
        <g id="laos">
            <path d="M91.1477854,27.1317956 C83.3916878,11.1308613 66.9649171,0.0934306569 47.9534049,0.0934306569 C28.9416585,0.0934306569 12.5148878,11.1308613 4.75785366,27.1317956 L47.9534049,31.2913285 L91.1477854,27.1317956 Z" id="Fill-1" fill="#D80027"></path>
            <g id="Group-5" transform="translate(0.000000, 27.094891)">
                <mask id="mask-2" fill="white">
                    <use xlink:href="#path-1"></use>
                </mask>
                <g id="Clip-3"></g>
                <path d="M4.75785366,41.633635 C12.5148878,57.6345693 28.9416585,68.672 47.9534049,68.672 C66.9649171,68.672 83.3916878,57.6345693 91.1477854,41.633635 L47.9534049,37.4738686 L4.75785366,41.633635 Z" id="Fill-2" fill="#D80027" mask="url(#mask-2)"></path>
                <path d="M91.1477854,0.0369051095 L4.75785366,0.0369051095 C1.70950244,6.32525547 0,13.3809051 0,20.8352701 C0,28.2887007 1.70950244,35.3443504 4.75785366,41.633635 L91.1477854,41.633635 C94.1963707,35.3443504 95.9068098,28.2887007 95.9068098,20.8352701 C95.9068098,13.3809051 94.1963707,6.32525547 91.1477854,0.0369051095 Z" id="Fill-4" fill="#0052B4" mask="url(#mask-2)"></path>
            </g>
            <path d="M64.6325854,47.9301606 C64.6325854,57.1190657 57.164722,64.5687591 47.9534049,64.5687591 C38.7411512,64.5687591 31.2739902,57.1190657 31.2739902,47.9301606 C31.2739902,38.7403212 38.7411512,31.2913285 47.9534049,31.2913285 C57.164722,31.2913285 64.6325854,38.7403212 64.6325854,47.9301606 Z" id="Fill-6" fill="#F3F3F3"></path>
        </g>
    </g>
</svg>