<?xml version="1.0" encoding="UTF-8"?>
<svg width="96px" height="96px" viewBox="0 0 96 96" version="1.1" xmlns="http://www.w3.org/2000/svg" xmlns:xlink="http://www.w3.org/1999/xlink">
    <title>lesotho</title>
    <desc>designed by Freepik from Flaticon</desc>
    <defs>
        <polygon id="path-1" points="0.0140487805 0.0588613139 0.0140487805 45.8151241 95.9068098 45.8151241 95.9068098 0.0588613139 0.0140487805 0.0588613139"></polygon>
    </defs>
    <g id="Page-1" stroke="none" stroke-width="1" fill="none" fill-rule="evenodd">
        <g id="lesotho">
            <g id="Group-3" transform="translate(0.000000, 24.992701)">
                <mask id="mask-2" fill="white">
                    <use xlink:href="#path-1"></use>
                </mask>
                <g id="Clip-2"></g>
                <path d="M0,22.9374599 C0,30.3908905 1.70950244,37.4465401 4.75785366,43.7358248 L47.9534049,45.8151241 L91.1477854,43.7358248 C94.1963707,37.4465401 95.9068098,30.3908905 95.9068098,22.9374599 C95.9068098,15.4830949 94.1963707,8.42744526 91.1477854,2.13909489 L47.9534049,0.0588613139 L4.75785366,2.13909489 C1.70950244,8.42744526 0,15.4830949 0,22.9374599 Z" id="Fill-1" fill="#F3F3F3" mask="url(#mask-2)"></path>
            </g>
            <path d="M47.9534049,95.7668905 C66.9649171,95.7668905 83.3916878,84.7294599 91.1477854,68.7285255 L4.75785366,68.7285255 C12.5148878,84.7294599 28.9416585,95.7668905 47.9534049,95.7668905 Z" id="Fill-4" fill="#6DA544"></path>
            <path d="M47.9534049,0.0934306569 C28.9416585,0.0934306569 12.5148878,11.1308613 4.75785366,27.1317956 L91.1477854,27.1317956 C83.3916878,11.1308613 66.9649171,0.0934306569 47.9534049,0.0934306569 Z" id="Fill-5" fill="#0052B4"></path>
            <path d="M51.0804293,46.8900438 L51.0804293,35.4510949 L44.8261463,35.4510949 L44.8261463,46.8900438 L37.2714146,54.4263942 C39.4681756,58.0141314 43.4304,60.4092263 47.9534049,60.4092263 C52.4761756,60.4092263 56.4384,58.0141314 58.6353951,54.4263942 L51.0804293,46.8900438 Z" id="Fill-6" fill="#000000"></path>
        </g>
    </g>
</svg>