<?xml version="1.0" encoding="UTF-8"?>
<svg width="96px" height="96px" viewBox="0 0 96 96" version="1.1" xmlns="http://www.w3.org/2000/svg" xmlns:xlink="http://www.w3.org/1999/xlink">
    <title>liberia</title>
    <desc>designed by Freepik from Flaticon</desc>
    <defs>
        <polygon id="path-1" points="0.0140487805 0.0934306569 0.0140487805 95.7668905 95.9068098 95.7668905 95.9068098 0.0934306569"></polygon>
    </defs>
    <g id="Page-1" stroke="none" stroke-width="1" fill="none" fill-rule="evenodd">
        <g id="liberia">
            <g id="Group-5">
                <mask id="mask-2" fill="white">
                    <use xlink:href="#path-1"></use>
                </mask>
                <g id="Clip-2"></g>
                <path d="M95.9068098,47.9301606 C95.9068098,74.3488467 74.4365268,95.7668905 47.9534049,95.7668905 C21.4691122,95.7668905 0,74.3488467 0,47.9301606 C0,21.5103066 21.4691122,0.0934306569 47.9534049,0.0934306569 C74.4365268,0.0934306569 95.9068098,21.5103066 95.9068098,47.9301606 Z" id="Fill-1" fill="#F3F3F3" mask="url(#mask-2)"></path>
                <path d="M10.9608585,17.4885839 L84.9457171,17.4885839 C82.212761,14.1874453 79.0435902,11.2604964 75.5276488,8.79135766 L20.3789268,8.79135766 C16.8632195,11.2604964 13.6938146,14.1874453 10.9608585,17.4885839 Z" id="Fill-3" fill="#F3F3F3" mask="url(#mask-2)"></path>
                <path d="M0,47.9301606 C0,49.3963212 0.0695414634,50.8461314 0.199492683,52.2786569 L95.7073171,52.2786569 C95.8363317,50.8461314 95.9068098,49.3963212 95.9068098,47.9301606 C95.9068098,46.4637664 95.8363317,45.0139562 95.7073171,43.5816642 L0.199492683,43.5816642 C0.0695414634,45.0139562 0,46.4637664 0,47.9301606 Z" id="Fill-4" fill="#F3F3F3" mask="url(#mask-2)"></path>
            </g>
            <path d="M5.2289561,69.6738102 L90.6769171,69.6738102 C92.0890537,66.9183066 93.2405854,64.0086423 94.1003707,60.9765839 L1.80550244,60.9765839 C2.6652878,64.0086423 3.8177561,66.9183066 5.2289561,69.6738102 Z" id="Fill-6" fill="#F3F3F3"></path>
            <path d="M20.3789268,87.0687299 L75.5276488,87.0687299 C79.0426537,84.5998248 82.212761,81.6728759 84.9447805,78.3717372 L10.9608585,78.3717372 C13.6938146,81.6719416 16.8632195,84.5998248 20.3789268,87.0687299 Z" id="Fill-7" fill="#F3F3F3"></path>
            <path d="M1.80550244,34.8835036 L94.1013073,34.8835036 C93.241522,31.8516788 92.0890537,28.9410803 90.6769171,26.1865109 L5.2289561,26.1865109 C3.8177561,28.9410803 2.6652878,31.8516788 1.80550244,34.8835036 Z" id="Fill-8" fill="#F3F3F3"></path>
            <path d="M22.9344,8.79042336 L75.5276488,8.79042336 C67.7277659,3.31235036 58.2174439,0.0934306569 47.9534049,0.0934306569 C41.6981854,0.0934306569 30.7345171,3.31235036 22.9344,8.79042336 Z" id="Fill-9" fill="#D80027"></path>
            <path d="M45.8680976,26.1865109 L90.6769171,26.1865109 C89.0826146,23.0743358 87.1562927,20.1590657 84.9457171,17.4885839 L45.8680976,17.4885839 L45.8680976,26.1865109 Z" id="Fill-10" fill="#D80027"></path>
            <path d="M45.8680976,43.5816642 L95.7073171,43.5816642 C95.4375805,40.5951533 94.8950634,37.6864234 94.1013073,34.8835036 L45.8680976,34.8835036 L45.8680976,43.5816642 Z" id="Fill-11" fill="#D80027"></path>
            <path d="M1.80550244,60.9765839 L94.1003707,60.9765839 C94.8950634,58.1736642 95.4375805,55.2649343 95.7073171,52.2786569 L0.199492683,52.2786569 C0.469229268,55.2649343 1.0115122,58.1736642 1.80550244,60.9765839 Z" id="Fill-12" fill="#D80027"></path>
            <path d="M10.9608585,78.3708029 L84.9457171,78.3708029 C87.1562927,75.7000876 89.0826146,72.7850511 90.6769171,69.6738102 L5.2289561,69.6738102 C6.82419512,72.7850511 8.74934634,75.7000876 10.9608585,78.3708029 Z" id="Fill-13" fill="#D80027"></path>
            <path d="M47.9534049,95.7668905 C58.2174439,95.7668905 67.7277659,92.5477372 75.5276488,87.0687299 L20.3789268,87.0687299 C28.1790439,92.5477372 37.6884293,95.7668905 47.9534049,95.7668905 Z" id="Fill-14" fill="#D80027"></path>
            <path d="M1.80550244,34.8835036 C1.01057561,37.6864234 0.469229268,40.5944526 0.199492683,43.5807299 L47.9534049,43.5807299 L47.9534049,0.0934306569 C26.003122,0.0934306569 7.49806829,14.8050219 1.80550244,34.8835036 Z" id="Fill-15" fill="#0052B4"></path>
            <polygon id="Fill-16" fill="#F3F3F3" points="28.5447805 12.5724964 31.6500293 22.1052263 41.6981854 22.1052263 33.5688585 27.9976642 36.6741073 37.5303942 28.5447805 31.6391241 20.4154537 37.5303942 23.5207024 27.9976642 15.3913756 22.1052263 25.4395317 22.1052263"></polygon>
        </g>
    </g>
</svg>