<?xml version="1.0" encoding="UTF-8"?>
<svg width="96px" height="96px" viewBox="0 0 96 96" version="1.1" xmlns="http://www.w3.org/2000/svg" xmlns:xlink="http://www.w3.org/1999/xlink">
    <title>liechtenstein</title>
    <desc>designed by Freepik from Flaticon</desc>
    <defs>
        <polygon id="path-1" points="0.0140487805 0.0934306569 0.0140487805 95.7668905 95.9068098 95.7668905 95.9068098 0.0934306569"></polygon>
    </defs>
    <g id="Page-1" stroke="none" stroke-width="1" fill="none" fill-rule="evenodd">
        <g id="liechtenstein">
            <g id="Group-4">
                <mask id="mask-2" fill="white">
                    <use xlink:href="#path-1"></use>
                </mask>
                <g id="Clip-2"></g>
                <path d="M95.9068098,47.9301606 C95.9068098,74.3488467 74.4365268,95.7668905 47.9534049,95.7668905 C21.4691122,95.7668905 0,74.3488467 0,47.9301606 C2.08437073,47.9301606 47.9534049,41.6901606 47.9534049,41.6901606 L95.9068098,47.9301606 Z" id="Fill-1" fill="#D80027" mask="url(#mask-2)"></path>
                <path d="M0,47.9301606 C0,21.5103066 21.4691122,0.0934306569 47.9534049,0.0934306569 C74.4365268,0.0934306569 95.9068098,21.5103066 95.9068098,47.9301606" id="Fill-3" fill="#0052B4" mask="url(#mask-2)"></path>
            </g>
            <path d="M35.4439024,33.3708613 C35.4439024,29.9256058 32.643278,27.1317956 29.1886829,27.1317956 C27.5861854,27.1317956 26.1255805,27.7330219 25.0190049,28.7210511 L25.0190049,25.051562 L27.1043122,25.051562 L27.1043122,20.8917956 L25.0190049,20.8917956 L25.0190049,18.8124964 L20.8490927,18.8124964 L20.8490927,20.8917956 L18.764722,20.8917956 L18.764722,25.051562 L20.8490927,25.051562 L20.8490927,28.7210511 C19.7422829,27.7330219 18.281678,27.1317956 16.6791805,27.1317956 C13.2245854,27.1317956 10.4248976,29.9256058 10.4248976,33.3708613 C10.4248976,35.2184526 11.2298927,36.8780146 12.5095024,38.020438 L12.5095024,41.6901606 L33.3585951,41.6901606 L33.3585951,38.020438 C34.6382049,36.8780146 35.4439024,35.2184526 35.4439024,33.3708613 Z" id="Fill-5" fill="#FFDA44"></path>
        </g>
    </g>
</svg>