<?xml version="1.0" encoding="UTF-8"?>
<svg width="96px" height="96px" viewBox="0 0 96 96" version="1.1" xmlns="http://www.w3.org/2000/svg" xmlns:xlink="http://www.w3.org/1999/xlink">
    <title>macao</title>
    <desc>designed by Freepik from Flaticon</desc>
    <defs>
        <polygon id="path-1" points="0.0140487805 0.0934306569 0.0140487805 95.7668905 95.9068098 95.7668905 95.9068098 0.0934306569"></polygon>
    </defs>
    <g id="Page-1" stroke="none" stroke-width="1" fill="none" fill-rule="evenodd">
        <g id="macao">
            <g id="Group-3">
                <mask id="mask-2" fill="white">
                    <use xlink:href="#path-1"></use>
                </mask>
                <g id="Clip-2"></g>
                <path d="M95.9068098,47.9301606 C95.9068098,74.3488467 74.4365268,95.7668905 47.9534049,95.7668905 C21.4691122,95.7668905 0,74.3488467 0,47.9301606 C0,21.5103066 21.4691122,0.0934306569 47.9534049,0.0934306569 C74.4365268,0.0934306569 95.9068098,21.5103066 95.9068098,47.9301606 Z" id="Fill-1" fill="#496E2D" mask="url(#mask-2)"></path>
            </g>
            <path d="M56.2929951,45.9356496 C55.1159415,45.9356496 53.9981268,46.1692263 52.9610927,46.5422482 C53.5288976,45.2776642 53.910322,43.8717664 53.910322,42.3698686 C53.910322,36.4274453 47.9534049,31.9703358 47.9534049,31.9703358 C47.9534049,31.9703358 41.9962537,36.4274453 41.9962537,42.3698686 C41.9962537,43.8717664 42.377678,45.2776642 42.9457171,46.5422482 C41.9084488,46.1701606 40.7908683,45.9356496 39.6138146,45.9356496 C33.6566634,45.9356496 29.1896195,51.8771387 29.1896195,51.8771387 C29.1896195,51.8771387 33.6566634,57.8197956 39.6138146,57.8197956 C43.1068098,57.8197956 46.0846829,55.777635 47.9534049,54.0879416 C49.8218927,55.777635 52.8009366,57.8197956 56.2929951,57.8197956 C62.2499122,57.8197956 66.7178927,51.8771387 66.7178927,51.8771387 C66.7178927,51.8771387 62.2499122,45.9356496 56.2929951,45.9356496 Z" id="Fill-4" fill="#F3F3F3"></path>
            <polygon id="Fill-5" fill="#FFDA44" points="47.9534049 18.8124964 49.1836098 22.5896642 53.1657366 22.5896642 49.9445854 24.9247299 51.1738537 28.7018978 47.9534049 26.3670657 44.7320195 28.7018978 45.9622244 24.9247299 42.740839 22.5896642 46.7222634 22.5896642"></polygon>
            <polygon id="Fill-6" fill="#FFDA44" points="32.8116293 25.4192117 35.1786146 27.5449927 37.9380293 25.9566715 36.6420293 28.8597956 39.0092488 30.9858102 35.8417171 30.6536642 34.5457171 33.5570219 33.8835512 30.4483504 30.7153171 30.1162044 33.4737951 28.5276496"></polygon>
            <polygon id="Fill-7" fill="#FFDA44" points="21.728078 36.4767299 24.8433951 37.1372847 26.4365268 34.3852847 26.7694829 37.5451095 29.8848 38.2065985 26.9752976 39.4985109 27.3082537 42.6590365 25.1761171 40.2978102 22.2668488 41.5897226 23.8590439 38.8379562"></polygon>
            <polygon id="Fill-8" fill="#FFDA44" points="63.0942439 25.4192117 60.7270244 27.5449927 57.9685463 25.9566715 59.2636098 28.8597956 56.897561 30.9858102 60.0648585 30.6536642 61.3608585 33.5570219 62.0232585 30.4483504 65.1914927 30.1162044 62.4330146 28.5276496"></polygon>
            <polygon id="Fill-9" fill="#FFDA44" points="74.1787317 36.4767299 71.0634146 37.1372847 69.4700488 34.3852847 69.1370927 37.5451095 66.0220098 38.2065985 68.9315122 39.4985109 68.5985561 42.6590365 70.7304585 40.2978102 73.639961 41.5897226 72.0475317 38.8379562"></polygon>
            <path d="M47.9534049,74.4593285 C52.6848,74.4593285 57.0467122,72.8845547 60.5450927,70.233927 L35.3614829,70.233927 C38.8600976,72.8836204 43.2210732,74.4593285 47.9534049,74.4593285 Z" id="Fill-10" fill="#F3F3F3"></path>
            <path d="M28.8402732,61.9802628 C29.502439,63.4912701 30.3420878,64.9055766 31.3271415,66.2047299 L64.5796683,66.2047299 C65.5656585,64.9062774 66.4043707,63.4912701 67.0665366,61.9802628 L28.8402732,61.9802628 Z" id="Fill-11" fill="#F3F3F3"></path>
        </g>
    </g>
</svg>