<?xml version="1.0" encoding="UTF-8"?>
<svg width="96px" height="96px" viewBox="0 0 96 96" version="1.1" xmlns="http://www.w3.org/2000/svg" xmlns:xlink="http://www.w3.org/1999/xlink">
    <title>madeira</title>
    <desc>designed by Freepik from Flaticon</desc>
    <defs>
        <polygon id="path-1" points="0.0140487805 0.0934306569 0.0140487805 95.7668905 72.9721756 95.7668905 72.9721756 0.0934306569 0.0140487805 0.0934306569"></polygon>
    </defs>
    <g id="Page-1" stroke="none" stroke-width="1" fill="none" fill-rule="evenodd">
        <g id="madeira">
            <g id="Group-4">
                <mask id="mask-2" fill="white">
                    <use xlink:href="#path-1"></use>
                </mask>
                <g id="Clip-2"></g>
                <path d="M68.8024976,4.83970803 C62.4978732,1.79877372 55.4250146,0.0934306569 47.9534049,0.0934306569 C40.4808585,0.0934306569 33.408,1.79877372 27.1043122,4.83970803 L22.9344,47.9301606 L27.1043122,91.0194453 C33.408,94.0606131 40.4808585,95.7668905 47.9534049,95.7668905 C55.4250146,95.7668905 62.4978732,94.0606131 68.8024976,91.0194453 L72.9721756,47.9301606 L68.8024976,4.83970803 Z" id="Fill-1" fill="#FFDA44" mask="url(#mask-2)"></path>
                <path d="M27.1043122,4.84157664 C11.0643512,12.5788029 0,28.9646715 0,47.9301606 C0,66.8954161 11.0643512,83.2805839 27.1043122,91.0178102 L27.1043122,4.84157664 Z" id="Fill-3" fill="#0052B4" mask="url(#mask-2)"></path>
            </g>
            <path d="M68.8024976,4.84157664 L68.8024976,91.0178102 C84.8424585,83.2805839 95.9068098,66.8954161 95.9068098,47.9301606 C95.9068098,28.9646715 84.8424585,12.5788029 68.8024976,4.84157664 Z" id="Fill-5" fill="#0052B4"></path>
            <polygon id="Fill-6" fill="#D80027" points="61.505561 52.0896934 64.6325854 56.2494599 64.6325854 39.6108613 61.505561 43.7703942 52.1230829 43.7703942 52.1230829 34.4109781 56.2929951 31.2913285 39.6138146 31.2913285 43.7834927 34.4109781 43.7834927 43.7703942 34.4012488 43.7703942 31.2739902 39.6108613 31.2739902 56.2494599 34.4012488 52.0896934 43.7834927 52.0896934 43.7834927 61.4493431 39.6138146 64.5687591 56.2929951 64.5687591 52.1230829 61.4493431 52.1230829 52.0896934"></polygon>
            <polygon id="Fill-7" fill="#F3F3F3" points="60.4629073 45.849927 50.0377756 45.849927 50.0377756 35.4510949 45.8680976 35.4510949 45.8680976 45.849927 35.4439024 45.849927 35.4439024 50.0094599 45.8680976 50.0094599 45.8680976 60.4092263 50.0377756 60.4092263 50.0377756 50.0094599 60.4629073 50.0094599"></polygon>
        </g>
    </g>
</svg>