<?xml version="1.0" encoding="UTF-8"?>
<svg width="96px" height="96px" viewBox="0 0 96 96" version="1.1" xmlns="http://www.w3.org/2000/svg" xmlns:xlink="http://www.w3.org/1999/xlink">
    <title>malaysia</title>
    <desc>designed by Freepik from Flaticon</desc>
    <defs>
        <polygon id="path-1" points="0.0140487805 0.0934306569 0.0140487805 95.7668905 95.9068098 95.7668905 95.9068098 0.0934306569"></polygon>
        <polygon id="path-3" points="0.0140487805 0.0934306569 0.0140487805 72.8880584 94.2539707 72.8880584 94.2539707 0.0934306569"></polygon>
    </defs>
    <g id="Page-1" stroke="none" stroke-width="1" fill="none" fill-rule="evenodd">
        <g id="malaysia">
            <g id="Group-3">
                <mask id="mask-2" fill="white">
                    <use xlink:href="#path-1"></use>
                </mask>
                <g id="Clip-2"></g>
                <path d="M95.9068098,47.9301606 C95.9068098,74.3488467 74.4365268,95.7668905 47.9534049,95.7668905 C21.4691122,95.7668905 0,74.3488467 0,47.9301606 C0,21.5103066 21.4691122,0.0934306569 47.9534049,0.0934306569 C74.4365268,0.0934306569 95.9068098,21.5103066 95.9068098,47.9301606 Z" id="Fill-1" fill="#F3F3F3" mask="url(#mask-2)"></path>
            </g>
            <path d="M45.8680976,47.9301606 L95.9068098,47.9301606 C95.9068098,43.611562 95.329639,39.430073 94.2539707,35.4510949 L45.8680976,35.4510949 L45.8680976,47.9301606 Z" id="Fill-4" fill="#D80027"></path>
            <path d="M45.8680976,22.9720292 L88.8676683,22.9720292 C85.9326439,18.1937518 82.1799805,13.9692847 77.8033171,10.4929635 L45.8680976,10.4929635 L45.8680976,22.9720292 Z" id="Fill-5" fill="#D80027"></path>
            <path d="M47.9534049,95.7668905 C59.2390244,95.7668905 69.6119415,91.8752701 77.8033171,85.3671241 L18.102322,85.3671241 C26.2948683,91.8752701 36.6677854,95.7668905 47.9534049,95.7668905 Z" id="Fill-6" fill="#D80027"></path>
            <g id="Group-10">
                <mask id="mask-4" fill="white">
                    <use xlink:href="#path-3"></use>
                </mask>
                <g id="Clip-8"></g>
                <path d="M7.03820488,72.8880584 L88.8676683,72.8880584 C91.2245854,69.0522628 93.0520976,64.8588613 94.2539707,60.4092263 L1.65190244,60.4092263 C2.85377561,64.8588613 4.68199024,69.0522628 7.03820488,72.8880584 Z" id="Fill-7" fill="#D80027" mask="url(#mask-4)"></path>
                <path d="M47.9534049,47.9301606 L47.9534049,0.0934306569 C21.4691122,0.0934306569 0,21.5103066 0,47.9301606 L47.9534049,47.9301606 Z" id="Fill-9" fill="#0052B4" mask="url(#mask-4)"></path>
            </g>
            <path d="M31.887922,41.0405839 C25.3390829,41.0405839 20.0295805,35.744 20.0295805,29.2110949 C20.0295805,22.6781898 25.3390829,17.3827737 31.887922,17.3827737 C33.9292098,17.3827737 35.8508488,17.8973431 37.5282732,18.8040876 C34.8969366,16.2366131 31.2978732,14.6527299 27.3265171,14.6527299 C19.2667317,14.6527299 12.7326439,21.1709197 12.7326439,29.2110949 C12.7326439,37.2522044 19.2667317,43.7703942 27.3265171,43.7703942 C31.2978732,43.7703942 34.8969366,42.1855766 37.5282732,39.6190365 C35.8508488,40.5250803 33.9301463,41.0405839 31.887922,41.0405839 Z" id="Fill-11" fill="#FFDA44"></path>
            <polygon id="Fill-12" fill="#FFDA44" points="35.2289561 20.8917956 37.3344 25.2832701 42.0887415 24.1873285 39.9594146 28.5678248 43.7834927 31.5924088 39.0228293 32.6626569 39.0366439 37.5303942 35.2289561 34.4847883 31.4222049 37.5303942 31.4350829 32.6626569 26.6753561 31.5924088 30.4984976 28.5678248 28.3691707 24.1873285 33.1235122 25.2832701"></polygon>
        </g>
    </g>
</svg>