<?xml version="1.0" encoding="UTF-8"?>
<svg width="96px" height="96px" viewBox="0 0 96 96" version="1.1" xmlns="http://www.w3.org/2000/svg" xmlns:xlink="http://www.w3.org/1999/xlink">
    <title>maldives</title>
    <desc>designed by Freepik from Flaticon</desc>
    <defs>
        <polygon id="path-1" points="0.0140487805 0.0934306569 0.0140487805 95.7668905 95.9068098 95.7668905 95.9068098 0.0934306569"></polygon>
    </defs>
    <g id="Page-1" stroke="none" stroke-width="1" fill="none" fill-rule="evenodd">
        <g id="maldives">
            <g id="Group-3">
                <mask id="mask-2" fill="white">
                    <use xlink:href="#path-1"></use>
                </mask>
                <g id="Clip-2"></g>
                <path d="M95.9068098,47.9301606 C95.9068098,74.3488467 74.4365268,95.7668905 47.9534049,95.7668905 C21.4691122,95.7668905 0,74.3488467 0,47.9301606 C0,21.5103066 21.4691122,0.0934306569 47.9534049,0.0934306569 C74.4365268,0.0934306569 95.9068098,21.5103066 95.9068098,47.9301606 Z" id="Fill-1" fill="#D80027" mask="url(#mask-2)"></path>
            </g>
            <polygon id="Fill-4" fill="#6DA544" points="16.6791805 70.8080584 79.2264585 70.8080584 79.2264585 25.051562 16.6791805 25.051562"></polygon>
            <path d="M55.6755512,61.4493431 C48.1910634,61.4493431 42.1233951,55.396438 42.1233951,47.9301606 C42.1233951,40.4638832 48.1910634,34.4109781 55.6755512,34.4109781 C58.0088195,34.4109781 60.204878,34.9993577 62.1218341,36.0359708 C59.1146927,33.1015474 55.0023805,31.2913285 50.4632195,31.2913285 C41.2519024,31.2913285 33.7838049,38.7403212 33.7838049,47.9301606 C33.7838049,57.1190657 41.2519024,64.5687591 50.4632195,64.5687591 C55.0023805,64.5687591 59.1146927,62.7576058 62.1218341,59.8234161 C60.204878,60.8607299 58.0088195,61.4493431 55.6755512,61.4493431 Z" id="Fill-5" fill="#F3F3F3"></path>
        </g>
    </g>
</svg>