<?xml version="1.0" encoding="UTF-8"?>
<svg width="96px" height="96px" viewBox="0 0 96 96" version="1.1" xmlns="http://www.w3.org/2000/svg" xmlns:xlink="http://www.w3.org/1999/xlink">
    <title>martinique</title>
    <desc>designed by Freepik from Flaticon</desc>
    <defs>
        <polygon id="path-1" points="0.0140487805 0.0934306569 0.0140487805 95.7668905 95.9068098 95.7668905 95.9068098 0.0934306569"></polygon>
    </defs>
    <g id="Page-1" stroke="none" stroke-width="1" fill="none" fill-rule="evenodd">
        <g id="martinique">
            <g id="Group-3">
                <mask id="mask-2" fill="white">
                    <use xlink:href="#path-1"></use>
                </mask>
                <g id="Clip-2"></g>
                <path d="M95.9068098,47.9301606 C95.9068098,74.3488467 74.4365268,95.7668905 47.9534049,95.7668905 C21.4691122,95.7668905 0,74.3488467 0,47.9301606 C0,21.5103066 21.4691122,0.0934306569 47.9534049,0.0934306569 C74.4365268,0.0934306569 95.9068098,21.5103066 95.9068098,47.9301606 Z" id="Fill-1" fill="#F3F3F3" mask="url(#mask-2)"></path>
            </g>
            <path d="M95.4951805,41.6901606 C94.1724878,31.6024526 89.6305171,21.854365 81.8606049,14.104292 C74.0918634,6.35445255 64.3207024,1.82236496 54.2076878,0.503124088 L54.2076878,41.6901606 L95.4951805,41.6901606 Z" id="Fill-4" fill="#0052B4"></path>
            <path d="M41.6981854,0.503124088 C31.5858732,1.82236496 21.8140098,6.35445255 14.0450341,14.104292 C6.27629268,21.854365 1.73315122,31.6024526 0.410692683,41.6910949 L41.6981854,41.6901606 L41.6981854,0.503124088 Z" id="Fill-5" fill="#0052B4"></path>
            <path d="M0.410692683,54.1692263 C1.73315122,64.257635 6.27629268,74.0057226 14.0450341,81.7557956 C21.8140098,89.5058686 31.5858732,94.0367883 41.6981854,95.3571971 L41.6981854,54.1701606 L0.410692683,54.1692263 Z" id="Fill-6" fill="#0052B4"></path>
            <path d="M54.2076878,95.3562628 C64.3207024,94.0367883 74.0918634,89.5058686 81.8606049,81.7548613 C89.6305171,74.0050219 94.1724878,64.257635 95.4951805,54.1692263 L54.2076878,54.1692263 L54.2076878,95.3562628 Z" id="Fill-7" fill="#0052B4"></path>
            <path d="M64.3225756,30.4464818 C64.3225756,29.8106861 64.8412098,29.2933139 65.4785561,29.2933139 L67.9555902,29.2933139 C71.871922,29.2933139 75.0577171,26.1162044 75.0577171,22.2101022 C75.0577171,18.3042336 71.871922,15.1261898 67.9555902,15.1261898 L65.603122,15.1261898 C64.8355902,14.5506569 63.8058146,14.1956204 62.6697366,14.1956204 C60.2990049,14.1956204 58.3783024,15.7292847 58.3783024,17.6207883 C58.3783024,19.494073 60.262478,21.0130219 62.6011317,21.042219 L62.6001951,21.056 L67.9555902,21.056 C68.5938732,21.056 69.1115707,21.5733723 69.1115707,22.2094015 C69.1115707,22.8451971 68.5938732,23.3625693 67.9555902,23.3625693 L65.4785561,23.3625693 C61.563161,23.3625693 58.3773659,26.5406131 58.3773659,30.4464818 C58.3773659,34.3525839 61.563161,37.5303942 65.4785561,37.5303942 L75.0567805,37.5303942 L75.0567805,31.5998832 L65.4785561,31.5998832 C64.8412098,31.5998832 64.3225756,31.0825109 64.3225756,30.4464818 Z" id="Fill-8" fill="#F3F3F3"></path>
            <path d="M26.7943024,30.4464818 C26.7943024,29.8106861 27.3127024,29.2933139 27.9502829,29.2933139 L30.4270829,29.2933139 C34.3427122,29.2933139 37.5282732,26.1162044 37.5282732,22.2101022 C37.5282732,18.3042336 34.3436488,15.1261898 30.4270829,15.1261898 L28.0746146,15.1261898 C27.3073171,14.5506569 26.2775415,14.1956204 25.1405268,14.1956204 C22.7707317,14.1956204 20.8490927,15.7292847 20.8490927,17.6207883 C20.8490927,19.494073 22.7342049,21.0130219 25.0728585,21.042219 L25.0709854,21.056 L30.4280195,21.056 C31.0656,21.056 31.5842341,21.5733723 31.5842341,22.2094015 C31.5842341,22.8451971 31.0656,23.3625693 30.4280195,23.3625693 L27.9502829,23.3625693 C24.0346537,23.3625693 20.8490927,26.5406131 20.8490927,30.4464818 C20.8490927,34.3525839 24.0346537,37.5303942 27.9502829,37.5303942 L37.5282732,37.5303942 L37.5282732,31.5998832 L27.9502829,31.5998832 C27.3127024,31.5998832 26.7943024,31.0825109 26.7943024,30.4464818 Z" id="Fill-9" fill="#F3F3F3"></path>
            <path d="M64.3225756,74.579854 C64.3225756,73.9438248 64.8412098,73.4273869 65.4785561,73.4273869 L67.9555902,73.4273869 C71.871922,73.4273869 75.0577171,70.2493431 75.0577171,66.3434745 C75.0577171,62.4373723 71.871922,59.259562 67.9555902,59.259562 L65.603122,59.259562 C64.8355902,58.6837956 63.8058146,58.3287591 62.6697366,58.3287591 C60.2990049,58.3287591 58.3773659,59.8626569 58.3773659,61.753927 C58.3773659,63.6272117 60.262478,65.1463942 62.6011317,65.1755912 L62.5994927,65.1891387 L67.9555902,65.1891387 C68.5938732,65.1891387 69.1115707,65.7065109 69.1115707,66.3425401 C69.1115707,66.9792701 68.5938732,67.495708 67.9555902,67.495708 L65.4785561,67.495708 C61.563161,67.495708 58.3773659,70.6737518 58.3773659,74.579854 C58.3773659,78.4857226 61.563161,81.6637664 65.4785561,81.6637664 L75.0567805,81.6637664 L75.0567805,75.7330219 L65.4785561,75.7330219 C64.8412098,75.7330219 64.3225756,75.2156496 64.3225756,74.579854 Z" id="Fill-10" fill="#F3F3F3"></path>
            <path d="M26.7943024,74.579854 C26.7943024,73.9438248 27.3127024,73.4273869 27.9502829,73.4273869 L30.4270829,73.4273869 C34.3427122,73.4273869 37.5282732,70.2493431 37.5282732,66.3434745 C37.5282732,62.4373723 34.3436488,59.259562 30.4270829,59.259562 L28.0746146,59.259562 C27.3073171,58.6837956 26.2775415,58.3287591 25.1405268,58.3287591 C22.7707317,58.3287591 20.8490927,59.8626569 20.8490927,61.753927 C20.8490927,63.6272117 22.7342049,65.1463942 25.071922,65.1755912 L25.0709854,65.1891387 L30.4270829,65.1891387 C31.0656,65.1891387 31.5832976,65.7065109 31.5832976,66.3425401 C31.5832976,66.9792701 31.0656,67.495708 30.4270829,67.495708 L27.9502829,67.495708 C24.0346537,67.495708 20.8490927,70.6737518 20.8490927,74.579854 C20.8490927,78.4857226 24.0346537,81.6637664 27.9502829,81.6637664 L37.5282732,81.6637664 L37.5282732,75.7330219 L27.9502829,75.7330219 C27.3127024,75.7330219 26.7943024,75.2156496 26.7943024,74.579854 Z" id="Fill-11" fill="#F3F3F3"></path>
        </g>
    </g>
</svg>