<?xml version="1.0" encoding="UTF-8"?>
<svg width="96px" height="96px" viewBox="0 0 96 96" version="1.1" xmlns="http://www.w3.org/2000/svg" xmlns:xlink="http://www.w3.org/1999/xlink">
    <title>mauritania</title>
    <desc>designed by Freepik from Flaticon</desc>
    <defs>
        <polygon id="path-1" points="0.0140487805 0.0934306569 0.0140487805 95.7668905 95.9068098 95.7668905 95.9068098 0.0934306569"></polygon>
    </defs>
    <g id="Page-1" stroke="none" stroke-width="1" fill="none" fill-rule="evenodd">
        <g id="mauritania">
            <g id="Group-3">
                <mask id="mask-2" fill="white">
                    <use xlink:href="#path-1"></use>
                </mask>
                <g id="Clip-2"></g>
                <path d="M95.9068098,47.9301606 C95.9068098,74.3488467 74.4365268,95.7668905 47.9534049,95.7668905 C21.4691122,95.7668905 0,74.3488467 0,47.9301606 C0,21.5103066 21.4691122,0.0934306569 47.9534049,0.0934306569 C74.4365268,0.0934306569 95.9068098,21.5103066 95.9068098,47.9301606 Z" id="Fill-1" fill="#496E2D" mask="url(#mask-2)"></path>
            </g>
            <path d="M47.9534049,55.3581314 C39.9685463,55.3581314 33.2981854,49.7595328 31.6619707,42.284146 C31.4102634,43.4338102 31.2739902,44.6252847 31.2739902,45.849927 C31.2739902,55.0395328 38.7411512,62.4885255 47.9534049,62.4885255 C57.164722,62.4885255 64.6325854,55.0395328 64.6325854,45.849927 C64.6325854,44.6252847 64.4963122,43.4338102 64.244839,42.284146 C62.6086244,49.7604672 55.9380293,55.3581314 47.9534049,55.3581314 Z" id="Fill-4" fill="#FFDA44"></path>
            <polygon id="Fill-5" fill="#FFDA44" points="47.9534049 33.3708613 49.505561 38.1372263 54.529639 38.1372263 50.4648585 41.0833285 52.0179512 45.849927 47.9534049 42.9035912 43.8886244 45.849927 45.4407805 41.0833285 41.3762341 38.1372263 46.4003122 38.1372263"></polygon>
        </g>
    </g>
</svg>