<?xml version="1.0" encoding="UTF-8"?>
<svg width="96px" height="96px" viewBox="0 0 96 96" version="1.1" xmlns="http://www.w3.org/2000/svg" xmlns:xlink="http://www.w3.org/1999/xlink">
    <title>mauritius</title>
    <desc>designed by Freepik from Flaticon</desc>
    <defs>
        <polygon id="path-1" points="0.0140487805 0.0934306569 0.0140487805 74.9685255 95.9068098 74.9685255 95.9068098 0.0934306569"></polygon>
    </defs>
    <g id="Page-1" stroke="none" stroke-width="1" fill="none" fill-rule="evenodd">
        <g id="mauritius">
            <g id="Group-5">
                <mask id="mask-2" fill="white">
                    <use xlink:href="#path-1"></use>
                </mask>
                <g id="Clip-2"></g>
                <path d="M5.8307122,25.051562 L47.9534049,29.2110949 L90.0758634,25.051562 C81.9430244,10.1818394 66.1299512,0.0934306569 47.9534049,0.0934306569 C29.7768585,0.0934306569 13.9637854,10.1818394 5.8307122,25.051562 Z" id="Fill-1" fill="#D80027" mask="url(#mask-2)"></path>
                <path d="M5.8307122,70.8078248 L47.9534049,74.9685255 L90.0758634,70.8078248 C93.7929366,64.012146 95.9068098,56.2174599 95.9068098,47.9301606 L47.9534049,43.7703942 L0,47.9301606 C0,56.2174599 2.11363902,64.012146 5.8307122,70.8078248 Z" id="Fill-3" fill="#FFDA44" mask="url(#mask-2)"></path>
                <path d="M5.8307122,25.051562 C2.11363902,31.8479416 0,39.6426277 0,47.9301606 L95.9068098,47.9301606 C95.9068098,39.6426277 93.7929366,31.8479416 90.0758634,25.051562 L5.8307122,25.051562 Z" id="Fill-4" fill="#0052B4" mask="url(#mask-2)"></path>
            </g>
            <path d="M47.9534049,95.7668905 C66.1299512,95.7668905 81.9430244,85.6782482 90.0758634,70.8078248 L5.8307122,70.8078248 C13.9637854,85.6782482 29.7768585,95.7668905 47.9534049,95.7668905 Z" id="Fill-6" fill="#6DA544"></path>
        </g>
    </g>
</svg>