<?xml version="1.0" encoding="UTF-8"?>
<svg width="96px" height="96px" viewBox="0 0 96 96" version="1.1" xmlns="http://www.w3.org/2000/svg" xmlns:xlink="http://www.w3.org/1999/xlink">
    <title>mexico</title>
    <desc>designed by Freepik from Flaticon</desc>
    <defs>
        <polygon id="path-1" points="0.0140487805 0.0934306569 0.0140487805 95.7668905 95.9068098 95.7668905 95.9068098 0.0934306569"></polygon>
    </defs>
    <g id="Page-1" stroke="none" stroke-width="1" fill="none" fill-rule="evenodd">
        <g id="mexico">
            <g id="Group-5">
                <mask id="mask-2" fill="white">
                    <use xlink:href="#path-1"></use>
                </mask>
                <g id="Clip-2"></g>
                <path d="M95.9068098,47.9301606 C95.9068098,74.3488467 74.4365268,95.7668905 47.9534049,95.7668905 C21.4691122,95.7668905 0,74.3488467 0,47.9301606 C0,21.5103066 21.4691122,0.0934306569 47.9534049,0.0934306569 C74.4365268,0.0934306569 95.9068098,21.5103066 95.9068098,47.9301606 Z" id="Fill-1" fill="#F3F3F3" mask="url(#mask-2)"></path>
                <path d="M95.9068098,47.9301606 C95.9068098,28.9646715 84.8424585,12.5778686 68.8024976,4.83970803 L68.8024976,91.0194453 C84.8424585,83.282219 95.9068098,66.8954161 95.9068098,47.9301606 Z" id="Fill-3" fill="#D80027" mask="url(#mask-2)"></path>
                <path d="M0,47.9301606 C0,66.8954161 11.0643512,83.282219 27.1043122,91.0194453 L27.1043122,4.83970803 C11.0643512,12.5778686 0,28.9646715 0,47.9301606 Z" id="Fill-4" fill="#6DA544" mask="url(#mask-2)"></path>
            </g>
            <path d="M35.4439024,47.9301606 C35.4439024,54.8216058 41.0442146,60.4092263 47.9534049,60.4092263 C54.8616585,60.4092263 60.4629073,54.8216058 60.4629073,47.9301606 L60.4629073,43.7703942 L35.4439024,43.7703942 L35.4439024,47.9301606 Z" id="Fill-6" fill="#6DA544"></path>
            <path d="M64.6325854,39.6108613 L52.1230829,39.6108613 C52.1230829,37.3134015 50.2555317,35.4510949 47.9534049,35.4510949 C45.6503415,35.4510949 43.7834927,37.3134015 43.7834927,39.6108613 L31.2730537,39.6108613 C31.2730537,41.9083212 33.279922,43.7703942 35.5820488,43.7703942 L35.4429659,43.7703942 C35.4429659,46.067854 37.3098146,47.9301606 39.612878,47.9301606 C39.612878,50.2276204 41.4804293,52.0896934 43.7834927,52.0896934 L52.1230829,52.0896934 C54.4261463,52.0896934 56.2929951,50.2276204 56.2929951,47.9301606 C58.5960585,47.9301606 60.4629073,46.067854 60.4629073,43.7703942 L60.3238244,43.7703942 C62.6268878,43.7703942 64.6325854,41.9083212 64.6325854,39.6108613 Z" id="Fill-7" fill="#FF9811"></path>
        </g>
    </g>
</svg>