<?xml version="1.0" encoding="UTF-8"?>
<svg width="96px" height="96px" viewBox="0 0 96 96" version="1.1" xmlns="http://www.w3.org/2000/svg" xmlns:xlink="http://www.w3.org/1999/xlink">
    <title>moldova</title>
    <desc>designed by Freepik from Flaticon</desc>
    <defs>
        <polygon id="path-1" points="0.0140487805 0.0934306569 0.0140487805 95.7668905 72.9721756 95.7668905 72.9721756 0.0934306569 0.0140487805 0.0934306569"></polygon>
    </defs>
    <g id="Page-1" stroke="none" stroke-width="1" fill="none" fill-rule="evenodd">
        <g id="moldova">
            <g id="Group-4">
                <mask id="mask-2" fill="white">
                    <use xlink:href="#path-1"></use>
                </mask>
                <g id="Clip-2"></g>
                <path d="M68.8024976,4.83970803 C62.4978732,1.79877372 55.4250146,0.0934306569 47.9534049,0.0934306569 C40.4808585,0.0934306569 33.408,1.79877372 27.1043122,4.83970803 L22.9344,47.9301606 L27.1043122,91.0194453 C33.408,94.0606131 40.4808585,95.7668905 47.9534049,95.7668905 C55.4250146,95.7668905 62.4978732,94.0606131 68.8024976,91.0194453 L72.9721756,47.9301606 L68.8024976,4.83970803 Z" id="Fill-1" fill="#FFDA44" mask="url(#mask-2)"></path>
                <path d="M27.1043122,4.84157664 C11.0643512,12.5788029 0,28.9646715 0,47.9301606 C0,66.8954161 11.0643512,83.2805839 27.1043122,91.0178102 L27.1043122,4.84157664 Z" id="Fill-3" fill="#0052B4" mask="url(#mask-2)"></path>
            </g>
            <path d="M68.8024976,4.84157664 L68.8024976,91.0178102 C84.8424585,83.2805839 95.9068098,66.8954161 95.9068098,47.9301606 C95.9068098,28.9646715 84.8424585,12.5788029 68.8024976,4.84157664 Z" id="Fill-5" fill="#D80027"></path>
            <path d="M64.6325854,37.7312701 L53.1657366,37.7312701 C53.1657366,34.8589781 50.8317659,32.5313869 47.9534049,32.5313869 C45.0741073,32.5313869 42.740839,34.8589781 42.740839,37.7312701 L31.2739902,37.7312701 C31.2739902,40.557781 33.7425951,42.8498686 36.5771707,42.8498686 L36.4060098,42.8498686 C36.4060098,45.6773139 38.7036878,47.9703358 41.5380293,47.9703358 C41.5380293,50.4728759 43.3409561,52.5533431 45.7208195,52.9985401 L41.6771122,62.1061606 C43.614439,62.8916788 45.7325268,63.3289343 47.9534049,63.3289343 C50.1740488,63.3289343 52.2914341,62.8916788 54.2294634,62.1061606 L50.1850537,52.9985401 C52.5658537,52.5533431 54.3685463,50.4728759 54.3685463,47.9703358 C57.203122,47.9703358 59.5005659,45.6773139 59.5005659,42.8498686 L59.329639,42.8498686 C62.1639805,42.8498686 64.6325854,40.557781 64.6325854,37.7312701 Z" id="Fill-6" fill="#FF9811"></path>
            <polygon id="Fill-7" fill="#0052B4" points="47.9534049 44.8095766 41.1767415 47.9301606 41.1767415 54.1692263 47.9534049 58.3287591 54.7288976 54.1692263 54.7288976 47.9301606"></polygon>
            <polygon id="Fill-8" fill="#D80027" points="41.1767415 47.9301606 54.7288976 47.9301606 54.7288976 41.6901606 41.1767415 41.6901606"></polygon>
        </g>
    </g>
</svg>