<?xml version="1.0" encoding="UTF-8"?>
<svg width="96px" height="96px" viewBox="0 0 96 96" version="1.1" xmlns="http://www.w3.org/2000/svg" xmlns:xlink="http://www.w3.org/1999/xlink">
    <title>mongolia</title>
    <desc>designed by Freepik from Flaticon</desc>
    <defs>
        <polygon id="path-1" points="0.0140487805 0.0934306569 0.0140487805 95.7668905 66.7171902 95.7668905 66.7171902 0.0934306569"></polygon>
    </defs>
    <g id="Page-1" stroke="none" stroke-width="1" fill="none" fill-rule="evenodd">
        <g id="mongolia">
            <g id="Group-4">
                <mask id="mask-2" fill="white">
                    <use xlink:href="#path-1"></use>
                </mask>
                <g id="Clip-2"></g>
                <path d="M47.9534049,95.7668905 C53.8190049,95.7668905 59.4375805,94.713927 64.6325854,92.7913577 L66.7171902,47.9301606 L64.6325854,3.06872993 C59.4375805,1.14639416 53.8190049,0.0934306569 47.9534049,0.0934306569 C42.0878049,0.0934306569 36.4682927,1.14639416 31.2739902,3.06872993 L29.1886829,47.9301606 L31.2739902,92.7913577 C36.4682927,94.713927 42.0878049,95.7668905 47.9534049,95.7668905 Z" id="Fill-1" fill="#0052B4" mask="url(#mask-2)"></path>
                <path d="M0,47.9301606 C0,68.4975182 13.0133854,86.0323504 31.2739902,92.7913577 L31.2739902,3.06872993 C13.0133854,9.8279708 0,27.361635 0,47.9301606 Z" id="Fill-3" fill="#A2001D" mask="url(#mask-2)"></path>
            </g>
            <path d="M64.6325854,3.06872993 L64.6325854,92.7913577 C82.8931902,86.0323504 95.9068098,68.4975182 95.9068098,47.9301606 C95.9068098,27.361635 82.8931902,9.8279708 64.6325854,3.06872993 Z" id="Fill-5" fill="#A2001D"></path>
            <polygon id="Fill-6" fill="#FFDA44" points="22.9344 64.5687591 27.1043122 64.5687591 27.1043122 47.9301606 22.9344 47.9301606"></polygon>
            <polygon id="Fill-7" fill="#FFDA44" points="6.25428293 64.5687591 10.4248976 64.5687591 10.4248976 47.9301606 6.25428293 47.9301606"></polygon>
            <path d="M20.8490927,54.1692263 C20.8490927,56.4666861 18.9822439,58.3287591 16.6791805,58.3287591 C14.3761171,58.3287591 12.5095024,56.4666861 12.5095024,54.1692263 C12.5095024,51.8717664 14.3761171,50.0094599 16.6791805,50.0094599 C18.9822439,50.0094599 20.8490927,51.8717664 20.8490927,54.1692263 Z" id="Fill-8" fill="#FFDA44"></path>
            <path d="M18.7637854,39.6108613 C18.7637854,40.7595912 17.8307122,41.6901606 16.6791805,41.6901606 C15.5276488,41.6901606 14.5948098,40.7595912 14.5948098,39.6108613 C14.5948098,38.4621314 15.5276488,37.5303942 16.6791805,37.5303942 C17.8307122,37.5303942 18.7637854,38.4621314 18.7637854,39.6108613 Z" id="Fill-9" fill="#FFDA44"></path>
            <polygon id="Fill-10" fill="#FFDA44" points="12.5095024 64.5689927 20.8490927 64.5689927 20.8490927 60.4092263 12.5095024 60.4092263"></polygon>
            <polygon id="Fill-11" fill="#FFDA44" points="12.5095024 47.9301606 20.8490927 47.9301606 20.8490927 43.7703942 12.5095024 43.7703942"></polygon>
            <polygon id="Fill-12" fill="#FFDA44" points="16.6791805 25.051562 18.1564098 29.5852847 22.9344 29.5852847 19.0691122 32.3863358 20.5444683 36.9200584 16.6791805 34.118073 12.8141268 36.9200584 14.2901854 32.3863358 10.4248976 29.5852847 15.203122 29.5852847"></polygon>
        </g>
    </g>
</svg>