<?xml version="1.0" encoding="UTF-8"?>
<svg width="96px" height="96px" viewBox="0 0 96 96" version="1.1" xmlns="http://www.w3.org/2000/svg" xmlns:xlink="http://www.w3.org/1999/xlink">
    <title>montserrat</title>
    <desc>designed by Freepik from Flaticon</desc>
    <defs>
        <polygon id="path-1" points="0.0140487805 0.0934306569 0.0140487805 95.7668905 95.9068098 95.7668905 95.9068098 0.0934306569"></polygon>
    </defs>
    <g id="Page-1" stroke="none" stroke-width="1" fill="none" fill-rule="evenodd">
        <g id="montserrat">
            <g id="Group-5">
                <mask id="mask-2" fill="white">
                    <use xlink:href="#path-1"></use>
                </mask>
                <g id="Clip-2"></g>
                <path d="M95.9068098,47.9301606 C95.9068098,74.3488467 74.4365268,95.7668905 47.9534049,95.7668905 C21.4691122,95.7668905 0,74.3488467 0,47.9301606 C0,47.9411387 47.9534049,0.0988029197 47.9534049,0.0934306569 C74.4365268,0.0934306569 95.9068098,21.5103066 95.9068098,47.9301606 Z" id="Fill-1" fill="#0052B4" mask="url(#mask-2)"></path>
                <path d="M47.9534049,25.051562 L47.9534049,0.0934306569 L47.9452098,0.0934306569 C21.4646634,0.0981021898 0,21.5131095 0,47.9301606 L25.0190049,47.9301606 L25.0190049,33.8763212 L39.107122,47.9301606 L47.8253268,47.9301606 L47.9534049,47.8023942 L47.9534049,39.1061022 L33.8643512,25.051562 L47.9534049,25.051562 Z" id="Fill-4" fill="#F3F3F3" mask="url(#mask-2)"></path>
            </g>
            <path d="M24.2606049,6.33249635 C16.7606634,10.5934015 10.5255805,16.8133139 6.25428293,24.2950073 L6.25428293,47.9301606 L18.764722,47.9301606 L18.764722,18.8124964 L47.9534049,18.8124964 L47.9534049,6.33249635 L24.2606049,6.33249635 Z" id="Fill-6" fill="#D80027"></path>
            <polygon id="Fill-7" fill="#D80027" points="47.9534049 42.0468321 30.9155122 25.051562 25.0190049 25.051562 25.0190049 25.0522628 47.9524683 47.9301606 47.9534049 47.9301606"></polygon>
            <path d="M54.2076878,25.051562 L54.2076878,47.9301606 C54.2076878,59.0743358 68.8024976,62.4885255 68.8024976,62.4885255 C68.8024976,62.4885255 83.3963707,59.0743358 83.3963707,47.9301606 L83.3963707,25.051562 L54.2076878,25.051562 Z" id="Fill-8" fill="#338AF3"></path>
            <path d="M54.2076878,47.9301606 C54.2076878,59.0743358 68.8024976,62.4885255 68.8024976,62.4885255 C68.8024976,62.4885255 83.3963707,59.0743358 83.3963707,47.9301606 L54.2076878,47.9301606 Z" id="Fill-9" fill="#A2001D"></path>
            <polygon id="Fill-10" fill="#000000" points="75.0577171 35.4510949 70.8868683 35.4510949 70.8868683 31.2913285 66.7171902 31.2913285 66.7171902 35.4510949 62.547278 35.4510949 62.547278 39.6108613 66.7171902 39.6108613 66.7171902 52.0896934 70.8868683 52.0896934 70.8868683 39.6108613 75.0577171 39.6108613"></polygon>
        </g>
    </g>
</svg>