<?xml version="1.0" encoding="UTF-8"?>
<svg width="96px" height="96px" viewBox="0 0 96 96" version="1.1" xmlns="http://www.w3.org/2000/svg" xmlns:xlink="http://www.w3.org/1999/xlink">
    <title>montenegro</title>
    <desc>designed by Freepik from Flaticon</desc>
    <defs>
        <polygon id="path-1" points="0.0140487805 0.0934306569 0.0140487805 95.7668905 95.9068098 95.7668905 95.9068098 0.0934306569"></polygon>
    </defs>
    <g id="Page-1" stroke="none" stroke-width="1" fill="none" fill-rule="evenodd">
        <g id="montenegro">
            <g id="Group-4">
                <mask id="mask-2" fill="white">
                    <use xlink:href="#path-1"></use>
                </mask>
                <g id="Clip-2"></g>
                <path d="M95.9068098,47.9301606 C95.9068098,74.3488467 74.4365268,95.7668905 47.9534049,95.7668905 C21.4691122,95.7668905 0,74.3488467 0,47.9301606 C0,21.5103066 21.4691122,0.0934306569 47.9534049,0.0934306569 C74.4365268,0.0934306569 95.9068098,21.5103066 95.9068098,47.9301606 Z" id="Fill-1" fill="#FFDA44" mask="url(#mask-2)"></path>
                <path d="M95.9068098,47.9301606 C95.9068098,31.512292 87.6138146,17.0277372 74.9806829,8.41272993 L20.9258927,8.41272993 C8.29205854,17.0277372 0,31.512292 0,47.9301606 C0,64.3480292 8.29205854,78.8325839 20.9258927,87.4464234 L74.9806829,87.4464234 C87.6138146,78.8325839 95.9068098,64.3480292 95.9068098,47.9301606 Z" id="Fill-3" fill="#A2001D" mask="url(#mask-2)"></path>
            </g>
            <polygon id="Fill-5" fill="#FFDA44" points="37.5282732 35.4510949 58.3773659 35.4510949 58.3773659 27.1317956 54.2076878 29.2110949 47.9534049 22.9720292 41.6981854 29.2110949 37.5282732 27.1317956"></polygon>
            <path d="M66.7171902,47.9301606 L56.2967415,47.9301606 C56.705561,47.2247591 56.9432195,46.4091095 56.9432195,45.536 C56.9432195,42.884438 54.7883707,40.7357664 52.1315122,40.7357664 C50.2958049,40.7357664 48.7015024,41.7623358 47.8901854,43.2705401 C47.0788683,41.7623358 45.4848,40.7357664 43.6481561,40.7357664 C40.9910634,40.7357664 38.8371512,42.884438 38.8371512,45.536 C38.8371512,46.4091095 39.0750439,47.2247591 39.4829268,47.9301606 L29.1886829,47.9301606 C29.1886829,51.1107737 31.9656585,53.6892263 35.1540293,53.6892263 L34.9617951,53.6892263 C34.9617951,56.2987445 36.7015024,58.5013723 39.0869854,59.2093431 L34.4012488,63.8843796 L38.8235707,68.2959416 L45.0970537,62.0377226 C45.3429073,62.1281168 45.5971902,62.1993577 45.8596683,62.2486423 L42.0695415,70.7877372 C43.8860488,71.5239708 45.8706732,71.9336642 47.9534049,71.9336642 C50.0349659,71.9336642 52.020761,71.5239708 53.8372683,70.7877372 L50.0459707,62.2486423 C50.3084488,62.1993577 50.5627317,62.1281168 50.8088195,62.0377226 L57.0823024,68.2959416 L61.5046244,63.8843796 L56.8188878,59.2093431 C59.2034341,58.5013723 60.9429073,56.2987445 60.9429073,53.6892263 L60.7509073,53.6892263 C63.9402146,53.6892263 66.7171902,51.1107737 66.7171902,47.9301606 Z" id="Fill-6" fill="#FFDA44"></path>
            <polygon id="Fill-7" fill="#6DA544" points="47.9534049 51.0495766 41.1767415 54.1692263 41.1767415 60.4092263 47.9534049 64.5687591 54.7288976 60.4092263 54.7288976 54.1692263"></polygon>
            <polygon id="Fill-8" fill="#0052B4" points="41.1767415 56.2494599 54.7288976 56.2494599 54.7288976 47.9301606 41.1767415 47.9301606"></polygon>
        </g>
    </g>
</svg>