<?xml version="1.0" encoding="UTF-8"?>
<svg width="96px" height="96px" viewBox="0 0 96 96" version="1.1" xmlns="http://www.w3.org/2000/svg" xmlns:xlink="http://www.w3.org/1999/xlink">
    <title>mozambique</title>
    <desc>designed by Freepik from Flaticon</desc>
    <defs>
        <polygon id="path-1" points="0.0140487805 0.0934306569 0.0140487805 95.7668905 95.9068098 95.7668905 95.9068098 0.0934306569"></polygon>
        <polygon id="path-3" points="0.0140487805 0.0896934307 0.0140487805 67.7411971 95.9068098 67.7411971 95.9068098 0.0896934307"></polygon>
    </defs>
    <g id="Page-1" stroke="none" stroke-width="1" fill="none" fill-rule="evenodd">
        <g id="mozambique">
            <g id="Group-3">
                <mask id="mask-2" fill="white">
                    <use xlink:href="#path-1"></use>
                </mask>
                <g id="Clip-2"></g>
                <path d="M95.9068098,47.9301606 C95.9068098,74.3488467 74.4374634,95.7668905 47.9534049,95.7668905 C21.4691122,95.7668905 0,74.3488467 0,47.9301606 C0,21.5103066 21.4691122,0.0934306569 47.9534049,0.0934306569 C74.4374634,0.0934306569 95.9068098,21.5103066 95.9068098,47.9301606 Z" id="Fill-1" fill="#F3F3F3" mask="url(#mask-2)"></path>
            </g>
            <path d="M25.9188293,66.6480584 L14.0469073,81.753927 C22.7241366,90.4109781 34.7112585,95.7668905 47.9534049,95.7668905 C67.7771707,95.7668905 84.7883707,83.7650219 92.0909268,66.6480584 L25.9188293,66.6480584 Z" id="Fill-4" fill="#FFDA44"></path>
            <path d="M92.1658537,29.3844088 C84.9035707,12.1763504 67.8439024,0.0934306569 47.9534049,0.0934306569 C34.7112585,0.0934306569 22.7241366,5.44840876 14.0469073,14.1061606 L26.056039,29.3844088 L92.1658537,29.3844088 Z" id="Fill-5" fill="#496E2D"></path>
            <g id="Group-9" transform="translate(0.000000, 14.014599)">
                <mask id="mask-4" fill="white">
                    <use xlink:href="#path-3"></use>
                </mask>
                <g id="Clip-7"></g>
                <path d="M10.4248976,21.2631825 L10.4248976,46.3946277 L94.2549073,46.3946277 C95.3305756,42.4154161 95.9068098,38.2329927 95.9068098,33.915562 C95.9068098,29.5350657 95.3148878,25.2933139 94.2092488,21.2631825 L10.4248976,21.2631825 Z" id="Fill-6" fill="#000000" mask="url(#mask-4)"></path>
                <path d="M14.0450341,0.0896934307 C-4.68199024,18.7713869 -4.68199024,49.0597372 14.0450341,67.7411971 L47.9534049,33.915562 L14.0450341,0.0896934307 Z" id="Fill-8" fill="#A2001D" mask="url(#mask-4)"></path>
            </g>
            <polygon id="Fill-10" fill="#FFDA44" points="19.4076878 35.4510949 22.5127024 44.9838248 32.5617951 44.9838248 24.4327024 50.8753285 27.5367805 60.4092263 19.4076878 54.5167883 11.278361 60.4092263 14.3836098 50.8753285 6.25521951 44.9838248 16.302439 44.9838248"></polygon>
            <polygon id="Fill-11" fill="#F3F3F3" points="10.3225756 56.2494599 28.4972488 56.2494599 28.4972488 47.9301606 10.3225756 47.9301606"></polygon>
            <polygon id="Fill-12" fill="#000000" points="31.9380293 38.3927591 28.9894244 35.4510949 19.4086244 45.0085839 9.82782439 35.4510949 6.87898537 38.3927591 16.4679805 47.9411387 6.87898537 57.5077372 9.82782439 60.4092263 19.4086244 50.8690219 28.9894244 60.4092263 31.9380293 57.5077372 22.3480976 47.9411387"></polygon>
        </g>
    </g>
</svg>