<?xml version="1.0" encoding="UTF-8"?>
<svg width="96px" height="96px" viewBox="0 0 96 96" version="1.1" xmlns="http://www.w3.org/2000/svg" xmlns:xlink="http://www.w3.org/1999/xlink">
    <title>nato</title>
    <desc>designed by Freepik from Flaticon</desc>
    <defs>
        <polygon id="path-1" points="0.0140487805 0.0934306569 0.0140487805 95.7668905 95.9068098 95.7668905 95.9068098 0.0934306569"></polygon>
    </defs>
    <g id="Page-1" stroke="none" stroke-width="1" fill="none" fill-rule="evenodd">
        <g id="nato">
            <g id="Group-3">
                <mask id="mask-2" fill="white">
                    <use xlink:href="#path-1"></use>
                </mask>
                <g id="Clip-2"></g>
                <path d="M95.9068098,47.9301606 C95.9068098,74.3488467 74.4365268,95.7668905 47.9534049,95.7668905 C21.4691122,95.7668905 0,74.3488467 0,47.9301606 C0,21.5103066 21.4691122,0.0934306569 47.9534049,0.0934306569 C74.4365268,0.0934306569 95.9068098,21.5103066 95.9068098,47.9301606 Z" id="Fill-1" fill="#0052B4" mask="url(#mask-2)"></path>
            </g>
            <path d="M68.5325268,51.2677372 C68.7090732,50.1802044 68.8024976,49.0660438 68.8024976,47.9301606 C68.8024976,49.0660438 68.7090732,50.1802044 68.5325268,51.2677372 L77.1420878,47.9301606 L56.1211317,39.7813723 L53.1357659,32.1179562 C58.1699122,33.7639708 62.1529756,37.7375766 63.8039415,42.7594745 L68.5325268,44.5925839 C67.104,35.7923504 60.1198829,28.8252263 51.2981854,27.3999416 L47.9534049,18.8124964 L44.6076878,27.3999416 C35.7859902,28.8261606 28.8028098,35.7923504 27.3731122,44.5925839 L18.764722,47.9301606 L27.3740488,51.2677372 C28.8028098,60.0679708 35.7859902,67.0341606 44.6076878,68.4592117 L47.9534049,77.0478248 L51.299122,68.4592117 C60.1208195,67.0341606 67.104,60.0679708 68.5325268,51.2677372 Z M52.8997463,42.995854 L47.9534049,47.9301606 L65.6295805,47.9301606 L52.8997463,52.8644672 L47.9534049,47.9301606 L47.9534049,65.5633285 L43.0061268,52.8644672 L47.9534049,47.9301606 L30.2772293,47.9301606 L43.0061268,42.995854 L47.9534049,47.9301606 L47.9534049,30.2969927 L52.8997463,42.995854 Z M42.7701073,32.1179562 L39.7847415,39.7823066 L32.1026341,42.7604088 C33.7526634,37.7375766 37.735961,33.7639708 42.7701073,32.1179562 Z M32.1026341,53.0999124 L39.7847415,56.0780146 L42.7701073,63.7421314 C37.735961,62.0951825 33.7526634,58.1218102 32.1026341,53.0999124 Z M53.1357659,63.7421314 L56.1211317,56.0780146 L63.8039415,53.0999124 C62.1529756,58.1218102 58.1699122,62.0951825 53.1357659,63.7421314 Z" id="Fill-4" fill="#F3F3F3"></path>
            <polygon id="Fill-5" fill="#0052B4" points="65.6295805 47.9301606 47.9534049 47.9301606 52.8997463 52.8644672"></polygon>
            <polygon id="Fill-6" fill="#0052B4" points="30.2772293 47.9301606 47.9534049 47.9301606 43.0061268 42.995854"></polygon>
            <polygon id="Fill-7" fill="#0052B4" points="47.9534049 65.5633285 47.9534049 47.9301606 43.0061268 52.8644672"></polygon>
            <polygon id="Fill-8" fill="#0052B4" points="47.9534049 47.9301606 52.8997463 42.995854 47.9534049 30.2969927"></polygon>
            <polygon id="Fill-9" fill="#F3F3F3" points="45.8680976 14.6527299 50.0380098 14.6527299 50.0380098 6.33249635 45.8680976 6.33249635"></polygon>
            <polygon id="Fill-10" fill="#F3F3F3" points="6.25428293 50.0096934 14.5948098 50.0096934 14.5948098 45.849927 6.25428293 45.849927"></polygon>
            <polygon id="Fill-11" fill="#F3F3F3" points="45.8680976 89.5268905 50.0380098 89.5268905 50.0380098 81.2075912 45.8680976 81.2075912"></polygon>
            <polygon id="Fill-12" fill="#F3F3F3" points="81.312 50.0096934 89.6515902 50.0096934 89.6515902 45.849927 81.312 45.849927"></polygon>
        </g>
    </g>
</svg>