<?xml version="1.0" encoding="UTF-8"?>
<svg width="96px" height="96px" viewBox="0 0 96 96" version="1.1" xmlns="http://www.w3.org/2000/svg" xmlns:xlink="http://www.w3.org/1999/xlink">
    <title>new-zealand</title>
    <desc>designed by Freepik from Flaticon</desc>
    <defs>
        <polygon id="path-1" points="0.0140487805 0.0934306569 0.0140487805 95.7668905 95.9068098 95.7668905 95.9068098 0.0934306569"></polygon>
    </defs>
    <g id="Page-1" stroke="none" stroke-width="1" fill="none" fill-rule="evenodd">
        <g id="new-zealand">
            <g id="Group-5">
                <mask id="mask-2" fill="white">
                    <use xlink:href="#path-1"></use>
                </mask>
                <g id="Clip-2"></g>
                <path d="M95.9068098,47.9301606 C95.9068098,74.3488467 74.4365268,95.7668905 47.9534049,95.7668905 C21.4691122,95.7668905 0,74.3488467 0,47.9301606 C0,47.9411387 47.9534049,0.0988029197 47.9534049,0.0934306569 C74.4365268,0.0934306569 95.9068098,21.5103066 95.9068098,47.9301606 Z" id="Fill-1" fill="#0052B4" mask="url(#mask-2)"></path>
                <path d="M47.9534049,25.051562 L47.9534049,0.0934306569 L47.9452098,0.0934306569 C21.4646634,0.0981021898 0,21.5131095 0,47.9301606 L25.0190049,47.9301606 L25.0190049,33.8763212 L39.1078244,47.9301606 L47.8253268,47.9301606 C47.8674732,47.8871825 47.910322,47.844438 47.9534049,47.8023942 L47.9534049,39.1061022 L33.8643512,25.051562 L47.9534049,25.051562 Z" id="Fill-4" fill="#F3F3F3" mask="url(#mask-2)"></path>
            </g>
            <path d="M24.2606049,6.33249635 C16.7606634,10.5934015 10.5255805,16.8133139 6.25428293,24.2950073 L6.25428293,47.9301606 L18.764722,47.9301606 L18.764722,18.8124964 L47.9534049,18.8124964 L47.9534049,6.33249635 L24.2606049,6.33249635 Z" id="Fill-6" fill="#D80027"></path>
            <path d="M47.9534049,42.0468321 L30.9164488,25.051562 C30.9164488,25.051562 25.0190049,25.0522628 25.0190049,25.051562 L25.0190049,25.0522628 L47.9534049,47.9301606 L47.9534049,42.0468321 Z" id="Fill-7" fill="#D80027"></path>
            <polygon id="Fill-8" fill="#D80027" points="83.043278 35.5898394 84.0786732 38.7667153 87.4281366 38.7667153 84.7178927 40.7310949 85.7532878 43.9091387 83.043278 41.9447591 80.3332683 43.9091387 81.3686634 40.7310949 78.6586537 38.7667153 82.0078829 38.7667153"></polygon>
            <polygon id="Fill-9" fill="#D80027" points="71.0697366 58.4675036 72.6228293 63.2348029 77.6469073 63.2348029 73.582361 66.1802044 75.1354537 70.9465693 71.0697366 68.0011679 67.0051902 70.9465693 68.5582829 66.1802044 64.4935024 63.2348029 69.5175805 63.2348029"></polygon>
            <polygon id="Fill-10" fill="#D80027" points="71.5225756 21.0305401 72.8167024 25.0032117 77.0030049 25.0032117 73.6151415 27.4574015 74.9095024 31.430073 71.5225756 28.9747153 68.1356488 31.430073 69.4290732 27.4574015 66.0421463 25.0032117 70.2284488 25.0032117"></polygon>
            <polygon id="Fill-11" fill="#D80027" points="60.0018732 35.4510949 61.5540293 40.2174599 66.5781073 40.2174599 62.5133268 43.1637956 64.0664195 47.9301606 60.0018732 44.9838248 55.9370927 47.9301606 57.4901854 43.1637956 53.4247024 40.2174599 58.4487805 40.2174599"></polygon>
        </g>
    </g>
</svg>