<?xml version="1.0" encoding="UTF-8"?>
<svg width="96px" height="96px" viewBox="0 0 96 96" version="1.1" xmlns="http://www.w3.org/2000/svg" xmlns:xlink="http://www.w3.org/1999/xlink">
    <title>niue</title>
    <desc>designed by Freepik from Flaticon</desc>
    <defs>
        <polygon id="path-1" points="0.0140487805 0.0934306569 0.0140487805 95.7668905 95.9068098 95.7668905 95.9068098 0.0934306569"></polygon>
        <polygon id="path-3" points="0.0140487805 0.0934306569 0.0140487805 48.0359708 48.0594732 48.0359708 48.0594732 0.0934306569 0.0140487805 0.0934306569"></polygon>
    </defs>
    <g id="Page-1" stroke="none" stroke-width="1" fill="none" fill-rule="evenodd">
        <g id="niue">
            <g id="Group-3">
                <mask id="mask-2" fill="white">
                    <use xlink:href="#path-1"></use>
                </mask>
                <g id="Clip-2"></g>
                <path d="M95.9068098,47.9301606 C95.9068098,74.3488467 74.4365268,95.7668905 47.9534049,95.7668905 C21.4691122,95.7668905 0,74.3488467 0,47.9301606 C0,47.9411387 47.9534049,0.0988029197 47.9534049,0.0934306569 C74.4365268,0.0934306569 95.9068098,21.5103066 95.9068098,47.9301606 Z" id="Fill-1" fill="#FFDA44" mask="url(#mask-2)"></path>
            </g>
            <polygon id="Fill-4" fill="#0052B4" points="47.9534049 22.9720292 47.9534049 39.1061022 31.2739902 22.9720292"></polygon>
            <polygon id="Fill-5" fill="#0052B4" points="25.0190049 47.9301606 39.107122 47.9301606 25.0190049 29.2110949 22.9344 43.7703942"></polygon>
            <g id="Group-9">
                <mask id="mask-4" fill="white">
                    <use xlink:href="#path-3"></use>
                </mask>
                <g id="Clip-7"></g>
                <path d="M47.9534049,25.051562 L47.9534049,0.0934306569 L47.9452098,0.0934306569 C21.4646634,0.0981021898 0,21.5131095 0,47.9301606 L25.0190049,47.9301606 L25.0190049,33.8763212 L39.107122,47.9301606 L47.8253268,47.9301606 L47.9534049,47.8023942 L47.9534049,39.1061022 L33.8643512,25.051562 L47.9534049,25.051562 Z" id="Fill-8" fill="#F3F3F3" mask="url(#mask-4)"></path>
            </g>
            <polygon id="Fill-10" fill="#D80027" points="47.9534049 42.0468321 30.9155122 25.051562 25.0190049 25.051562 25.0190049 25.0522628 47.9524683 47.9301606 47.9534049 47.9301606"></polygon>
            <path d="M24.2606049,6.33249635 C22.4122537,7.38265693 20.6404683,8.55334307 18.956722,9.83054015 L20.9240195,9.83054015 L15.7233951,13.6007007 L17.7091902,19.6991533 L12.5095024,15.9301606 L11.9559805,16.3316788 C9.79668293,18.7776934 7.88230244,21.4437372 6.25428293,24.2950073 L6.25428293,47.9301606 L18.764722,47.9301606 L18.764722,18.8124964 L47.9534049,18.8124964 L47.9534049,6.33249635 L24.2606049,6.33249635 Z" id="Fill-11" fill="#D80027"></path>
            <path d="M20.4849951,8.71754745 C19.9672976,9.07889051 19.4580293,9.45027737 18.9557854,9.83054015 L15.7233951,13.6007007 L12.5095024,15.9301606 L11.9515317,16.3342482 C10.7735415,17.6682044 9.66954146,19.0687299 8.64515122,20.5285839 C9.81307317,21.0943066 11.1238244,21.4119708 12.5095024,21.4119708 C17.4026927,21.4119708 21.3705366,17.4547153 21.3705366,12.5724964 C21.3705366,11.1901898 21.0520976,9.88262774 20.4849951,8.71754745 Z" id="Fill-12" fill="#0052B4"></path>
            <path d="M11.9515317,16.3342482 L12.5095024,15.9301606 L17.7101268,19.6991533 L15.7233951,13.6007007 L20.9230829,9.83054015 L18.9557854,9.83054015 C16.4094439,11.7631533 14.0625951,13.9428905 11.9515317,16.3342482 Z" id="Fill-13" fill="#FFDA44"></path>
            <polygon id="Fill-14" fill="#FFDA44" points="33.1445854 8.41272993 34.1790439 11.5907737 37.5282732 11.5907737 34.8192 13.554219 35.8536585 16.7320292 33.1445854 14.7685839 30.4343415 16.7320292 31.4688 13.554219 28.7597268 11.5907737 32.1091902 11.5907737"></polygon>
            <polygon id="Fill-15" fill="#FFDA44" points="12.5095024 29.2110949 13.5448976 32.3891387 16.8941268 32.3891387 14.1841171 34.3535182 15.2195122 37.5303942 12.5095024 35.5669489 9.80019512 37.5303942 10.8346537 34.3535182 8.1246439 32.3891387 11.4741073 32.3891387"></polygon>
        </g>
    </g>
</svg>