<?xml version="1.0" encoding="UTF-8"?>
<svg width="96px" height="96px" viewBox="0 0 96 96" version="1.1" xmlns="http://www.w3.org/2000/svg" xmlns:xlink="http://www.w3.org/1999/xlink">
    <title>norfolk-island</title>
    <desc>designed by Freepik from Flaticon</desc>
    <defs>
        <polygon id="path-1" points="0.0140487805 0.0934306569 0.0140487805 95.7668905 72.9721756 95.7668905 72.9721756 0.0934306569 0.0140487805 0.0934306569"></polygon>
    </defs>
    <g id="Page-1" stroke="none" stroke-width="1" fill="none" fill-rule="evenodd">
        <g id="norfolk-island">
            <g id="Group-4">
                <mask id="mask-2" fill="white">
                    <use xlink:href="#path-1"></use>
                </mask>
                <g id="Clip-2"></g>
                <path d="M68.8024976,4.83970803 C62.4978732,1.79877372 55.4250146,0.0934306569 47.9534049,0.0934306569 C40.4808585,0.0934306569 33.408,1.79877372 27.1043122,4.83970803 L22.9344,47.9301606 L27.1043122,91.0194453 C33.408,94.0606131 40.4808585,95.7668905 47.9534049,95.7668905 C55.4250146,95.7668905 62.4978732,94.0606131 68.8024976,91.0194453 L72.9721756,47.9301606 L68.8024976,4.83970803 Z" id="Fill-1" fill="#F3F3F3" mask="url(#mask-2)"></path>
                <path d="M27.1043122,4.84157664 C11.0643512,12.5788029 0,28.9646715 0,47.9301606 C0,66.8954161 11.0643512,83.2805839 27.1043122,91.0178102 L27.1043122,4.84157664 Z" id="Fill-3" fill="#6DA544" mask="url(#mask-2)"></path>
            </g>
            <path d="M68.8024976,4.84157664 L68.8024976,91.0178102 C84.8424585,83.2805839 95.9068098,66.8954161 95.9068098,47.9301606 C95.9068098,28.9646715 84.8424585,12.5788029 68.8024976,4.84157664 Z" id="Fill-5" fill="#6DA544"></path>
            <polygon id="Fill-6" fill="#6DA544" points="60.4629073 62.4885255 47.9534049 22.9720292 35.4439024 62.4885255 44.8252098 62.4885255 44.8252098 72.8880584 51.0804293 72.8880584 51.0804293 62.4885255"></polygon>
        </g>
    </g>
</svg>