<?xml version="1.0" encoding="UTF-8"?>
<svg width="96px" height="96px" viewBox="0 0 96 96" version="1.1" xmlns="http://www.w3.org/2000/svg" xmlns:xlink="http://www.w3.org/1999/xlink">
    <title>northern-marianas-islands</title>
    <desc>designed by Freepik from Flaticon</desc>
    <defs>
        <polygon id="path-1" points="0.0140487805 0.0934306569 0.0140487805 95.7668905 95.9068098 95.7668905 95.9068098 0.0934306569"></polygon>
    </defs>
    <g id="Page-1" stroke="none" stroke-width="1" fill="none" fill-rule="evenodd">
        <g id="northern-marianas-islands">
            <g id="Group-3">
                <mask id="mask-2" fill="white">
                    <use xlink:href="#path-1"></use>
                </mask>
                <g id="Clip-2"></g>
                <path d="M95.9068098,47.9301606 C95.9068098,74.3488467 74.4365268,95.7668905 47.9534049,95.7668905 C21.4691122,95.7668905 0,74.3488467 0,47.9301606 C0,21.5103066 21.4691122,0.0934306569 47.9534049,0.0934306569 C74.4365268,0.0934306569 95.9068098,21.5103066 95.9068098,47.9301606 Z" id="Fill-1" fill="#338AF3" mask="url(#mask-2)"></path>
            </g>
            <path d="M46.441522,78.0505693 C45.1490341,77.9875036 44.0789854,77.1498978 43.6600976,76.012146 C42.9201951,76.9747153 41.6478439,77.4593869 40.3956293,77.1372847 C39.1399024,76.8151825 38.2627902,75.7785693 38.0808585,74.5770511 C37.1597268,75.3707445 35.8171317,75.5870365 34.6555317,75.0194453 C33.4920585,74.450219 32.8418341,73.2575766 32.9085659,72.0450803 C31.8476488,72.64 30.4874927,72.5816058 29.464039,71.7914161 C28.4424585,71.0012263 28.0444098,69.7055766 28.3527805,68.5304526 C27.1939902,68.8999708 25.8759805,68.571562 25.0316488,67.5924088 C24.1875512,66.6144234 24.0576,65.2650511 24.5954341,64.1772847 C23.3863024,64.3059854 22.1607805,63.7192409 21.5313951,62.5924672 C20.8994341,61.4647591 21.044839,60.1153869 21.7938732,59.1563212 C20.5819317,59.0395328 19.4980683,58.2185109 19.110322,56.9866277 C18.7207024,55.7559124 19.1377171,54.4621314 20.0651707,53.6738102 C18.9019317,53.3159708 18.0091317,52.292438 17.8782439,51.0094015 C17.7466537,49.7265985 18.414439,48.5468029 19.4788683,47.960292 C18.4135024,47.3779854 17.7419707,46.1993577 17.8700488,44.9172555 L17.871922,44.9172555 C17.9990634,43.6316496 18.8909268,42.6071825 20.0525268,42.2449051 C19.1250732,41.4584526 18.7033756,40.1672409 19.0892488,38.9355912 C19.4753561,37.702073 20.5573463,36.8789489 21.7683512,36.7577226 C21.0200195,35.8014599 20.8701659,34.4511533 21.4974439,33.3225109 C22.1249561,32.1948029 23.3507122,31.6061898 24.5624195,31.7330219 C24.0201366,30.6454891 24.147278,29.2958832 24.9897366,28.3141606 C25.8300878,27.3343066 27.147161,27.0040292 28.308761,27.3698102 C27.9959415,26.1965547 28.3921171,24.8990365 29.4136976,24.1062774 C30.433639,23.314219 31.7926244,23.2539562 32.8535415,23.844438 C32.7851707,22.631708 33.433522,21.4402336 34.595122,20.8679708 C35.7539122,20.2978102 37.0993171,20.510365 38.022322,21.304292 C38.1998049,20.1025401 39.0778537,19.0624234 40.3307707,18.7384526 C41.5811122,18.413781 42.8534634,18.8944818 43.595239,19.8551825 C44.0141268,18.7174307 45.0823024,17.8772555 46.3747902,17.8123212 C47.6651707,17.7457518 48.8122537,18.4693723 49.3454049,19.5578394 C49.983922,18.5258978 51.1975024,17.9146277 52.475239,18.1080292 C53.7548488,18.299562 54.7370927,19.2394745 55.0417171,20.4145985 C55.8759805,19.5286423 57.1893073,19.1773431 58.403122,19.6216058 C59.6185756,20.0696058 60.3896195,21.1882044 60.4481561,22.4028029 C61.4423415,21.7039416 62.801561,21.6226569 63.900878,22.3051679 C64.9994927,22.9848759 65.5270244,24.2347445 65.3397073,25.435562 C66.454478,24.9511241 67.8017561,25.1435912 68.739278,26.0295474 C69.6777366,26.9183066 69.9448976,28.2466569 69.5194537,29.3844088 C70.710322,29.1326131 71.9899317,29.5906569 72.7326439,30.6489927 C73.4744195,31.7056934 73.4680976,33.0616058 72.8241951,34.0916788 C74.0396488,34.0835036 75.2012488,34.7905401 75.7161366,35.9738394 C76.2291512,37.1590073 75.9474732,38.4885255 75.107122,39.3681752 C76.3015024,39.6052555 77.2966244,40.5304526 77.5591024,41.7950365 C77.8197073,43.0596204 77.2755512,44.3015474 76.2769171,44.9938686 C77.3944976,45.4666277 78.1819317,46.5705109 78.1847415,47.859854 L78.1847415,47.9292263 C78.1847415,49.2183358 77.4008195,50.3252555 76.283239,50.8015182 C77.2837463,51.4894015 77.8316488,52.7310949 77.5719805,53.9959124 C77.3130146,55.2604964 76.3207024,56.1882628 75.126322,56.4290803 C75.9685463,57.3068613 76.2539707,58.6335766 75.7435317,59.8215474 C75.2323902,61.0067153 74.0707902,61.7165547 72.8534634,61.7102482 C73.4999415,62.7393869 73.5100098,64.0952993 72.7701073,65.153635 C72.0302049,66.2129051 70.7515317,66.6746861 69.5616,66.4245255 C69.9886829,67.5606423 69.7233951,68.8917956 68.7877463,69.7821898 C67.8492878,70.6700146 66.5048195,70.8652847 65.3891122,70.3852847 C65.579239,71.5832993 65.0533463,72.8352701 63.9566049,73.5194161 C62.8600976,74.2037956 61.500878,74.1243796 60.5038829,73.4283212 C60.4481561,74.6426861 59.6808585,75.7640876 58.4670439,76.2130219 L58.4651707,76.2130219 C57.2515902,76.6600876 55.9380293,76.3106569 55.1021268,75.4272701 C54.8021854,76.6042628 53.8225171,77.5460438 52.5419707,77.7422482 C51.2642341,77.9356496 50.0487805,77.3278832 49.4086244,76.2959416 C48.9000585,77.3425985 47.8243902,78.0533723 46.5979317,78.0533723 C46.5457171,78.0543066 46.4935024,78.052438 46.441522,78.0505693 Z" id="Fill-4" fill="#F5F5F5"></path>
            <path d="M68.8024976,47.9301606 C68.8024976,59.4165255 59.4677854,68.7285255 47.9534049,68.7285255 C36.4380878,68.7285255 27.1043122,59.4165255 27.1043122,47.9301606 C27.1043122,36.4428613 36.4380878,27.1317956 47.9534049,27.1317956 C59.4677854,27.1317956 68.8024976,36.4428613 68.8024976,47.9301606 Z" id="Fill-5" fill="#338AF3"></path>
            <path d="M52.5164488,40.8698394 C53.540839,40.1125839 54.2076878,38.9010219 54.2076878,37.5303942 L54.2076878,35.4510949 C54.2076878,33.153635 52.340839,31.2913285 50.0377756,31.2913285 L45.8680976,31.2913285 C43.5650341,31.2913285 41.6981854,33.153635 41.6981854,35.4510949 L41.6981854,37.5303942 C41.6981854,38.9010219 42.3650341,40.1125839 43.3894244,40.8698394 L39.6138146,79.1271241 C39.6138146,79.1271241 41.6981854,81.2075912 47.9534049,81.2075912 C54.2086244,81.2075912 56.2929951,79.1271241 56.2929951,79.1271241 L52.5164488,40.8698394 Z" id="Fill-6" fill="#BDBCC1"></path>
            <polygon id="Fill-7" fill="#F3F3F3" points="47.9534049 31.2913285 51.5754146 42.4128467 63.2981854 42.4128467 53.814322 49.2867737 57.4372683 60.4092263 47.9534049 53.5350657 38.4686049 60.4092263 42.0915512 49.2867737 32.6076878 42.4128467 44.3304585 42.4128467"></polygon>
        </g>
    </g>
</svg>