<?xml version="1.0" encoding="UTF-8"?>
<svg width="96px" height="96px" viewBox="0 0 96 96" version="1.1" xmlns="http://www.w3.org/2000/svg" xmlns:xlink="http://www.w3.org/1999/xlink">
    <title>northen-cyprus</title>
    <desc>designed by Freepik from Flaticon</desc>
    <defs>
        <polygon id="path-1" points="0.0140487805 0.0934306569 0.0140487805 95.7668905 95.9068098 95.7668905 95.9068098 0.0934306569"></polygon>
    </defs>
    <g id="Page-1" stroke="none" stroke-width="1" fill="none" fill-rule="evenodd">
        <g id="northen-cyprus">
            <g id="Group-3">
                <mask id="mask-2" fill="white">
                    <use xlink:href="#path-1"></use>
                </mask>
                <g id="Clip-2"></g>
                <path d="M95.9068098,47.9301606 C95.9068098,74.3488467 74.4365268,95.7668905 47.9534049,95.7668905 C21.4691122,95.7668905 0,74.3488467 0,47.9301606 C0,21.5103066 21.4691122,0.0934306569 47.9534049,0.0934306569 C74.4365268,0.0934306569 95.9068098,21.5103066 95.9068098,47.9301606 Z" id="Fill-1" fill="#F3F3F3" mask="url(#mask-2)"></path>
            </g>
            <path d="M11.6021854,16.7320292 C9.91914146,18.681927 8.39180488,20.7677664 7.03820488,22.9710949 L88.8676683,22.9710949 C87.5140683,20.7677664 85.9864976,18.6809927 84.3036878,16.7320292 L11.6021854,16.7320292 Z" id="Fill-4" fill="#D80027"></path>
            <path d="M11.6021854,79.1280584 L84.3036878,79.1280584 C85.9864976,77.1783942 87.5140683,75.0925547 88.8676683,72.8880584 L7.03820488,72.8880584 C8.39180488,75.0925547 9.91914146,77.1783942 11.6021854,79.1280584 Z" id="Fill-5" fill="#D80027"></path>
            <polygon id="Fill-6" fill="#D80027" points="41.8171317 39.1820146 45.7510244 44.5907153 52.1230829 42.529635 48.1819317 47.9336642 52.116761 53.3425985 45.7463415 51.2731095 41.8061268 56.6773723 41.809639 49.9949781 35.4401561 47.9264234 41.8124488 45.8653431"></polygon>
            <path d="M31.0782439,61.4493431 C23.5939902,61.4493431 17.5270244,55.396438 17.5270244,47.9301606 C17.5270244,40.4638832 23.5939902,34.4109781 31.0782439,34.4109781 C33.4124488,34.4109781 35.6085073,34.9993577 37.5256976,36.0359708 C34.518322,33.1015474 30.4050732,31.2913285 25.8668488,31.2913285 C16.6545951,31.2913285 9.18743415,38.7403212 9.18743415,47.9301606 C9.18743415,57.1190657 16.6545951,64.5687591 25.8668488,64.5687591 C30.4050732,64.5687591 34.518322,62.7576058 37.5256976,59.8234161 C35.6085073,60.8607299 33.4124488,61.4493431 31.0782439,61.4493431 Z" id="Fill-7" fill="#D80027"></path>
        </g>
    </g>
</svg>