<?xml version="1.0" encoding="UTF-8"?>
<svg width="96px" height="96px" viewBox="0 0 96 96" version="1.1" xmlns="http://www.w3.org/2000/svg" xmlns:xlink="http://www.w3.org/1999/xlink">
    <title>oman</title>
    <desc>designed by Freepik from Flaticon</desc>
    <defs>
        <polygon id="path-1" points="0.0140487805 0.0934306569 0.0140487805 95.7668905 95.9068098 95.7668905 95.9068098 0.0934306569"></polygon>
    </defs>
    <g id="Page-1" stroke="none" stroke-width="1" fill="none" fill-rule="evenodd">
        <g id="oman">
            <g id="Group-7">
                <mask id="mask-2" fill="white">
                    <use xlink:href="#path-1"></use>
                </mask>
                <g id="Clip-2"></g>
                <path d="M95.9068098,47.9301606 C95.9068098,74.3488467 74.4365268,95.7668905 47.9534049,95.7668905 C21.4691122,95.7668905 0,74.3488467 0,47.9301606 C0,21.5103066 21.4691122,0.0934306569 47.9534049,0.0934306569 C74.4365268,0.0934306569 95.9068098,21.5103066 95.9068098,47.9301606 Z" id="Fill-1" fill="#F3F3F3" mask="url(#mask-2)"></path>
                <path d="M0,47.9301606 C0,66.0624818 10.1130146,81.8370803 25.0190049,89.9501314 L25.0190049,5.9099562 C10.1130146,14.0232409 0,29.7978394 0,47.9301606 Z" id="Fill-3" fill="#D80027" mask="url(#mask-2)"></path>
                <path d="M92.9240195,64.5687591 C94.851278,59.3863942 95.9068098,53.7814891 95.9068098,47.9301606 C95.9068098,42.0788321 94.851278,36.4729927 92.9240195,31.2913285 L2.9825561,31.2913285 C1.05553171,36.4729927 0,42.0788321 0,47.9301606 C0,53.7814891 1.05553171,59.3863942 2.9825561,64.5687591 L47.9534049,68.7285255 L92.9240195,64.5687591 Z" id="Fill-4" fill="#D80027" mask="url(#mask-2)"></path>
                <path d="M47.9534049,95.7668905 C68.5718634,95.7668905 86.1485268,82.7849343 92.9240195,64.5687591 L2.9825561,64.5687591 C9.75828293,82.7849343 27.3347122,95.7668905 47.9534049,95.7668905 Z" id="Fill-5" fill="#6DA544" mask="url(#mask-2)"></path>
                <path d="M0,47.9301606 C0,70.0314161 15.0265756,88.6290219 35.4439024,94.118073 L35.4439024,1.74131387 C15.0265756,7.23036496 0,25.8279708 0,47.9301606 Z" id="Fill-6" fill="#D80027" mask="url(#mask-2)"></path>
            </g>
            <polygon id="Fill-8" fill="#F3F3F3" points="29.3368976 21.1445255 24.9145756 16.7320292 21.9657366 19.6736934 19.0180683 16.7320292 14.5948098 21.1445255 17.5436488 24.0852555 14.5948098 27.0269197 19.0171317 31.4391825 21.9657366 28.4975182 24.9145756 31.4391825 29.3368976 27.0269197 26.3880585 24.0852555"></polygon>
        </g>
    </g>
</svg>