<?xml version="1.0" encoding="UTF-8"?>
<svg width="96px" height="96px" viewBox="0 0 96 96" version="1.1" xmlns="http://www.w3.org/2000/svg" xmlns:xlink="http://www.w3.org/1999/xlink">
    <title>panama</title>
    <desc>designed by Freepik from Flaticon</desc>
    <defs>
        <polygon id="path-1" points="0.0140487805 0.0934306569 0.0140487805 95.7668905 95.9068098 95.7668905 95.9068098 0.0934306569"></polygon>
    </defs>
    <g id="Page-1" stroke="none" stroke-width="1" fill="none" fill-rule="evenodd">
        <g id="panama">
            <g id="Group-4">
                <mask id="mask-2" fill="white">
                    <use xlink:href="#path-1"></use>
                </mask>
                <g id="Clip-2"></g>
                <path d="M95.9068098,47.9301606 C95.9068098,74.3488467 74.4365268,95.7668905 47.9534049,95.7668905 C21.4691122,95.7668905 0,74.3488467 0,47.9301606 C0,21.5103066 21.4691122,0.0934306569 47.9534049,0.0934306569 C74.4365268,0.0934306569 95.9068098,21.5103066 95.9068098,47.9301606 Z" id="Fill-1" fill="#F3F3F3" mask="url(#mask-2)"></path>
                <path d="M0,47.9301606 C0,74.3488467 21.4691122,95.7668905 47.9534049,95.7668905 L47.9534049,47.9301606 L0,47.9301606 Z" id="Fill-3" fill="#0052B4" mask="url(#mask-2)"></path>
            </g>
            <path d="M47.9534049,0.0934306569 C74.4365268,0.0934306569 95.9068098,21.5103066 95.9068098,47.9301606 L47.9534049,47.9301606 L47.9534049,0.0934306569 Z" id="Fill-5" fill="#D80027"></path>
            <polygon id="Fill-6" fill="#0052B4" points="28.5447805 16.7320292 31.6500293 26.2649927 41.6981854 26.2649927 33.5688585 32.1571971 36.6741073 41.6901606 28.5447805 35.7986569 20.4154537 41.6901606 23.5207024 32.1571971 15.3913756 26.2649927 25.4395317 26.2649927"></polygon>
            <polygon id="Fill-7" fill="#D80027" points="67.3610927 54.1692263 70.4661073 63.7028905 80.5142634 63.7028905 72.3851707 69.5943942 75.4901854 79.1280584 67.3610927 73.235854 59.2317659 79.1280584 62.3367805 69.5943942 54.2076878 63.7028905 64.2558439 63.7028905"></polygon>
        </g>
    </g>
</svg>