<?xml version="1.0" encoding="UTF-8"?>
<svg width="96px" height="96px" viewBox="0 0 96 96" version="1.1" xmlns="http://www.w3.org/2000/svg" xmlns:xlink="http://www.w3.org/1999/xlink">
    <title>paraguay</title>
    <desc>designed by Freepik from Flaticon</desc>
    <defs>
        <polygon id="path-1" points="0.0140487805 0.0934306569 0.0140487805 95.7668905 95.9068098 95.7668905 95.9068098 0.0934306569"></polygon>
    </defs>
    <g id="Page-1" stroke="none" stroke-width="1" fill="none" fill-rule="evenodd">
        <g id="paraguay">
            <g id="Group-3">
                <mask id="mask-2" fill="white">
                    <use xlink:href="#path-1"></use>
                </mask>
                <g id="Clip-2"></g>
                <path d="M95.9068098,47.9301606 C95.9068098,74.3488467 74.4365268,95.7668905 47.9534049,95.7668905 C21.4691122,95.7668905 0,74.3488467 0,47.9301606 C0,21.5103066 21.4691122,0.0934306569 47.9534049,0.0934306569 C74.4365268,0.0934306569 95.9068098,21.5103066 95.9068098,47.9301606 Z" id="Fill-1" fill="#F3F3F3" mask="url(#mask-2)"></path>
            </g>
            <path d="M47.9534049,0.0934306569 C28.9416585,0.0934306569 12.5148878,11.1308613 4.75785366,27.1317956 L91.1477854,27.1317956 C83.3916878,11.1308613 66.9649171,0.0934306569 47.9534049,0.0934306569 Z" id="Fill-4" fill="#D80027"></path>
            <path d="M47.9534049,95.7668905 C66.9649171,95.7668905 83.3916878,84.7294599 91.1477854,68.7285255 L4.75785366,68.7285255 C12.5148878,84.7294599 28.9416585,95.7668905 47.9534049,95.7668905 Z" id="Fill-5" fill="#0052B4"></path>
            <path d="M59.7475902,34.0851387 L55.3243317,38.4967007 C57.2113171,40.3790949 58.3783024,42.9785693 58.3783024,45.849927 C58.3783024,51.5933431 53.7110634,56.2494599 47.9534049,56.2494599 C42.1957463,56.2494599 37.5282732,51.5933431 37.5282732,45.849927 C37.5282732,42.9785693 38.6954927,40.3790949 40.5822439,38.4967007 L36.1592195,34.0851387 C33.140839,37.0952409 31.2739902,41.2550073 31.2739902,45.849927 C31.2739902,55.0395328 38.7420878,62.4885255 47.9534049,62.4885255 C57.164722,62.4885255 64.6325854,55.0395328 64.6325854,45.849927 C64.6325854,41.2550073 62.7657366,37.0952409 59.7475902,34.0851387 Z" id="Fill-6" fill="#6DA544"></path>
            <polygon id="Fill-7" fill="#FFDA44" points="47.9534049 39.6108613 49.505561 44.3772263 54.529639 44.3772263 50.4648585 47.3233285 52.0179512 52.0896934 47.9534049 49.1435912 43.8886244 52.0896934 45.4407805 47.3233285 41.3762341 44.3772263 46.4003122 44.3772263"></polygon>
        </g>
    </g>
</svg>