<?xml version="1.0" encoding="UTF-8"?>
<svg width="96px" height="96px" viewBox="0 0 96 96" version="1.1" xmlns="http://www.w3.org/2000/svg" xmlns:xlink="http://www.w3.org/1999/xlink">
    <title>philippines</title>
    <desc>designed by Freepik from Flaticon</desc>
    <defs>
        <polygon id="path-1" points="0.0140487805 0.0934306569 0.0140487805 95.7668905 95.9068098 95.7668905 95.9068098 0.0934306569"></polygon>
    </defs>
    <g id="Page-1" stroke="none" stroke-width="1" fill="none" fill-rule="evenodd">
        <g id="philippines">
            <g id="Group-3">
                <mask id="mask-2" fill="white">
                    <use xlink:href="#path-1"></use>
                </mask>
                <g id="Clip-2"></g>
                <path d="M95.9068098,47.9301606 C95.9068098,74.3488467 74.4365268,95.7668905 47.9534049,95.7668905 C21.4691122,95.7668905 0,74.3488467 0,47.9301606 C0,21.5103066 21.4691122,0.0934306569 47.9534049,0.0934306569 C74.4365268,0.0934306569 95.9068098,21.5103066 95.9068098,47.9301606 Z" id="Fill-1" fill="#F3F3F3" mask="url(#mask-2)"></path>
            </g>
            <path d="M47.9534049,0.0934306569 L47.9534049,47.9301606 L14.0450341,81.7557956 C22.7232,90.4119124 34.7112585,95.7668905 47.9534049,95.7668905 C74.4365268,95.7668905 95.9068098,74.3488467 95.9068098,47.9301606 C95.9068098,21.5103066 47.9534049,0.0934306569 47.9534049,0.0934306569 Z" id="Fill-4" fill="#D80027"></path>
            <path d="M47.9534049,0.0934306569 C34.7112585,0.0934306569 22.7232,5.44747445 14.0450341,14.104292 C25.8099512,25.8405839 29.987122,30.0075912 47.9534049,47.9301606 L95.9068098,47.9301606 C95.9068098,21.5103066 74.4365268,0.0934306569 47.9534049,0.0934306569 Z" id="Fill-5" fill="#0052B4"></path>
            <polygon id="Fill-6" fill="#FFDA44" points="32.835278 47.9301606 26.9790439 45.1818978 30.0969366 39.5239708 23.737522 40.737635 22.9318244 34.3287591 18.5022439 39.0423358 14.0726634 34.3287591 13.2667317 40.737635 6.90731707 39.5239708 10.0261463 45.1818978 4.1699122 47.9301606 10.0261463 50.6781898 6.90731707 56.3361168 13.2676683 55.1226861 14.0726634 61.5313285 18.5022439 56.8179854 22.9318244 61.5313285 23.737522 55.1226861 30.0969366 56.3361168 26.9790439 50.6781898"></polygon>
            <polygon id="Fill-7" fill="#FFDA44" points="12.7883707 18.8124964 14.7374049 21.5294599 17.9304585 20.5204088 15.9411512 23.2093431 17.8901854 25.9265401 14.7118829 24.8707737 12.7235122 27.559708 12.7480976 24.2183942 9.57073171 23.161927 12.7637854 22.1526423"></polygon>
            <polygon id="Fill-8" fill="#FFDA44" points="12.7883707 68.3006131 14.7374049 71.0178102 17.9304585 70.0094599 15.9411512 72.6974599 17.8901854 75.4155912 14.7118829 74.3598248 12.7235122 77.0478248 12.7480976 73.7065109 9.57073171 72.6509781 12.7637854 71.6416934"></polygon>
            <polygon id="Fill-9" fill="#FFDA44" points="40.5850537 43.5559708 38.6369561 46.2741022 35.4439024 45.2650511 37.4322732 47.9537518 35.483239 50.6709489 38.6615415 49.6154161 40.6508488 52.3031825 40.6253268 48.9630365 43.8036293 47.9063358 40.6098732 46.8972847"></polygon>
        </g>
    </g>
</svg>