<?xml version="1.0" encoding="UTF-8"?>
<svg width="96px" height="96px" viewBox="0 0 96 96" version="1.1" xmlns="http://www.w3.org/2000/svg" xmlns:xlink="http://www.w3.org/1999/xlink">
    <title>pitcairn-islands</title>
    <desc>designed by Freepik from Flaticon</desc>
    <defs>
        <polygon id="path-1" points="0.0140487805 0.0934306569 0.0140487805 95.7668905 95.9068098 95.7668905 95.9068098 0.0934306569"></polygon>
    </defs>
    <g id="Page-1" stroke="none" stroke-width="1" fill="none" fill-rule="evenodd">
        <g id="pitcairn-islands">
            <g id="Group-5">
                <mask id="mask-2" fill="white">
                    <use xlink:href="#path-1"></use>
                </mask>
                <g id="Clip-2"></g>
                <path d="M95.9068098,47.9301606 C95.9068098,74.3488467 74.4365268,95.7668905 47.9534049,95.7668905 C21.4691122,95.7668905 0,74.3488467 0,47.9301606 C0,47.9411387 47.9534049,0.0988029197 47.9534049,0.0934306569 C74.4365268,0.0934306569 95.9068098,21.5103066 95.9068098,47.9301606 Z" id="Fill-1" fill="#0052B4" mask="url(#mask-2)"></path>
                <path d="M47.9534049,25.051562 L47.9534049,0.0934306569 L47.9452098,0.0934306569 C21.4646634,0.0981021898 0,21.5131095 0,47.9301606 L25.0190049,47.9301606 L25.0190049,33.8763212 L39.107122,47.9301606 L47.8253268,47.9301606 L47.9534049,47.8023942 L47.9534049,39.1061022 L33.8643512,25.051562 L47.9534049,25.051562 Z" id="Fill-4" fill="#F3F3F3" mask="url(#mask-2)"></path>
            </g>
            <path d="M24.2606049,6.33249635 C16.7606634,10.5934015 10.5255805,16.8133139 6.25428293,24.2950073 L6.25428293,47.9301606 L18.764722,47.9301606 L18.764722,18.8124964 L47.9534049,18.8124964 L47.9534049,6.33249635 L24.2606049,6.33249635 Z" id="Fill-6" fill="#D80027"></path>
            <polygon id="Fill-7" fill="#D80027" points="47.9534049 42.0468321 30.9155122 25.051562 25.0190049 25.051562 25.0190049 25.0522628 47.9524683 47.9301606 47.9534049 47.9301606"></polygon>
            <polygon id="Fill-8" fill="#ACABB1" points="75.0577171 29.2110949 68.8024976 31.2913285 62.547278 29.2110949 60.4629073 24.0112117 62.547278 18.8124964 75.0577171 18.8124964 72.9721756 24.0112117"></polygon>
            <path d="M54.2076878,29.2110949 L54.2076878,52.0896934 C54.2076878,63.2338686 68.8024976,66.6480584 68.8024976,66.6480584 C68.8024976,66.6480584 83.3963707,63.2338686 83.3963707,52.0896934 L83.3963707,29.2110949 L54.2076878,29.2110949 Z" id="Fill-9" fill="#338AF3"></path>
            <path d="M55.5238244,57.5093723 C59.1109463,64.3800292 68.8024976,66.6480584 68.8024976,66.6480584 C68.8024976,66.6480584 78.4938146,64.3800292 82.0811707,57.5093723 L68.8024976,35.4510949 L55.5238244,57.5093723 Z" id="Fill-10" fill="#6DA544"></path>
            <path d="M83.3963707,51.8579854 L68.8024976,29.2110949 L54.2076878,51.8589197 L54.2076878,52.0896934 C54.2076878,54.151708 54.708761,55.9493139 55.5238244,57.5093723 L68.8024976,36.903708 L82.0811707,57.5093723 C82.896,55.9493139 83.3963707,54.151708 83.3963707,52.0887591 L83.3963707,51.8579854 Z" id="Fill-11" fill="#FFDA44"></path>
        </g>
    </g>
</svg>