<?xml version="1.0" encoding="UTF-8"?>
<svg width="96px" height="96px" viewBox="0 0 96 96" version="1.1" xmlns="http://www.w3.org/2000/svg" xmlns:xlink="http://www.w3.org/1999/xlink">
    <title>portugal</title>
    <desc>designed by Freepik from Flaticon</desc>
    <defs>
        <polygon id="path-1" points="0.0140487805 0.0322335766 0.0140487805 89.753927 35.4439024 89.753927 35.4439024 0.0322335766"></polygon>
    </defs>
    <g id="Page-1" stroke="none" stroke-width="1" fill="none" fill-rule="evenodd">
        <g id="portugal">
            <g id="Group-3" transform="translate(0.000000, 3.036496)">
                <mask id="mask-2" fill="white">
                    <use xlink:href="#path-1"></use>
                </mask>
                <g id="Clip-2"></g>
                <path d="M0,44.8936642 C0,65.4610219 13.0133854,82.995854 31.2730537,89.753927 L35.4439024,44.8936642 L31.2730537,0.0322335766 C13.0133854,6.79147445 0,24.3251387 0,44.8936642 Z" id="Fill-1" fill="#6DA544" mask="url(#mask-2)"></path>
            </g>
            <path d="M95.9068098,47.9301606 C95.9068098,21.5103066 74.4365268,0.0934306569 47.9534049,0.0934306569 C42.0878049,0.0934306569 36.4682927,1.14639416 31.2730537,3.06872993 L31.2730537,92.7913577 C36.4682927,94.713927 42.0878049,95.7668905 47.9534049,95.7668905 C74.4365268,95.7668905 95.9068098,74.3488467 95.9068098,47.9301606 Z" id="Fill-4" fill="#D80027"></path>
            <path d="M47.9534049,47.9301606 C47.9534049,57.1190657 40.4853073,64.5687591 31.2739902,64.5687591 C22.0619707,64.5687591 14.5948098,57.1190657 14.5948098,47.9301606 C14.5948098,38.7403212 22.0619707,31.2913285 31.2739902,31.2913285 C40.4853073,31.2913285 47.9534049,38.7403212 47.9534049,47.9301606 Z" id="Fill-5" fill="#FFDA44"></path>
            <path d="M21.8917463,39.6108613 L21.8917463,50.0094599 C21.8917463,55.1782774 26.0918634,59.3688759 31.2739902,59.3688759 C36.4554146,59.3688759 40.6564683,55.1792117 40.6564683,50.0094599 L40.6564683,39.6108613 L21.8917463,39.6108613 Z" id="Fill-6" fill="#D80027"></path>
            <path d="M31.2739902,53.1298102 C29.5490341,53.1298102 28.1460293,51.730219 28.1460293,50.0094599 L28.1460293,45.849927 L34.4012488,45.849927 L34.4012488,50.0094599 C34.4012488,51.730219 32.9982439,53.1298102 31.2739902,53.1298102 Z" id="Fill-7" fill="#F3F3F3"></path>
        </g>
    </g>
</svg>