<?xml version="1.0" encoding="UTF-8"?>
<svg width="96px" height="96px" viewBox="0 0 96 96" version="1.1" xmlns="http://www.w3.org/2000/svg" xmlns:xlink="http://www.w3.org/1999/xlink">
    <title>rapa-nui</title>
    <desc>designed by Freepik from Flaticon</desc>
    <defs>
        <polygon id="path-1" points="0.0140487805 0.0934306569 0.0140487805 95.7668905 95.9068098 95.7668905 95.9068098 0.0934306569"></polygon>
    </defs>
    <g id="Page-1" stroke="none" stroke-width="1" fill="none" fill-rule="evenodd">
        <g id="rapa-nui">
            <g id="Group-3">
                <mask id="mask-2" fill="white">
                    <use xlink:href="#path-1"></use>
                </mask>
                <g id="Clip-2"></g>
                <path d="M95.9068098,47.9301606 C95.9068098,74.3488467 74.4365268,95.7668905 47.9534049,95.7668905 C21.4691122,95.7668905 0,74.3488467 0,47.9301606 C0,21.5103066 21.4691122,0.0934306569 47.9534049,0.0934306569 C74.4365268,0.0934306569 95.9068098,21.5103066 95.9068098,47.9301606 Z" id="Fill-1" fill="#FDFDFD" mask="url(#mask-2)"></path>
            </g>
            <path d="M62.547278,39.6108613 L62.547278,43.7703942 L68.2700488,43.7703942 C65.8819902,47.0815766 62.700878,49.7840584 59.004878,51.6043212 C58.0563512,50.6216642 56.7256976,50.0094599 55.2503415,50.0094599 C52.7634732,50.0094599 50.6854244,51.7477372 50.1649171,54.0715912 C49.4360195,54.1353577 48.6986927,54.1692263 47.9534049,54.1692263 C47.2078829,54.1692263 46.4707902,54.1353577 45.7416585,54.0715912 C45.2213854,51.7477372 43.1424,50.0094599 40.6564683,50.0094599 C39.1811122,50.0094599 37.8502244,50.6216642 36.9019317,51.6043212 C33.204761,49.7849927 30.0245854,47.0815766 27.6355902,43.7703942 L33.3585951,43.7703942 L33.3585951,39.6108613 L18.764722,39.6108613 C18.764722,55.6919124 31.8328976,68.7285255 47.9534049,68.7285255 C64.073678,68.7285255 77.1420878,55.6919124 77.1420878,39.6108613 L62.547278,39.6108613 Z" id="Fill-4" fill="#D80027"></path>
        </g>
    </g>
</svg>