<?xml version="1.0" encoding="UTF-8"?>
<svg width="96px" height="96px" viewBox="0 0 96 96" version="1.1" xmlns="http://www.w3.org/2000/svg" xmlns:xlink="http://www.w3.org/1999/xlink">
    <title>republic-of-macedonia</title>
    <desc>designed by Freepik from Flaticon</desc>
    <defs>
        <polygon id="path-1" points="0.0140487805 0.0934306569 0.0140487805 95.7668905 95.9068098 95.7668905 95.9068098 0.0934306569"></polygon>
    </defs>
    <g id="Page-1" stroke="none" stroke-width="1" fill="none" fill-rule="evenodd">
        <g id="republic-of-macedonia">
            <g id="Group-3">
                <mask id="mask-2" fill="white">
                    <use xlink:href="#path-1"></use>
                </mask>
                <g id="Clip-2"></g>
                <path d="M95.9068098,47.9301606 C95.9068098,74.3488467 74.4365268,95.7668905 47.9534049,95.7668905 C21.4691122,95.7668905 0,74.3488467 0,47.9301606 C0,21.5103066 21.4691122,0.0934306569 47.9534049,0.0934306569 C74.4365268,0.0934306569 95.9068098,21.5103066 95.9068098,47.9301606 Z" id="Fill-1" fill="#FFDA44" mask="url(#mask-2)"></path>
            </g>
            <path d="M55.2456585,95.2165839 C63.044839,94.0295474 70.2237659,90.9657226 76.3106341,86.5058102 L47.9534049,47.9301606 L55.2456585,95.2165839 Z" id="Fill-4" fill="#D80027"></path>
            <path d="M40.6599805,0.64350365 C32.8610341,1.83054015 25.6821073,4.89459854 19.595239,9.35427737 L47.9534049,47.9301606 L40.6599805,0.64350365 Z" id="Fill-5" fill="#D80027"></path>
            <path d="M19.595239,86.5058102 C25.6821073,90.9657226 32.8610341,94.0295474 40.6599805,95.2165839 L47.9534049,47.9301606 L19.595239,86.5058102 Z" id="Fill-6" fill="#D80027"></path>
            <path d="M9.28343415,19.6407591 C4.81194146,25.7130511 1.74158049,32.8745109 0.551414634,40.6544818 L47.9534049,47.9301606 L9.28343415,19.6407591 Z" id="Fill-7" fill="#D80027"></path>
            <path d="M0.551414634,55.2046715 C1.74158049,62.9848759 4.81287805,70.1463358 9.28343415,76.2183942 L47.9534049,47.9301606 L0.551414634,55.2046715 Z" id="Fill-8" fill="#D80027"></path>
            <path d="M95.355161,40.6544818 C94.1652293,32.8745109 91.0939317,25.7130511 86.6231415,19.6407591 L47.9534049,47.9301606 L95.355161,40.6544818 Z" id="Fill-9" fill="#D80027"></path>
            <path d="M76.3106341,9.35427737 C70.2237659,4.89366423 63.044839,1.83054015 55.2456585,0.64350365 L47.9534049,47.9301606 L76.3106341,9.35427737 Z" id="Fill-10" fill="#D80027"></path>
            <path d="M86.6231415,76.2183942 C91.0939317,70.1463358 94.1652293,62.9848759 95.355161,55.2046715 L47.9534049,47.9301606 L86.6231415,76.2183942 Z" id="Fill-11" fill="#D80027"></path>
            <path d="M64.6325854,47.9301606 C64.6325854,57.1190657 57.164722,64.5687591 47.9534049,64.5687591 C38.7411512,64.5687591 31.2739902,57.1190657 31.2739902,47.9301606 C31.2739902,38.7403212 38.7411512,31.2913285 47.9534049,31.2913285 C57.164722,31.2913285 64.6325854,38.7403212 64.6325854,47.9301606 Z" id="Fill-12" fill="#D80027"></path>
            <path d="M60.4629073,47.9301606 C60.4629073,54.8216058 54.8616585,60.4092263 47.9534049,60.4092263 C41.0442146,60.4092263 35.4439024,54.8216058 35.4439024,47.9301606 C35.4439024,41.037781 41.0442146,35.4510949 47.9534049,35.4510949 C54.8616585,35.4510949 60.4629073,41.037781 60.4629073,47.9301606 Z" id="Fill-13" fill="#FFDA44"></path>
        </g>
    </g>
</svg>