<?xml version="1.0" encoding="UTF-8"?>
<svg width="96px" height="96px" viewBox="0 0 96 96" version="1.1" xmlns="http://www.w3.org/2000/svg" xmlns:xlink="http://www.w3.org/1999/xlink">
    <title>samoa</title>
    <desc>designed by Freepik from Flaticon</desc>
    <defs>
        <polygon id="path-1" points="0.0140487805 0.0934306569 0.0140487805 95.7668905 95.9068098 95.7668905 95.9068098 0.0934306569"></polygon>
    </defs>
    <g id="Page-1" stroke="none" stroke-width="1" fill="none" fill-rule="evenodd">
        <g id="samoa">
            <g id="Group-4">
                <mask id="mask-2" fill="white">
                    <use xlink:href="#path-1"></use>
                </mask>
                <g id="Clip-2"></g>
                <path d="M95.9068098,47.9301606 C95.9068098,74.3488467 74.4365268,95.7668905 47.9534049,95.7668905 C21.4691122,95.7668905 0,74.3488467 0,47.9301606 L47.9534049,0.0934306569 C74.4365268,0.0934306569 95.9068098,21.5103066 95.9068098,47.9301606 Z" id="Fill-1" fill="#D80027" mask="url(#mask-2)"></path>
                <path d="M47.9534049,47.9301606 L47.9534049,0.0934306569 C21.4691122,0.0934306569 0,21.5103066 0,47.9301606 L47.9534049,47.9301606 Z" id="Fill-3" fill="#0052B4" mask="url(#mask-2)"></path>
            </g>
            <polygon id="Fill-5" fill="#F3F3F3" points="38.4100683 31.2913285 39.1864976 33.6747445 41.6981854 33.6747445 39.6657951 35.1472117 40.4424585 37.5303942 38.4100683 36.057927 36.377678 37.5303942 37.1543415 35.1472117 35.1219512 33.6747445 37.633639 33.6747445"></polygon>
            <polygon id="Fill-6" fill="#F3F3F3" points="25.793561 12.5724964 27.0869854 16.5451679 31.2739902 16.5451679 27.886361 18.9993577 29.1804878 22.9720292 25.793561 20.5166715 22.4056976 22.9720292 23.7000585 18.9993577 20.3131317 16.5451679 24.4994341 16.5451679"></polygon>
            <polygon id="Fill-7" fill="#F3F3F3" points="38.3030634 16.7320292 39.5962537 20.7047007 43.7834927 20.7047007 40.3956293 23.1591241 41.6899902 27.1317956 38.3030634 24.676438 34.9152 27.1317956 36.209561 23.1591241 32.8226341 20.7047007 37.0089366 20.7047007"></polygon>
            <polygon id="Fill-8" fill="#F3F3F3" points="28.4148293 33.3708613 29.7082537 37.3435328 33.8954927 37.3435328 30.5076293 39.7977226 31.8017561 43.7703942 28.4148293 41.3150365 25.0272 43.7703942 26.3213268 39.7977226 22.9344 37.3435328 27.1207024 37.3435328"></polygon>
            <polygon id="Fill-9" fill="#F3F3F3" points="17.4530341 22.9720292 18.747161 26.9447007 22.9344 26.9447007 19.5465366 29.3991241 20.8408976 33.3708613 17.4530341 30.916438 14.0661073 33.3708613 15.3604683 29.3991241 11.9735415 26.9447007 16.1598439 26.9447007"></polygon>
        </g>
    </g>
</svg>