<?xml version="1.0" encoding="UTF-8"?>
<svg width="96px" height="96px" viewBox="0 0 96 96" version="1.1" xmlns="http://www.w3.org/2000/svg" xmlns:xlink="http://www.w3.org/1999/xlink">
    <title>sao-tome-and-principe</title>
    <desc>designed by Freepik from Flaticon</desc>
    <defs>
        <polygon id="path-1" points="0.0140487805 0.0934306569 0.0140487805 95.7668905 95.9068098 95.7668905 95.9068098 0.0934306569"></polygon>
        <polygon id="path-3" points="0.0140487805 0.0896934307 0.0140487805 81.752292 92.9230829 81.752292 92.9230829 0.0896934307"></polygon>
    </defs>
    <g id="Page-1" stroke="none" stroke-width="1" fill="none" fill-rule="evenodd">
        <g id="sao-tome-and-principe">
            <g id="Group-3">
                <mask id="mask-2" fill="white">
                    <use xlink:href="#path-1"></use>
                </mask>
                <g id="Clip-2"></g>
                <path d="M95.9068098,47.9301606 C95.9068098,74.3488467 74.4374634,95.7668905 47.9534049,95.7668905 C21.4691122,95.7668905 0,74.3488467 0,47.9301606 C0,21.5103066 21.4691122,0.0934306569 47.9534049,0.0934306569 C74.4374634,0.0934306569 95.9068098,21.5103066 95.9068098,47.9301606 Z" id="Fill-1" fill="#FFDA44" mask="url(#mask-2)"></path>
            </g>
            <path d="M29.1886829,31.2913285 L92.9230829,31.2913285 C86.1485268,13.0751533 68.5709268,0.0934306569 47.9534049,0.0934306569 C34.7112585,0.0934306569 22.7241366,5.44840876 14.0469073,14.1061606 L29.1886829,31.2913285 Z" id="Fill-4" fill="#6DA544"></path>
            <g id="Group-8" transform="translate(0.000000, 14.014599)">
                <mask id="mask-4" fill="white">
                    <use xlink:href="#path-3"></use>
                </mask>
                <g id="Clip-6"></g>
                <path d="M29.1886829,50.5541606 L92.9230829,50.5541606 C86.1485268,68.7703358 68.5709268,81.752292 47.9534049,81.752292 C34.7112585,81.752292 22.7241366,76.3963796 14.0469073,67.7393285 L29.1886829,50.5541606 Z" id="Fill-5" fill="#6DA544" mask="url(#mask-4)"></path>
                <path d="M14.0450341,0.0896934307 C-4.68199024,18.7713869 -4.68199024,49.0597372 14.0450341,67.7411971 L47.9534049,33.915562 L14.0450341,0.0896934307 Z" id="Fill-7" fill="#D80027" mask="url(#mask-4)"></path>
            </g>
            <polygon id="Fill-9" fill="#000000" points="60.8918634 39.6108613 62.9624195 45.965781 69.6613463 45.965781 64.2410927 49.8936058 66.3118829 56.2494599 60.8918634 52.321635 55.4725463 56.2494599 57.5424 49.8936058 52.1230829 45.965781 58.8220098 45.965781"></polygon>
            <polygon id="Fill-10" fill="#000000" points="81.7416585 39.6108613 83.8115122 45.965781 90.510439 45.965781 85.091122 49.8936058 87.1609756 56.2494599 81.7416585 52.321635 76.321639 56.2494599 78.3914927 49.8936058 72.9721756 45.965781 79.6711024 45.965781"></polygon>
        </g>
    </g>
</svg>