<?xml version="1.0" encoding="UTF-8"?>
<svg width="96px" height="96px" viewBox="0 0 96 96" version="1.1" xmlns="http://www.w3.org/2000/svg" xmlns:xlink="http://www.w3.org/1999/xlink">
    <title>serbia</title>
    <desc>designed by Freepik from Flaticon</desc>
    <defs>
        <polygon id="path-1" points="0.0140487805 0.0934306569 0.0140487805 95.7668905 95.9068098 95.7668905 95.9068098 0.0934306569"></polygon>
    </defs>
    <g id="Page-1" stroke="none" stroke-width="1" fill="none" fill-rule="evenodd">
        <g id="serbia">
            <g id="Group-4">
                <mask id="mask-2" fill="white">
                    <use xlink:href="#path-1"></use>
                </mask>
                <g id="Clip-2"></g>
                <path d="M95.9068098,47.9301606 C95.9068098,74.3488467 74.4365268,95.7668905 47.9534049,95.7668905 C21.4691122,95.7668905 0,74.3488467 0,47.9301606 C0,21.5103066 21.4691122,0.0934306569 47.9534049,0.0934306569 C74.4365268,0.0934306569 95.9068098,21.5103066 95.9068098,47.9301606 Z" id="Fill-1" fill="#F3F3F3" mask="url(#mask-2)"></path>
                <path d="M47.9534049,0.0934306569 C21.4691122,0.0934306569 0,21.5103066 0,47.9301606 C0,53.7814891 1.05553171,59.3863942 2.9825561,64.5687591 L92.9240195,64.5687591 C94.851278,59.3863942 95.9068098,53.7814891 95.9068098,47.9301606 C95.9068098,21.5103066 74.4365268,0.0934306569 47.9534049,0.0934306569 Z" id="Fill-3" fill="#0052B4" mask="url(#mask-2)"></path>
            </g>
            <path d="M47.9534049,0.0934306569 C27.3347122,0.0934306569 9.75828293,13.0751533 2.9825561,31.2913285 L92.9240195,31.2913285 C86.1485268,13.0751533 68.5709268,0.0934306569 47.9534049,0.0934306569 Z" id="Fill-5" fill="#D80027"></path>
            <path d="M12.3996878,27.1317956 L12.3996878,50.9949197 C12.3996878,64.5687591 30.1765463,68.7285255 30.1765463,68.7285255 C30.1765463,68.7285255 47.9534049,64.5687591 47.9534049,50.9949197 L47.9534049,27.1317956 L12.3996878,27.1317956 Z" id="Fill-6" fill="#D80027"></path>
            <polygon id="Fill-7" fill="#FFDA44" points="19.7514146 31.2913285 40.6014439 31.2913285 40.6014439 22.9720292 36.4317659 25.051562 30.1765463 18.8124964 23.9213268 25.051562 19.7514146 22.9720292"></polygon>
            <polygon id="Fill-8" fill="#FFDA44" points="43.7834927 54.3170803 30.2313366 40.7988321 16.6791805 54.3170803 21.102439 58.7293431 30.2313366 49.6226569 39.3604683 58.7293431"></polygon>
            <path d="M43.7834927,41.6901606 L37.4606049,41.6901606 C37.8155707,41.0779562 38.022322,40.3690511 38.022322,39.6108613 C38.022322,37.3134015 36.1554732,35.4510949 33.8524098,35.4510949 C32.2609171,35.4510949 30.879922,36.3407883 30.1765463,37.6471825 C29.4731707,36.3407883 28.0921756,35.4510949 26.5006829,35.4510949 C24.1976195,35.4510949 22.3307707,37.3134015 22.3307707,39.6108613 C22.3307707,40.3690511 22.537522,41.0788905 22.8931902,41.6901606 L16.6791805,41.6901606 C16.6791805,43.9876204 18.6851122,45.849927 20.9881756,45.849927 L20.8490927,45.849927 C20.8490927,48.1471533 22.7159415,50.0094599 25.0190049,50.0094599 C25.0190049,52.044146 26.483122,53.7338394 28.417639,54.0961168 L25.1323317,61.4958248 C26.7064976,62.1344234 28.4267707,62.4894599 30.2313366,62.4894599 C32.0359024,62.4894599 33.7564098,62.1344234 35.3315122,61.4958248 L32.0450341,54.0961168 C33.9795512,53.7347737 35.4439024,52.044146 35.4439024,50.0094599 C37.7469659,50.0094599 39.6138146,48.1471533 39.6138146,45.849927 L39.4747317,45.849927 C41.7777951,45.849927 43.7834927,43.9876204 43.7834927,41.6901606 Z" id="Fill-9" fill="#F3F3F3"></path>
        </g>
    </g>
</svg>