<?xml version="1.0" encoding="UTF-8"?>
<svg width="96px" height="96px" viewBox="0 0 96 96" version="1.1" xmlns="http://www.w3.org/2000/svg" xmlns:xlink="http://www.w3.org/1999/xlink">
    <title>seychelles</title>
    <desc>designed by Freepik from Flaticon</desc>
    <defs>
        <polygon id="path-1" points="0.0140487805 0.0934306569 0.0140487805 95.7668905 95.9068098 95.7668905 95.9068098 0.0934306569"></polygon>
        <polygon id="path-3" points="0.0140487805 0.00210218978 0.0140487805 80.6610219 95.9068098 80.6610219 95.9068098 0.00210218978 0.0140487805 0.00210218978"></polygon>
    </defs>
    <g id="Page-1" stroke="none" stroke-width="1" fill="none" fill-rule="evenodd">
        <g id="seychelles">
            <g id="Group-3">
                <mask id="mask-2" fill="white">
                    <use xlink:href="#path-1"></use>
                </mask>
                <g id="Clip-2"></g>
                <path d="M95.9068098,47.9301606 C95.9068098,74.3488467 74.4365268,95.7668905 47.9534049,95.7668905 C21.4691122,95.7668905 0,74.3488467 0,47.9301606 C0,21.5103066 21.4691122,0.0934306569 47.9534049,0.0934306569 C74.4365268,0.0934306569 95.9068098,21.5103066 95.9068098,47.9301606 Z" id="Fill-1" fill="#F3F3F3" mask="url(#mask-2)"></path>
            </g>
            <path d="M80.3232,12.6390657 C71.7923122,4.84788321 60.4298927,0.0934306569 47.9534049,0.0934306569 C45.9109463,0.0934306569 43.8977561,0.222131387 41.9222634,0.469255474 L18.764722,27.1317956 L1.51726829,59.9135766 C2.63133659,64.2230657 4.33545366,68.2950073 6.53315122,72.044146 L47.9534049,47.9301606 L80.3232,12.6390657 Z" id="Fill-4" fill="#FFDA44"></path>
            <path d="M87.8762927,74.4338686 L20.7851707,87.3497226 C28.5082537,92.6572847 37.8659122,95.7668905 47.9534049,95.7668905 C64.6098732,95.7668905 79.2805463,87.2931971 87.8762927,74.4338686 Z" id="Fill-5" fill="#6DA544"></path>
            <g id="Group-9" transform="translate(0.000000, 0.467153)">
                <mask id="mask-4" fill="white">
                    <use xlink:href="#path-3"></use>
                </mask>
                <g id="Clip-7"></g>
                <path d="M80.329522,12.178219 L6.56078049,71.6234745 C8.48967805,74.9063942 10.8,77.9391533 13.4313366,80.6610219 L95.9068098,47.4630073 C95.9068098,33.4930219 89.9030634,20.9237956 80.329522,12.178219 Z" id="Fill-6" fill="#D80027" mask="url(#mask-4)"></path>
                <path d="M0,47.4630073 C0,51.6017518 0.526829268,55.6162336 1.51726829,59.4464234 L41.9222634,0.00210218978 C18.2854244,2.96011679 0,23.0806423 0,47.4630073 Z" id="Fill-8" fill="#0052B4" mask="url(#mask-4)"></path>
            </g>
        </g>
    </g>
</svg>