<?xml version="1.0" encoding="UTF-8"?>
<svg width="96px" height="96px" viewBox="0 0 96 96" version="1.1" xmlns="http://www.w3.org/2000/svg" xmlns:xlink="http://www.w3.org/1999/xlink">
    <title>sierra-leone</title>
    <desc>designed by Freepik from Flaticon</desc>
    <defs>
        <polygon id="path-1" points="0.0140487805 0.0369051095 0.0140487805 41.633635 95.9068098 41.633635 95.9068098 0.0369051095"></polygon>
    </defs>
    <g id="Page-1" stroke="none" stroke-width="1" fill="none" fill-rule="evenodd">
        <g id="sierra-leone">
            <g id="Group-3" transform="translate(0.000000, 27.094891)">
                <mask id="mask-2" fill="white">
                    <use xlink:href="#path-1"></use>
                </mask>
                <g id="Clip-2"></g>
                <path d="M92.9240195,37.4738686 C94.851278,32.2915036 95.9068098,26.6865985 95.9068098,20.8352701 C95.9068098,14.9839416 94.851278,9.3790365 92.9240195,4.19643796 L47.9534049,0.0369051095 L2.9825561,4.19643796 C1.05459512,9.3790365 0,14.9839416 0,20.8352701 C0,26.6865985 1.05459512,32.2915036 2.9825561,37.4738686 L47.9534049,41.633635 L92.9240195,37.4738686 Z" id="Fill-1" fill="#F3F3F3" mask="url(#mask-2)"></path>
            </g>
            <path d="M47.9534049,95.7668905 C68.5709268,95.7668905 86.1485268,82.7849343 92.9230829,64.5687591 L2.9825561,64.5687591 C9.75828293,82.7849343 27.3347122,95.7668905 47.9534049,95.7668905 Z" id="Fill-4" fill="#338AF3"></path>
            <path d="M47.9534049,0.0934306569 C27.3347122,0.0934306569 9.75828293,13.0751533 2.9825561,31.2913285 L92.9240195,31.2913285 C86.1485268,13.0751533 68.5709268,0.0934306569 47.9534049,0.0934306569 Z" id="Fill-5" fill="#6DA544"></path>
        </g>
    </g>
</svg>