<?xml version="1.0" encoding="UTF-8"?>
<svg width="96px" height="96px" viewBox="0 0 96 96" version="1.1" xmlns="http://www.w3.org/2000/svg" xmlns:xlink="http://www.w3.org/1999/xlink">
    <title>sint-eustatius</title>
    <desc>designed by Freepik from Flaticon</desc>
    <defs>
        <polygon id="path-1" points="0.0140487805 0.0259270073 0.0140487805 83.2203212 95.9068098 83.2203212 95.9068098 0.0259270073"></polygon>
    </defs>
    <g id="Page-1" stroke="none" stroke-width="1" fill="none" fill-rule="evenodd">
        <g id="sint-eustatius">
            <path d="M20.9258927,87.4464234 C28.6215805,92.6946569 37.9270244,95.7668905 47.9534049,95.7668905 C57.9795512,95.7668905 67.2849951,92.6946569 74.9806829,87.4464234 L47.9534049,83.2868905 L20.9258927,87.4464234 Z" id="Fill-1" fill="#D80027"></path>
            <path d="M74.9806829,8.41272993 C67.2849951,3.16449635 57.9795512,0.0934306569 47.9534049,0.0934306569 C37.9270244,0.0934306569 28.6215805,3.16449635 20.9258927,8.41272993 L47.9534049,12.5724964 L74.9806829,8.41272993 Z" id="Fill-2" fill="#D80027"></path>
            <path d="M20.9258927,87.4464234 C28.6215805,92.6946569 37.9270244,95.7668905 47.9534049,95.7668905 C57.9795512,95.7668905 67.2849951,92.6946569 74.9806829,87.4464234 L47.9534049,83.2868905 L20.9258927,87.4464234 Z" id="Fill-3" fill="#D80027"></path>
            <path d="M74.9806829,8.41272993 C67.2849951,3.16449635 57.9795512,0.0934306569 47.9534049,0.0934306569 C37.9270244,0.0934306569 28.6215805,3.16449635 20.9258927,8.41272993 L47.9534049,12.5724964 L74.9806829,8.41272993 Z" id="Fill-4" fill="#D80027"></path>
            <path d="M95.7841171,44.8095766 C94.6482732,30.0458978 85.6554146,15.6919124 74.9806829,8.41272993 L20.9258927,8.41272993 C9.09962927,16.4776642 1.07754146,29.6864234 0.100682927,44.8095766 L47.9534049,47.9301606 L95.7841171,44.8095766 Z" id="Fill-5" fill="#0052B4"></path>
            <g id="Group-9" transform="translate(0.000000, 6.306569)">
                <mask id="mask-2" fill="white">
                    <use xlink:href="#path-1"></use>
                </mask>
                <g id="Clip-7"></g>
                <path d="M0.100682927,44.7430073 C1.07754146,59.8670949 9.09869268,73.0751533 20.9258927,81.1407883 L74.9806829,81.1407883 C86.8069463,73.0760876 94.8292683,59.8670949 95.8051902,44.7430073 L47.9534049,41.6235912 L0.100682927,44.7430073 Z" id="Fill-6" fill="#0052B4" mask="url(#mask-2)"></path>
                <path d="M95.7841171,38.5030073 L51.0804293,38.5030073 L51.0804293,0.0259270073 L44.8261463,0.0259270073 L44.8261463,38.5030073 L0.100682927,38.5030073 C0.0346536585,39.5349489 0,40.5750657 0,41.6235912 C0,42.6718832 0.0339512195,43.7110657 0.100682927,44.7430073 L44.8261463,44.7430073 L44.8261463,83.2203212 L51.0804293,83.2203212 L51.0804293,44.7430073 L95.8061268,44.7430073 C95.871922,43.7110657 95.9068098,42.6718832 95.9068098,41.6235912 C95.9068098,40.5825401 95.8646634,39.5424234 95.7841171,38.5030073 Z" id="Fill-8" fill="#D80027" mask="url(#mask-2)"></path>
            </g>
            <polygon id="Fill-10" fill="#F3F3F3" points="18.764722 47.9301606 47.9534049 29.6280292 77.1420878 47.9301606 47.9534049 66.2320584"></polygon>
            <polygon id="Fill-11" fill="#6DA544" points="31.2739902 56.2494599 68.8024976 56.2494599 60.4629073 43.7703942 56.2929951 47.9301606 52.1230829 45.849927 47.9534049 52.0896934 39.6138146 52.0896934 35.4439024 47.9301606"></polygon>
            <polygon id="Fill-12" fill="#FFDA44" points="47.9534049 35.4510949 48.9888 38.6282044 52.3370927 38.6282044 49.6280195 40.5925839 50.662478 43.7703942 47.9534049 41.8060146 45.2433951 43.7703942 46.2785561 40.5925839 43.5685463 38.6282044 46.9180098 38.6282044"></polygon>
            <path d="M47.9534049,24.3991825 L10.4248976,47.9301606 L47.9534049,71.4602044 L85.481678,47.9301606 L47.9534049,24.3991825 Z M22.1781073,47.9301606 L47.9534049,31.7685255 L73.7277659,47.9301606 L47.9534049,64.0906277 L22.1781073,47.9301606 Z" id="Fill-13" fill="#D80027"></path>
        </g>
    </g>
</svg>