<?xml version="1.0" encoding="UTF-8"?>
<svg width="96px" height="96px" viewBox="0 0 96 96" version="1.1" xmlns="http://www.w3.org/2000/svg" xmlns:xlink="http://www.w3.org/1999/xlink">
    <title>sint-maarten</title>
    <desc>designed by Freepik from Flaticon</desc>
    <defs>
        <polygon id="path-1" points="0.0140487805 0.0896934307 0.0140487805 81.752292 95.9068098 81.752292 95.9068098 0.0896934307"></polygon>
    </defs>
    <g id="Page-1" stroke="none" stroke-width="1" fill="none" fill-rule="evenodd">
        <g id="sint-maarten">
            <path d="M43.7834927,52.0896934 C43.7834927,52.0896934 14.0733659,14.0979854 14.0450341,14.104292 C22.7232,5.44747445 34.7112585,0.0934306569 47.9534049,0.0934306569 C74.4365268,0.0934306569 95.9068098,21.5103066 95.9068098,47.9301606 L43.7834927,52.0896934 Z" id="Fill-1" fill="#D80027"></path>
            <g id="Group-5" transform="translate(0.000000, 14.014599)">
                <mask id="mask-2" fill="white">
                    <use xlink:href="#path-1"></use>
                </mask>
                <g id="Clip-3"></g>
                <path d="M43.7834927,33.915562 C43.7834927,33.915562 14.0733659,67.7477372 14.0450341,67.7402628 C22.7232,76.3973139 34.7112585,81.752292 47.9534049,81.752292 C74.4365268,81.752292 95.9068098,60.3342482 95.9068098,33.915562 L43.7834927,33.915562 Z" id="Fill-2" fill="#0052B4" mask="url(#mask-2)"></path>
                <path d="M14.0450341,0.0896934307 C-4.68199024,18.7713869 -4.68199024,49.0597372 14.0450341,67.7411971 L47.9534049,33.915562 L14.0450341,0.0896934307 Z" id="Fill-4" fill="#F3F3F3" mask="url(#mask-2)"></path>
            </g>
            <path d="M5.25635122,47.9301606 C5.22989268,48.2732847 5.21256585,48.6199124 5.21256585,48.9702774 C5.21256585,56.4365547 11.2802341,62.4885255 18.764722,62.4885255 C26.2489756,62.4885255 32.316878,56.4365547 32.316878,48.9702774 C32.316878,48.6199124 32.2983805,48.2732847 32.271922,47.9301606 L5.25635122,47.9301606 Z" id="Fill-6" fill="#FFDA44"></path>
            <path d="M22.9344,37.5303942 C22.9344,39.827854 21.0677854,41.6901606 18.764722,41.6901606 C16.4616585,41.6901606 14.5948098,39.827854 14.5948098,37.5303942 C14.5948098,35.2329343 16.4616585,33.3708613 18.764722,33.3708613 C21.0677854,33.3708613 22.9344,35.2329343 22.9344,37.5303942 Z" id="Fill-7" fill="#FFDA44"></path>
            <path d="M9.3822439,36.4912117 L9.3822439,50.0094599 C9.3822439,57.1737226 18.764722,59.3688759 18.764722,59.3688759 C18.764722,59.3688759 28.1469659,57.1737226 28.1469659,50.0094599 L28.1469659,36.4912117 L9.3822439,36.4912117 Z" id="Fill-8" fill="#D80027"></path>
            <path d="M18.7691707,55.0159416 C17.028761,54.3908905 13.5521561,52.7941606 13.5521561,50.0094599 L13.5521561,40.6500438 L23.9770537,40.6500438 L23.9770537,50.0094599 C23.9770537,52.8032701 20.5006829,54.3962628 18.7691707,55.0159416 Z" id="Fill-9" fill="#338AF3"></path>
            <polygon id="Fill-10" fill="#F5F5F5" points="20.8490927 45.849927 20.8490927 43.7703942 18.764722 42.7302774 16.6791805 43.7703942 16.6791805 45.849927 15.6365268 46.8900438 15.6365268 51.0495766 21.8917463 51.0495766 21.8917463 46.8900438"></polygon>
        </g>
    </g>
</svg>