<?xml version="1.0" encoding="UTF-8"?>
<svg width="96px" height="96px" viewBox="0 0 96 96" version="1.1" xmlns="http://www.w3.org/2000/svg" xmlns:xlink="http://www.w3.org/1999/xlink">
    <title>slovakia</title>
    <desc>designed by Freepik from Flaticon</desc>
    <defs>
        <polygon id="path-1" points="0.0140487805 0.0934306569 0.0140487805 95.7668905 95.9068098 95.7668905 95.9068098 0.0934306569"></polygon>
    </defs>
    <g id="Page-1" stroke="none" stroke-width="1" fill="none" fill-rule="evenodd">
        <g id="slovakia">
            <g id="Group-4">
                <mask id="mask-2" fill="white">
                    <use xlink:href="#path-1"></use>
                </mask>
                <g id="Clip-2"></g>
                <path d="M95.9068098,47.9301606 C95.9068098,74.3488467 74.4365268,95.7668905 47.9534049,95.7668905 C21.4691122,95.7668905 0,74.3488467 0,47.9301606 C0,21.5103066 21.4691122,0.0934306569 47.9534049,0.0934306569 C74.4365268,0.0934306569 95.9068098,21.5103066 95.9068098,47.9301606 Z" id="Fill-1" fill="#F3F3F3" mask="url(#mask-2)"></path>
                <path d="M47.9534049,95.7668905 C74.4365268,95.7668905 95.9068098,74.3488467 95.9068098,47.9301606 C95.9068098,42.0788321 94.851278,36.4729927 92.9240195,31.2913285 L2.9825561,31.2913285 C1.05553171,36.4729927 0,42.0788321 0,47.9301606 C0,74.3488467 21.4691122,95.7668905 47.9534049,95.7668905 Z" id="Fill-3" fill="#0052B4" mask="url(#mask-2)"></path>
            </g>
            <path d="M47.9534049,95.7668905 C68.5709268,95.7668905 86.1485268,82.7849343 92.9240195,64.5687591 L2.9825561,64.5687591 C9.75828293,82.7849343 27.3347122,95.7668905 47.9534049,95.7668905 Z" id="Fill-5" fill="#D80027"></path>
            <path d="M12.3996878,27.1317956 L12.3996878,50.9949197 C12.3996878,64.5687591 30.1765463,68.7285255 30.1765463,68.7285255 C30.1765463,68.7285255 47.9534049,64.5687591 47.9534049,50.9949197 L47.9534049,27.1317956 L12.3996878,27.1317956 Z" id="Fill-6" fill="#F3F3F3"></path>
            <path d="M16.5696,27.1317956 L16.5696,50.9949197 C16.5696,52.5879124 16.9243317,54.0933139 17.6277073,55.5041168 L42.7253854,55.5041168 C43.428761,54.0933139 43.7834927,52.5879124 43.7834927,50.9949197 L43.7834927,27.1317956 L16.5696,27.1317956 Z" id="Fill-7" fill="#D80027"></path>
            <polygon id="Fill-8" fill="#F3F3F3" points="38.5161366 43.7703942 32.2618537 43.7703942 32.2618537 39.6108613 36.4317659 39.6108613 36.4317659 35.4510949 32.2618537 35.4510949 32.2618537 31.2913285 28.0921756 31.2913285 28.0921756 35.4510949 23.9222634 35.4510949 23.9222634 39.6108613 28.0921756 39.6108613 28.0921756 43.7703942 21.8369561 43.7703942 21.8369561 47.9301606 28.0921756 47.9301606 28.0921756 52.0896934 32.2618537 52.0896934 32.2618537 47.9301606 38.5161366 47.9301606"></polygon>
            <path d="M23.3158244,61.3115328 C26.003122,62.995854 28.7634732,63.9738394 30.1765463,64.408292 C31.5896195,63.9738394 34.3509073,62.995854 37.0372683,61.3115328 C39.747278,59.611562 41.6469073,57.6691387 42.7253854,55.5041168 C41.5363902,54.6646423 40.0846829,54.1692263 38.5161366,54.1692263 C37.945522,54.1692263 37.3910634,54.2367299 36.8569756,54.3607591 C35.7274537,51.7995912 33.1619122,50.0094599 30.1765463,50.0094599 C27.1911805,50.0094599 24.625639,51.7995912 23.4961171,54.3607591 C22.9627317,54.2367299 22.4075707,54.1692263 21.8369561,54.1692263 C20.2691122,54.1692263 18.817639,54.6646423 17.6277073,55.5041168 C18.7061854,57.6691387 20.6058146,59.611562 23.3158244,61.3115328 Z" id="Fill-9" fill="#0052B4"></path>
        </g>
    </g>
</svg>