<?xml version="1.0" encoding="UTF-8"?>
<svg width="96px" height="96px" viewBox="0 0 96 96" version="1.1" xmlns="http://www.w3.org/2000/svg" xmlns:xlink="http://www.w3.org/1999/xlink">
    <title>solomon-islands</title>
    <desc>designed by Freepik from Flaticon</desc>
    <defs>
        <polygon id="path-1" points="0.0140487805 0.0935195563 0.0140487805 96.000139 95.9062174 96.000139 95.9062174 0.0935195563"></polygon>
    </defs>
    <g id="Page-1" stroke="none" stroke-width="1" fill="none" fill-rule="evenodd">
        <g id="solomon-islands">
            <g id="Group-4">
                <mask id="mask-2" fill="white">
                    <use xlink:href="#path-1"></use>
                </mask>
                <g id="Clip-2"></g>
                <path d="M81.862478,81.9559024 C99.8470244,63.9715902 100.556722,35.2584585 84,16.422322 L47.9534049,48.0468293 L16.3288976,84.094361 C35.1650341,100.651083 63.8779317,99.9404488 81.862478,81.9559024 Z" id="Fill-1" fill="#496E2D" mask="url(#mask-2)"></path>
                <path d="M14.0440976,14.1377561 C32.0286439,-3.84679024 60.740839,-4.55742439 79.577678,11.9992976 L47.9534049,48.0468293 L11.9058732,79.6711024 C-4.65084878,60.8342634 -3.94021463,32.1220683 14.0440976,14.1377561 Z" id="Fill-3" fill="#0052B4" mask="url(#mask-2)"></path>
            </g>
            <path d="M79.5767415,11.9992976 L11.9058732,79.6711024 C12.5900488,80.449639 13.3006829,81.2122537 14.0433951,81.9559024 C14.7868098,82.6995512 15.5505951,83.4092488 16.3288976,84.094361 L84,16.422322 C83.3158244,15.6440195 82.6051902,14.8804683 81.862478,14.1368195 C81.1188293,13.3941073 80.355278,12.6834732 79.5767415,11.9992976 Z" id="Fill-5" fill="#FFDA44"></path>
            <polygon id="Fill-6" fill="#F3F3F3" points="20.2042537 16.7719024 21.2396488 19.9574634 24.5891122 19.9574634 21.8788683 21.9256976 22.9142634 25.1114927 20.2042537 23.142322 17.4942439 25.1114927 18.529639 21.9256976 15.8193951 19.9574634 19.1688585 19.9574634"></polygon>
            <polygon id="Fill-7" fill="#F3F3F3" points="37.3133268 16.7719024 38.348722 19.9574634 41.6981854 19.9574634 38.9881756 21.9256976 40.0235707 25.1114927 37.3133268 23.142322 34.6033171 25.1114927 35.6387122 21.9256976 32.9287024 19.9574634 36.2781659 19.9574634"></polygon>
            <polygon id="Fill-8" fill="#F3F3F3" points="20.2042537 33.4510829 21.2396488 36.6366439 24.5891122 36.6366439 21.8788683 38.6060488 22.9142634 41.7916098 20.2042537 39.822439 17.4942439 41.7916098 18.529639 38.6060488 15.8193951 36.6366439 19.1688585 36.6366439"></polygon>
            <polygon id="Fill-9" fill="#F3F3F3" points="37.3133268 33.4510829 38.348722 36.6366439 41.6981854 36.6366439 38.9881756 38.6060488 40.0235707 41.7916098 37.3133268 39.822439 34.6033171 41.7916098 35.6387122 38.6060488 32.9287024 36.6366439 36.2781659 36.6366439"></polygon>
            <polygon id="Fill-10" fill="#F3F3F3" points="28.7587902 25.1114927 29.7941854 28.2970537 33.1436488 28.2970537 30.433639 30.265522 31.4688 33.4510829 28.7587902 31.4828488 26.0487805 33.4510829 27.0841756 30.265522 24.3741659 28.2970537 27.7233951 28.2970537"></polygon>
        </g>
    </g>
</svg>