<?xml version="1.0" encoding="UTF-8"?>
<svg width="96px" height="96px" viewBox="0 0 96 96" version="1.1" xmlns="http://www.w3.org/2000/svg" xmlns:xlink="http://www.w3.org/1999/xlink">
    <title>somaliland</title>
    <desc>designed by Freepik from Flaticon</desc>
    <defs>
        <polygon id="path-1" points="0.0140487805 0.0369051095 0.0140487805 41.633635 95.9068098 41.633635 95.9068098 0.0369051095"></polygon>
    </defs>
    <g id="Page-1" stroke="none" stroke-width="1" fill="none" fill-rule="evenodd">
        <g id="somaliland">
            <g id="Group-3" transform="translate(0.000000, 27.094891)">
                <mask id="mask-2" fill="white">
                    <use xlink:href="#path-1"></use>
                </mask>
                <g id="Clip-2"></g>
                <path d="M92.9240195,37.4738686 C94.851278,32.2915036 95.9068098,26.6865985 95.9068098,20.8352701 C95.9068098,14.9839416 94.851278,9.3790365 92.9240195,4.19643796 L47.9534049,0.0369051095 L2.9825561,4.19643796 C1.05553171,9.3790365 0,14.9839416 0,20.8352701 C0,26.6865985 1.05553171,32.2915036 2.9825561,37.4738686 L47.9534049,41.633635 L92.9240195,37.4738686 Z" id="Fill-1" fill="#F3F3F3" mask="url(#mask-2)"></path>
            </g>
            <path d="M47.9534049,95.7668905 C68.5709268,95.7668905 86.1485268,82.7849343 92.9230829,64.5687591 L2.9825561,64.5687591 C9.75828293,82.7849343 27.3347122,95.7668905 47.9534049,95.7668905 Z" id="Fill-4" fill="#D80027"></path>
            <path d="M47.9534049,0.0934306569 C27.3347122,0.0934306569 9.75828293,13.0751533 2.9825561,31.2913285 L92.9240195,31.2913285 C86.1485268,13.0751533 68.5709268,0.0934306569 47.9534049,0.0934306569 Z" id="Fill-5" fill="#496E2D"></path>
            <polygon id="Fill-6" fill="#000000" points="47.9534049 37.5303942 50.5409561 45.4748029 58.9142634 45.4748029 52.1397073 50.3845839 54.727961 58.3287591 47.9534049 53.420146 41.1786146 58.3287591 43.7661659 50.3845839 36.9923122 45.4748029 45.3658537 45.4748029"></polygon>
            <path d="M62.1998049,9.45284672 L62.1998049,19.1581898 C62.1998049,20.6883504 60.9529756,21.9319124 59.4200195,21.9319124 L59.4200195,26.0916788 C63.2525268,26.0916788 66.3704195,22.9811387 66.3704195,19.1581898 L66.3704195,9.45284672 L62.1998049,9.45284672 Z" id="Fill-7" fill="#F3F3F3"></path>
            <path d="M32.316878,19.1581898 C32.316878,20.6883504 31.0691122,21.9319124 29.5363902,21.9319124 L29.5363902,26.0916788 C33.3686634,26.0916788 36.4865561,22.9811387 36.4865561,19.1581898 L36.4865561,9.45284672 L32.316878,9.45284672 L32.316878,19.1581898 Z" id="Fill-8" fill="#F3F3F3"></path>
            <polygon id="Fill-9" fill="#F3F3F3" points="55.9445854 19.1581898 60.1144976 19.1581898 60.1144976 9.45284672 55.9445854 9.45284672"></polygon>
            <path d="M49.6903024,14.9984234 C49.6903024,15.3807883 49.3784195,15.6919124 48.9960585,15.6919124 C48.6118244,15.6919124 48.2999415,15.3807883 48.2999415,14.9984234 L48.2999415,9.45284672 L44.1302634,9.45284672 L44.1302634,14.9984234 C44.1302634,15.3807883 43.8193171,15.6919124 43.4360195,15.6919124 C43.052722,15.6919124 42.740839,15.3807883 42.740839,14.9984234 L42.740839,9.45284672 L38.5709268,9.45284672 L38.5709268,14.9984234 C38.5709268,17.6747445 40.7534049,19.8516788 43.4360195,19.8516788 C44.4686049,19.8516788 45.4272,19.527708 46.2155707,18.9785693 C47.0039415,19.527708 47.9625366,19.8516788 48.995122,19.8516788 C49.2037463,19.8516788 49.4076878,19.8369635 49.6088195,19.8115036 C49.3133268,21.0258686 48.2177561,21.9319124 46.9107512,21.9319124 L46.9107512,26.0916788 C50.7430244,26.0916788 53.8599805,22.9811387 53.8599805,19.1581898 L53.8599805,9.45284672 L49.6903024,9.45284672 L49.6903024,14.9984234 Z" id="Fill-10" fill="#F3F3F3"></path>
            <polygon id="Fill-11" fill="#F3F3F3" points="38.5709268 26.0916788 44.8252098 26.0916788 44.8252098 21.9319124 38.5709268 21.9319124"></polygon>
        </g>
    </g>
</svg>