<?xml version="1.0" encoding="UTF-8"?>
<svg width="96px" height="96px" viewBox="0 0 96 96" version="1.1" xmlns="http://www.w3.org/2000/svg" xmlns:xlink="http://www.w3.org/1999/xlink">
    <title>south-korea</title>
    <desc>designed by Freepik from Flaticon</desc>
    <defs>
        <polygon id="path-1" points="0.0140487805 0.0934306569 0.0140487805 95.7668905 95.9068098 95.7668905 95.9068098 0.0934306569"></polygon>
    </defs>
    <g id="Page-1" stroke="none" stroke-width="1" fill="none" fill-rule="evenodd">
        <g id="south-korea">
            <g id="Group-3">
                <mask id="mask-2" fill="white">
                    <use xlink:href="#path-1"></use>
                </mask>
                <g id="Clip-2"></g>
                <path d="M95.9068098,47.9301606 C95.9068098,74.3488467 74.4365268,95.7668905 47.9534049,95.7668905 C21.4691122,95.7668905 0,74.3488467 0,47.9301606 C0,21.5103066 21.4691122,0.0934306569 47.9534049,0.0934306569 C74.4365268,0.0934306569 95.9068098,21.5103066 95.9068098,47.9301606 Z" id="Fill-1" fill="#F3F3F3" mask="url(#mask-2)"></path>
            </g>
            <path d="M64.6325854,47.9301606 C64.6325854,52.0896934 57.164722,62.4885255 47.9534049,62.4885255 C38.7411512,62.4885255 31.2739902,52.0896934 31.2739902,47.9301606 C31.2739902,38.7403212 38.7411512,31.2913285 47.9534049,31.2913285 C57.164722,31.2913285 64.6325854,38.7403212 64.6325854,47.9301606 Z" id="Fill-4" fill="#D80027"></path>
            <path d="M64.6325854,47.9301606 C64.6325854,57.1190657 57.164722,64.5687591 47.9534049,64.5687591 C38.7411512,64.5687591 31.2739902,57.1190657 31.2739902,47.9301606" id="Fill-5" fill="#0052B4"></path>
            <polygon id="Fill-6" fill="#000000" points="65.6433951 62.6373139 70.0664195 58.2248175 73.0152585 61.1664818 68.592 65.5778102"></polygon>
            <polygon id="Fill-7" fill="#000000" points="58.2712976 69.9903066 62.6945561 65.5787445 65.6424585 68.5204088 61.2201366 72.9319708"></polygon>
            <polygon id="Fill-8" fill="#000000" points="74.4906146 71.4592701 78.9127024 67.0470073 81.8615415 69.988438 77.4392195 74.4"></polygon>
            <polygon id="Fill-9" fill="#000000" points="67.1185171 78.8141314 71.540839 74.4018686 74.489678 77.3435328 70.0664195 81.7557956"></polygon>
            <polygon id="Fill-10" fill="#000000" points="70.0664195 67.047708 74.489678 62.6363796 77.4385171 65.5778102 73.0152585 69.9893723"></polygon>
            <polygon id="Fill-11" fill="#000000" points="62.6964293 74.4018686 67.1194537 69.9903066 70.0682927 72.9310365 65.6450341 77.3435328"></polygon>
            <polygon id="Fill-12" fill="#000000" points="74.4915512 33.222073 62.6980683 21.4565839 65.6459707 18.5149197 77.4401561 30.2804088"></polygon>
            <polygon id="Fill-13" fill="#000000" points="62.6973659 30.2822774 58.2750439 25.8707153 61.2229463 22.9292847 65.6459707 27.3415474"></polygon>
            <polygon id="Fill-14" fill="#000000" points="70.0682927 37.6355036 65.6450341 33.2230073 68.5938732 30.2822774 73.0161951 34.6938394"></polygon>
            <polygon id="Fill-15" fill="#000000" points="71.5389659 21.4584526 67.116878 17.0459562 70.0645463 14.1052263 74.4878049 18.5167883"></polygon>
            <polygon id="Fill-16" fill="#000000" points="78.913639 28.8114453 74.4906146 24.3998832 77.4392195 21.4584526 81.8615415 25.8707153"></polygon>
            <polygon id="Fill-17" fill="#000000" points="16.9938732 67.0486423 28.7880585 78.8141314 25.8392195 81.7557956 14.0450341 69.9903066"></polygon>
            <polygon id="Fill-18" fill="#000000" points="28.787122 69.9893723 33.2094439 74.4009343 30.2615415 77.3425985 25.8385171 72.9301022"></polygon>
            <polygon id="Fill-19" fill="#000000" points="21.4161951 62.6363796 25.8385171 67.0486423 22.8906146 69.9893723 18.4673561 65.5778102"></polygon>
            <polygon id="Fill-20" fill="#000000" points="25.8392195 58.2248175 37.6327024 69.9893723 34.6848 72.9310365 22.8906146 61.1655474"></polygon>
            <polygon id="Fill-21" fill="#000000" points="28.787122 17.0459562 16.9938732 28.8105109 14.0450341 25.8690803 25.8392195 14.104292"></polygon>
            <polygon id="Fill-22" fill="#000000" points="33.2085073 21.4565839 21.4152585 33.222073 18.4664195 30.2804088 30.2606049 18.5149197"></polygon>
            <polygon id="Fill-23" fill="#000000" points="37.6343415 25.8707153 25.8401561 37.6355036 22.8924878 34.6947737 34.6857366 22.9292847"></polygon>
        </g>
    </g>
</svg>