<?xml version="1.0" encoding="UTF-8"?>
<svg width="96px" height="96px" viewBox="0 0 96 96" version="1.1" xmlns="http://www.w3.org/2000/svg" xmlns:xlink="http://www.w3.org/1999/xlink">
    <title>sri-lanka</title>
    <desc>designed by Freepik from Flaticon</desc>
    <defs>
        <polygon id="path-1" points="0.0140487805 0.0941268293 0.0140487805 95.9997659 95.9058732 95.9997659 95.9058732 0.0941268293"></polygon>
    </defs>
    <g id="Page-1" stroke="none" stroke-width="1" fill="none" fill-rule="evenodd">
        <g id="sri-lanka">
            <g id="Group-5">
                <mask id="mask-2" fill="white">
                    <use xlink:href="#path-1"></use>
                </mask>
                <g id="Clip-2"></g>
                <path d="M95.9058732,48.0472976 C95.9058732,74.5306537 74.4365268,95.9997659 47.9534049,95.9997659 C21.4691122,95.9997659 0,74.5306537 0,48.0472976 C0,21.563239 21.4691122,0.0941268293 47.9534049,0.0941268293 C74.4365268,0.0941268293 95.9058732,21.563239 95.9058732,48.0472976 Z" id="Fill-1" fill="#FFDA44" mask="url(#mask-2)"></path>
                <path d="M37.5282732,8.43371707 L20.9258927,8.43371707 C20.190439,8.93666341 19.4697366,9.45998049 18.764722,10.0022634 L14.5948098,48.0472976 L18.764722,86.0916293 C19.4697366,86.6339122 20.190439,87.1572293 20.9258927,87.6601756 L37.5282732,87.6601756 L37.5282732,8.43371707 Z" id="Fill-3" fill="#FF9811" mask="url(#mask-2)"></path>
                <path d="M0,48.0472976 C0,63.5468488 7.35547317,77.3265951 18.764722,86.0925659 L18.764722,10.0022634 C7.35547317,18.7682341 0,32.5479805 0,48.0472976 Z" id="Fill-4" fill="#6DA544" mask="url(#mask-2)"></path>
            </g>
            <path d="M92.0843707,60.5568 L83.0496,60.5568 L79.2273951,64.7267122 L79.2273951,73.0663024 L70.8868683,73.0663024 L70.8868683,68.8963902 L75.0577171,68.8963902 L75.0577171,60.5568 L56.2929951,60.5568 L56.2929951,65.7693659 L52.1230829,65.7693659 L52.1230829,55.8354732 C50.8437073,54.6902634 50.0377756,53.0266537 50.0377756,51.1745561 L50.0377756,24.0702439 C50.0377756,20.6165854 52.8384,17.815961 56.2929951,17.815961 L56.2929951,56.387122 L64.6325854,56.387122 L67.4945561,54.0025756 C66.9941854,52.8117073 66.7171902,51.5047024 66.7171902,50.1319024 L66.7171902,43.8776195 L60.4629073,43.8776195 L60.4629073,31.3681171 L72.9721756,31.3681171 C72.9721756,29.2837463 76.0994341,27.1982049 76.0994341,27.1982049 C76.0994341,27.1982049 79.2273951,29.2828098 79.2273951,31.3681171 L79.2273951,43.8776195 C81.5468488,43.9050146 85.232078,43.8455415 89.2135024,43.8776195 C88.1671024,42.0491707 87.5660488,39.8805073 87.5660488,37.6233366 C87.5660488,33.9437268 89.1549659,30.6364098 91.6837463,28.347161 C88.0390244,20.2707512 82.2237659,13.3845073 74.9806829,8.43371707 L43.7834927,8.43371707 L43.7834927,87.6601756 L74.9806829,87.6601756 C83.7878634,81.640039 90.4846829,72.7588683 93.7334634,62.3559805 L92.0843707,60.5568 Z" id="Fill-7" fill="#A2001D"></path>
        </g>
    </g>
</svg>