<?xml version="1.0" encoding="UTF-8"?>
<svg width="96px" height="96px" viewBox="0 0 96 96" version="1.1" xmlns="http://www.w3.org/2000/svg" xmlns:xlink="http://www.w3.org/1999/xlink">
    <title>st-barts</title>
    <desc>designed by Freepik from Flaticon</desc>
    <defs>
        <polygon id="path-1" points="0.0140487805 0.171912409 0.0140487805 95.7668905 95.8281366 95.7668905 95.8281366 0.171912409"></polygon>
    </defs>
    <g id="Page-1" stroke="none" stroke-width="1" fill="none" fill-rule="evenodd">
        <g id="st-barts">
            <g id="Group-3">
                <mask id="mask-2" fill="white">
                    <use xlink:href="#path-1"></use>
                </mask>
                <g id="Clip-2"></g>
                <path d="M95.8281366,47.9694015 C95.8281366,74.3670657 74.3761171,95.7668905 47.9140683,95.7668905 C21.4517854,95.7668905 0,74.3670657 0,47.9694015 C0,21.5715036 21.4517854,0.171912409 47.9140683,0.171912409 C74.3761171,0.171912409 95.8281366,21.5715036 95.8281366,47.9694015 Z" id="Fill-1" fill="#F3F3F3" mask="url(#mask-2)"></path>
            </g>
            <path d="M85.5502829,38.6172263 L69.7875512,38.6172263 C69.7875512,35.7486715 67.4561561,33.4220146 64.5796683,33.4220146 L60.4125659,41.7347737 C60.4125659,41.7347737 64.8576,54.2037956 64.7185171,54.2037956 L69.9266341,54.2037956 C72.803122,54.2037956 75.1345171,51.878073 75.1345171,49.0085839 C78.0110049,49.0085839 80.3424,46.6828613 80.3424,43.8133723 L80.1686634,43.8133723 C83.0451512,43.812438 85.5502829,41.4867153 85.5502829,38.6172263 Z" id="Fill-4" fill="#ACABB1"></path>
            <path d="M10.2769171,38.6172263 L26.0396488,38.6172263 C26.0396488,35.7486715 28.3719805,33.4220146 31.2484683,33.4220146 L35.4146341,41.7347737 C35.4146341,41.7347737 30.9705366,54.2037956 31.1093854,54.2037956 L25.9015024,54.2037956 C23.0250146,54.2037956 20.6936195,51.878073 20.6936195,49.0085839 C17.8171317,49.0085839 15.4857366,46.6828613 15.4857366,43.8133723 L15.6585366,43.8133723 C12.7820488,43.812438 10.2769171,41.4867153 10.2769171,38.6172263 Z" id="Fill-5" fill="#ACABB1"></path>
            <polygon id="Fill-6" fill="#FFDA44" points="64.5796683 66.6718832 64.5796683 68.7504818 31.2484683 68.7504818 31.2484683 66.6718832 22.9152 66.6718832 22.9152 74.9848759 31.2484683 74.9848759 31.2484683 77.0632409 64.5796683 77.0632409 64.5796683 74.9848759 72.912 74.9848759 72.912 66.6718832"></polygon>
            <path d="M31.2484683,33.4220146 L31.2484683,54.2028613 C31.2484683,66.9292847 47.9140683,70.8288467 47.9140683,70.8288467 C47.9140683,70.8288467 64.5796683,66.9292847 64.5796683,54.2028613 L64.5796683,33.4220146 L47.9140683,31.3443504 L31.2484683,33.4220146 Z" id="Fill-7" fill="#0052B4"></path>
            <polygon id="Fill-8" fill="#D80027" points="31.2484683 54.2047299 64.5796683 54.2047299 64.5796683 41.735708 31.2484683 41.735708"></polygon>
            <polygon id="Fill-9" fill="#FFDA44" points="56.2464 23.0313577 56.2464 26.1482044 54.1636683 27.1873869 52.0802341 25.1099562 52.0802341 18.8753285 43.7469659 18.8753285 43.7469659 25.1099562 41.6642341 27.1873869 39.5808 26.1482044 39.5808 23.0313577 31.2484683 23.0313577 31.2484683 33.4220146 64.5796683 33.4220146 64.5796683 23.0313577"></polygon>
        </g>
    </g>
</svg>