<?xml version="1.0" encoding="UTF-8"?>
<svg width="96px" height="96px" viewBox="0 0 96 96" version="1.1" xmlns="http://www.w3.org/2000/svg" xmlns:xlink="http://www.w3.org/1999/xlink">
    <title>st-vincent-and-the-grenadines</title>
    <desc>designed by Freepik from Flaticon</desc>
    <defs>
        <polygon id="path-1" points="0.0140487805 0.0934306569 0.0140487805 95.7668905 75.0577171 95.7668905 75.0577171 0.0934306569"></polygon>
    </defs>
    <g id="Page-1" stroke="none" stroke-width="1" fill="none" fill-rule="evenodd">
        <g id="st-vincent-and-the-grenadines">
            <g id="Group-4">
                <mask id="mask-2" fill="white">
                    <use xlink:href="#path-1"></use>
                </mask>
                <g id="Clip-2"></g>
                <path d="M70.8868683,5.9099562 C64.0746146,2.20192701 56.2609171,0.0934306569 47.9534049,0.0934306569 C39.6456585,0.0934306569 31.831961,2.20192701 25.0190049,5.9099562 L20.8490927,47.9301606 L25.0190049,89.9501314 C31.831961,93.6581606 39.6456585,95.7668905 47.9534049,95.7668905 C56.2609171,95.7668905 64.0746146,93.6581606 70.8868683,89.9501314 L75.0577171,47.9301606 L70.8868683,5.9099562 Z" id="Fill-1" fill="#FFDA44" mask="url(#mask-2)"></path>
                <path d="M25.0190049,89.9491971 L25.0190049,5.9099562 C10.1130146,14.0232409 0,29.7978394 0,47.9301606 C0,66.0624818 10.1130146,81.8370803 25.0190049,89.9491971 Z" id="Fill-3" fill="#338AF3" mask="url(#mask-2)"></path>
            </g>
            <path d="M95.9068098,47.9301606 C95.9068098,29.7978394 85.793561,14.0232409 70.8868683,5.9099562 L70.8868683,89.9491971 C85.793561,81.8370803 95.9068098,66.0624818 95.9068098,47.9301606 Z" id="Fill-5" fill="#6DA544"></path>
            <polygon id="Fill-6" fill="#6DA544" points="37.5282732 60.4092263 29.1886829 47.9301606 37.5282732 35.4510949 45.8688 47.9301606"></polygon>
            <polygon id="Fill-7" fill="#6DA544" points="58.3773659 60.4092263 50.0377756 47.9301606 58.3773659 35.4510949 66.7171902 47.9301606"></polygon>
            <polygon id="Fill-8" fill="#6DA544" points="47.9534049 77.0478248 39.6138146 64.5687591 47.9534049 52.0896934 56.2929951 64.5687591"></polygon>
        </g>
    </g>
</svg>