<?xml version="1.0" encoding="UTF-8"?>
<svg width="96px" height="96px" viewBox="0 0 96 96" version="1.1" xmlns="http://www.w3.org/2000/svg" xmlns:xlink="http://www.w3.org/1999/xlink">
    <title>sudan</title>
    <desc>designed by Freepik from Flaticon</desc>
    <defs>
        <polygon id="path-1" points="0.0140487805 0.0815182482 0.0140487805 49.9975474 95.9068098 49.9975474 95.9068098 0.0815182482 0.0140487805 0.0815182482"></polygon>
        <polygon id="path-3" points="0.0140487805 0.0934306569 0.0140487805 81.7557956 91.1468488 81.7557956 91.1468488 0.0934306569"></polygon>
    </defs>
    <g id="Page-1" stroke="none" stroke-width="1" fill="none" fill-rule="evenodd">
        <g id="sudan">
            <g id="Group-3" transform="translate(0.000000, 22.890511)">
                <mask id="mask-2" fill="white">
                    <use xlink:href="#path-1"></use>
                </mask>
                <g id="Clip-2"></g>
                <path d="M4.75785366,4.24128467 C1.71043902,10.529635 0,17.5852847 0,25.0396496 C0,32.4930803 1.71043902,39.5487299 4.75785366,45.8380146 L47.9534049,49.9975474 L91.1477854,45.8380146 C94.1963707,39.5487299 95.9068098,32.4930803 95.9068098,25.0396496 C95.9068098,17.5852847 94.1963707,10.529635 91.1477854,4.24128467 L47.9534049,0.0815182482 L4.75785366,4.24128467 Z" id="Fill-1" fill="#F3F3F3" mask="url(#mask-2)"></path>
            </g>
            <path d="M4.75972683,68.7285255 C12.5158244,84.7294599 28.9416585,95.7668905 47.9534049,95.7668905 C66.9649171,95.7668905 83.3907512,84.7294599 91.1468488,68.7285255 L4.75972683,68.7285255 Z" id="Fill-4" fill="#000000"></path>
            <g id="Group-8">
                <mask id="mask-4" fill="white">
                    <use xlink:href="#path-3"></use>
                </mask>
                <g id="Clip-6"></g>
                <path d="M4.75972683,27.1317956 L91.1468488,27.1317956 C83.3907512,11.1308613 66.9649171,0.0934306569 47.9534049,0.0934306569 C28.9416585,0.0934306569 12.5158244,11.1308613 4.75972683,27.1317956 Z" id="Fill-5" fill="#D80027" mask="url(#mask-4)"></path>
                <path d="M14.0450341,14.104292 C-4.68199024,32.7859854 -4.68199024,63.0743358 14.0450341,81.7557956 L47.9534049,47.9301606 L14.0450341,14.104292 Z" id="Fill-7" fill="#496E2D" mask="url(#mask-4)"></path>
            </g>
        </g>
    </g>
</svg>