<?xml version="1.0" encoding="UTF-8"?>
<svg width="96px" height="96px" viewBox="0 0 96 96" version="1.1" xmlns="http://www.w3.org/2000/svg" xmlns:xlink="http://www.w3.org/1999/xlink">
    <title>suriname</title>
    <desc>designed by Freepik from Flaticon</desc>
    <defs>
        <polygon id="path-1" points="0.0140487805 0.0934306569 0.0140487805 95.7668905 95.9068098 95.7668905 95.9068098 0.0934306569"></polygon>
    </defs>
    <g id="Page-1" stroke="none" stroke-width="1" fill="none" fill-rule="evenodd">
        <g id="suriname">
            <g id="Group-4">
                <mask id="mask-2" fill="white">
                    <use xlink:href="#path-1"></use>
                </mask>
                <g id="Clip-2"></g>
                <path d="M95.9068098,47.9301606 C95.9068098,74.3488467 74.4365268,95.7668905 47.9534049,95.7668905 C21.4691122,95.7668905 0,74.3488467 0,47.9301606 C0,21.5103066 21.4691122,0.0934306569 47.9534049,0.0934306569 C74.4365268,0.0934306569 95.9068098,21.5103066 95.9068098,47.9301606 Z" id="Fill-1" fill="#F3F3F3" mask="url(#mask-2)"></path>
                <path d="M92.9230829,31.2913285 L2.9825561,31.2913285 C1.05553171,36.473927 0,42.0788321 0,47.9301606 C0,53.7814891 1.05553171,59.3863942 2.9825561,64.5687591 L92.9240195,64.5687591 C94.851278,59.3863942 95.9068098,53.7814891 95.9068098,47.9301606 C95.9068098,42.0788321 94.851278,36.473927 92.9230829,31.2913285 Z" id="Fill-3" fill="#A2001D" mask="url(#mask-2)"></path>
            </g>
            <path d="M48.0924878,95.7668905 C64.5164488,95.7668905 79.0098732,87.527708 87.6522146,74.9685255 L8.53182439,74.9685255 C17.1741659,87.527708 31.6673561,95.7668905 48.0924878,95.7668905 Z" id="Fill-5" fill="#6DA544"></path>
            <path d="M48.0924878,0.0934306569 C64.5164488,0.0934306569 79.0098732,8.33237956 87.6522146,20.8917956 L8.53182439,20.8917956 C17.1741659,8.33237956 31.6673561,0.0934306569 48.0924878,0.0934306569 Z" id="Fill-6" fill="#6DA544"></path>
            <polygon id="Fill-7" fill="#FFDA44" points="47.9534049 31.2913285 52.092878 44.0011679 65.4904976 44.0011679 54.6520976 51.8579854 58.7927415 64.5687591 47.9534049 56.7128759 37.1140683 64.5687591 41.254478 51.8579854 30.4151415 44.0011679 43.8136976 44.0011679"></polygon>
        </g>
    </g>
</svg>