<?xml version="1.0" encoding="UTF-8"?>
<svg width="96px" height="96px" viewBox="0 0 96 96" version="1.1" xmlns="http://www.w3.org/2000/svg" xmlns:xlink="http://www.w3.org/1999/xlink">
    <title>swaziland</title>
    <desc>designed by Freepik from Flaticon</desc>
    <defs>
        <polygon id="path-1" points="0.0140487805 0.0588613139 0.0140487805 45.8151241 95.9068098 45.8151241 95.9068098 0.0588613139 0.0140487805 0.0588613139"></polygon>
        <polygon id="path-3" points="0.0140487805 0.202978102 0.0140487805 62.5990073 95.9068098 62.5990073 95.9068098 0.202978102"></polygon>
    </defs>
    <g id="Page-1" stroke="none" stroke-width="1" fill="none" fill-rule="evenodd">
        <g id="swaziland">
            <g id="Group-3" transform="translate(0.000000, 24.992701)">
                <mask id="mask-2" fill="white">
                    <use xlink:href="#path-1"></use>
                </mask>
                <g id="Clip-2"></g>
                <path d="M91.1477854,43.7358248 C94.1963707,37.4465401 95.9068098,30.3908905 95.9068098,22.9374599 C95.9068098,15.4830949 94.1963707,8.42744526 91.1477854,2.13909489 L47.9534049,0.0588613139 L4.75785366,2.13909489 C1.70950244,8.42744526 0,15.4830949 0,22.9374599 C0,30.3908905 1.70950244,37.4465401 4.75785366,43.7358248 L47.9534049,45.8151241 L91.1477854,43.7358248 Z" id="Fill-1" fill="#FFDA44" mask="url(#mask-2)"></path>
            </g>
            <path d="M47.9534049,0.0934306569 C28.9416585,0.0934306569 12.5148878,11.1308613 4.75785366,27.1317956 L91.1477854,27.1317956 C83.3916878,11.1308613 66.9649171,0.0934306569 47.9534049,0.0934306569 Z" id="Fill-4" fill="#000000"></path>
            <g id="Group-8" transform="translate(0.000000, 33.167883)">
                <mask id="mask-4" fill="white">
                    <use xlink:href="#path-3"></use>
                </mask>
                <g id="Clip-6"></g>
                <path d="M47.9534049,62.5990073 C28.9416585,62.5990073 12.5148878,51.5615766 4.75785366,35.5606423 L91.1477854,35.5606423 C83.3916878,51.5615766 66.9649171,62.5990073 47.9534049,62.5990073 Z" id="Fill-5" fill="#0052B4" mask="url(#mask-4)"></path>
                <path d="M93.6421463,0.202978102 L2.26466341,0.202978102 C0.795629268,4.79416058 0,9.68548905 0,14.7622774 C0,19.8388321 0.795629268,24.7303942 2.26466341,29.3206423 L93.6421463,29.3206423 C95.1109463,24.7303942 95.9068098,19.8388321 95.9068098,14.7622774 C95.9068098,9.68548905 95.1109463,4.79416058 93.6421463,0.202978102 Z" id="Fill-7" fill="#A2001D" mask="url(#mask-4)"></path>
            </g>
            <polygon id="Fill-9" fill="#FFDA44" points="16.6791805 50.0096934 79.2264585 50.0096934 79.2264585 45.849927 16.6791805 45.849927"></polygon>
            <polygon id="Fill-10" fill="#FFDA44" points="25.0190049 41.6901606 70.8871024 41.6901606 70.8871024 37.5303942 25.0190049 37.5303942"></polygon>
            <path d="M71.1851707,47.9301606 C71.1851707,47.9301606 60.4629073,60.4092263 47.9534049,60.4092263 C35.4439024,60.4092263 35.4439024,47.9301606 35.4439024,47.9301606 C35.4439024,47.9301606 35.4439024,35.4510949 47.9534049,35.4510949 C60.4629073,35.4510949 71.1851707,47.9301606 71.1851707,47.9301606 Z" id="Fill-11" fill="#F3F3F3"></path>
            <path d="M47.9534049,60.4092263 C35.4439024,60.4092263 24.7207024,47.9301606 24.7207024,47.9301606 C24.7207024,47.9301606 35.4439024,35.4510949 47.9534049,35.4510949" id="Fill-12" fill="#000000"></path>
            <polygon id="Fill-13" fill="#F3F3F3" points="39.6138146 52.0896934 43.7837268 52.0896934 43.7837268 43.7703942 39.6138146 43.7703942"></polygon>
            <polygon id="Fill-14" fill="#000000" points="52.1230829 52.0896934 56.2929951 52.0896934 56.2929951 43.7703942 52.1230829 43.7703942"></polygon>
            <path d="M20.8490927,47.9301606 C20.8490927,50.2276204 18.9822439,52.0896934 16.6791805,52.0896934 C14.3761171,52.0896934 12.5095024,50.2276204 12.5095024,47.9301606 C12.5095024,45.6327007 14.3761171,43.7703942 16.6791805,43.7703942 C18.9822439,43.7703942 20.8490927,45.6327007 20.8490927,47.9301606 Z" id="Fill-15" fill="#0052B4"></path>
            <path d="M83.3973073,47.9301606 C83.3973073,50.2276204 81.529522,52.0896934 79.2273951,52.0896934 C76.9243317,52.0896934 75.0577171,50.2276204 75.0577171,47.9301606 C75.0577171,45.6327007 76.9243317,43.7703942 79.2273951,43.7703942 C81.529522,43.7703942 83.3973073,45.6327007 83.3973073,47.9301606 Z" id="Fill-16" fill="#0052B4"></path>
        </g>
    </g>
</svg>