<?xml version="1.0" encoding="UTF-8"?>
<svg width="96px" height="96px" viewBox="0 0 96 96" version="1.1" xmlns="http://www.w3.org/2000/svg" xmlns:xlink="http://www.w3.org/1999/xlink">
    <title>switzerland</title>
    <desc>designed by Freepik from Flaticon</desc>
    <defs>
        <polygon id="path-1" points="0.0140487805 0.0934306569 0.0140487805 95.7668905 95.9068098 95.7668905 95.9068098 0.0934306569"></polygon>
    </defs>
    <g id="Page-1" stroke="none" stroke-width="1" fill="none" fill-rule="evenodd">
        <g id="switzerland">
            <g id="Group-3">
                <mask id="mask-2" fill="white">
                    <use xlink:href="#path-1"></use>
                </mask>
                <g id="Clip-2"></g>
                <path d="M95.9068098,47.9301606 C95.9068098,74.3488467 74.4365268,95.7668905 47.9534049,95.7668905 C21.4691122,95.7668905 0,74.3488467 0,47.9301606 C0,21.5103066 21.4691122,0.0934306569 47.9534049,0.0934306569 C74.4365268,0.0934306569 95.9068098,21.5103066 95.9068098,47.9301606 Z" id="Fill-1" fill="#D80027" mask="url(#mask-2)"></path>
            </g>
            <polygon id="Fill-4" fill="#F3F3F3" points="72.9721756 39.6108613 56.2929951 39.6108613 56.2929951 22.9720292 39.6138146 22.9720292 39.6138146 39.6108613 22.9344 39.6108613 22.9344 56.2494599 39.6138146 56.2494599 39.6138146 72.8880584 56.2929951 72.8880584 56.2929951 56.2494599 72.9721756 56.2494599"></polygon>
        </g>
    </g>
</svg>