<?xml version="1.0" encoding="UTF-8"?>
<svg width="96px" height="96px" viewBox="0 0 96 96" version="1.1" xmlns="http://www.w3.org/2000/svg" xmlns:xlink="http://www.w3.org/1999/xlink">
    <title>taiwan</title>
    <desc>designed by Freepik from Flaticon</desc>
    <defs>
        <polygon id="path-1" points="0.0140487805 0.0934306569 0.0140487805 95.7668905 95.9068098 95.7668905 95.9068098 0.0934306569"></polygon>
    </defs>
    <g id="Page-1" stroke="none" stroke-width="1" fill="none" fill-rule="evenodd">
        <g id="taiwan">
            <g id="Group-4">
                <mask id="mask-2" fill="white">
                    <use xlink:href="#path-1"></use>
                </mask>
                <g id="Clip-2"></g>
                <path d="M95.9068098,47.9301606 C95.9068098,74.3488467 74.4365268,95.7668905 47.9534049,95.7668905 C21.4691122,95.7668905 0,74.3488467 0,47.9301606 L47.9534049,0.0934306569 C74.4365268,0.0934306569 95.9068098,21.5103066 95.9068098,47.9301606 Z" id="Fill-1" fill="#D80027" mask="url(#mask-2)"></path>
                <path d="M47.9534049,47.9301606 L47.9534049,0.0934306569 C21.4691122,0.0934306569 0,21.5103066 0,47.9301606 L47.9534049,47.9301606 Z" id="Fill-3" fill="#0052B4" mask="url(#mask-2)"></path>
            </g>
            <polygon id="Fill-5" fill="#F3F3F3" points="41.6981854 28.0887591 35.8417171 30.8379562 38.9607805 36.4958832 32.6011317 35.2812847 31.7954341 41.6901606 27.3658537 36.9765839 22.9362732 41.6901606 22.1305756 35.2812847 15.7709268 36.4949489 18.8899902 30.8370219 13.033522 28.0887591 18.8899902 25.3416642 15.7709268 19.6828029 22.1305756 20.8971679 22.9362732 14.4885255 27.3658537 19.2021022 31.7954341 14.4885255 32.6011317 20.8971679 38.9607805 19.6828029 35.8417171 25.3416642"></polygon>
            <path d="M36.2926829,28.0880584 C36.2926829,33.005781 32.2967415,36.9931679 27.3667902,36.9931679 C22.436839,36.9931679 18.4408976,33.005781 18.4408976,28.0880584 C18.4408976,23.1701022 22.436839,19.1836496 27.3667902,19.1836496 C32.2967415,19.1836496 36.2926829,23.1701022 36.2926829,28.0880584 Z" id="Fill-6" fill="#0052B4"></path>
            <path d="M27.3658537,32.8343358 C24.7436488,32.8343358 22.609639,30.7057518 22.609639,28.0887591 C22.609639,25.4729343 24.7436488,23.3443504 27.3658537,23.3443504 C29.9880585,23.3443504 32.1220683,25.4729343 32.1220683,28.0887591 C32.1220683,30.7057518 29.9880585,32.8343358 27.3658537,32.8343358 Z" id="Fill-7" fill="#F3F3F3"></path>
        </g>
    </g>
</svg>