<?xml version="1.0" encoding="UTF-8"?>
<svg width="96px" height="96px" viewBox="0 0 96 96" version="1.1" xmlns="http://www.w3.org/2000/svg" xmlns:xlink="http://www.w3.org/1999/xlink">
    <title>tanzania</title>
    <desc>designed by Freepik from Flaticon</desc>
    <defs>
        <polygon id="path-1" points="0.0140487805 0.0934306569 0.0140487805 95.7668905 95.9068098 95.7668905 95.9068098 0.0934306569"></polygon>
    </defs>
    <g id="Page-1" stroke="none" stroke-width="1" fill="none" fill-rule="evenodd">
        <g id="tanzania">
            <mask id="mask-2" fill="white">
                <use xlink:href="#path-1"></use>
            </mask>
            <g id="Clip-2"></g>
            <path d="M95.9068098,47.9301606 C95.9068098,74.3488467 74.4365268,95.7668905 47.9534049,95.7668905 C21.4691122,95.7668905 0,74.3488467 0,47.9301606 C0,21.5103066 21.4691122,0.0934306569 47.9534049,0.0934306569 C74.4365268,0.0934306569 95.9068098,21.5103066 95.9068098,47.9301606 Z" id="Fill-1" fill="#FFDA44" mask="url(#mask-2)"></path>
            <path d="M14.0450341,81.7557956 C16.0563512,83.762219 18.2030049,85.5514161 20.4538537,87.1271241 L87.2459707,20.4984526 C85.6664195,18.252146 83.8728585,16.1107153 81.8606049,14.104292 C79.8492878,12.0981022 77.7035707,10.3086715 75.4517854,8.7329635 L8.66060488,75.361635 C10.2392195,77.6070073 12.0339512,79.748438 14.0450341,81.7557956 Z" id="Fill-3" fill="#000000" mask="url(#mask-2)"></path>
            <path d="M14.0450341,14.104292 C-1.08292683,29.1956788 -3.98774634,51.8607883 5.32682927,69.8634745 L69.9402146,5.40729927 C51.8936195,-3.88367883 29.1732293,-0.986861314 14.0450341,14.104292 Z" id="Fill-4" fill="#6DA544" mask="url(#mask-2)"></path>
            <path d="M81.8606049,81.7557956 C96.9897366,66.6646423 99.8936195,43.9995328 90.5799805,25.9966131 L25.966361,90.4530219 C44.0122537,99.744 66.7326439,96.8471825 81.8606049,81.7557956 Z" id="Fill-5" fill="#338AF3" mask="url(#mask-2)"></path>
        </g>
    </g>
</svg>