<?xml version="1.0" encoding="UTF-8"?>
<svg width="96px" height="96px" viewBox="0 0 96 96" version="1.1" xmlns="http://www.w3.org/2000/svg" xmlns:xlink="http://www.w3.org/1999/xlink">
    <title>tibet</title>
    <desc>designed by Freepik from Flaticon</desc>
    <defs>
        <polygon id="path-1" points="0.0140487805 0.0934306569 0.0140487805 95.7668905 95.9068098 95.7668905 95.9068098 0.0934306569"></polygon>
        <polygon id="path-3" points="0.0140487805 0.0924963504 0.0140487805 52.2321752 47.9534049 52.2321752 47.9534049 0.0924963504 0.0140487805 0.0924963504"></polygon>
    </defs>
    <g id="Page-1" stroke="none" stroke-width="1" fill="none" fill-rule="evenodd">
        <g id="tibet">
            <g id="Group-5">
                <mask id="mask-2" fill="white">
                    <use xlink:href="#path-1"></use>
                </mask>
                <g id="Clip-2"></g>
                <path d="M95.9068098,47.9301606 C95.9068098,74.3488467 74.4365268,95.7668905 47.9534049,95.7668905 C21.4691122,95.7668905 0,74.3488467 0,47.9301606 C0,21.5103066 21.4691122,0.0934306569 47.9534049,0.0934306569 C74.4365268,0.0934306569 95.9068098,21.5103066 95.9068098,47.9301606 Z" id="Fill-1" fill="#F3F3F3" mask="url(#mask-2)"></path>
                <path d="M20.9258927,8.41272993 C28.6215805,3.16449635 37.9270244,0.0934306569 47.9534049,0.0934306569 C57.9795512,0.0934306569 67.2849951,3.16449635 74.9806829,8.41272993 L47.9534049,10.4929635 L20.9258927,8.41272993 Z" id="Fill-3" fill="#FFDA44" mask="url(#mask-2)"></path>
                <path d="M14.0478439,81.7529927 L36.1592195,59.6956496 L47.9534049,39.6108613 L59.7457171,59.6947153 L81.8587317,81.7529927 C90.5368976,73.0971095 95.9068098,61.139854 95.9068098,47.9301606 C95.9068098,31.512292 87.6138146,17.0277372 74.9806829,8.41272993 L20.9258927,8.41272993 C8.29205854,17.0277372 0,31.512292 0,47.9301606 C0,61.139854 5.36897561,73.0971095 14.0478439,81.7529927 Z" id="Fill-4" fill="#D80027" mask="url(#mask-2)"></path>
            </g>
            <path d="M92.2637268,66.2467737 L57.203122,51.7540438 L59.7447805,59.6919124 L81.8587317,81.7529927 C86.2737951,77.3489051 89.8325854,72.0896934 92.2637268,66.2467737 Z" id="Fill-6" fill="#0052B4"></path>
            <path d="M95.9068098,47.9301606 C95.9068098,41.4411679 94.609639,35.2548905 92.2637268,29.6135474 L47.9534049,47.9301606 L95.9068098,47.9301606 Z" id="Fill-7" fill="#0052B4"></path>
            <path d="M81.8587317,14.1070949 C79.7507122,12.0049051 77.4492878,10.0961168 74.9806829,8.41272993 L64.3682341,8.41272993 L47.9534049,47.9301606 L81.8587317,14.1070949 Z" id="Fill-8" fill="#0052B4"></path>
            <polygon id="Fill-9" fill="#0052B4" points="47.9534049 8.41272993 31.5383415 8.41272993 47.9534049 47.9301606"></polygon>
            <g id="Group-13" transform="translate(0.000000, 14.014599)">
                <mask id="mask-4" fill="white">
                    <use xlink:href="#path-3"></use>
                </mask>
                <g id="Clip-11"></g>
                <path d="M14.0478439,0.0924963504 C9.63207805,4.49681752 6.07399024,9.75486131 3.64308293,15.5989489 L47.9534049,33.915562 L14.0478439,0.0924963504 Z" id="Fill-10" fill="#0052B4" mask="url(#mask-4)"></path>
                <path d="M0,33.915562 C0,40.4036204 1.296,46.5896642 3.64308293,52.2321752 L47.9534049,33.915562 L0,33.915562 Z" id="Fill-12" fill="#0052B4" mask="url(#mask-4)"></path>
            </g>
            <path d="M20.9258927,87.4464234 C28.6215805,92.6955912 37.9270244,95.7668905 47.9534049,95.7668905 C57.9795512,95.7668905 67.2849951,92.6955912 74.9806829,87.4464234 L20.9258927,87.4464234 Z" id="Fill-14" fill="#FFDA44"></path>
            <path d="M47.9534049,47.9301606 L59.7475902,59.6956496 C62.7657366,56.6836788 64.6325854,52.5250803 64.6325854,47.9301606 C64.6325854,38.7403212 57.164722,31.2913285 47.9534049,31.2913285 C38.7420878,31.2913285 31.2739902,38.7403212 31.2739902,47.9301606 C31.2739902,52.524146 33.140839,56.6836788 36.1592195,59.6956496 L47.9534049,47.9301606 Z" id="Fill-15" fill="#FFDA44"></path>
            <path d="M55.2503415,71.8479416 C55.2503415,75.8680292 51.9832976,77.0478248 47.9534049,77.0478248 C43.9235122,77.0478248 40.6555317,75.8680292 40.6555317,71.8479416 C40.6555317,67.827854 43.9235122,64.5687591 47.9534049,64.5687591 C51.9832976,64.5687591 55.2503415,67.827854 55.2503415,71.8479416 Z" id="Fill-16" fill="#FFDA44"></path>
            <path d="M55.2503415,71.8479416 C55.2503415,75.8680292 51.9832976,79.1280584 47.9534049,79.1280584 C43.9235122,79.1280584 40.6555317,75.8680292 40.6555317,71.8479416" id="Fill-17" fill="#0052B4"></path>
        </g>
    </g>
</svg>