<?xml version="1.0" encoding="UTF-8"?>
<svg width="96px" height="96px" viewBox="0 0 96 96" version="1.1" xmlns="http://www.w3.org/2000/svg" xmlns:xlink="http://www.w3.org/1999/xlink">
    <title>togo</title>
    <desc>designed by Freepik from Flaticon</desc>
    <defs>
        <polygon id="path-1" points="0.0140487805 0.0934306569 0.0140487805 95.7668905 95.9068098 95.7668905 95.9068098 0.0934306569"></polygon>
        <polygon id="path-3" points="0.0140487805 0.0934306569 0.0140487805 57.4976934 95.9068098 57.4976934 95.9068098 0.0934306569"></polygon>
    </defs>
    <g id="Page-1" stroke="none" stroke-width="1" fill="none" fill-rule="evenodd">
        <g id="togo">
            <g id="Group-3">
                <mask id="mask-2" fill="white">
                    <use xlink:href="#path-1"></use>
                </mask>
                <g id="Clip-2"></g>
                <path d="M95.9068098,47.9301606 C95.9068098,74.3488467 74.4365268,95.7668905 47.9534049,95.7668905 C21.4691122,95.7668905 0,74.3488467 0,47.9301606 C0,21.5103066 21.4691122,0.0934306569 47.9534049,0.0934306569 C74.4365268,0.0934306569 95.9068098,21.5103066 95.9068098,47.9301606 Z" id="Fill-1" fill="#FFDA44" mask="url(#mask-2)"></path>
            </g>
            <path d="M47.9534049,0.0934306569 C47.9185171,0.0934306569 45.8680976,19.2284964 45.8680976,19.2284964 L86.3175805,19.2284964 C77.5691707,7.60992701 63.6412098,0.0934306569 47.9534049,0.0934306569 Z" id="Fill-4" fill="#496E2D"></path>
            <path d="M47.9534049,95.7668905 C63.6412098,95.7668905 77.5691707,88.2503942 86.3175805,76.6318248 L9.58899512,76.6318248 C18.3364683,88.2503942 32.2646634,95.7668905 47.9534049,95.7668905 Z" id="Fill-5" fill="#496E2D"></path>
            <g id="Group-9">
                <mask id="mask-4" fill="white">
                    <use xlink:href="#path-3"></use>
                </mask>
                <g id="Clip-7"></g>
                <path d="M94.9463415,38.3626277 L45.8680976,38.3626277 L47.9534049,57.4976934 L94.9463415,57.4976934 C95.5757268,54.4063066 95.9068098,51.2065401 95.9068098,47.9301606 C95.9068098,44.6535474 95.5757268,41.453781 94.9463415,38.3626277 Z" id="Fill-6" fill="#496E2D" mask="url(#mask-4)"></path>
                <path d="M47.9534049,57.4976934 L47.9534049,0.0934306569 C21.4691122,0.0934306569 0,21.5103066 0,47.9301606 C0,51.2065401 0.331082927,54.4063066 0.960468293,57.4976934 L47.9534049,57.4976934 Z" id="Fill-8" fill="#D80027" mask="url(#mask-4)"></path>
            </g>
            <polygon id="Fill-10" fill="#F3F3F3" points="26.4594732 22.9720292 29.564722 32.5049927 39.6138146 32.5049927 31.4844878 38.3971971 34.5888 47.9301606 26.4594732 42.0377226 18.3310829 47.9301606 21.4353951 38.3971971 13.3070049 32.5049927 23.355161 32.5049927"></polygon>
        </g>
    </g>
</svg>