<?xml version="1.0" encoding="UTF-8"?>
<svg width="96px" height="96px" viewBox="0 0 96 96" version="1.1" xmlns="http://www.w3.org/2000/svg" xmlns:xlink="http://www.w3.org/1999/xlink">
    <title>trinidad-and-tobago</title>
    <desc>designed by Freepik from Flaticon</desc>
    <defs>
        <polygon id="path-1" points="0.0140487805 0.0935495625 0.0140487805 95.9998304 95.9062744 95.9998304 95.9062744 0.0935495625 0.0140487805 0.0935495625"></polygon>
    </defs>
    <g id="Page-1" stroke="none" stroke-width="1" fill="none" fill-rule="evenodd">
        <g id="trinidad-and-tobago">
            <path d="M25.9656585,5.41861463 C21.6723512,7.63387317 17.6424585,10.5386927 14.0433951,14.1368195 C10.4450341,17.7358829 7.54021463,21.7657756 5.3249561,26.0590829 L36.1582829,59.8410146 L69.9411512,90.675278 C74.2344585,88.4590829 78.2634146,85.5552 81.862478,81.9561366 C85.4615415,78.356839 88.3656585,74.3271805 90.5816195,70.0348098 L59.7475902,36.2517073 L25.9656585,5.41861463 Z" id="Fill-1" fill="#F3F3F3"></path>
            <g id="Group-6">
                <mask id="mask-2" fill="white">
                    <use xlink:href="#path-1"></use>
                </mask>
                <g id="Clip-3"></g>
                <path d="M81.862478,81.9561366 C83.8737951,79.9448195 85.6682927,77.7981659 87.2478439,75.5470829 L20.4531512,8.75239024 C18.2020683,10.3310049 16.0554146,12.1255024 14.0440976,14.1368195 C12.032078,16.1490732 10.2385171,18.2947902 8.65873171,20.5465756 L75.452722,87.3415024 C77.7045073,85.7617171 79.851161,83.9681561 81.862478,81.9561366 Z" id="Fill-2" fill="#000000" mask="url(#mask-2)"></path>
                <path d="M14.0433951,81.9561366 C29.1722927,97.0850341 51.8936195,99.9889171 69.9411512,90.675278 L5.3249561,26.0590829 C-3.98961951,44.105678 -1.0848,66.8270049 14.0433951,81.9561366 Z" id="Fill-4" fill="#D80027" mask="url(#mask-2)"></path>
                <path d="M81.862478,14.1377561 C66.7335805,-0.991141463 44.0122537,-3.89619512 25.9656585,5.41861463 L90.5816195,70.0348098 C99.8954927,51.9870439 96.9913756,29.2657171 81.862478,14.1377561 Z" id="Fill-5" fill="#D80027" mask="url(#mask-2)"></path>
            </g>
        </g>
    </g>
</svg>