<?xml version="1.0" encoding="UTF-8"?>
<svg width="96px" height="96px" viewBox="0 0 96 96" version="1.1" xmlns="http://www.w3.org/2000/svg" xmlns:xlink="http://www.w3.org/1999/xlink">
    <title>tunisia</title>
    <desc>designed by Freepik from Flaticon</desc>
    <defs>
        <polygon id="path-1" points="0.0140487805 0.0934306569 0.0140487805 95.7668905 95.9068098 95.7668905 95.9068098 0.0934306569"></polygon>
    </defs>
    <g id="Page-1" stroke="none" stroke-width="1" fill="none" fill-rule="evenodd">
        <g id="tunisia">
            <g id="Group-3">
                <mask id="mask-2" fill="white">
                    <use xlink:href="#path-1"></use>
                </mask>
                <g id="Clip-2"></g>
                <path d="M95.9068098,47.9301606 C95.9068098,74.3488467 74.4365268,95.7668905 47.9534049,95.7668905 C21.4691122,95.7668905 0,74.3488467 0,47.9301606 C0,21.5103066 21.4691122,0.0934306569 47.9534049,0.0934306569 C74.4365268,0.0934306569 95.9068098,21.5103066 95.9068098,47.9301606 Z" id="Fill-1" fill="#D80027" mask="url(#mask-2)"></path>
            </g>
            <path d="M70.8868683,47.9301606 C70.8868683,60.5652555 60.6193171,70.8078248 47.9534049,70.8078248 C35.2865561,70.8078248 25.0190049,60.5652555 25.0190049,47.9301606 C25.0190049,35.2941314 35.2865561,25.051562 47.9534049,25.051562 C60.6193171,25.051562 70.8868683,35.2941314 70.8868683,47.9301606 Z" id="Fill-4" fill="#F3F3F3"></path>
            <polygon id="Fill-5" fill="#D80027" points="50.7786146 39.1820146 54.7125073 44.5907153 61.0848 42.529635 57.1445854 47.9336642 61.0782439 53.3425985 54.708761 51.2731095 50.7676098 56.6773723 50.7722927 49.9949781 44.4018732 47.9264234 50.7741659 45.8653431"></polygon>
            <path d="M53.1657366,61.4493431 C45.6814829,61.4493431 39.6138146,55.396438 39.6138146,47.9301606 C39.6138146,40.4638832 45.6814829,34.4109781 53.1657366,34.4109781 C55.4990049,34.4109781 57.6950634,34.9993577 59.6122537,36.0359708 C56.604878,33.1015474 52.4918634,31.2913285 47.9534049,31.2913285 C38.7420878,31.2913285 31.2739902,38.7403212 31.2739902,47.9301606 C31.2739902,57.1190657 38.7420878,64.5687591 47.9534049,64.5687591 C52.4918634,64.5687591 56.604878,62.7576058 59.6122537,59.8234161 C57.6950634,60.8607299 55.4990049,61.4493431 53.1657366,61.4493431 Z" id="Fill-6" fill="#D80027"></path>
        </g>
    </g>
</svg>