<?xml version="1.0" encoding="UTF-8"?>
<svg width="96px" height="96px" viewBox="0 0 96 96" version="1.1" xmlns="http://www.w3.org/2000/svg" xmlns:xlink="http://www.w3.org/1999/xlink">
    <title>turkey</title>
    <desc>designed by Freepik from Flaticon</desc>
    <defs>
        <polygon id="path-1" points="0.0140487805 0.0934306569 0.0140487805 95.7668905 95.9068098 95.7668905 95.9068098 0.0934306569"></polygon>
    </defs>
    <g id="Page-1" stroke="none" stroke-width="1" fill="none" fill-rule="evenodd">
        <g id="turkey">
            <g id="Group-3">
                <mask id="mask-2" fill="white">
                    <use xlink:href="#path-1"></use>
                </mask>
                <g id="Clip-2"></g>
                <path d="M95.9068098,47.9301606 C95.9068098,74.3488467 74.4365268,95.7668905 47.9534049,95.7668905 C21.4691122,95.7668905 0,74.3488467 0,47.9301606 C0,21.5103066 21.4691122,0.0934306569 47.9534049,0.0934306569 C74.4365268,0.0934306569 95.9068098,21.5103066 95.9068098,47.9301606 Z" id="Fill-1" fill="#D80027" mask="url(#mask-2)"></path>
            </g>
            <polygon id="Fill-4" fill="#F3F3F3" points="45.9896195 39.1820146 49.9244488 44.5907153 56.2967415 42.529635 52.3555902 47.9336642 56.2892488 53.3425985 49.9197659 51.2731095 45.9795512 56.6773723 45.9832976 49.9949781 39.6138146 47.9264234 45.9858732 45.8653431"></polygon>
            <path d="M35.2519024,61.4493431 C27.7674146,61.4493431 21.6997463,55.396438 21.6997463,47.9301606 C21.6997463,40.4638832 27.7674146,34.4109781 35.2519024,34.4109781 C37.5858732,34.4109781 39.7809951,34.9993577 41.6981854,36.0359708 C38.6908098,33.1015474 34.5777951,31.2913285 30.0393366,31.2913285 C20.8280195,31.2913285 13.3601561,38.7403212 13.3601561,47.9301606 C13.3601561,57.1190657 20.8280195,64.5687591 30.0393366,64.5687591 C34.5787317,64.5687591 38.6908098,62.7576058 41.6981854,59.8234161 C39.7809951,60.8597956 37.5858732,61.4493431 35.2519024,61.4493431 Z" id="Fill-5" fill="#F3F3F3"></path>
        </g>
    </g>
</svg>