<?xml version="1.0" encoding="UTF-8"?>
<svg width="96px" height="96px" viewBox="0 0 96 96" version="1.1" xmlns="http://www.w3.org/2000/svg" xmlns:xlink="http://www.w3.org/1999/xlink">
    <title>turkmenistan</title>
    <desc>designed by Freepik from Flaticon</desc>
    <defs>
        <polygon id="path-1" points="0.0140487805 0.0934306569 0.0140487805 95.7668905 95.9058732 95.7668905 95.9058732 0.0934306569 0.0140487805 0.0934306569"></polygon>
    </defs>
    <g id="Page-1" stroke="none" stroke-width="1" fill="none" fill-rule="evenodd">
        <g id="turkmenistan">
            <g id="Group-4">
                <mask id="mask-2" fill="white">
                    <use xlink:href="#path-1"></use>
                </mask>
                <g id="Clip-2"></g>
                <path d="M47.9524683,0.0934306569 C44.3726049,0.0934306569 40.8849951,0.488408759 37.5282732,1.23024818 L35.4439024,47.9301606 L37.5282732,94.6289051 C40.8849951,95.3716788 44.3726049,95.7668905 47.9524683,95.7668905 C74.4365268,95.7668905 95.9058732,74.3488467 95.9058732,47.9301606 C95.9058732,21.5103066 74.4365268,0.0934306569 47.9524683,0.0934306569 Z" id="Fill-1" fill="#496E2D" mask="url(#mask-2)"></path>
                <path d="M12.5095024,15.7091971 C4.73865366,24.2111533 0,35.5176642 0,47.9301606 C0,60.3414891 4.73865366,71.6482336 12.5095024,80.1499562 L14.5948098,47.9301606 L12.5095024,15.7091971 Z" id="Fill-3" fill="#496E2D" mask="url(#mask-2)"></path>
            </g>
            <path d="M70.1350244,36.1763504 C72.4947512,29.6163504 69.8442146,22.4812847 64.1560976,18.9283504 C65.1786146,19.0614891 66.2030049,19.3013723 67.2138146,19.6627153 C74.8006244,22.3780438 78.7445854,30.7148613 76.0226341,38.2832117 C73.3006829,45.851562 64.9435317,49.785927 57.356722,47.0705985 C56.3461463,46.7083212 55.4020683,46.2439708 54.5277659,45.6974015 C61.1836098,46.5623358 67.7762341,42.7356496 70.1350244,36.1763504 Z" id="Fill-5" fill="#F3F3F3"></path>
            <polygon id="Fill-6" fill="#F3F3F3" points="57.0502244 17.1298102 54.9998049 19.7731971 51.8470244 18.6445547 53.732839 21.4054307 51.683122 24.0478832 54.8981854 23.1126423 56.7842341 25.8735182 56.8856195 22.534073 60.1006829 21.5978978 56.948839 20.4701898"></polygon>
            <polygon id="Fill-7" fill="#F3F3F3" points="62.585678 25.7403796 60.5350244 28.3825985 57.3822439 27.2539562 59.2682927 30.0157664 57.2185756 32.658219 60.433639 31.7220438 62.3194537 34.483854 62.4210732 31.1444088 65.636839 30.2084672 62.4840585 29.0798248"></polygon>
            <polygon id="Fill-8" fill="#F3F3F3" points="47.2903024 20.2658102 45.2396488 22.9082628 42.0868683 21.7805547 43.9729171 24.5414307 41.9232 27.1836496 45.1380293 26.2486423 47.024078 29.0095182 47.1256976 25.670073 50.3405268 24.7338978 47.1886829 23.6061898"></polygon>
            <polygon id="Fill-9" fill="#F3F3F3" points="47.0652878 30.1290511 45.0155707 32.7712701 41.8627902 31.6426277 43.748839 34.4046715 41.6981854 37.0468905 44.9139512 36.1116496 46.7990634 38.8725255 46.9006829 35.5333139 50.1164488 34.5971387 46.9636683 33.4684964"></polygon>
            <polygon id="Fill-10" fill="#F3F3F3" points="56.4732878 33.4967591 54.4235707 36.1389781 51.2707902 35.0103358 53.1566049 37.7714453 51.1061854 40.4136642 54.3219512 39.4784234 56.208 42.2392993 56.3093854 38.9000876 59.5244488 37.9648467 56.3716683 36.8362044"></polygon>
            <path d="M12.5095024,15.7091971 L12.5095024,80.1499562 C19.0426537,87.2978686 27.7217561,92.460146 37.5282732,94.6289051 L37.5282732,1.23024818 C27.7217561,3.3990073 19.0435902,8.56151825 12.5095024,15.7091971 Z" id="Fill-11" fill="#D80027"></path>
            <polygon id="Fill-12" fill="#F3F3F3" points="22.0572878 25.2795328 17.8681756 22.1664234 17.8681756 17.7649051 22.0572878 14.6527299 27.9804878 14.6527299 32.1696 17.7649051 32.1696 22.1664234 27.9804878 25.2795328"></polygon>
            <polygon id="Fill-13" fill="#FF9811" points="25.0190049 14.6527299 22.0572878 14.6527299 17.8681756 17.7649051 17.8681756 19.9173139 25.0190049 19.9173139"></polygon>
            <polygon id="Fill-14" fill="#FF9811" points="25.0190049 25.2795328 27.9804878 25.2795328 32.1696 22.1664234 32.1696 19.9210511 25.0190049 19.9210511"></polygon>
            <polygon id="Fill-15" fill="#F3F3F3" points="22.0572878 81.2075912 17.8681756 78.0942482 17.8681756 73.6929635 22.0572878 70.579854 27.9804878 70.579854 32.1696 73.6929635 32.1696 78.0942482 27.9804878 81.2075912"></polygon>
            <polygon id="Fill-16" fill="#FF9811" points="25.0190049 70.579854 22.0572878 70.579854 17.8681756 73.6929635 17.8681756 75.844438 25.0190049 75.844438"></polygon>
            <polygon id="Fill-17" fill="#FF9811" points="25.0190049 81.2075912 27.9804878 81.2075912 32.1696 78.0942482 32.1696 75.8488759 25.0190049 75.8488759"></polygon>
            <polygon id="Fill-18" fill="#496E2D" points="22.0572878 53.2430949 17.8681756 50.1309197 17.8681756 45.7284672 22.0572878 42.616292 27.9804878 42.616292 32.1696 45.7284672 32.1696 50.1309197 27.9804878 53.2430949"></polygon>
            <polygon id="Fill-19" fill="#496E2D" points="32.3159415 60.091562 30.4921756 60.091562 30.4921756 58.2722336 27.2853073 58.2722336 25.0190049 56.0105109 22.7524683 58.2722336 19.5458341 58.2722336 19.5458341 60.091562 17.7220683 60.091562 17.7220683 63.7311533 19.5458341 63.7311533 19.5458341 65.5514161 22.7515317 65.5514161 25.0190049 67.8133723 27.2853073 65.5514161 30.4921756 65.5514161 30.4921756 63.7311533 32.3159415 63.7311533"></polygon>
            <polygon id="Fill-20" fill="#496E2D" points="32.3159415 32.128 30.4921756 32.128 30.4921756 30.3077372 27.2853073 30.3077372 25.0190049 28.0460146 22.7524683 30.3077372 19.5458341 30.3077372 19.5458341 32.128 17.7220683 32.128 17.7220683 35.7675912 19.5458341 35.7675912 19.5458341 37.5871533 22.7515317 37.5871533 25.0190049 39.8488759 27.2853073 37.5871533 30.4921756 37.5871533 30.4921756 35.7675912 32.3159415 35.7675912"></polygon>
            <polygon id="Fill-21" fill="#D80027" points="22.9334634 50.0096934 27.1033756 50.0096934 27.1033756 45.849927 22.9334634 45.849927"></polygon>
            <path d="M27.1033756,33.9466277 C27.1033756,35.0953577 26.1705366,36.0268613 25.0190049,36.0268613 C23.8674732,36.0268613 22.9334634,35.0953577 22.9334634,33.9466277 C22.9334634,32.7988321 23.8674732,31.8670949 25.0190049,31.8670949 C26.1705366,31.8670949 27.1033756,32.7988321 27.1033756,33.9466277 Z" id="Fill-22" fill="#D80027"></path>
            <path d="M27.1033756,61.9127591 C27.1033756,63.0605547 26.1705366,63.9920584 25.0190049,63.9920584 C23.8674732,63.9920584 22.9334634,63.0605547 22.9334634,61.9127591 C22.9334634,60.7640292 23.8674732,59.8325255 25.0190049,59.8325255 C26.1705366,59.8325255 27.1033756,60.7640292 27.1033756,61.9127591 Z" id="Fill-23" fill="#D80027"></path>
        </g>
    </g>
</svg>