<?xml version="1.0" encoding="UTF-8"?>
<svg width="96px" height="96px" viewBox="0 0 96 96" version="1.1" xmlns="http://www.w3.org/2000/svg" xmlns:xlink="http://www.w3.org/1999/xlink">
    <title>uganda</title>
    <desc>designed by Freepik from Flaticon</desc>
    <defs>
        <polygon id="path-1" points="0.0140487805 0.0934306569 0.0140487805 83.2868905 95.9068098 83.2868905 95.9068098 0.0934306569"></polygon>
    </defs>
    <g id="Page-1" stroke="none" stroke-width="1" fill="none" fill-rule="evenodd">
        <g id="uganda">
            <g id="Group-6">
                <mask id="mask-2" fill="white">
                    <use xlink:href="#path-1"></use>
                </mask>
                <g id="Clip-2"></g>
                <path d="M83.6918634,79.8206131 C91.2859317,71.3571971 95.9068098,60.1828905 95.9068098,47.9301606 C95.9068098,35.6774307 91.2859317,24.5021898 83.6918634,16.0387737 L47.9534049,12.5724964 L12.2149463,16.0387737 C4.61970732,24.5021898 0,35.6774307 0,47.9301606 C0,60.1828905 4.61970732,71.3571971 12.2140098,79.8206131 L47.9534049,83.2868905 L83.6918634,79.8206131 Z" id="Fill-1" fill="#FFDA44" mask="url(#mask-2)"></path>
                <path d="M12.2149463,16.0387737 L83.6918634,16.0387737 C74.9113756,6.25308029 62.1539122,0.0934306569 47.9534049,0.0934306569 C33.7517268,0.0934306569 20.9944976,6.25308029 12.2149463,16.0387737 Z" id="Fill-3" fill="#000000" mask="url(#mask-2)"></path>
                <path d="M0,47.9301606 L47.9534049,52.0896934 L95.9068098,47.9301606 C95.9068098,42.3378686 94.9416585,36.972146 93.1738537,31.9838832 L2.7329561,31.9838832 C0.964917073,36.972146 0,42.3378686 0,47.9301606 Z" id="Fill-4" fill="#D80027" mask="url(#mask-2)"></path>
                <path d="M2.7329561,63.8752701 L93.1738537,63.8752701 C94.9416585,58.8872409 95.9068098,53.5212847 95.9068098,47.9301606 L0,47.9301606 C0,53.5212847 0.964917073,58.8872409 2.7329561,63.8752701 Z" id="Fill-5" fill="#000000" mask="url(#mask-2)"></path>
            </g>
            <path d="M83.6918634,79.8206131 L12.2140098,79.8206131 C20.9944976,89.6063066 33.7517268,95.7668905 47.9534049,95.7668905 C62.1548488,95.7668905 74.9113756,89.6063066 83.6918634,79.8206131 Z" id="Fill-7" fill="#D80027"></path>
            <path d="M63.9549659,47.9301606 C63.9549659,56.7467445 56.7914927,63.8927883 47.9534049,63.8927883 C39.1153171,63.8927883 31.9518439,56.7467445 31.9518439,47.9301606 C31.9518439,39.1135766 39.1153171,31.9675328 47.9534049,31.9675328 C56.7914927,31.9675328 63.9549659,39.1135766 63.9549659,47.9301606 Z" id="Fill-8" fill="#F3F3F3"></path>
            <path d="M53.8152585,48.7439416 L47.9534049,46.2101022 C47.9534049,46.2101022 49.3243317,41.6682044 49.3976195,41.3580146 C49.4514732,41.1307445 49.4798049,40.8936642 49.4798049,40.6509781 C49.4798049,39.7886131 49.129522,39.0094015 48.5633561,38.4446131 L50.0377756,36.9740146 C49.0948683,36.0331679 47.7913756,35.4510949 46.3518439,35.4510949 C44.912078,35.4510949 43.6097561,36.0331679 42.6668488,36.9740146 L44.1403317,38.4446131 C43.5741659,39.0094015 43.2245854,39.7895474 43.2245854,40.6509781 C43.2245854,40.9656058 43.2723512,41.2694891 43.3592195,41.5560876 L41.1402146,43.7703942 L45.1738537,43.7703942 C45.1738537,43.7703942 43.5064976,46.2694307 42.5954341,48.321635 C41.6853073,50.3736058 42.6083122,52.8789489 44.7128195,53.8123212 L45.9292098,54.3516496 L47.9534049,56.2494599 L47.9534049,58.3287591 L45.8680976,60.4092263 L50.0377756,60.4092263 L50.0377756,56.2494599 L51.9411512,54.3516496 L55.8759805,54.3516496 C55.8951805,54.3124088 55.9143805,54.2741022 55.9326439,54.233927 C56.8673561,52.1354745 55.9197659,49.6763796 53.8152585,48.7439416 Z" id="Fill-9" fill="#000000"></path>
        </g>
    </g>
</svg>