<?xml version="1.0" encoding="UTF-8"?>
<svg width="96px" height="96px" viewBox="0 0 96 96" version="1.1" xmlns="http://www.w3.org/2000/svg" xmlns:xlink="http://www.w3.org/1999/xlink">
    <title>united-kingdom</title>
    <desc>designed by Freepik from Flaticon</desc>
    <defs>
        <polygon id="path-1" points="0.0140487805 0.0934306569 0.0140487805 95.7668905 95.9068098 95.7668905 95.9068098 0.0934306569"></polygon>
        <polygon id="path-3" points="0.0140487805 0.0934306569 0.0140487805 95.7668905 95.9068098 95.7668905 95.9068098 0.0934306569"></polygon>
    </defs>
    <g id="Page-1" stroke="none" stroke-width="1" fill="none" fill-rule="evenodd">
        <g id="united-kingdom">
            <g id="Group-3">
                <mask id="mask-2" fill="white">
                    <use xlink:href="#path-1"></use>
                </mask>
                <g id="Clip-2"></g>
                <path d="M95.9068098,47.9301606 C95.9068098,74.3488467 74.4365268,95.7668905 47.9534049,95.7668905 C21.4691122,95.7668905 0,74.3488467 0,47.9301606 C0,21.5103066 21.4691122,0.0934306569 47.9534049,0.0934306569 C74.4365268,0.0934306569 95.9068098,21.5103066 95.9068098,47.9301606 Z" id="Fill-1" fill="#F3F3F3" mask="url(#mask-2)"></path>
            </g>
            <path d="M9.91281951,18.8059562 C6.14634146,23.6947153 3.3054439,29.3297518 1.65190244,35.4510949 L26.5985561,35.4510949 L9.91281951,18.8059562 Z" id="Fill-4" fill="#0052B4"></path>
            <path d="M94.2539707,35.4510949 C92.6001951,29.3297518 89.7604683,23.6947153 85.9939902,18.8059562 L69.3082537,35.4510949 L94.2539707,35.4510949 Z" id="Fill-5" fill="#0052B4"></path>
            <path d="M1.65190244,60.4092263 C3.30638049,66.5305693 6.14634146,72.1656058 9.91281951,77.0541314 L26.5976195,60.4092263 L1.65190244,60.4092263 Z" id="Fill-6" fill="#0052B4"></path>
            <path d="M77.1484098,9.98213139 C72.2470244,6.22481752 66.5991805,3.39176642 60.4629073,1.74131387 L60.4629073,26.6272701 L77.1484098,9.98213139 Z" id="Fill-7" fill="#0052B4"></path>
            <path d="M18.7581659,85.8772555 C23.6588488,89.6355036 29.3076293,92.4683212 35.4439024,94.118073 L35.4439024,69.2330511 L18.7581659,85.8772555 Z" id="Fill-8" fill="#0052B4"></path>
            <path d="M35.4439024,1.74131387 C29.3076293,3.39176642 23.6588488,6.22481752 18.7581659,9.98213139 L35.4439024,26.6272701 L35.4439024,1.74131387 Z" id="Fill-9" fill="#0052B4"></path>
            <path d="M60.4629073,94.118073 C66.5991805,92.4683212 72.247961,89.6355036 77.1484098,85.8781898 L60.4629073,69.2330511 L60.4629073,94.118073 Z" id="Fill-10" fill="#0052B4"></path>
            <g id="Group-14">
                <mask id="mask-4" fill="white">
                    <use xlink:href="#path-3"></use>
                </mask>
                <g id="Clip-12"></g>
                <path d="M69.3082537,60.4092263 L85.9939902,77.0541314 C89.7604683,72.1656058 92.6001951,66.5305693 94.2539707,60.4092263 L69.3082537,60.4092263 Z" id="Fill-11" fill="#0052B4" mask="url(#mask-4)"></path>
                <path d="M95.5005659,41.6901606 L54.2076878,41.6901606 L54.2076878,0.498452555 C52.1607805,0.232175182 50.0733659,0.0934306569 47.9534049,0.0934306569 C45.8332098,0.0934306569 43.7460293,0.232175182 41.6981854,0.498452555 L41.6981854,41.6901606 L0.406009756,41.6901606 C0.139082927,43.7330219 0,45.8151241 0,47.9301606 C0,50.0449635 0.139082927,52.1272993 0.406009756,54.1692263 L41.6981854,54.1692263 L41.6981854,95.361635 C43.7460293,95.6272117 45.8332098,95.7668905 47.9534049,95.7668905 C50.0733659,95.7668905 52.1607805,95.6272117 54.2076878,95.361635 L54.2076878,54.1692263 L95.5005659,54.1692263 C95.7667902,52.1272993 95.9068098,50.0449635 95.9068098,47.9301606 C95.9068098,45.8151241 95.7667902,43.7330219 95.5005659,41.6901606 Z" id="Fill-13" fill="#D80027" mask="url(#mask-4)"></path>
            </g>
            <path d="M60.4629073,60.4092263 L81.8606049,81.7557956 C82.8456585,80.774073 83.7841171,79.748438 84.6794927,78.6847299 L66.3594146,60.4092263 L60.4629073,60.4092263 Z" id="Fill-15" fill="#D80027"></path>
            <path d="M35.4439024,60.4092263 L35.4429659,60.4092263 L14.0450341,81.7548613 C15.0293854,82.7375182 16.0572878,83.6736934 17.1238244,84.5668905 L35.4439024,66.2913869 L35.4439024,60.4092263 Z" id="Fill-16" fill="#D80027"></path>
            <path d="M35.4439024,35.4510949 L14.0450341,14.104292 C13.0609171,15.0860146 12.1224585,16.1116496 11.2261463,17.1755912 L29.5464585,35.4510949 L35.4439024,35.4510949 Z" id="Fill-17" fill="#D80027"></path>
            <path d="M60.4629073,35.4510949 L81.8615415,14.104292 C80.8774244,13.1225693 79.8492878,12.1863942 78.7829854,11.2922628 L60.4629073,29.5687007 L60.4629073,35.4510949 Z" id="Fill-18" fill="#D80027"></path>
        </g>
    </g>
</svg>