<?xml version="1.0" encoding="UTF-8"?>
<svg width="96px" height="96px" viewBox="0 0 96 96" version="1.1" xmlns="http://www.w3.org/2000/svg" xmlns:xlink="http://www.w3.org/1999/xlink">
    <title>united-nations</title>
    <desc>designed by Freepik from Flaticon</desc>
    <defs>
        <polygon id="path-1" points="0.0140487805 0.0934306569 0.0140487805 95.7668905 95.9068098 95.7668905 95.9068098 0.0934306569"></polygon>
    </defs>
    <g id="Page-1" stroke="none" stroke-width="1" fill="none" fill-rule="evenodd">
        <g id="united-nations">
            <g id="Group-3">
                <mask id="mask-2" fill="white">
                    <use xlink:href="#path-1"></use>
                </mask>
                <g id="Clip-2"></g>
                <path d="M95.9068098,47.9301606 C95.9068098,74.3488467 74.4365268,95.7668905 47.9534049,95.7668905 C21.4691122,95.7668905 0,74.3488467 0,47.9301606 C0,21.5103066 21.4691122,0.0934306569 47.9534049,0.0934306569 C74.4365268,0.0934306569 95.9068098,21.5103066 95.9068098,47.9301606 Z" id="Fill-1" fill="#338AF3" mask="url(#mask-2)"></path>
            </g>
            <path d="M47.814322,31.2913285 C38.6020683,31.2913285 31.1351415,38.7403212 31.1351415,47.9301606 C31.1351415,57.1190657 38.6030049,64.5687591 47.814322,64.5687591 C57.025639,64.5687591 64.4935024,57.1190657 64.4935024,47.9301606 C64.4935024,38.7403212 57.025639,31.2913285 47.814322,31.2913285 Z M43.6444098,47.9301606 C43.6444098,45.6327007 45.5112585,43.7703942 47.814322,43.7703942 C50.1173854,43.7703942 51.9842341,45.6327007 51.9842341,47.9301606 C51.9842341,50.2276204 50.1173854,52.0896934 47.814322,52.0896934 C45.5112585,52.0896934 43.6444098,50.2276204 43.6444098,47.9301606 Z M52.1378341,40.8142482 C51.4901854,40.4218394 50.7851707,40.1179562 50.0377756,39.9119416 L50.0377756,35.6517372 C51.9191415,35.9885547 53.6534634,36.7430073 55.1414634,37.817927 L52.1378341,40.8142482 Z M45.8688,39.8407007 C45.0860488,40.0277956 44.3468488,40.3242044 43.6673561,40.7128759 L40.6499122,37.7030073 C42.1756098,36.6371971 43.9490341,35.9009635 45.8688,35.6017518 L45.8688,39.8407007 Z M43.6673561,55.1462774 C44.3468488,55.5358832 45.0860488,55.8325255 45.8680976,56.0186861 L45.8680976,60.257635 C43.9490341,59.9584234 42.1756098,59.2221898 40.6499122,58.1563796 L43.6673561,55.1462774 Z M50.0387122,55.9483796 C50.7851707,55.7421314 51.491122,55.4373139 52.1378341,55.046073 L55.1414634,58.0423942 C53.6534634,59.1170803 51.9191415,59.8717664 50.0377756,60.2083504 L50.0377756,55.9483796 L50.0387122,55.9483796 Z M55.0489756,52.0670365 C55.4158829,51.4291387 55.7029463,50.7393869 55.8914341,50.0094599 L60.147278,50.0094599 C59.8344585,51.8717664 59.1090732,53.5925255 58.0664195,55.0769051 L55.0489756,52.0670365 Z M55.8914341,45.849927 C55.7029463,45.1207007 55.4158829,44.4309489 55.0489756,43.7932847 L58.0664195,40.7831825 C59.1081366,42.2677956 59.8344585,43.9885547 60.147278,45.849927 L55.8914341,45.849927 Z M37.6774244,40.6208467 L40.6810537,43.6171679 C40.264039,44.3031825 39.9430244,45.0531971 39.7372098,45.849927 L35.4813659,45.849927 C35.8061268,43.9210511 36.5734244,42.1418978 37.6774244,40.6208467 Z M35.4813659,50.0094599 L39.7372098,50.0094599 C39.9430244,50.8059562 40.264039,51.5569051 40.6810537,52.2431533 L37.6774244,55.2394745 C36.5734244,53.7174891 35.8061268,51.9392701 35.4813659,50.0094599 Z" id="Fill-4" fill="#F3F3F3"></path>
            <path d="M74.9186341,47.9301606 C74.9186341,40.5341898 71.9405268,33.8324088 67.116878,28.9511241 L62.6945561,33.3633869 C66.3858732,37.1153285 68.6634146,42.2568175 68.6634146,47.9301606 C68.6634146,59.4165255 59.329639,68.7285255 47.814322,68.7285255 C36.2999415,68.7285255 26.9652293,59.4165255 26.9652293,47.9301606 C26.9652293,42.1865109 29.2984976,36.9866277 33.0722341,33.2230073 L28.6489756,28.8114453 C23.7438439,33.7039416 20.7109463,40.4638832 20.7109463,47.9301606 C20.7109463,60.3031825 29.0423415,70.7349489 40.4141268,73.9473285 C39.1672976,76.3106569 39.356722,79.2850219 41.1383415,81.5021314 C43.4772293,79.6316496 45.8990049,77.6955328 47.9534049,76.0532555 C50.0075707,77.6955328 52.4305171,79.6316496 54.7691707,81.5021314 C56.5674146,79.2630657 56.7448976,76.2503942 55.4561561,73.8763212 C66.7043122,70.5852263 74.9186341,60.2148905 74.9186341,47.9301606 Z" id="Fill-5" fill="#F3F3F3"></path>
        </g>
    </g>
</svg>