<?xml version="1.0" encoding="UTF-8"?>
<svg width="96px" height="96px" viewBox="0 0 96 96" version="1.1" xmlns="http://www.w3.org/2000/svg" xmlns:xlink="http://www.w3.org/1999/xlink">
    <title>united-arab-emirates</title>
    <desc>designed by Freepik from Flaticon</desc>
    <defs>
        <polygon id="path-1" points="0.0140487805 0.0934306569 0.0140487805 95.7668905 95.9068098 95.7668905 95.9068098 0.0934306569"></polygon>
        <polygon id="path-3" points="0.0140487805 0.0934306569 0.0140487805 92.7913577 92.9230829 92.7913577 92.9230829 0.0934306569"></polygon>
    </defs>
    <g id="Page-1" stroke="none" stroke-width="1" fill="none" fill-rule="evenodd">
        <g id="united-arab-emirates">
            <g id="Group-3">
                <mask id="mask-2" fill="white">
                    <use xlink:href="#path-1"></use>
                </mask>
                <g id="Clip-2"></g>
                <path d="M95.9068098,47.9301606 C95.9068098,74.3488467 74.4365268,95.7668905 47.9534049,95.7668905 C21.4691122,95.7668905 0,74.3488467 0,47.9301606 C0,21.5103066 21.4691122,0.0934306569 47.9534049,0.0934306569 C74.4365268,0.0934306569 95.9068098,21.5103066 95.9068098,47.9301606 Z" id="Fill-1" fill="#F3F3F3" mask="url(#mask-2)"></path>
            </g>
            <path d="M27.1043122,64.5687591 L31.2739902,92.7913577 C36.4682927,94.7148613 42.0878049,95.7668905 47.9534049,95.7668905 C68.5709268,95.7668905 86.1485268,82.7849343 92.9230829,64.5687591 L27.1043122,64.5687591 Z" id="Fill-4" fill="#000000"></path>
            <g id="Group-8">
                <mask id="mask-4" fill="white">
                    <use xlink:href="#path-3"></use>
                </mask>
                <g id="Clip-6"></g>
                <path d="M27.1043122,31.2913285 L31.2739902,3.06872993 C36.4682927,1.14545985 42.0878049,0.0934306569 47.9534049,0.0934306569 C68.5709268,0.0934306569 86.1485268,13.0751533 92.9230829,31.2913285 L27.1043122,31.2913285 Z" id="Fill-5" fill="#6DA544" mask="url(#mask-4)"></path>
                <path d="M0,47.9301606 C0,68.4975182 13.0133854,86.0323504 31.2739902,92.7913577 L31.2739902,3.06872993 C13.0133854,9.8279708 0,27.361635 0,47.9301606 Z" id="Fill-7" fill="#A2001D" mask="url(#mask-4)"></path>
            </g>
        </g>
    </g>
</svg>