<?xml version="1.0" encoding="UTF-8"?>
<svg width="96px" height="96px" viewBox="0 0 96 96" version="1.1" xmlns="http://www.w3.org/2000/svg" xmlns:xlink="http://www.w3.org/1999/xlink">
    <title>uruguay</title>
    <desc>designed by Freepik from Flaticon</desc>
    <defs>
        <polygon id="path-1" points="0.0140487805 0.0934306569 0.0140487805 95.7668905 95.9068098 95.7668905 95.9068098 0.0934306569"></polygon>
        <polygon id="path-3" points="0.0140487805 0.0805839416 0.0140487805 37.5187153 95.9068098 37.5187153 95.9068098 0.0805839416 0.0140487805 0.0805839416"></polygon>
    </defs>
    <g id="Page-1" stroke="none" stroke-width="1" fill="none" fill-rule="evenodd">
        <g id="uruguay">
            <g id="Group-3">
                <mask id="mask-2" fill="white">
                    <use xlink:href="#path-1"></use>
                </mask>
                <g id="Clip-2"></g>
                <path d="M95.9068098,47.9301606 C95.9068098,74.3488467 74.4365268,95.7668905 47.9534049,95.7668905 C21.4691122,95.7668905 0,74.3488467 0,47.9301606 C0,21.5103066 21.4691122,0.0934306569 47.9534049,0.0934306569 C74.4365268,0.0934306569 95.9068098,21.5103066 95.9068098,47.9301606 Z" id="Fill-1" fill="#F3F3F3" mask="url(#mask-2)"></path>
            </g>
            <path d="M47.9534049,35.4510949 L94.2539707,35.4510949 C93.0520976,31.0012263 91.2245854,26.8078248 88.8676683,22.9710949 L47.9534049,22.9710949 L47.9534049,35.4510949 Z" id="Fill-4" fill="#338AF3"></path>
            <path d="M18.102322,85.3671241 L77.8033171,85.3671241 C82.1799805,81.8898686 85.9326439,77.6663358 88.8676683,72.8880584 L7.03820488,72.8880584 C9.97416585,77.6663358 13.7268293,81.8898686 18.102322,85.3671241 Z" id="Fill-5" fill="#338AF3"></path>
            <path d="M47.9534049,0.0934306569 L47.9534049,10.4929635 L77.8033171,10.4929635 C69.6119415,3.98481752 59.2390244,0.0934306569 47.9534049,0.0934306569 Z" id="Fill-6" fill="#338AF3"></path>
            <g id="Group-10" transform="translate(0.000000, 22.890511)">
                <mask id="mask-4" fill="white">
                    <use xlink:href="#path-3"></use>
                </mask>
                <g id="Clip-8"></g>
                <path d="M47.9534049,12.5605839 L94.2539707,12.5605839 C93.0520976,8.11071533 91.2245854,3.91731387 88.8676683,0.0805839416 L47.9534049,0.0805839416 L47.9534049,12.5605839 Z" id="Fill-7" fill="#338AF3" mask="url(#mask-4)"></path>
                <path d="M0,25.0396496 C0,29.3570803 0.577170732,33.5395036 1.65190244,37.5187153 L94.2549073,37.5187153 C95.329639,33.5395036 95.9068098,29.3570803 95.9068098,25.0396496 L0,25.0396496 Z" id="Fill-9" fill="#338AF3" mask="url(#mask-4)"></path>
            </g>
            <polygon id="Fill-11" fill="#FFDA44" points="41.6981854 28.0887591 35.8417171 30.8370219 38.9607805 36.4958832 32.6011317 35.282219 31.7954341 41.6901606 27.3658537 36.9765839 22.9362732 41.6901606 22.1305756 35.282219 15.7709268 36.4949489 18.8899902 30.8370219 13.033522 28.0887591 18.8899902 25.3416642 15.7709268 19.6828029 22.1305756 20.8962336 22.9362732 14.4885255 27.3658537 19.2021022 31.7954341 14.4885255 32.6011317 20.8962336 38.9607805 19.6828029 35.8417171 25.3416642"></polygon>
        </g>
    </g>
</svg>