<?xml version="1.0" encoding="UTF-8"?>
<svg width="96px" height="96px" viewBox="0 0 96 96" version="1.1" xmlns="http://www.w3.org/2000/svg" xmlns:xlink="http://www.w3.org/1999/xlink">
    <title>vatican-city</title>
    <desc>designed by Freepik from Flaticon</desc>
    <defs>
        <polygon id="path-1" points="0.0140487805 0.0934306569 0.0140487805 95.7668905 95.9068098 95.7668905 95.9068098 0.0934306569"></polygon>
    </defs>
    <g id="Page-1" stroke="none" stroke-width="1" fill="none" fill-rule="evenodd">
        <g id="vatican-city">
            <g id="Group-4">
                <mask id="mask-2" fill="white">
                    <use xlink:href="#path-1"></use>
                </mask>
                <g id="Clip-2"></g>
                <path d="M47.9534049,0.0934306569 C74.4365268,0.0934306569 95.9068098,21.5103066 95.9068098,47.9301606 C95.9068098,74.3488467 74.4365268,95.7668905 47.9534049,95.7668905 C47.9534049,93.6864234 41.6981854,47.9301606 41.6981854,47.9301606 L47.9534049,0.0934306569 Z" id="Fill-1" fill="#F3F3F3" mask="url(#mask-2)"></path>
                <path d="M47.9534049,95.7668905 C21.4691122,95.7668905 0,74.3488467 0,47.9301606 C0,21.5103066 21.4691122,0.0934306569 47.9534049,0.0934306569" id="Fill-3" fill="#FFDA44" mask="url(#mask-2)"></path>
            </g>
            <path d="M66.3156293,41.7193577 L75.3274537,53.6126131 C73.9078244,55.7575474 73.9153171,58.6473577 75.5578537,60.8142482 C77.6405854,63.5632117 81.5634732,64.1072117 84.3191415,62.0286131 C87.0750439,59.9511825 87.6201366,56.0378394 85.5364683,53.2886423 C83.8948683,51.1217518 81.1096976,50.3268905 78.6539707,51.1044672 L64.6089366,32.5687591 L61.2824195,35.0778394 L56.2920585,38.8398248 L61.3217561,45.4766715 L66.3156293,41.7193577 Z M79.289678,55.3917664 C80.2089366,54.6992117 81.5159415,54.8809343 82.2108878,55.7967883 C82.9051317,56.7128759 82.7232,58.017635 81.804878,58.7111241 C80.8865561,59.4027445 79.5786146,59.2221898 78.8843707,58.3061022 C78.1894244,57.3890803 78.3713561,56.0843212 79.289678,55.3917664 Z" id="Fill-5" fill="#ACABB1"></path>
            <path d="M81.7728,45.4757372 L86.8024976,38.8398248 L78.4865561,32.5687591 L64.441522,51.1044672 C61.985561,50.3261898 59.2006244,51.1217518 57.5587902,53.2886423 C55.4753561,56.0378394 56.0204488,59.9502482 58.7761171,62.0286131 C61.5320195,64.1062774 65.4539707,63.5625109 67.5374049,60.8133139 C69.179239,58.6464234 69.1864976,55.7568467 67.7671024,53.6116788 L76.7789268,41.7193577 L81.7728,45.4757372 Z M64.2108878,58.3051679 C63.516878,59.2221898 62.2098732,59.4027445 61.2906146,58.7101898 C60.3722927,58.017635 60.1901268,56.7128759 60.8843707,55.7967883 C61.5786146,54.8809343 62.8865561,54.6992117 63.8058146,55.3917664 C64.7241366,56.0843212 64.9051317,57.3890803 64.2108878,58.3051679 Z" id="Fill-6" fill="#FFDA44"></path>
        </g>
    </g>
</svg>