<?xml version="1.0" encoding="UTF-8"?>
<svg width="96px" height="96px" viewBox="0 0 96 96" version="1.1" xmlns="http://www.w3.org/2000/svg" xmlns:xlink="http://www.w3.org/1999/xlink">
    <title>venezuela</title>
    <desc>designed by Freepik from Flaticon</desc>
    <defs>
        <polygon id="path-1" points="0.0140487805 0.0815182482 0.0140487805 49.9975474 95.9068098 49.9975474 95.9068098 0.0815182482 0.0140487805 0.0815182482"></polygon>
    </defs>
    <g id="Page-1" stroke="none" stroke-width="1" fill="none" fill-rule="evenodd">
        <g id="venezuela">
            <g id="Group-3" transform="translate(0.000000, 22.890511)">
                <mask id="mask-2" fill="white">
                    <use xlink:href="#path-1"></use>
                </mask>
                <g id="Clip-2"></g>
                <path d="M91.1477854,45.8380146 C94.1963707,39.5487299 95.9068098,32.4930803 95.9068098,25.0396496 C95.9068098,17.5852847 94.1963707,10.529635 91.1477854,4.24128467 L47.9534049,0.0815182482 L4.75785366,4.24128467 C1.70950244,10.529635 0,17.5852847 0,25.0396496 C0,32.4930803 1.70950244,39.5487299 4.75785366,45.8380146 L47.9534049,49.9975474 L91.1477854,45.8380146 Z" id="Fill-1" fill="#0052B4" mask="url(#mask-2)"></path>
            </g>
            <path d="M47.9534049,95.7668905 C66.9649171,95.7668905 83.3916878,84.7294599 91.1477854,68.7285255 L4.75785366,68.7285255 C12.5148878,84.7294599 28.9416585,95.7668905 47.9534049,95.7668905 Z" id="Fill-4" fill="#D80027"></path>
            <polygon id="Fill-5" fill="#F3F3F3" points="83.0505366 57.319708 80.5170732 59.2941314 81.6163902 62.3070365 78.952039 60.5141022 76.4185756 62.4885255 77.3048195 59.4064818 74.6395317 57.6126131 77.8517854 57.5011971 78.7380293 54.4191533 79.8385171 57.4318248"></polygon>
            <polygon id="Fill-6" fill="#F3F3F3" points="76.5639805 46.1143358 74.8610341 48.8334015 76.9271415 51.2887591 73.8083122 50.5139854 72.1051317 53.2330511 71.8801171 50.034219 68.7622244 49.2585109 71.7419707 48.0569927 71.5178927 44.8588613 73.5842341 47.3151533"></polygon>
            <polygon id="Fill-7" fill="#F3F3F3" points="66.6275122 37.7959708 65.9597268 40.9329051 68.7430244 42.5359416 65.5464585 42.8718248 64.8786732 46.0075912 63.5707317 43.0787737 60.3741659 43.4137226 62.763161 41.2676204 61.4552195 38.3388029 64.2392195 39.942073"></polygon>
            <polygon id="Fill-8" fill="#F3F3F3" points="54.4380878 33.3708613 54.8862439 36.5458686 58.0519024 37.1024818 55.1625366 38.5095474 55.6097561 41.6845547 53.3771707 39.3779854 50.4878049 40.7831825 51.996878 37.952 49.7642927 35.6454307 52.9299512 36.2020438"></polygon>
            <polygon id="Fill-9" fill="#F3F3F3" points="41.4677854 33.3708613 42.9768585 36.2020438 46.1413463 35.6454307 43.9096976 37.952 45.4180683 40.7831825 42.529639 39.3779854 40.2961171 41.683854 40.7442732 38.5095474 37.8549073 37.1034161 41.0203317 36.5458686"></polygon>
            <polygon id="Fill-10" fill="#F3F3F3" points="29.278361 37.7959708 31.6673561 39.942073 34.4506537 38.3388029 33.1436488 41.2685547 35.5326439 43.4146569 32.336078 43.0787737 31.0281366 46.0075912 30.3603512 42.8718248 27.1637854 42.5368759 29.9468488 40.9329051"></polygon>
            <polygon id="Fill-11" fill="#F3F3F3" points="19.3416585 46.1143358 22.3225756 47.3151533 24.3877463 44.8588613 24.1646049 48.057927 27.1445854 49.2594453 24.025522 50.0349197 23.8014439 53.2330511 22.0984976 50.5139854 18.9796683 51.2896934 21.0457756 48.8334015"></polygon>
            <polygon id="Fill-12" fill="#F3F3F3" points="12.856039 57.319708 16.0692293 57.4318248 17.1676098 54.4191533 18.0547902 57.5011971 21.2670439 57.6135474 18.6017561 59.4064818 19.488 62.4885255 16.9554732 60.5150365 14.2901854 62.3077372 15.3897366 59.2941314"></polygon>
            <path d="M91.1477854,27.1317956 C83.3916878,11.1308613 66.9649171,0.0934306569 47.9534049,0.0934306569 C28.9416585,0.0934306569 12.5148878,11.1308613 4.75785366,27.1317956 L91.1477854,27.1317956 Z" id="Fill-13" fill="#FFDA44"></path>
        </g>
    </g>
</svg>