<?xml version="1.0" encoding="UTF-8"?>
<svg width="96px" height="96px" viewBox="0 0 96 96" version="1.1" xmlns="http://www.w3.org/2000/svg" xmlns:xlink="http://www.w3.org/1999/xlink">
    <title>virgin-islands</title>
    <desc>designed by Freepik from Flaticon</desc>
    <defs>
        <polygon id="path-1" points="0.0140487805 0.0934306569 0.0140487805 95.7668905 95.9068098 95.7668905 95.9068098 0.0934306569"></polygon>
    </defs>
    <g id="Page-1" stroke="none" stroke-width="1" fill="none" fill-rule="evenodd">
        <g id="virgin-islands">
            <g id="Group-3">
                <mask id="mask-2" fill="white">
                    <use xlink:href="#path-1"></use>
                </mask>
                <g id="Clip-2"></g>
                <path d="M95.9068098,47.9301606 C95.9068098,74.3488467 74.4365268,95.7668905 47.9534049,95.7668905 C21.4691122,95.7668905 0,74.3488467 0,47.9301606 C0,21.5103066 21.4691122,0.0934306569 47.9534049,0.0934306569 C74.4365268,0.0934306569 95.9068098,21.5103066 95.9068098,47.9301606 Z" id="Fill-1" fill="#FDFDFD" mask="url(#mask-2)"></path>
            </g>
            <path d="M56.0972488,33.5131095 C56.0972488,29.0258686 52.4515902,25.388146 47.9534049,25.388146 C43.4552195,25.388146 39.8086244,29.0258686 39.8086244,33.5131095 L21.8917463,33.5131095 C21.8917463,37.9300438 25.7497756,41.5121752 30.1774829,41.5121752 L29.9112585,41.5121752 C29.9112585,45.9300438 33.5002537,49.5112409 37.9298341,49.5112409 C37.9298341,53.4236496 40.7461463,56.673635 44.4648585,57.3680584 L44.4437854,57.4145401 L51.4618537,57.4145401 L51.4417171,57.3680584 C55.1606634,56.6727007 57.9767415,53.4227153 57.9767415,49.5112409 C62.4053854,49.5112409 65.9953171,45.9300438 65.9953171,41.5121752 L65.7283902,41.5121752 C70.1570341,41.5121752 74.0148293,37.9300438 74.0148293,33.5131095 L56.0972488,33.5131095 Z" id="Fill-4" fill="#FFDA44"></path>
            <path d="M44.3726049,56.5860438 L39.3227707,67.9593577 C41.9880585,69.0396496 44.9003707,69.6399416 47.9534049,69.6399416 C51.006439,69.6399416 53.9185171,69.0396496 56.5828683,67.9593577 L51.5342049,56.5860438 L44.3726049,56.5860438 Z" id="Fill-5" fill="#FFDA44"></path>
            <path d="M37.5282732,37.5077372 L37.5282732,51.5022482 C37.5282732,59.462073 47.9534049,61.901781 47.9534049,61.901781 C47.9534049,61.901781 58.3773659,59.462073 58.3773659,51.5022482 L58.3773659,37.5077372 L37.5282732,37.5077372 Z" id="Fill-6" fill="#F3F3F3"></path>
            <polygon id="Fill-7" fill="#338AF3" points="11.6286439 48.2667445 17.2664195 63.9976642 22.8456585 48.2667445 27.1043122 48.2667445 18.9696 69.0651095 15.5634732 69.0651095 7.37022439 48.2667445"></polygon>
            <polygon id="Fill-8" fill="#338AF3" points="77.1420878 69.0651095 81.1939902 69.0651095 81.1939902 48.2667445 77.1420878 48.2667445"></polygon>
            <path d="M41.6981854,42.0267445 L41.6981854,58.9858102 C43.1313951,60.0378394 44.6734829,60.7612263 45.8680976,61.2248759 L45.8680976,42.0267445 L41.6981854,42.0267445 Z" id="Fill-9" fill="#D80027"></path>
            <path d="M54.2076878,42.0267445 L54.2076878,58.9858102 C52.774478,60.0378394 51.2323902,60.7612263 50.0377756,61.2248759 L50.0377756,42.0267445 L54.2076878,42.0267445 Z" id="Fill-10" fill="#D80027"></path>
            <polygon id="Fill-11" fill="#0052B4" points="37.5282732 44.1072117 58.3773659 44.1072117 58.3773659 37.5077372 37.5282732 37.5077372"></polygon>
        </g>
    </g>
</svg>