<?xml version="1.0" encoding="UTF-8"?>
<svg width="96px" height="96px" viewBox="0 0 96 96" version="1.1" xmlns="http://www.w3.org/2000/svg" xmlns:xlink="http://www.w3.org/1999/xlink">
    <title>zambia</title>
    <desc>designed by Freepik from Flaticon</desc>
    <defs>
        <polygon id="path-1" points="0.0140487805 0.0934306569 0.0140487805 95.7668905 95.9068098 95.7668905 95.9068098 0.0934306569"></polygon>
    </defs>
    <g id="Page-1" stroke="none" stroke-width="1" fill="none" fill-rule="evenodd">
        <g id="zambia">
            <g id="Group-3">
                <mask id="mask-2" fill="white">
                    <use xlink:href="#path-1"></use>
                </mask>
                <g id="Clip-2"></g>
                <path d="M95.9068098,47.9301606 C95.9068098,74.3488467 74.4365268,95.7668905 47.9534049,95.7668905 C21.4691122,95.7668905 0,74.3488467 0,47.9301606 C0,21.5103066 21.4691122,0.0934306569 47.9534049,0.0934306569 C74.4365268,0.0934306569 95.9068098,21.5103066 95.9068098,47.9301606 Z" id="Fill-1" fill="#496E2D" mask="url(#mask-2)"></path>
            </g>
            <path d="M66.7171902,47.9301606 L47.9534049,47.9301606 L47.9534049,95.7668905 C53.5581659,95.7668905 58.9372098,94.8040876 63.9374049,93.0405839 L66.7171902,47.9301606 Z" id="Fill-4" fill="#D80027"></path>
            <path d="M79.921639,83.5816642 C89.7312,74.8225401 95.9068098,62.0961168 95.9068098,47.9301606 L77.1420878,47.9301606 L79.921639,83.5816642 Z" id="Fill-5" fill="#FF9811"></path>
            <path d="M63.9374049,47.9301606 L63.9374049,93.0405839 C69.8936195,90.9400292 75.3101268,87.7000876 79.921639,83.5816642 L79.921639,47.9301606 L63.9374049,47.9301606 Z" id="Fill-6" fill="#000000"></path>
            <path d="M88.6089366,31.2913285 L76.0994341,31.2913285 C76.0994341,28.9938686 74.2325854,27.1317956 71.929522,27.1317956 C69.6264585,27.1317956 67.7598439,28.9938686 67.7598439,31.2913285 L55.2503415,31.2913285 C55.2503415,33.5887883 57.256039,35.4510949 59.5591024,35.4510949 L59.4200195,35.4510949 C59.4200195,37.7485547 61.2868683,39.6108613 63.5899317,39.6108613 C63.5899317,41.9083212 65.4567805,43.7703942 67.7598439,43.7703942 L76.0994341,43.7703942 C78.4024976,43.7703942 80.2691122,41.9083212 80.2691122,39.6108613 C82.5721756,39.6108613 84.4390244,37.7485547 84.4390244,35.4510949 L84.2999415,35.4510949 C86.6030049,35.4510949 88.6089366,33.5887883 88.6089366,31.2913285 Z" id="Fill-7" fill="#FF9811"></path>
        </g>
    </g>
</svg>