<?xml version="1.0" encoding="UTF-8"?>
<svg width="96px" height="96px" viewBox="0 0 96 96" version="1.1" xmlns="http://www.w3.org/2000/svg" xmlns:xlink="http://www.w3.org/1999/xlink">
    <title>zimbabwe</title>
    <desc>designed by Freepik from Flaticon</desc>
    <defs>
        <polygon id="path-1" points="0.0140487805 0.0934306569 0.0140487805 95.7668905 95.9068098 95.7668905 95.9068098 0.0934306569"></polygon>
    </defs>
    <g id="Page-1" stroke="none" stroke-width="1" fill="none" fill-rule="evenodd">
        <g id="zimbabwe">
            <g id="Group-3">
                <mask id="mask-2" fill="white">
                    <use xlink:href="#path-1"></use>
                </mask>
                <g id="Clip-2"></g>
                <path d="M95.9068098,47.9301606 C95.9068098,74.3488467 74.4365268,95.7668905 47.9534049,95.7668905 C21.4691122,95.7668905 0,74.3488467 0,47.9301606 C0,21.5103066 21.4691122,0.0934306569 47.9534049,0.0934306569 C74.4365268,0.0934306569 95.9068098,21.5103066 95.9068098,47.9301606 Z" id="Fill-1" fill="#F3F3F3" mask="url(#mask-2)"></path>
            </g>
            <path d="M91.3161366,27.4875328 C88.8805463,22.3544526 85.5549659,17.7230949 81.5386537,13.7905985 L47.9534049,10.4929635 L14.3669854,13.7905985 C14.2599805,13.8954745 14.1557854,14.0031533 14.0497171,14.1089635 L27.4609171,27.4875328 L47.9534049,28.1125839 L91.3161366,27.4875328 Z" id="Fill-4" fill="#FFDA44"></path>
            <path d="M14.0487805,81.7513577 C14.2253268,81.9274745 14.4018732,82.1033577 14.5802927,82.2769051 L47.9534049,85.3671241 L81.3255805,82.2769051 C85.3828683,78.3535182 88.748722,73.7221606 91.2192,68.5797372 L29.1886829,66.6480584 C23.8517854,71.9729051 17.6953756,78.1134015 14.0487805,81.7513577 Z" id="Fill-5" fill="#FFDA44"></path>
            <path d="M95.4291512,41.185635 L39.6138146,39.6108613 L47.9534049,47.9301606 L39.6138146,56.2494599 L95.4001171,54.8825693 C95.7319024,52.6126715 95.9068098,50.2913869 95.9068098,47.9301606 C95.9068098,45.6399416 95.7412683,43.3889635 95.4291512,41.185635 Z" id="Fill-6" fill="#000000"></path>
            <path d="M47.9534049,0.0934306569 C34.8732878,0.0934306569 23.0186927,5.31970803 14.3669854,13.7905985 L81.5386537,13.7905985 C72.8881171,5.31970803 61.033522,0.0934306569 47.9534049,0.0934306569 Z" id="Fill-7" fill="#6DA544"></path>
            <path d="M41.1924293,41.185635 L95.4291512,41.185635 C94.7452098,36.3498978 93.337522,31.7458686 91.3161366,27.4875328 L27.4609171,27.4875328 L41.1924293,41.185635 Z" id="Fill-8" fill="#D80027"></path>
            <path d="M27.2525268,68.5797372 L91.2192,68.5797372 C93.2632976,64.3251387 94.6939317,59.7211095 95.4001171,54.8825693 L40.9838049,54.8825693 L27.2525268,68.5797372 Z" id="Fill-9" fill="#D80027"></path>
            <path d="M47.9534049,95.7668905 C60.9255805,95.7668905 72.6933073,90.6254015 81.3255805,82.2769051 L14.5809951,82.2769051 C23.2135024,90.6254015 34.9802927,95.7668905 47.9534049,95.7668905 Z" id="Fill-10" fill="#6DA544"></path>
            <path d="M17.1238244,11.2922628 C16.0572878,12.1863942 15.0293854,13.1225693 14.0450341,14.104292 L47.9534049,47.9301606 L14.0450341,81.7557956 C15.0293854,82.7365839 16.0572878,83.6736934 17.1238244,84.5668905 L53.8499122,47.9301606 L17.1238244,11.2922628 Z" id="Fill-11" fill="#000000"></path>
            <polygon id="Fill-12" fill="#D80027" points="19.2796098 35.4510949 22.3848585 44.9838248 32.4330146 44.9838248 24.3036878 50.8753285 27.4089366 60.4092263 19.2796098 54.5167883 11.1502829 60.4092263 14.2555317 50.8753285 6.12620488 44.9838248 16.174361 44.9838248"></polygon>
            <path d="M27.8203317,48.7103066 L19.7287024,45.849927 C19.7287024,45.849927 19.1304585,40.2548321 19.0939317,40.0651679 C18.8195122,38.6225985 17.5480976,37.5303942 16.0216976,37.5303942 C14.2948683,37.5303942 12.894439,38.9274161 12.894439,40.6509781 C12.894439,40.9364088 12.9356488,41.2110949 13.008,41.4748029 L10.7395902,43.7531095 L14.7732293,43.7531095 C14.7732293,47.9301606 11.6487805,47.9301606 11.6487805,52.0896934 L13.3819317,56.2494599 L23.8070634,56.2494599 L25.5448976,52.0896934 L25.543961,52.0896934 C25.7176976,51.6900438 25.8237659,51.2787153 25.8668488,50.8671533 C27.3649171,50.2631241 27.8203317,48.7103066 27.8203317,48.7103066 Z" id="Fill-13" fill="#FFDA44"></path>
        </g>
    </g>
</svg>